<svg width="585" height="578" viewBox="0 0 585 578" fill="none" xmlns="http://www.w3.org/2000/svg">
<path d="M334.53 560.51C464.902 560.51 570.59 497.807 570.59 420.46C570.59 343.113 464.902 280.41 334.53 280.41C204.157 280.41 98.4697 343.113 98.4697 420.46C98.4697 497.807 204.157 560.51 334.53 560.51Z" fill="#F5F5F5"/>
<path d="M400.999 500.4C453.102 500.4 495.339 476.017 495.339 445.94C495.339 415.863 453.102 391.48 400.999 391.48C348.897 391.48 306.659 415.863 306.659 445.94C306.659 476.017 348.897 500.4 400.999 500.4Z" fill="#E0E0E0"/>
<path d="M260.08 474.27L236.24 460.51L216.8 471.73L220.04 462.38L200.61 466.12L223.28 453L150.86 411.22C150.609 411.136 150.391 410.976 150.237 410.761C150.082 410.547 149.999 410.289 149.999 410.025C149.999 409.761 150.082 409.503 150.237 409.289C150.391 409.074 150.609 408.914 150.86 408.83L321.86 310.47C322.503 310.145 323.214 309.975 323.935 309.975C324.655 309.975 325.366 310.145 326.01 310.47L435 373.3C435.25 373.384 435.468 373.544 435.623 373.759C435.777 373.973 435.86 374.231 435.86 374.495C435.86 374.759 435.777 375.017 435.623 375.231C435.468 375.446 435.25 375.606 435 375.69L264.22 474.27C263.578 474.595 262.869 474.764 262.15 474.764C261.43 474.764 260.721 474.595 260.08 474.27Z" fill="#E0E0E0"/>
<path d="M283.89 194.17V187.7C283.837 187.331 283.691 186.981 283.465 186.683C283.239 186.386 282.942 186.151 282.6 186L243.73 163.53C242.8 163.058 241.772 162.812 240.73 162.812C239.687 162.812 238.66 163.058 237.73 163.53L126 228.05C125.656 228.202 125.356 228.441 125.131 228.742C124.905 229.043 124.76 229.397 124.71 229.77V236.24C124.755 236.62 124.898 236.981 125.124 237.29C125.35 237.598 125.652 237.843 126 238L164.87 260.44C165.799 260.913 166.827 261.16 167.87 261.16C168.913 261.16 169.941 260.913 170.87 260.44L282.6 195.89C282.943 195.737 283.241 195.499 283.465 195.197C283.689 194.896 283.832 194.542 283.88 194.17H283.89Z" fill="#F0F0F0"/>
<path d="M126 231.5L164.87 253.94C165.799 254.413 166.827 254.66 167.87 254.66C168.912 254.66 169.94 254.413 170.87 253.94L282.6 189.42C284.25 188.42 284.25 186.92 282.6 185.97L243.73 163.53C242.8 163.058 241.772 162.812 240.73 162.812C239.687 162.812 238.659 163.058 237.73 163.53L126 228.05C124.36 229 124.36 230.54 126 231.5Z" fill="#FAFAFA"/>
<path d="M167.86 254.66V261.13C166.815 261.148 165.783 260.9 164.86 260.41L126 238C125.656 237.848 125.358 237.61 125.134 237.308C124.909 237.007 124.767 236.653 124.72 236.28V229.8C124.741 229.513 124.837 229.237 125 229C124.54 229.84 124.88 230.8 126 231.46L164.88 253.9C165.79 254.408 166.817 254.67 167.86 254.66Z" fill="#E0E0E0"/>
<path d="M229.311 112.41L262.131 131.49V194.31L229.311 175.24V112.41Z" fill="#E0E0E0"/>
<path d="M261.07 132.53L229.31 114.19C227.373 116.261 224.827 117.662 222.04 118.19L253.54 136.46C253.54 136.46 255.57 136 261.07 132.53Z" fill="white"/>
<path d="M250.491 136.34C251.436 136.818 252.481 137.067 253.541 137.067C254.6 137.067 255.645 136.818 256.591 136.34L261.941 133.25C263.631 132.25 263.631 130.7 261.941 129.73L230.631 111.65L229.311 112.41L260.101 130.3C260.322 130.375 260.514 130.518 260.65 130.708C260.786 130.898 260.859 131.126 260.859 131.36C260.859 131.594 260.786 131.822 260.65 132.012C260.514 132.202 260.322 132.345 260.101 132.42L255.101 135.25C254.532 135.538 253.903 135.688 253.266 135.688C252.628 135.688 251.999 135.538 251.431 135.25L220.681 117.39L219.181 118.26L250.491 136.34Z" fill="#FAFAFA"/>
<path d="M219.181 118.26V181.08L250.491 199.16C251.436 199.638 252.481 199.887 253.541 199.887C254.6 199.887 255.645 199.638 256.591 199.16L261.941 196.07C262.288 195.915 262.588 195.67 262.81 195.361C263.031 195.052 263.166 194.689 263.201 194.31V131.48C263.168 131.861 263.034 132.226 262.812 132.537C262.59 132.848 262.29 133.094 261.941 133.25L256.591 136.34C255.645 136.818 254.6 137.067 253.541 137.067C252.481 137.067 251.436 136.818 250.491 136.34L219.181 118.26Z" fill="#E0E0E0"/>
<path d="M253.54 137.07C254.602 137.092 255.653 136.841 256.59 136.34L261.94 133.25C262.289 133.094 262.59 132.848 262.811 132.537C263.033 132.226 263.167 131.861 263.2 131.48V194.31C263.165 194.689 263.03 195.052 262.809 195.361C262.588 195.67 262.288 195.915 261.94 196.07L256.59 199.16C255.651 199.656 254.602 199.907 253.54 199.89V137.07Z" fill="#EBEBEB"/>
<path d="M215.881 120.16L248.711 139.24V202.06L215.881 182.99V120.16Z" fill="#EBEBEB"/>
<path d="M247.65 140.28L215.88 121.94C213.945 124.009 211.403 125.41 208.62 125.94L240.12 144.2C240.12 144.2 242.15 143.72 247.65 140.28Z" fill="white"/>
<path d="M237.061 144.09C238.008 144.568 239.055 144.817 240.116 144.817C241.177 144.817 242.223 144.568 243.171 144.09L248.521 141C250.201 140 250.201 138.45 248.521 137.48L217.211 119.4L215.881 120.16L246.671 138.05C246.892 138.125 247.084 138.268 247.22 138.458C247.356 138.648 247.429 138.876 247.429 139.11C247.429 139.344 247.356 139.572 247.22 139.762C247.084 139.952 246.892 140.095 246.671 140.17L241.671 143C241.103 143.293 240.474 143.446 239.836 143.446C239.197 143.446 238.568 143.293 238.001 143L207.261 125.15L205.761 126.01L237.061 144.09Z" fill="#FAFAFA"/>
<path d="M205.761 126V188.83L237.061 206.9C238.008 207.378 239.055 207.627 240.116 207.627C241.177 207.627 242.223 207.378 243.171 206.9L248.521 203.81C248.869 203.656 249.169 203.412 249.391 203.102C249.613 202.792 249.747 202.429 249.781 202.05V139.24C249.746 139.619 249.611 139.982 249.39 140.291C249.168 140.6 248.868 140.845 248.521 141L243.171 144.09C242.225 144.573 241.178 144.825 240.116 144.825C239.054 144.825 238.007 144.573 237.061 144.09L205.761 126Z" fill="#EBEBEB"/>
<path d="M240.12 144.82C241.166 144.834 242.198 144.582 243.12 144.09L248.52 141C248.868 140.845 249.168 140.6 249.389 140.291C249.611 139.982 249.746 139.619 249.78 139.24V202.06C249.747 202.439 249.612 202.802 249.39 203.112C249.169 203.422 248.868 203.666 248.52 203.82L243.17 206.91C242.248 207.402 241.216 207.654 240.17 207.64L240.12 144.82Z" fill="#F0F0F0"/>
<path d="M204.971 160.74V163.93L209.821 166.4V162.97L204.971 160.74Z" fill="#E0E0E0"/>
<path d="M209.15 164.11L202.78 160.94L195.66 165.05L203.9 169.62L209.15 164.11Z" fill="white"/>
<path d="M199.45 170.71V197.34C199.477 197.875 199.632 198.396 199.902 198.859C200.171 199.321 200.548 199.713 201 200L226.43 214.68C226.814 214.882 227.237 215.002 227.67 215.03L203.9 171.17C203.47 171.143 203.05 171.024 202.67 170.82L200.96 169.82C200.12 169.35 199.45 169.74 199.45 170.71Z" fill="#EBEBEB"/>
<path d="M205.71 170.82L209.6 166.53L213.05 164.53C213.36 164.03 213.74 163.65 213.54 163.24L237.06 206.63V206.68C237.27 207.1 237.32 208.04 236.75 208.36L229.41 214.65C228.856 214.935 228.231 215.057 227.61 215L203.9 171.17C204.525 171.228 205.153 171.107 205.71 170.82Z" fill="#F0F0F0"/>
<path d="M213.051 162.78C213.891 163.27 213.681 163.78 213.051 164.53L205.711 170.82C205.246 171.055 204.732 171.177 204.211 171.177C203.69 171.177 203.176 171.055 202.711 170.82L196.261 167.09C195.421 166.61 195.261 165.91 195.931 165.53C196.364 165.348 196.834 165.27 197.303 165.303C197.772 165.336 198.227 165.479 198.631 165.72L203.721 168.72C203.876 168.796 204.047 168.836 204.221 168.836C204.394 168.836 204.565 168.796 204.721 168.72L209.321 164C209.38 163.978 209.43 163.938 209.466 163.886C209.502 163.834 209.521 163.773 209.521 163.71C209.521 163.647 209.502 163.586 209.466 163.534C209.43 163.482 209.38 163.442 209.321 163.42L204.161 160.77C203.321 160.28 203.161 159.58 203.831 159.21C204.264 159.028 204.734 158.95 205.203 158.983C205.672 159.016 206.127 159.159 206.531 159.4L213.051 162.78Z" fill="#FAFAFA"/>
<path d="M167.101 135.52L203.981 156.95V227.52L167.101 206.1V135.52Z" fill="#E0E0E0"/>
<path d="M202.79 158.12L167.1 137.52C164.927 139.845 162.068 141.414 158.94 142L194.33 162.51C194.33 162.51 196.61 162 202.79 158.12Z" fill="white"/>
<path d="M190.9 162.4C191.964 162.938 193.139 163.218 194.33 163.218C195.522 163.218 196.697 162.938 197.76 162.4L203.76 158.93C205.66 157.84 205.66 156.07 203.76 154.93L168.59 134.67L167.1 135.52L201.69 155.62C201.939 155.703 202.155 155.863 202.307 156.075C202.46 156.288 202.543 156.543 202.543 156.805C202.543 157.067 202.46 157.322 202.307 157.535C202.155 157.747 201.939 157.907 201.69 157.99L196.11 161.18C195.473 161.506 194.767 161.676 194.05 161.676C193.334 161.676 192.628 161.506 191.99 161.18L157.41 141.12L155.73 142.12L190.9 162.4Z" fill="#FAFAFA"/>
<path d="M155.73 142.09V212.66L190.9 233C191.964 233.538 193.139 233.818 194.33 233.818C195.522 233.818 196.697 233.538 197.76 233L203.76 229.53C204.153 229.353 204.49 229.074 204.738 228.722C204.986 228.371 205.135 227.959 205.17 227.53V157C205.135 157.429 204.986 157.841 204.738 158.192C204.49 158.544 204.153 158.823 203.76 159L197.76 162.48C196.697 163.018 195.522 163.298 194.33 163.298C193.139 163.298 191.964 163.018 190.9 162.48L155.73 142.09Z" fill="#E0E0E0"/>
<path d="M194.33 163.22C195.523 163.243 196.703 162.964 197.76 162.41L203.76 158.93C204.152 158.753 204.49 158.474 204.738 158.122C204.986 157.771 205.135 157.359 205.17 156.93V227.5C205.135 227.929 204.986 228.341 204.738 228.692C204.49 229.044 204.152 229.323 203.76 229.5L197.76 232.97C196.704 233.528 195.524 233.81 194.33 233.79V163.22Z" fill="#EBEBEB"/>
<path d="M152.03 144.23L188.9 165.66V236.23L152.03 214.81V144.23Z" fill="#EBEBEB"/>
<path d="M187.711 166.83L152.001 146.23C149.831 148.556 146.976 150.129 143.851 150.72L179.251 171.23C179.251 171.23 181.531 170.7 187.711 166.83Z" fill="white"/>
<path d="M175.82 171.11C176.884 171.648 178.059 171.928 179.25 171.928C180.442 171.928 181.617 171.648 182.68 171.11L188.68 167.64C190.58 166.55 190.58 164.78 188.68 163.64L153.52 143.38L152.02 144.23L186.61 164.33C186.859 164.413 187.074 164.573 187.227 164.785C187.38 164.998 187.463 165.253 187.463 165.515C187.463 165.777 187.38 166.032 187.227 166.245C187.074 166.457 186.859 166.617 186.61 166.7L181 169.89C180.362 170.213 179.656 170.382 178.94 170.382C178.225 170.382 177.519 170.213 176.88 169.89L142.34 149.83L140.65 150.83L175.82 171.11Z" fill="#FAFAFA"/>
<path d="M140.65 150.8V221.37L175.82 241.68C176.884 242.218 178.059 242.498 179.25 242.498C180.442 242.498 181.617 242.218 182.68 241.68L188.68 238.21C189.073 238.033 189.41 237.754 189.658 237.402C189.906 237.051 190.055 236.639 190.09 236.21V165.66C190.055 166.089 189.906 166.501 189.658 166.852C189.41 167.204 189.073 167.483 188.68 167.66L182.68 171.13C181.618 171.673 180.443 171.955 179.25 171.955C178.058 171.955 176.882 171.673 175.82 171.13L140.65 150.8Z" fill="#EBEBEB"/>
<path d="M179.25 171.93C180.445 171.954 181.625 171.672 182.68 171.11L188.68 167.64C189.072 167.463 189.41 167.184 189.658 166.832C189.906 166.481 190.055 166.069 190.09 165.64V236.21C190.055 236.639 189.906 237.051 189.658 237.402C189.41 237.754 189.072 238.033 188.68 238.21L182.68 241.68C181.624 242.237 180.444 242.52 179.25 242.5V171.93Z" fill="#F0F0F0"/>
<path d="M169.78 414.81L172.31 413.35L170.48 412.53C170.48 412.53 169 412.91 169 413C169.01 413.335 169.043 413.669 169.1 414L169.78 414.81Z" fill="#29A154"/>
<path opacity="0.5" d="M169.78 414.81L172.31 413.35L170.48 412.53C170.48 412.53 169 412.91 169 413C169.01 413.335 169.043 413.669 169.1 414L169.78 414.81Z" fill="black"/>
<path d="M266.171 463.37C265.024 463.952 263.756 464.255 262.471 464.255C261.185 464.255 259.917 463.952 258.771 463.37L175.681 415.37L300.051 343.56L302.961 341.88L386.041 389.88C388.041 391.06 388.041 392.98 386.041 394.15L266.171 463.37Z" fill="#29A154"/>
<path d="M235.001 372.75L206.001 389.43L187.241 378.6L165.421 391.21V406.93C165.421 408.84 167.561 411.55 168.341 411.11C169.778 411.458 171.176 411.954 172.511 412.59C174.68 413.83 176.695 415.324 178.511 417.04L245.081 378.61L235.001 372.75Z" fill="#29A154"/>
<path opacity="0.15" d="M235.001 372.75L206.001 389.43L187.241 378.6L165.421 391.21V406.93C165.421 408.84 167.561 411.55 168.341 411.11C169.778 411.458 171.176 411.954 172.511 412.59C174.68 413.83 176.695 415.324 178.511 417.04L245.081 378.61L235.001 372.75Z" fill="black"/>
<path opacity="0.4" d="M165.421 406.93C165.421 408.72 167.291 411.21 168.171 411.15H168.251H168.341C168.401 411.15 170.981 409.51 171.261 409.47L173.771 401.18C173.771 401.18 173.621 391.49 173.771 391.49C173.289 390.094 172.732 388.725 172.101 387.39L165.421 391.25V406.93Z" fill="black"/>
<path d="M258.761 463.37L253.761 460.46L178.531 417C178.476 416.02 178.128 415.079 177.531 414.3C176.637 413.128 175.518 412.145 174.241 411.41C173.169 410.749 171.948 410.367 170.691 410.3C169.847 410.291 169.024 410.562 168.351 411.07C167.399 409.153 166.935 407.03 167.001 404.89H164.101C164.101 408.82 165.401 412.76 166.991 413.67L168.431 414.51C169.241 414.98 169.891 415.01 169.891 414.57V413.8C169.891 412.95 171.181 412.99 172.791 413.92C174.401 414.85 175.681 416.28 175.681 417.14V417.9C175.681 418.35 176.791 419.33 178.151 420.11L250.891 462.11L258.761 466.65C259.899 467.242 261.167 467.541 262.451 467.52V464.23C261.167 464.263 259.897 463.967 258.761 463.37Z" fill="#29A154"/>
<path opacity="0.3" d="M258.761 463.37L253.761 460.46L178.531 417C178.476 416.02 178.128 415.079 177.531 414.3C176.637 413.128 175.518 412.145 174.241 411.41C173.169 410.749 171.948 410.367 170.691 410.3C169.847 410.291 169.024 410.562 168.351 411.07C167.399 409.153 166.935 407.03 167.001 404.89H164.101C164.101 408.82 165.401 412.76 166.991 413.67L168.431 414.51C169.241 414.98 169.891 415.01 169.891 414.57V413.8C169.891 412.95 171.181 412.99 172.791 413.92C174.401 414.85 175.681 416.28 175.681 417.14V417.9C175.681 418.35 176.791 419.33 178.151 420.11L250.891 462.11L258.761 466.65C259.899 467.242 261.167 467.541 262.451 467.52V464.23C261.167 464.263 259.897 463.967 258.761 463.37Z" fill="black"/>
<path d="M387.56 392V395.34C387.526 395.79 387.373 396.222 387.116 396.593C386.86 396.964 386.509 397.26 386.1 397.45H386.04L274 462.12L266.14 466.66C265.001 467.251 263.733 467.55 262.45 467.53V464.24C263.739 464.271 265.013 463.968 266.15 463.36L271.15 460.47L386 394.15C386.435 393.972 386.811 393.677 387.086 393.297C387.362 392.917 387.526 392.468 387.56 392Z" fill="#29A154"/>
<path opacity="0.2" d="M387.56 392V395.34C387.526 395.79 387.373 396.222 387.116 396.593C386.86 396.964 386.509 397.26 386.1 397.45H386.04L274 462.12L266.14 466.66C265.001 467.251 263.733 467.55 262.45 467.53V464.24C263.739 464.271 265.013 463.968 266.15 463.36L271.15 460.47L386 394.15C386.435 393.972 386.811 393.677 387.086 393.297C387.362 392.917 387.526 392.468 387.56 392Z" fill="black"/>
<path d="M262.471 442.08V461.28C261.61 461.302 260.758 461.099 260.001 460.69L250.891 455.44L181.471 415.35V395.3L262.471 442.08Z" fill="#EBEBEB"/>
<path opacity="0.15" d="M220.101 428.77L239.541 440C239.541 440 237.541 437.9 229.821 433.5C222.341 429.23 220.101 428.77 220.101 428.77Z" fill="black"/>
<path d="M384 374.33V389.12C383.953 389.975 383.706 390.806 383.279 391.548C382.851 392.289 382.256 392.92 381.54 393.39L274 455.44L264.9 460.69C264.146 461.098 263.298 461.301 262.44 461.28V444.11L384 374.33Z" fill="#F5F5F5"/>
<path d="M177.401 393V410C177.315 409.939 177.225 409.886 177.131 409.84C176.066 409.169 174.847 408.784 173.591 408.72C172.75 408.71 171.93 408.981 171.261 409.49V389.49L177.401 393Z" fill="#37474F"/>
<path d="M181.46 415.36C181.409 414.379 181.061 413.437 180.46 412.66C180.159 412.243 179.825 411.852 179.46 411.49L179.11 411.16L178.66 410.77L178.28 410.49C178.018 410.29 177.745 410.106 177.46 409.94V393L181.46 395.35V415.36Z" fill="#E0E0E0"/>
<path d="M300.05 320.15L175.68 392V393.66C175.68 394.59 174.39 394.93 172.79 394.01C171.19 393.09 169.89 391.93 169.89 390.33L169.73 388.75L296.45 315.6L296.96 315.3C297.096 315.535 297.171 315.799 297.18 316.07V316.84C297.18 317.73 298.46 319.21 300.05 320.15Z" fill="#29A154"/>
<path opacity="0.1" d="M300.05 320.15L175.68 392V393.66C175.68 394.59 174.39 394.93 172.79 394.01C171.19 393.09 169.89 391.93 169.89 390.33L169.73 388.75L296.45 315.6L296.96 315.3C297.096 315.535 297.171 315.799 297.18 316.07V316.84C297.18 317.73 298.46 319.21 300.05 320.15Z" fill="black"/>
<path d="M258.77 439.94L177.52 393C176.52 392.46 175.52 392 175.15 392.23L175.68 391.94L300.05 320.12L301.51 319.29C302.31 318.82 304.06 319.08 305.43 319.87L386 366.44C388 367.63 388 369.55 386 370.72L266.17 439.94C265.024 440.522 263.756 440.825 262.47 440.825C261.185 440.825 259.917 440.522 258.77 439.94Z" fill="#29A154"/>
<path d="M297 315.27L296.49 315.57L169.73 388.72C169.666 388.588 169.574 388.472 169.46 388.38L169.03 388.14L168.12 387.61L167 387C166.783 386.854 166.523 386.788 166.262 386.812C166.002 386.835 165.758 386.948 165.57 387.13C165.511 387.162 165.46 387.206 165.42 387.26C165.27 387.419 165.142 387.597 165.04 387.79C164.905 388.014 164.794 388.252 164.71 388.5C164.61 388.76 164.53 389.04 164.45 389.33C164.37 389.62 164.33 389.95 164.27 390.33C164.232 390.525 164.208 390.722 164.2 390.92C164.2 391.07 164.2 391.22 164.2 391.39C164.2 391.74 164.15 392.11 164.15 392.5V388.94C164.15 386.94 165.82 384.42 167.86 383.24L287.74 314.02C289.79 312.84 292.74 312.64 294.34 313.55L295.85 314.43C295.95 314.5 296.21 314.64 296.49 314.8C296.703 314.903 296.88 315.067 297 315.27Z" fill="#29A154"/>
<path d="M258.79 440L253.79 437.09L196 403.69L177.52 393C176.21 392.23 175.14 392 175.07 392.35C175.066 392.366 175.066 392.384 175.07 392.4V393.24C175.07 394.16 173.77 394.16 172.17 393.24C170.57 392.32 169.92 391.24 169.9 390.33V389.42C169.915 389.219 169.884 389.018 169.81 388.831C169.735 388.643 169.619 388.476 169.47 388.34L169.04 388.1L168.13 387.57L167 387C166.783 386.854 166.523 386.788 166.262 386.812C166.002 386.835 165.758 386.948 165.57 387.13C165.511 387.162 165.46 387.206 165.42 387.26C165.321 387.36 165.236 387.475 165.17 387.6C165.118 387.657 165.074 387.721 165.04 387.79C164.905 388.014 164.794 388.252 164.71 388.5C164.61 388.76 164.53 389.04 164.45 389.33C164.37 389.62 164.33 389.95 164.27 390.33C164.232 390.525 164.208 390.722 164.2 390.92C164.2 391.07 164.2 391.22 164.2 391.39C164.2 391.74 164.15 392.11 164.15 392.5V404.98H167V392.41C167 392.11 167 391.81 167 391.53L167.07 390.81C167.063 390.787 167.063 390.763 167.07 390.74C167.32 393.01 169.49 395.03 171.37 396.1C172.414 396.754 173.61 397.126 174.84 397.18C175.777 397.19 176.684 396.855 177.39 396.24L177.65 396.38L178.15 396.68L250.89 438.68L258.76 443.22C258.76 443.22 258.76 443.22 258.81 443.22C259.937 443.794 261.187 444.082 262.45 444.06V440.77C261.185 440.822 259.927 440.557 258.79 440Z" fill="#29A154"/>
<path opacity="0.3" d="M258.79 440L253.79 437.09L196 403.69L177.52 393C176.21 392.23 175.14 392 175.07 392.35C175.066 392.366 175.066 392.384 175.07 392.4V393.24C175.07 394.16 173.77 394.16 172.17 393.24C170.57 392.32 169.92 391.24 169.9 390.33V389.42C169.915 389.219 169.884 389.018 169.81 388.831C169.735 388.643 169.619 388.476 169.47 388.34L169.04 388.1L168.13 387.57L167 387C166.783 386.854 166.523 386.788 166.262 386.812C166.002 386.835 165.758 386.948 165.57 387.13C165.511 387.162 165.46 387.206 165.42 387.26C165.321 387.36 165.236 387.475 165.17 387.6C165.118 387.657 165.074 387.721 165.04 387.79C164.905 388.014 164.794 388.252 164.71 388.5C164.61 388.76 164.53 389.04 164.45 389.33C164.37 389.62 164.33 389.95 164.27 390.33C164.232 390.525 164.208 390.722 164.2 390.92C164.2 391.07 164.2 391.22 164.2 391.39C164.2 391.74 164.15 392.11 164.15 392.5V404.98H167V392.41C167 392.11 167 391.81 167 391.53L167.07 390.81C167.063 390.787 167.063 390.763 167.07 390.74C167.32 393.01 169.49 395.03 171.37 396.1C172.414 396.754 173.61 397.126 174.84 397.18C175.777 397.19 176.684 396.855 177.39 396.24L177.65 396.38L178.15 396.68L250.89 438.68L258.76 443.22C258.76 443.22 258.76 443.22 258.81 443.22C259.937 443.794 261.187 444.082 262.45 444.06V440.77C261.185 440.822 259.927 440.557 258.79 440Z" fill="black"/>
<path opacity="0.1" d="M305.431 319.9C304.061 319.11 302.311 318.85 301.511 319.32L300.061 320.15C298.461 319.21 297.181 317.73 297.181 316.81V316C297.171 315.729 297.096 315.465 296.961 315.23C296.863 315.02 296.707 314.843 296.511 314.72C296.231 314.56 295.971 314.42 295.871 314.35L294.361 313.47C292.761 312.56 289.811 312.76 287.761 313.94L167.811 383.15L167.681 383.24L252.381 432.14C253.145 432.527 253.989 432.729 254.846 432.729C255.702 432.729 256.547 432.527 257.311 432.14L378.001 361.79L305.431 319.9Z" fill="black"/>
<path d="M387.56 368.54V371.89C387.524 372.339 387.37 372.771 387.114 373.141C386.857 373.512 386.508 373.808 386.1 374H386.04L274 438.69L266.14 443.23C265 443.817 263.732 444.113 262.45 444.09V440.8C263.739 440.831 265.013 440.528 266.15 439.92L271.15 437.03L386 370.72C386.44 370.541 386.819 370.242 387.096 369.856C387.372 369.47 387.533 369.014 387.56 368.54Z" fill="#29A154"/>
<path opacity="0.2" d="M387.56 368.54V371.89C387.524 372.339 387.37 372.771 387.114 373.141C386.857 373.512 386.508 373.808 386.1 374H386.04L274 438.69L266.14 443.23C265 443.817 263.732 444.113 262.45 444.09V440.8C263.739 440.831 265.013 440.528 266.15 439.92L271.15 437.03L386 370.72C386.44 370.541 386.819 370.242 387.096 369.856C387.372 369.47 387.533 369.014 387.56 368.54Z" fill="black"/>
<path d="M245.6 425.08L248.81 423.23C247.946 422.932 247.018 422.866 246.12 423.04C245.27 423.44 245.6 425.08 245.6 425.08Z" fill="black"/>
<path d="M243.4 423.06C243.763 422.664 244.204 422.347 244.695 422.131C245.187 421.915 245.718 421.803 246.255 421.803C246.792 421.803 247.323 421.915 247.815 422.131C248.306 422.347 248.747 422.664 249.11 423.06C252.23 425.92 252.39 428.76 253.68 428.71C254.97 428.66 255 405.85 255 405.85L242.71 417.28L243.4 423.06Z" fill="black"/>
<path d="M372.191 340.08L372.391 339.97L370.391 338.83L285.581 289.83L162.001 369.84C160.001 371.02 159.591 372.72 161.191 373.64L164.081 375.3L243.361 421.09L243.921 420.69L372.191 340.08Z" fill="#455A64"/>
<path d="M254 395.05L247.86 393.78V418.37C251.56 419.94 253.92 421.42 254.31 424.52L254 395.05Z" fill="#29A154"/>
<path d="M245.101 418.69L166.571 373.35C165.852 372.881 165.254 372.248 164.825 371.505C164.396 370.761 164.148 369.927 164.101 369.07V344.84L243.401 391C243.401 391 244.341 394.43 247.151 395.51C249.961 396.59 247.821 397.68 247.821 397.68V418.35C245.391 418.08 245.101 418.69 245.101 418.69Z" fill="#EBEBEB"/>
<path d="M252.351 394.21C251.531 393.74 250.891 393.71 250.891 394.15V394.92C250.891 395.77 249.601 395.73 247.991 394.8C246.381 393.87 245.081 392.44 245.081 391.59V390.82C245.081 390.37 243.991 389.39 242.631 388.61L370.411 315.4L372.411 316.54C372.679 316.834 372.847 317.205 372.891 317.6V318.37C372.891 319.23 374.191 320.66 375.791 321.59C377.391 322.52 378.691 322.59 378.691 321.7V320.94C378.691 320.49 379.331 320.52 380.141 320.99L252.351 394.21Z" fill="#37474F"/>
<path d="M372.191 316.66L372.391 316.54L370.391 315.4L285.581 266.4L162.001 337.8C160.001 338.98 159.591 340.68 161.191 341.6L164.081 343.27L243.401 391L372.191 316.66Z" fill="#455A64"/>
<path d="M378.7 320.19L251 393.9L255.47 397.4L382.73 323.92C382.418 322.976 381.825 322.149 381.03 321.55L378.7 320.19Z" fill="#455A64"/>
<path d="M382.25 356.93C382.333 356.886 382.41 356.832 382.48 356.77C382.539 356.738 382.591 356.694 382.63 356.64C382.73 356.54 382.814 356.425 382.88 356.3C382.932 356.243 382.976 356.179 383.01 356.11C383.146 355.886 383.257 355.648 383.34 355.4C383.44 355.14 383.52 354.86 383.6 354.57C383.68 354.28 383.72 353.95 383.78 353.57C383.819 353.376 383.842 353.178 383.85 352.98C383.85 352.83 383.85 352.68 383.85 352.51C383.85 352.16 383.9 351.79 383.9 351.4V330.35C383.915 328.151 383.511 325.969 382.71 323.92L255.49 397.4L254.95 430.4L382.21 357L382.25 356.93Z" fill="#455A64"/>
<path opacity="0.1" d="M255.49 397.4C255.49 397.4 355.72 350.49 364.84 346.19C370.84 343.35 373.84 349.31 372.39 355.48C371.14 360.87 365.83 366.42 365.83 366.42L382.21 357C382.293 356.956 382.37 356.902 382.44 356.84C382.499 356.808 382.551 356.764 382.59 356.71C382.69 356.61 382.774 356.495 382.84 356.37C382.892 356.313 382.936 356.249 382.97 356.18C383.106 355.956 383.217 355.718 383.3 355.47C383.4 355.21 383.48 354.93 383.56 354.64C383.64 354.35 383.68 354.02 383.74 353.64C383.779 353.446 383.802 353.248 383.81 353.05C383.81 352.9 383.81 352.75 383.81 352.58C383.81 352.23 383.86 351.86 383.86 351.47V330.35C383.875 328.151 383.471 325.969 382.67 323.92L255.49 397.4Z" fill="black"/>
<path d="M256.67 403.83H253.82C253.883 401.674 253.409 399.537 252.44 397.61C251.767 398.118 250.944 398.389 250.1 398.38C248.846 398.315 247.628 397.933 246.56 397.27C245.279 396.54 244.159 395.557 243.27 394.38C243.209 394.297 243.152 394.21 243.1 394.12C242.589 393.404 242.291 392.558 242.24 391.68L167 348.26L164.45 346.77L161.19 344.89C160.907 344.76 160.664 344.556 160.488 344.299C160.312 344.041 160.209 343.741 160.19 343.43V340.09C160.205 340.409 160.305 340.718 160.481 340.984C160.657 341.25 160.903 341.463 161.19 341.6L169.83 346.6L242.57 388.6C243.92 389.38 245.03 390.36 245.03 390.8V391.57C245.097 392.085 245.332 392.564 245.7 392.93C246.344 393.691 247.124 394.325 248 394.8C249.61 395.73 250.91 395.8 250.91 394.92V394.15C250.91 393.71 251.55 393.73 252.36 394.2L253.8 395.04C255.37 396 256.67 399.9 256.67 403.83Z" fill="#37474F"/>
<path d="M253.82 403.83V424.93C253.82 425.23 253.82 425.52 253.82 425.81L253.75 426.52C253.755 426.543 253.755 426.567 253.75 426.59C253.49 424.33 251.33 422.31 249.45 421.24C248.404 420.582 247.205 420.207 245.97 420.15C245.034 420.142 244.127 420.476 243.42 421.09L243.16 420.95L242.67 420.65L169.93 378.65L165.75 376.24C165.37 376.02 164.95 375.79 164.56 375.55L161.04 373.55C160.805 373.405 160.61 373.204 160.473 372.965C160.335 372.725 160.258 372.456 160.25 372.18V375.51C160.261 375.767 160.333 376.019 160.46 376.243C160.587 376.467 160.765 376.658 160.98 376.8C161.39 377.05 161.83 377.29 162.28 377.56L163.09 378.03L164.48 378.84C164.8 379.03 165.08 379.2 165.35 379.34L165.96 379.7L167.03 380.32L224.82 413.67L243.26 424.32C244.57 425.09 245.64 425.32 245.71 424.96C245.71 424.9 245.71 424.84 245.71 424.82V424.08C245.71 423.15 247 423.15 248.6 424.08C250.2 425.01 250.85 426.08 250.88 426.98V427.89C250.864 428.092 250.893 428.294 250.966 428.483C251.039 428.672 251.153 428.841 251.3 428.98L251.73 429.22C251.99 429.36 252.3 429.55 252.64 429.75L253.77 430.4C253.989 430.545 254.251 430.61 254.513 430.587C254.774 430.563 255.02 430.452 255.21 430.27C255.263 430.239 255.311 430.198 255.35 430.15C255.45 430.044 255.537 429.926 255.61 429.8C255.656 429.748 255.696 429.691 255.73 429.63C255.866 429.406 255.977 429.168 256.06 428.92C256.163 428.649 256.25 428.372 256.32 428.09C256.39 427.78 256.45 427.46 256.5 427.09C256.544 426.9 256.568 426.705 256.57 426.51C256.57 426.35 256.57 426.21 256.57 426.04C256.57 425.68 256.57 425.31 256.57 424.93V403.83H253.82Z" fill="#37474F"/>
<path opacity="0.1" d="M382.75 323.91L261.8 393.75L170.37 341C169 340.22 169 338.94 170.37 338.15L290.06 269L370.4 315.4L372.4 316.55C372.658 316.827 372.825 317.176 372.88 317.55V318.32C372.88 319.18 374.18 320.62 375.77 321.54C375.853 321.591 375.94 321.635 376.03 321.67L378.69 320.13L379.96 320.86L380.13 320.94L381.07 321.48C381.862 322.102 382.448 322.949 382.75 323.91Z" fill="black"/>
<path d="M177.18 341.49L180.82 339.55L177.5 338.75C177.186 339.126 176.989 339.586 176.932 340.072C176.875 340.559 176.961 341.052 177.18 341.49Z" fill="#29A154"/>
<path opacity="0.5" d="M177.18 341.49L180.82 339.55L177.5 338.75C177.186 339.126 176.989 339.586 176.932 340.072C176.875 340.559 176.961 341.052 177.18 341.49Z" fill="black"/>
<path d="M273.581 390C272.434 390.582 271.166 390.885 269.881 390.885C268.595 390.885 267.327 390.582 266.181 390L183.101 342L307.471 271.35L310.381 269.67L393.461 316.48C395.461 317.66 395.461 319.58 393.461 320.75L273.581 390Z" fill="#29A154"/>
<path d="M242.391 300.59L213.391 317.27L194.641 306.44L172.841 319V333.6C172.841 335.51 174.981 338.22 175.751 337.78C177.188 338.128 178.586 338.624 179.921 339.26C182.091 340.499 184.105 341.993 185.921 343.71L252.491 306.44L242.391 300.59Z" fill="#29A154"/>
<path opacity="0.15" d="M242.391 300.59L213.391 317.27L194.641 306.44L172.841 319V333.6C172.841 335.51 174.981 338.22 175.751 337.78C177.188 338.128 178.586 338.624 179.921 339.26C182.091 340.499 184.105 341.993 185.921 343.71L252.491 306.44L242.391 300.59Z" fill="black"/>
<path d="M184.81 320.79V336.6C184.73 336.542 184.647 336.488 184.56 336.44C183.485 335.777 182.261 335.395 181 335.33C180.181 335.246 179.357 335.44 178.66 335.88V317.25L184.81 320.79Z" fill="#37474F"/>
<path d="M188.891 342C188.829 341.021 188.482 340.082 187.891 339.3C187.59 338.883 187.256 338.492 186.891 338.13L186.541 337.8L186.081 337.41L185.701 337.13C185.437 336.933 185.163 336.749 184.881 336.58V320.87L188.941 323.22V323.14L188.891 342Z" fill="#E0E0E0"/>
<path opacity="0.4" d="M172.84 333.6C172.84 335.51 174.98 338.22 175.75 337.78L178.66 335.88V323.88L175.74 318.88L174.15 318.32L172.83 319.08L172.84 333.6Z" fill="black"/>
<path d="M269.881 369.91V387.91C269.024 387.934 268.176 387.734 267.421 387.33L258.301 382.07L188.881 342V323.14L269.881 369.91Z" fill="#EBEBEB"/>
<path opacity="0.15" d="M194.131 335.22L213.561 346.44C213.561 346.44 211.561 344.34 203.851 339.95C196.361 335.68 194.131 335.22 194.131 335.22Z" fill="black"/>
<path d="M391.381 302.17V315.79C391.334 316.646 391.086 317.479 390.657 318.22C390.227 318.962 389.629 319.593 388.911 320.06L281.451 382.06L272.351 387.32C271.592 387.726 270.741 387.926 269.881 387.9V372L391.381 302.17Z" fill="#F5F5F5"/>
<path d="M307.47 248L183.1 319.8V321.47C183.1 322.4 181.8 322.74 180.21 321.81C178.62 320.88 177.3 319.73 177.3 318.14L177.15 316.56L303.87 243.4L304.38 243.1C304.51 243.337 304.582 243.6 304.59 243.87V244.64C304.59 245.57 305.88 247.05 307.47 248Z" fill="#29A154"/>
<path opacity="0.1" d="M307.47 248L183.1 319.8V321.47C183.1 322.4 181.8 322.74 180.21 321.81C178.62 320.88 177.3 319.73 177.3 318.14L177.15 316.56L303.87 243.4L304.38 243.1C304.51 243.337 304.582 243.6 304.59 243.87V244.64C304.59 245.57 305.88 247.05 307.47 248Z" fill="black"/>
<path d="M266.18 367.77L184.94 320.87C183.94 320.33 182.94 319.87 182.57 320.1L183.1 319.8L307.47 248L308.92 247.16C309.73 246.7 311.48 246.96 312.84 247.74L393.46 294.29C395.46 295.47 395.46 297.39 393.46 298.56L273.58 367.77C272.434 368.352 271.166 368.655 269.88 368.655C268.595 368.655 267.327 368.352 266.18 367.77Z" fill="#29A154"/>
<path d="M310.941 268L355.861 294C357.761 295.1 357.761 296.89 355.861 298L349.811 301.49C348.74 302.032 347.556 302.315 346.356 302.315C345.155 302.315 343.972 302.032 342.901 301.49L298.001 275.51C296.091 274.41 296.091 272.62 298.001 271.51L304.001 268.02C305.074 267.468 306.262 267.179 307.468 267.175C308.675 267.172 309.865 267.454 310.941 268Z" fill="white"/>
<path d="M263.11 359.44C262.971 359.443 262.833 359.408 262.71 359.34L201.71 324.21C201.588 324.14 201.486 324.039 201.415 323.917C201.344 323.795 201.307 323.656 201.307 323.515C201.307 323.374 201.344 323.235 201.415 323.113C201.486 322.991 201.588 322.89 201.71 322.82C202.275 322.492 202.744 322.021 203.069 321.456C203.395 320.89 203.566 320.248 203.566 319.595C203.566 318.942 203.395 318.301 203.069 317.735C202.744 317.169 202.275 316.698 201.71 316.37C201.588 316.302 201.486 316.202 201.416 316.08C201.345 315.959 201.309 315.82 201.31 315.68C201.31 315.54 201.347 315.402 201.417 315.281C201.487 315.16 201.589 315.059 201.71 314.99L303.59 256.17C303.712 256.101 303.85 256.064 303.99 256.064C304.131 256.064 304.269 256.101 304.39 256.17C306.331 257.288 308.531 257.877 310.77 257.877C313.01 257.877 315.21 257.288 317.15 256.17C317.272 256.101 317.41 256.064 317.55 256.064C317.691 256.064 317.828 256.101 317.95 256.17L378.88 291.35C379 291.422 379.1 291.522 379.17 291.643C379.24 291.764 379.278 291.901 379.28 292.04C379.28 292.18 379.243 292.317 379.173 292.439C379.102 292.56 379.002 292.66 378.88 292.73C378.316 293.058 377.847 293.529 377.522 294.095C377.196 294.661 377.025 295.302 377.025 295.955C377.025 296.608 377.196 297.25 377.522 297.816C377.847 298.381 378.316 298.852 378.88 299.18C379.002 299.25 379.102 299.351 379.173 299.472C379.243 299.593 379.28 299.73 379.28 299.87C379.278 300.01 379.24 300.146 379.17 300.267C379.1 300.388 379 300.489 378.88 300.56L277.05 359.33C276.929 359.399 276.791 359.436 276.65 359.436C276.51 359.436 276.372 359.399 276.25 359.33C274.313 358.215 272.116 357.628 269.88 357.628C267.645 357.628 265.448 358.215 263.51 359.33C263.389 359.4 263.251 359.438 263.11 359.44ZM203.51 323.44L263.12 357.75C265.201 356.642 267.523 356.062 269.88 356.062C272.238 356.062 274.56 356.642 276.64 357.75L377 299.78C376.488 299.283 376.081 298.689 375.804 298.032C375.526 297.375 375.382 296.669 375.382 295.955C375.382 295.242 375.526 294.536 375.804 293.879C376.081 293.221 376.488 292.627 377 292.13L317.5 257.78C315.414 258.889 313.088 259.468 310.725 259.468C308.363 259.468 306.037 258.889 303.95 257.78L203.51 315.78C204.022 316.277 204.429 316.871 204.707 317.529C204.985 318.186 205.129 318.892 205.129 319.605C205.129 320.319 204.985 321.025 204.707 321.682C204.429 322.339 204.022 322.933 203.51 323.43V323.44Z" fill="white"/>
<path d="M304.38 243.1L303.87 243.4L177.15 316.56C177.085 316.424 176.989 316.304 176.87 316.21L176.45 315.97L175.54 315.44C175.19 315.25 174.81 315.02 174.41 314.79C174.191 314.645 173.929 314.58 173.668 314.603C173.406 314.627 173.16 314.739 172.97 314.92C172.915 314.952 172.867 314.997 172.83 315.05C172.68 315.205 172.552 315.38 172.45 315.57C172.313 315.796 172.202 316.038 172.12 316.29C172.016 316.557 171.929 316.831 171.86 317.11C171.79 317.42 171.73 317.74 171.68 318.11C171.637 318.3 171.613 318.495 171.61 318.69C171.61 318.85 171.61 318.99 171.61 319.16C171.61 319.52 171.61 319.89 171.61 320.27V316.71C171.61 314.71 173.28 312.2 175.31 311.02L295.2 241.79C297.2 240.61 300.2 240.41 301.79 241.32L303.3 242.21H303.36C303.46 242.28 303.72 242.42 304 242.58C304.172 242.716 304.303 242.896 304.38 243.1Z" fill="#29A154"/>
<path d="M266.181 390L261.181 387.09L186.001 343.7C185.945 342.723 185.596 341.786 185.001 341.01C184.112 339.833 182.992 338.85 181.711 338.12C180.62 337.442 179.373 337.056 178.091 337C177.247 336.99 176.423 337.261 175.751 337.77C174.782 335.843 174.307 333.706 174.371 331.55H171.521C171.521 335.48 172.821 339.42 174.411 340.33L175.851 341.17C176.661 341.64 177.301 341.67 177.301 341.23V340.46C177.301 339.61 178.601 339.65 180.211 340.58C181.821 341.51 183.101 343 183.101 343.8V344.57C183.101 345.02 184.211 346 185.561 346.78L258.301 388.78L266.181 393.33C267.32 393.921 268.587 394.22 269.871 394.2V390.91C268.583 390.93 267.311 390.616 266.181 390Z" fill="#29A154"/>
<path opacity="0.3" d="M266.181 390L261.181 387.09L186.001 343.7C185.945 342.723 185.596 341.786 185.001 341.01C184.112 339.833 182.992 338.85 181.711 338.12C180.62 337.442 179.373 337.056 178.091 337C177.247 336.99 176.423 337.261 175.751 337.77C174.782 335.843 174.307 333.706 174.371 331.55H171.521C171.521 335.48 172.821 339.42 174.411 340.33L175.851 341.17C176.661 341.64 177.301 341.67 177.301 341.23V340.46C177.301 339.61 178.601 339.65 180.211 340.58C181.821 341.51 183.101 343 183.101 343.8V344.57C183.101 345.02 184.211 346 185.561 346.78L258.301 388.78L266.181 393.33C267.32 393.921 268.587 394.22 269.871 394.2V390.91C268.583 390.93 267.311 390.616 266.181 390Z" fill="black"/>
<path d="M266.211 367.79L261.211 364.89L203.421 331.55L184.941 320.87C183.631 320.1 182.561 319.87 182.491 320.23V321.07C182.491 322 181.201 322 179.601 321.07C178.001 320.14 177.351 319.07 177.321 318.17V317.26C177.338 317.058 177.308 316.854 177.233 316.665C177.159 316.476 177.042 316.306 176.891 316.17L176.471 315.93C176.211 315.79 175.901 315.6 175.561 315.4C175.221 315.2 174.831 314.98 174.431 314.75C174.212 314.606 173.95 314.54 173.688 314.563C173.427 314.587 173.181 314.699 172.991 314.88C172.935 314.912 172.887 314.957 172.851 315.01C172.748 315.11 172.66 315.225 172.591 315.35C172.543 315.404 172.503 315.465 172.471 315.53C172.333 315.756 172.222 315.998 172.141 316.25C172.036 316.517 171.949 316.791 171.881 317.07C171.811 317.38 171.751 317.7 171.701 318.07C171.657 318.26 171.634 318.455 171.631 318.65C171.631 318.81 171.631 318.95 171.631 319.12C171.631 319.48 171.631 319.85 171.631 320.23V331.55H174.481V320.24C174.481 319.95 174.481 319.65 174.481 319.36L174.551 318.65C174.546 318.627 174.546 318.603 174.551 318.58C174.811 320.84 176.971 322.87 178.851 323.93C179.879 324.569 181.052 324.937 182.261 325C183.197 325.008 184.104 324.674 184.811 324.06L185.061 324.2L185.561 324.5L258.301 366.5L266.181 371.04H266.241C267.365 371.61 268.611 371.899 269.871 371.88V368.59C268.603 368.631 267.346 368.356 266.211 367.79Z" fill="#29A154"/>
<path opacity="0.3" d="M266.211 367.79L261.211 364.89L203.421 331.55L184.941 320.87C183.631 320.1 182.561 319.87 182.491 320.23V321.07C182.491 322 181.201 322 179.601 321.07C178.001 320.14 177.351 319.07 177.321 318.17V317.26C177.338 317.058 177.308 316.854 177.233 316.665C177.159 316.476 177.042 316.306 176.891 316.17L176.471 315.93C176.211 315.79 175.901 315.6 175.561 315.4C175.221 315.2 174.831 314.98 174.431 314.75C174.212 314.606 173.95 314.54 173.688 314.563C173.427 314.587 173.181 314.699 172.991 314.88C172.935 314.912 172.887 314.957 172.851 315.01C172.748 315.11 172.66 315.225 172.591 315.35C172.543 315.404 172.503 315.465 172.471 315.53C172.333 315.756 172.222 315.998 172.141 316.25C172.036 316.517 171.949 316.791 171.881 317.07C171.811 317.38 171.751 317.7 171.701 318.07C171.657 318.26 171.634 318.455 171.631 318.65C171.631 318.81 171.631 318.95 171.631 319.12C171.631 319.48 171.631 319.85 171.631 320.23V331.55H174.481V320.24C174.481 319.95 174.481 319.65 174.481 319.36L174.551 318.65C174.546 318.627 174.546 318.603 174.551 318.58C174.811 320.84 176.971 322.87 178.851 323.93C179.879 324.569 181.052 324.937 182.261 325C183.197 325.008 184.104 324.674 184.811 324.06L185.061 324.2L185.561 324.5L258.301 366.5L266.181 371.04H266.241C267.365 371.61 268.611 371.899 269.871 371.88V368.59C268.603 368.631 267.346 368.356 266.211 367.79Z" fill="black"/>
<path d="M395.001 296.38V299.72C394.966 300.171 394.811 300.604 394.552 300.975C394.294 301.346 393.941 301.641 393.531 301.83H393.481L281.481 366.49L273.621 371.04C272.482 371.632 271.214 371.931 269.931 371.91V368.62C271.222 368.651 272.5 368.348 273.641 367.74L278.641 364.85L393.501 298.51C393.92 298.324 394.282 298.028 394.546 297.653C394.81 297.278 394.967 296.838 395.001 296.38Z" fill="#29A154"/>
<path opacity="0.2" d="M395.001 296.38V299.72C394.966 300.171 394.811 300.604 394.552 300.975C394.294 301.346 393.941 301.641 393.531 301.83H393.481L281.481 366.49L273.621 371.04C272.482 371.632 271.214 371.931 269.931 371.91V368.62C271.222 368.651 272.5 368.348 273.641 367.74L278.641 364.85L393.501 298.51C393.92 298.324 394.282 298.028 394.546 297.653C394.81 297.278 394.967 296.838 395.001 296.38Z" fill="black"/>
<path d="M395.001 318.64V322C394.966 322.451 394.811 322.884 394.552 323.255C394.294 323.626 393.941 323.921 393.531 324.11H393.481L281.481 388.77L273.621 393.32C272.482 393.912 271.214 394.211 269.931 394.19V390.9C271.222 390.931 272.5 390.628 273.641 390.02L278.641 387.13L393.501 320.8C393.924 320.611 394.288 320.31 394.552 319.929C394.816 319.548 394.972 319.103 395.001 318.64Z" fill="#29A154"/>
<path opacity="0.2" d="M395.001 318.64V322C394.966 322.451 394.811 322.884 394.552 323.255C394.294 323.626 393.941 323.921 393.531 324.11H393.481L281.481 388.77L273.621 393.32C272.482 393.912 271.214 394.211 269.931 394.19V390.9C271.222 390.931 272.5 390.628 273.641 390.02L278.641 387.13L393.501 320.8C393.924 320.611 394.288 320.31 394.552 319.929C394.816 319.548 394.972 319.103 395.001 318.64Z" fill="black"/>
<path d="M197.37 337.09V381.97L203.85 374.49L210.33 389.45V344.57L197.37 337.09Z" fill="#29A154"/>
<path opacity="0.5" d="M197.37 337.09V381.97L203.85 374.49L210.33 389.45V344.57L197.37 337.09Z" fill="black"/>
<path d="M223.281 430.59V442.77C223.281 444.753 222.759 446.701 221.767 448.417C220.775 450.134 219.348 451.56 217.631 452.55L200.631 462.38L216.821 460.51L213.581 469.86L230.581 460.03C232.297 459.038 233.722 457.612 234.714 455.896C235.706 454.179 236.229 452.232 236.231 450.25V438.07L223.281 430.59Z" fill="#29A154"/>
<path opacity="0.5" d="M223.281 430.59V442.77C223.281 444.753 222.759 446.701 221.767 448.417C220.775 450.134 219.348 451.56 217.631 452.55L200.631 462.38L216.821 460.51L213.581 469.86L230.581 460.03C232.297 459.038 233.722 457.612 234.714 455.896C235.706 454.179 236.229 452.232 236.231 450.25V438.07L223.281 430.59Z" fill="black"/>
<path d="M467.621 223.66V212.72L458.381 211.91C458.249 211.9 458.117 211.927 458.001 211.99L448.781 217.26C448.701 217.312 448.634 217.381 448.582 217.462C448.531 217.542 448.497 217.632 448.483 217.726C448.469 217.821 448.475 217.917 448.5 218.009C448.526 218.101 448.57 218.186 448.631 218.26L458.431 228.88L467.621 223.66Z" fill="#29A154"/>
<path d="M458.43 228.92L448.63 218.3C448.535 218.201 448.472 218.074 448.451 217.938C448.43 217.801 448.452 217.662 448.513 217.538C448.574 217.414 448.672 217.313 448.793 217.247C448.915 217.181 449.053 217.154 449.19 217.17L458.43 217.97V228.92Z" fill="#29A154"/>
<path d="M467.62 212.72L458.43 218L449.19 217.19C449.081 217.18 448.971 217.197 448.87 217.24C449.61 216.8 457.66 212.19 458 212.01C458.12 211.946 458.255 211.918 458.39 211.93L467.62 212.72Z" fill="#29A154"/>
<path opacity="0.5" d="M467.62 212.72L458.43 218L449.19 217.19C449.081 217.18 448.971 217.197 448.87 217.24C449.61 216.8 457.66 212.19 458 212.01C458.12 211.946 458.255 211.918 458.39 211.93L467.62 212.72Z" fill="white"/>
<path d="M458.04 205.133C458.102 203.977 458.436 202.852 459.015 201.849C459.593 200.847 460.4 199.995 461.37 199.363L464.08 197.803C465.111 197.275 466.252 197 467.41 197C468.568 197 469.709 197.275 470.74 197.803L499.6 214.503C500.57 215.134 501.378 215.986 501.956 216.989C502.535 217.991 502.869 219.116 502.93 220.273V253.653C502.863 254.805 502.527 255.925 501.949 256.924C501.37 257.922 500.566 258.771 499.6 259.403L496.89 260.963C495.858 261.485 494.717 261.758 493.56 261.758C492.403 261.758 491.262 261.485 490.23 260.963L481.7 256.043L470.61 249.633L461.33 244.283C460.36 243.65 459.553 242.798 458.975 241.796C458.396 240.793 458.062 239.668 458 238.513L458.04 205.133Z" fill="#29A154"/>
<path d="M487.35 235.09C487.332 232.894 486.873 230.725 486 228.71C485.204 226.601 483.784 224.783 481.93 223.5C479.15 221.86 476.82 225.19 476.46 229.12C476.13 224.78 473.85 218.74 471.06 217.12C470.454 216.652 469.691 216.434 468.929 216.51C468.167 216.586 467.462 216.951 466.96 217.53C465.943 218.9 465.443 220.587 465.55 222.29C465.55 228.93 469.55 234.96 472.86 241.29L476.38 247.95L479.95 245.46C483.3 243.05 487.32 241.74 487.35 235.09Z" fill="#FAFAFA"/>
<path opacity="0.2" d="M503.37 254.13C503.302 255.289 502.961 256.416 502.376 257.418C501.79 258.421 500.976 259.271 500 259.9L497.29 261.46C496.351 261.931 495.323 262.199 494.274 262.245C493.225 262.292 492.177 262.116 491.2 261.73C492.76 262.32 493.96 261.44 493.96 259.54V226.16C493.916 224.999 493.572 223.868 492.96 222.88L502.33 217.47C502.942 218.458 503.286 219.589 503.33 220.75L503.37 254.13Z" fill="black"/>
<path opacity="0.5" d="M458.551 204.68C458.941 203.27 460.231 202.82 461.771 203.68L490.671 220.37C491.66 220.978 492.471 221.837 493.021 222.86L502.381 217.45C501.81 216.443 500.991 215.599 500.001 215L471.151 198.3C470.119 197.777 468.978 197.505 467.821 197.505C466.664 197.505 465.523 197.777 464.491 198.3L461.771 199.87C460.937 200.412 460.222 201.118 459.668 201.945C459.115 202.772 458.735 203.702 458.551 204.68Z" fill="white"/>
<path d="M386.44 277.3C400.51 276.83 407.49 284.06 416.01 296.36C424.53 308.66 448.01 342.76 448.01 342.76L429.74 353.31L389.74 298.44L386.44 277.3Z" fill="#FFA8A7"/>
<path d="M373.73 187.57C343.18 189.09 330.82 213.36 335.06 235.57C338.74 254.83 353.22 265.25 372.95 265.25H375.42C396.89 265.25 411.18 243.25 413.82 231.39C420 203.85 400.81 186.23 373.73 187.57Z" fill="#37474F"/>
<path d="M449.071 474.47C449.821 492.94 419.561 496.56 392.981 483.88C372.931 474.32 363.981 467.42 345.731 453.8C323.121 436.89 316.341 411.28 332.471 380.86L409.381 376.86C422.771 392.38 471.001 413 487.001 449.68C494.771 469.07 468.081 479.28 449.001 474.47H449.071Z" fill="#455A64"/>
<path d="M449.07 474.47C447.07 457.06 433.82 448.47 422.45 440.04C411.08 431.61 387.19 417 387.19 417C387.19 417 399.07 419.77 409.97 408.56C409.637 410.967 408.779 413.271 407.455 415.309C406.131 417.346 404.374 419.068 402.31 420.35C402.31 420.35 435.38 439.26 445.31 455.29C448.926 460.985 450.268 467.831 449.07 474.47Z" fill="#37474F"/>
<path d="M367.81 277.3H359C350.47 277.9 342 278.56 342 278.56C328.34 283.49 328.4 294.26 327.72 299.91C326.72 307.91 328.98 312.47 331.61 320.07L344.21 356.51C344.21 356.51 339.33 367.39 332.48 380.86C364.1 398.5 402.55 392.61 412.05 379.73C412.45 377 411.05 348.1 409.51 334.15C413.917 330.643 416.788 325.56 417.518 319.976C418.247 314.391 416.778 308.742 413.42 304.22C401.53 287.97 390.71 278.17 386.42 277.3H367.81Z" fill="#29A154"/>
<path opacity="0.3" d="M367.81 277.3H359C350.47 277.9 342 278.56 342 278.56C328.34 283.49 328.4 294.26 327.72 299.91C326.72 307.91 328.98 312.47 331.61 320.07L344.21 356.51C344.21 356.51 339.33 367.39 332.48 380.86C364.1 398.5 402.55 392.61 412.05 379.73C412.45 377 411.05 348.1 409.51 334.15C413.917 330.643 416.788 325.56 417.518 319.976C418.247 314.391 416.778 308.742 413.42 304.22C401.53 287.97 390.71 278.17 386.42 277.3H367.81Z" fill="black"/>
<path opacity="0.15" d="M341.641 362.06C340.561 364.38 339.161 367.33 337.531 370.67C337.251 371.26 336.961 371.86 336.661 372.46C336.291 373.22 335.911 374 335.511 374.79C334.511 376.73 333.511 378.79 332.511 380.86C333.681 381.51 334.861 382.11 336.041 382.7C357.201 393.22 380.761 393.75 396.451 389.05C385.785 390.468 374.953 389.997 364.451 387.66C361.975 387.089 359.638 386.03 357.576 384.545C355.515 383.059 353.77 381.178 352.445 379.01C351.12 376.842 350.24 374.431 349.859 371.919C349.477 369.407 349.6 366.844 350.221 364.38C350.303 364.039 350.41 363.705 350.541 363.38C352.541 358.49 356.951 359.13 356.951 359.13C354.914 357.793 353.163 356.065 351.798 354.046C350.434 352.028 349.483 349.758 349.001 347.37L347.341 342.3C343.529 330.782 343.333 318.373 346.781 306.74L346.871 306.41L333.431 298.75L331.081 300.38C330.347 302.746 329.916 305.196 329.801 307.67C329.801 308.3 329.801 308.94 329.801 309.58C329.801 309.88 329.801 310.18 329.801 310.47C329.801 311.01 329.861 311.54 329.911 312.07C329.961 312.6 329.991 312.92 330.051 313.34C330.111 313.76 330.171 314.24 330.251 314.69C330.331 315.14 330.461 315.78 330.581 316.32C330.661 316.66 330.721 317.01 330.811 317.32C331.041 318.21 331.301 319.1 331.601 319.97L344.201 356.41C344.201 356.41 343.271 358.59 341.641 362.06Z" fill="black"/>
<path d="M399.5 206.46C401.5 207.46 406.91 217.81 406.39 240.34C405.95 259.44 399.76 264.15 396.65 265.51C393.54 266.87 387.55 266.04 381.72 265.07V276.53C381.72 276.53 389.78 285.89 389.27 291.14C388.76 296.39 377.64 297.64 370.11 292.51C365.224 288.993 361.03 284.602 357.74 279.56V251.86C357.74 251.86 354.56 255.35 348.12 251.08C341.68 246.81 340.69 237.99 344.43 234.19C348.17 230.39 356.24 231.6 357.74 236.84C357.74 236.84 367.18 238.51 379.84 230.36C393.51 221.56 397.72 214.56 399.5 206.46Z" fill="#FFA8A7"/>
<path d="M402.62 227.81L397.28 225.26C397.429 224.905 397.649 224.584 397.926 224.316C398.203 224.049 398.532 223.84 398.892 223.704C399.252 223.567 399.636 223.505 400.021 223.522C400.406 223.538 400.783 223.633 401.13 223.8C401.846 224.149 402.4 224.76 402.678 225.507C402.955 226.253 402.935 227.078 402.62 227.81Z" fill="#263238"/>
<path d="M378.8 224.76L373.8 227.91C373.583 227.596 373.433 227.241 373.357 226.868C373.281 226.494 373.281 226.109 373.357 225.735C373.434 225.362 373.585 225.007 373.802 224.694C374.019 224.38 374.297 224.113 374.62 223.91C375.292 223.487 376.102 223.34 376.88 223.498C377.658 223.656 378.346 224.108 378.8 224.76Z" fill="#263238"/>
<path d="M357.521 231.58L357.851 243.26C358.618 243.278 359.381 243.14 360.093 242.854C360.806 242.568 361.453 242.141 361.995 241.597C362.537 241.054 362.964 240.406 363.248 239.693C363.533 238.981 363.67 238.217 363.651 237.45C363.581 235.87 362.905 234.379 361.763 233.285C360.621 232.192 359.101 231.581 357.521 231.58Z" fill="#37474F"/>
<path d="M382.931 234.81C382.934 235.28 382.799 235.741 382.543 236.135C382.286 236.53 381.92 236.84 381.489 237.028C381.057 237.215 380.581 237.272 380.117 237.191C379.654 237.11 379.225 236.895 378.883 236.572C378.541 236.249 378.302 235.833 378.194 235.375C378.087 234.917 378.116 234.438 378.279 233.996C378.442 233.555 378.731 233.171 379.11 232.893C379.489 232.614 379.941 232.453 380.411 232.43C380.733 232.419 381.054 232.473 381.355 232.587C381.657 232.701 381.933 232.873 382.167 233.095C382.401 233.316 382.589 233.581 382.72 233.876C382.852 234.17 382.923 234.488 382.931 234.81Z" fill="#263238"/>
<path d="M385 251.71L391.33 253.71C391.217 254.134 391.018 254.532 390.748 254.878C390.477 255.223 390.139 255.511 389.754 255.723C389.369 255.935 388.945 256.067 388.508 256.111C388.071 256.155 387.63 256.111 387.21 255.98C386.362 255.691 385.658 255.086 385.246 254.29C384.834 253.494 384.746 252.569 385 251.71Z" fill="#F28F8F"/>
<path d="M401.5 233.81C401.503 234.28 401.369 234.741 401.112 235.135C400.856 235.53 400.489 235.84 400.058 236.028C399.627 236.215 399.15 236.272 398.687 236.191C398.223 236.11 397.794 235.895 397.452 235.572C397.11 235.249 396.871 234.833 396.764 234.375C396.656 233.917 396.686 233.438 396.848 232.996C397.011 232.555 397.3 232.171 397.679 231.893C398.058 231.614 398.51 231.453 398.98 231.43C399.302 231.419 399.623 231.473 399.925 231.587C400.226 231.701 400.502 231.873 400.736 232.095C400.97 232.316 401.159 232.581 401.29 232.876C401.421 233.17 401.492 233.488 401.5 233.81Z" fill="#263238"/>
<path d="M389.771 232.43L390.161 246.89L397.761 244.53L389.771 232.43Z" fill="#F28F8F"/>
<path d="M381.72 265.07C375.58 264.27 362.95 260.64 360.98 255.64C360.98 255.64 361.64 258.78 365.41 262.02C369.18 265.26 381.72 268.9 381.72 268.9V265.07Z" fill="#F28F8F"/>
<path d="M471.29 317.75C471.29 317.75 471.05 314.23 475.69 310.8C480.33 307.37 486.39 304.62 488.37 296.1L494.76 299.79L484 317.89L471.29 317.75Z" fill="#29A154"/>
<path opacity="0.75" d="M471.29 317.75C471.29 317.75 471.05 314.23 475.69 310.8C480.33 307.37 486.39 304.62 488.37 296.1L494.76 299.79L484 317.89L471.29 317.75Z" fill="white"/>
<path d="M471.29 317.75C471.29 317.75 464.29 314.25 449 317.41C433.71 320.57 421.19 324.66 391.79 324.01L399.42 328.42L475.75 324L471.29 317.75Z" fill="#29A154"/>
<path opacity="0.75" d="M471.29 317.75C471.29 317.75 464.29 314.25 449 317.41C433.71 320.57 421.19 324.66 391.79 324.01L399.42 328.42L475.75 324L471.29 317.75Z" fill="white"/>
<path d="M391.79 324.01L364.5 411.84L372.13 416.25L399.42 328.42L391.79 324.01Z" fill="#29A154"/>
<path opacity="0.8" d="M391.79 324.01L364.5 411.84L372.13 416.25L399.42 328.42L391.79 324.01Z" fill="white"/>
<path opacity="0.1" d="M391.79 324.01L364.5 411.84L372.13 416.25L399.42 328.42L391.79 324.01Z" fill="black"/>
<g opacity="0.1">
<path d="M488.36 300.82C487.646 302.656 486.579 304.334 485.22 305.76C483.849 307.187 482.386 308.524 480.84 309.76C479.285 310.923 477.845 312.232 476.54 313.67C475.927 314.376 475.41 315.159 475 316C474.614 316.807 474.425 317.695 474.45 318.59L473.52 318.73C473.503 317.657 473.758 316.598 474.26 315.65C474.72 314.744 475.299 313.903 475.98 313.15C477.368 311.737 478.888 310.461 480.52 309.34C482.096 308.184 483.599 306.931 485.02 305.59C486.432 304.231 487.566 302.611 488.36 300.82Z" fill="black"/>
<path d="M487.14 305.77C486.488 306.866 485.699 307.875 484.79 308.77C483.91 309.7 483.01 310.59 482.15 311.53C481.289 312.454 480.519 313.459 479.85 314.53C479.193 315.552 478.783 316.712 478.65 317.92L477.71 317.8C477.945 316.479 478.475 315.228 479.26 314.14C480.019 313.094 480.876 312.123 481.82 311.24C482.74 310.35 483.7 309.51 484.62 308.64C485.58 307.796 486.427 306.831 487.14 305.77Z" fill="black"/>
<path d="M421.19 324.66C425.368 324.281 429.521 323.67 433.63 322.83C437.75 322 441.82 320.98 445.91 320.03C450.011 319.028 454.21 318.482 458.43 318.4C460.55 318.334 462.672 318.417 464.78 318.65C465.845 318.767 466.898 318.967 467.93 319.25C469.025 319.521 470.049 320.026 470.93 320.73L470.28 321.41C469.518 320.795 468.636 320.345 467.69 320.09C466.707 319.808 465.704 319.597 464.69 319.46C462.628 319.195 460.55 319.074 458.47 319.1C454.275 319.1 450.093 319.566 446 320.49C441.9 321.36 437.8 322.31 433.67 323.06C429.543 323.822 425.377 324.356 421.19 324.66Z" fill="black"/>
<path d="M441.37 324.28C443.74 323.96 446.07 323.47 448.42 323.02C450.77 322.57 453.12 322.14 455.49 321.83C457.87 321.48 460.275 321.319 462.68 321.35C465.128 321.346 467.555 321.794 469.84 322.67L469.46 323.53C467.3 322.623 464.992 322.122 462.65 322.05C460.281 321.945 457.907 322.025 455.55 322.29C453.18 322.53 450.82 322.88 448.46 323.29C446.1 323.7 443.75 324 441.37 324.28Z" fill="black"/>
</g>
<path d="M494.78 295.4L482.2 316.85L452.92 411.03L456.74 413.23L469.3 386.93L498.58 297.59L494.78 295.4Z" fill="#29A154"/>
<path opacity="0.2" d="M486.01 319.06L498.58 297.59L469.3 386.93L456.74 413.23L486.01 319.06Z" fill="black"/>
<path d="M469.65 324.1L394.37 328.93L365.09 423.1L368.91 425.3L444.19 420.47L473.46 326.3L469.65 324.1Z" fill="#29A154"/>
<path opacity="0.2" d="M398.18 331.13L368.91 425.3L444.19 420.47L473.46 326.3L398.18 331.13Z" fill="black"/>
<path d="M382.16 420.92C382.089 420.919 382.019 420.902 381.955 420.871C381.891 420.84 381.835 420.795 381.79 420.74C381.745 420.679 381.714 420.609 381.7 420.534C381.687 420.46 381.69 420.383 381.71 420.31C381.943 419.559 381.991 418.763 381.848 417.99C381.705 417.216 381.377 416.49 380.891 415.872C380.404 415.254 379.775 414.763 379.058 414.442C378.34 414.121 377.555 413.98 376.77 414.03C376.694 414.033 376.618 414.018 376.549 413.987C376.479 413.956 376.418 413.909 376.37 413.85C376.321 413.791 376.288 413.721 376.274 413.645C376.26 413.57 376.266 413.493 376.29 413.42L398.56 341.79C398.588 341.7 398.641 341.621 398.714 341.562C398.787 341.503 398.876 341.468 398.97 341.46C401.024 341.323 402.989 340.569 404.607 339.297C406.226 338.025 407.422 336.294 408.04 334.33C408.068 334.239 408.124 334.158 408.199 334.1C408.274 334.041 408.365 334.006 408.46 334L460.18 330.68C460.256 330.677 460.332 330.691 460.401 330.723C460.471 330.754 460.532 330.801 460.58 330.86C460.627 330.92 460.659 330.99 460.673 331.065C460.687 331.14 460.682 331.217 460.66 331.29C460.421 332.04 460.371 332.838 460.514 333.613C460.657 334.387 460.989 335.114 461.48 335.73C461.959 336.356 462.587 336.852 463.306 337.173C464.026 337.494 464.814 337.631 465.6 337.57C465.676 337.564 465.753 337.578 465.823 337.609C465.893 337.641 465.954 337.689 466 337.75C466.049 337.809 466.082 337.879 466.096 337.955C466.11 338.03 466.104 338.107 466.08 338.18L443.82 409.81C443.791 409.9 443.735 409.98 443.66 410.039C443.585 410.098 443.495 410.133 443.4 410.14C441.347 410.279 439.383 411.034 437.765 412.306C436.147 413.578 434.95 415.308 434.33 417.27C434.303 417.362 434.248 417.443 434.173 417.502C434.097 417.561 434.006 417.596 433.91 417.6L382.19 420.92H382.16ZM377.38 413.08C378.205 413.124 379.011 413.344 379.743 413.725C380.476 414.106 381.12 414.639 381.63 415.288C382.14 415.938 382.506 416.689 382.702 417.491C382.899 418.293 382.922 419.128 382.77 419.94L433.54 416.68C434.241 414.661 435.507 412.885 437.187 411.565C438.868 410.244 440.892 409.434 443.02 409.23L465.02 338.52C464.194 338.477 463.387 338.258 462.653 337.878C461.919 337.498 461.275 336.965 460.763 336.315C460.252 335.666 459.885 334.914 459.688 334.111C459.491 333.308 459.468 332.473 459.62 331.66L408.86 334.92C408.157 336.938 406.89 338.712 405.21 340.032C403.53 341.353 401.507 342.164 399.38 342.37L377.38 413.08Z" fill="#FAFAFA"/>
<path opacity="0.3" d="M394.37 328.93L398.18 331.13L368.91 425.3L365.09 423.1L394.37 328.93Z" fill="black"/>
<path d="M473.461 326.3L486.001 319.06L456.731 413.23C454.781 418.31 450.471 420.58 444.181 420.47L473.461 326.3Z" fill="#29A154"/>
<path opacity="0.3" d="M473.461 326.3L486.001 319.06L456.731 413.23C454.541 418.6 450.111 420.65 444.181 420.47L473.461 326.3Z" fill="black"/>
<path d="M481.77 316.61C479.44 315.24 474.77 315.75 471.29 317.75C467.81 319.75 466.91 322.47 469.24 323.84L473.46 326.3L486 319.06L482.19 316.85L481.77 316.61Z" fill="#455A64"/>
<path d="M466.771 347.8C471.291 347.89 476.201 347.32 478.391 343.58L481.301 334.26C478.551 338.02 474.951 339.98 469.301 339.82L466.771 347.8Z" fill="#E0E0E0"/>
<path d="M482.2 316.85C481.46 320.47 476.84 322.73 469.65 324.1L473.46 326.3C479.64 325.59 483.72 323.09 486.01 319.06L482.2 316.85Z" fill="#29A154"/>
<path d="M342 278.56C334.18 279.03 325.87 281.63 322.31 295.78C318.75 309.93 309.06 357.4 308.31 363.78C307.56 370.16 307.41 375.31 322.74 380.22C340.04 385.75 368 387.92 375.9 388.34C390.47 389.13 400.18 384.84 404.83 376.47C409.48 368.1 410.83 356.96 397.75 362.36C383.87 368.1 378.05 368.24 378.05 368.24L380.71 359.68C376.36 361.57 372.71 367.52 368.36 368.24C364.5 368.89 335.11 358.72 335.11 358.72L345.11 316.05C345.11 316.05 354.24 289.16 342 278.56Z" fill="#FFA8A7"/>
<path d="M343.45 262.77C341.814 264.575 340.078 266.288 338.25 267.9C334.74 271.32 332.25 274.31 330.62 278.9C328.99 283.49 329.2 289.01 332.16 292.9C335.12 296.79 340.16 298.6 342.25 302.9C343.25 304.96 343.45 307.32 343.78 309.6C344.48 314.53 346 319.47 349.03 323.43C353.94 329.87 364.44 333.12 371.15 327.25C373.255 325.213 374.757 322.635 375.49 319.8C377.401 314.073 377.271 307.861 375.12 302.22C373.12 297.28 369.29 293.32 365.76 289.31C362.61 285.73 358.45 281.08 357.76 276.14C357.76 276.14 357.63 266.95 357.7 262.59C357.7 260.46 357.7 258.31 355.64 257.19C354.055 256.246 352.291 255.64 350.46 255.41C347.64 255.27 347.16 255.62 347.16 255.62C346.384 258.215 345.125 260.641 343.45 262.77Z" fill="#37474F"/>
<path d="M483.941 342C483.031 339 479.661 344.63 478.181 353.22C476.771 361.44 474.831 370.03 474.831 370.03L472.561 377.03C472.561 377.03 477.991 373.67 482.421 364.46C486.851 355.25 486.521 350.47 483.941 342Z" fill="#FFA8A7"/>
<path d="M513.5 138C545.256 138 571 112.48 571 81C571 49.5198 545.256 24 513.5 24C481.744 24 456 49.5198 456 81C456 112.48 481.744 138 513.5 138Z" fill="#4CAF50"/>
<path d="M519 45H508V117H519V45Z" fill="white"/>
<path d="M549 88V74H478V88H549Z" fill="white"/>
</svg>
