<svg width="500" height="500" viewBox="0 0 500 500" fill="none" xmlns="http://www.w3.org/2000/svg">
<path d="M52.6698 119.06L219.3 119.06V111.75L52.6698 111.75V119.06Z" fill="#EBEBEB"/>
<path d="M209.959 119.06H202.649V143.23H209.959V119.06Z" fill="#EBEBEB"/>
<path d="M209.959 119.06H202.649V126.53H209.959V119.06Z" fill="#DBDBDB"/>
<path d="M69.3198 119.06H62.0098V143.23H69.3198V119.06Z" fill="#EBEBEB"/>
<path d="M69.3198 119.06H62.0098V126.53H69.3198V119.06Z" fill="#DBDBDB"/>
<path d="M188.2 111.75V65.18H176.47V111.75H188.2Z" fill="#C7C7C7"/>
<path d="M188.2 67.82V62.7H176.47V67.82H188.2Z" fill="#DBDBDB"/>
<path d="M188.2 76.27V74.37H176.47V76.27H188.2Z" fill="#DBDBDB"/>
<path d="M188.2 105.65V100.53H175.01V105.65H188.2Z" fill="#DBDBDB"/>
<path d="M176.47 111.76V57.43H168.27V111.76H176.47Z" fill="#DBDBDB"/>
<path d="M174.87 83.42V62.53H169.95V83.42H174.87Z" fill="#EBEBEB"/>
<path d="M115.719 111.774L154.356 73.5787L148.592 67.7472L109.954 105.942L115.719 111.774Z" fill="#C7C7C7"/>
<path d="M123.633 101.627L138.489 86.9405L135.03 83.4415L120.174 98.1277L123.633 101.627Z" fill="#DBDBDB"/>
<path d="M168.28 111.76V70.5H154.36V111.76H168.28Z" fill="#A6A6A6"/>
<path d="M168.28 107.39V103.54H154.36V107.39H168.28Z" fill="#C7C7C7"/>
<path d="M168.28 101.02V99.53H154.36V101.02H168.28Z" fill="#C7C7C7"/>
<path d="M197.81 111.77V72.99H188.2V111.77H197.81Z" fill="#A6A6A6"/>
<path d="M197.81 107.65V104.04H188.2V107.65H197.81Z" fill="#C7C7C7"/>
<path d="M197.81 84.59V80.98H188.2V84.59H197.81Z" fill="#C7C7C7"/>
<path d="M197.81 88.47V87.07H188.2V88.47H197.81Z" fill="#C7C7C7"/>
<path d="M418.57 310.91H242.3V58.43H418.57V310.91ZM247.44 305.76H413.44V63.58H247.44V305.76Z" fill="#EBEBEB"/>
<path d="M330.999 64.92H325.859V308.33H330.999V64.92Z" fill="#EBEBEB"/>
<path d="M423.23 68.83H237.63V75.99H423.23V68.83Z" fill="#EBEBEB"/>
<path d="M423.23 76.89H237.63V84.05H423.23V76.89Z" fill="#EBEBEB"/>
<path d="M423.23 84.95H237.63V92.11H423.23V84.95Z" fill="#EBEBEB"/>
<path d="M423.23 93.01H237.63V100.17H423.23V93.01Z" fill="#EBEBEB"/>
<path d="M423.23 101.07H237.63V108.23H423.23V101.07Z" fill="#EBEBEB"/>
<path d="M423.23 109.13H237.63V116.29H423.23V109.13Z" fill="#EBEBEB"/>
<path d="M423.23 117.19H237.63V124.35H423.23V117.19Z" fill="#EBEBEB"/>
<path d="M423.23 125.25H237.63V132.41H423.23V125.25Z" fill="#EBEBEB"/>
<path d="M423.23 133.31H237.63V140.47H423.23V133.31Z" fill="#EBEBEB"/>
<path d="M407.96 67.38H406.67V206.78H407.96V67.38Z" fill="#263238"/>
<path d="M409.6 212.77H405.03L406.18 206.21H408.45L409.6 212.77Z" fill="#263238"/>
<path d="M412.59 67.38H411.3V280.53H412.59V67.38Z" fill="#263238"/>
<path d="M414.23 285.35H409.66L410.81 278.79H413.08L414.23 285.35Z" fill="#263238"/>
<path d="M431.219 57.43H229.649V72.42H431.219V57.43Z" fill="#DBDBDB"/>
<path d="M72.5894 291.36H46.1094V302.55H72.5894V291.36Z" fill="#EBEBEB"/>
<path d="M57.8198 305.47H31.3398V316.66H57.8198V305.47Z" fill="#EBEBEB"/>
<path d="M174.419 207.33H147.939V218.52H174.419V207.33Z" fill="#EBEBEB"/>
<path d="M159.65 221.44H133.17V232.63H159.65V221.44Z" fill="#EBEBEB"/>
<path d="M144.94 207.33H118.46V218.52H144.94V207.33Z" fill="#EBEBEB"/>
<path d="M468.66 305.47H442.18V316.66H468.66V305.47Z" fill="#EBEBEB"/>
<path d="M453.89 87.01H427.41V98.2H453.89V87.01Z" fill="#EBEBEB"/>
<path d="M468.66 101.12H442.18V112.31H468.66V101.12Z" fill="#EBEBEB"/>
<path d="M72.5894 87.01H46.1094V98.2H72.5894V87.01Z" fill="#EBEBEB"/>
<path d="M250 451.13C357.806 451.13 445.2 435.438 445.2 416.08C445.2 396.722 357.806 381.03 250 381.03C142.194 381.03 54.7998 396.722 54.7998 416.08C54.7998 435.438 142.194 451.13 250 451.13Z" fill="#EBEBEB"/>
<path d="M104.5 395.31C127.662 395.31 146.44 391.603 146.44 387.03C146.44 382.457 127.662 378.75 104.5 378.75C81.3367 378.75 62.5596 382.457 62.5596 387.03C62.5596 391.603 81.3367 395.31 104.5 395.31Z" fill="#EBEBEB"/>
<path d="M389.77 259.7C405.16 274.76 407.77 298.07 404.5 318.49C404.41 318.95 403.7 318.82 403.7 318.39C403.7 313.74 403.84 309.14 403.82 304.54C403.74 304.33 403.67 304.14 403.58 303.93C399.58 301.01 395.87 297.71 393.58 293.18C391.01 288.13 390 282.43 388.03 277.18C387.85 276.67 388.39 276.82 388.74 277.08C398.1 283.99 401.08 291.42 403.74 301.34C403.682 296.15 403.137 290.977 402.11 285.89C400.11 276.46 396.11 267.13 389.32 260.13C389.292 260.1 389.27 260.066 389.255 260.027C389.24 259.989 389.233 259.949 389.234 259.908C389.236 259.825 389.27 259.747 389.33 259.69C389.39 259.633 389.469 259.602 389.552 259.604C389.635 259.606 389.713 259.64 389.77 259.7Z" fill="#263238"/>
<path d="M386.87 261.45C384.23 261.54 382.57 265.77 380.5 267.01C380.282 267.184 380.031 267.311 379.763 267.382C379.494 267.453 379.213 267.468 378.938 267.425C378.663 267.381 378.4 267.281 378.167 267.131C377.933 266.98 377.733 266.782 377.58 266.55C375.58 263.7 378.34 260.18 380.98 258.21C379.09 258.98 377.53 260.35 375.5 260.73C375.24 260.816 374.964 260.845 374.692 260.815C374.419 260.785 374.157 260.697 373.921 260.557C373.686 260.416 373.484 260.227 373.328 260.001C373.173 259.776 373.067 259.52 373.02 259.25C372.12 255.36 377.02 253.63 380.35 253.55C378.73 252.42 374.08 249.35 376.55 247.84C379.02 246.33 384.55 250.71 386.29 252.16C388.91 254.28 392.03 257.45 392.15 260.78C392.3 264.65 388.91 262.27 386.87 261.45Z" fill="#118014"/>
<path opacity="0.1" d="M386.87 261.45C384.23 261.54 382.57 265.77 380.5 267.01C380.282 267.184 380.031 267.311 379.763 267.382C379.494 267.453 379.213 267.468 378.938 267.425C378.663 267.381 378.4 267.281 378.167 267.131C377.933 266.98 377.733 266.782 377.58 266.55C375.58 263.7 378.34 260.18 380.98 258.21C379.09 258.98 377.53 260.35 375.5 260.73C375.24 260.816 374.964 260.845 374.692 260.815C374.419 260.785 374.157 260.697 373.921 260.557C373.686 260.416 373.484 260.227 373.328 260.001C373.173 259.776 373.067 259.52 373.02 259.25C372.12 255.36 377.02 253.63 380.35 253.55C378.73 252.42 374.08 249.35 376.55 247.84C379.02 246.33 384.55 250.71 386.29 252.16C388.91 254.28 392.03 257.45 392.15 260.78C392.3 264.65 388.91 262.27 386.87 261.45Z" fill="black"/>
<path d="M387.64 262.11C384.26 260.57 377.75 262.78 377.2 261.5C376.08 258.89 381.28 257.1 384.08 256.76C381.5 256.06 376.55 254.94 376.7 252.45C376.89 249.45 384.29 252.03 388.04 254.9C392.76 258.52 392.73 262.01 391.95 262.71C390.88 263.67 388.2 262.36 387.64 262.11Z" fill="#118014"/>
<path d="M424.81 258.21C408.86 272.68 405.4 295.87 407.86 316.39C407.93 316.86 408.65 316.76 408.66 316.32C408.84 311.68 408.88 307.07 409.06 302.49C409.16 302.28 409.23 302.08 409.33 301.88C413.45 299.11 417.27 295.95 419.72 291.52C422.48 286.57 423.72 280.91 425.88 275.71C426.08 275.21 425.53 275.34 425.17 275.59C415.55 282.13 412.29 289.44 409.23 299.26C409.482 294.072 410.222 288.919 411.44 283.87C413.82 274.54 418.18 265.36 425.21 258.63C425.265 258.577 425.298 258.504 425.3 258.427C425.301 258.35 425.273 258.276 425.22 258.22C425.167 258.164 425.094 258.132 425.017 258.13C424.94 258.128 424.865 258.157 424.81 258.21Z" fill="#263238"/>
<path d="M427.639 260.07C430.279 260.26 431.779 264.55 433.789 265.86C433.999 266.043 434.245 266.181 434.511 266.263C434.777 266.346 435.058 266.372 435.335 266.34C435.611 266.308 435.879 266.219 436.119 266.078C436.359 265.936 436.567 265.746 436.729 265.52C438.879 262.74 436.209 259.12 433.649 257.05C435.509 257.9 437.019 259.32 439.029 259.78C439.287 259.875 439.562 259.914 439.835 259.894C440.109 259.873 440.375 259.795 440.616 259.663C440.856 259.531 441.066 259.35 441.231 259.13C441.395 258.91 441.511 258.658 441.569 258.39C442.569 254.54 437.799 252.63 434.459 252.39C436.119 251.32 440.889 248.39 438.459 246.83C436.029 245.27 430.389 249.4 428.549 250.77C425.859 252.77 422.619 255.85 422.369 259.16C422.089 263.06 425.569 260.81 427.639 260.07Z" fill="#118014"/>
<path opacity="0.1" d="M427.639 260.07C430.279 260.26 431.779 264.55 433.789 265.86C433.999 266.043 434.245 266.181 434.511 266.263C434.777 266.346 435.058 266.372 435.335 266.34C435.611 266.308 435.879 266.219 436.119 266.078C436.359 265.936 436.567 265.746 436.729 265.52C438.879 262.74 436.209 259.12 433.649 257.05C435.509 257.9 437.019 259.32 439.029 259.78C439.287 259.875 439.562 259.914 439.835 259.894C440.109 259.873 440.375 259.795 440.616 259.663C440.856 259.531 441.066 259.35 441.231 259.13C441.395 258.91 441.511 258.658 441.569 258.39C442.569 254.54 437.799 252.63 434.459 252.39C436.119 251.32 440.889 248.39 438.459 246.83C436.029 245.27 430.389 249.4 428.549 250.77C425.859 252.77 422.619 255.85 422.369 259.16C422.089 263.06 425.569 260.81 427.639 260.07Z" fill="black"/>
<path d="M426.85 260.69C430.29 259.28 436.7 261.75 437.3 260.49C438.52 257.92 433.4 255.94 430.61 255.49C433.22 254.88 438.2 253.96 438.15 251.49C438.08 248.49 430.58 250.78 426.72 253.49C421.87 256.93 421.72 260.42 422.52 261.15C423.55 262.14 426.28 260.93 426.85 260.69Z" fill="#118014"/>
<path d="M408.499 296.42C407.418 304.159 405.764 311.806 403.549 319.3C403.506 319.434 403.415 319.547 403.294 319.618C403.172 319.689 403.029 319.713 402.891 319.684C402.753 319.655 402.631 319.577 402.547 319.464C402.464 319.35 402.426 319.21 402.439 319.07C403.439 312.02 405.389 305.07 406.439 298.07C407.584 290.937 407.996 283.706 407.669 276.49C406.999 264.59 403.769 252 395.999 242.66C395.819 242.44 396.189 242.13 396.359 242.33C411.879 260.43 409.409 282.62 409.359 284.6C411.559 277.11 413.819 268.52 422.129 260.9C422.489 260.57 422.769 260.72 422.709 261.28C421.229 275.18 417.359 282.43 409.309 289.86C409.103 292.067 408.833 294.253 408.499 296.42Z" fill="#263238"/>
<path d="M395.87 244.74C393.08 243.5 389.23 247.05 386.47 247.3C386.153 247.374 385.823 247.38 385.504 247.317C385.184 247.253 384.882 247.123 384.617 246.934C384.352 246.744 384.131 246.501 383.967 246.219C383.804 245.937 383.702 245.624 383.67 245.3C382.98 241.3 387.67 239.07 391.39 238.35C389.05 238.21 386.74 238.84 384.39 238.21C384.078 238.168 383.778 238.058 383.512 237.89C383.245 237.722 383.018 237.499 382.846 237.235C382.673 236.972 382.559 236.674 382.512 236.363C382.464 236.051 382.484 235.733 382.57 235.43C383.57 230.94 389.57 231.6 393.05 233.2C391.93 231.2 388.65 225.69 391.97 225.37C395.29 225.05 398.79 232.37 399.91 234.75C401.56 238.27 403.2 243.13 401.65 246.64C399.89 250.79 397.58 246.61 395.87 244.74Z" fill="#118014"/>
<path opacity="0.1" d="M395.87 244.74C393.08 243.5 389.23 247.05 386.47 247.3C386.153 247.374 385.823 247.38 385.504 247.317C385.184 247.253 384.882 247.123 384.617 246.934C384.352 246.744 384.131 246.501 383.967 246.219C383.804 245.937 383.702 245.624 383.67 245.3C382.98 241.3 387.67 239.07 391.39 238.35C389.05 238.21 386.74 238.84 384.39 238.21C384.078 238.168 383.778 238.058 383.512 237.89C383.245 237.722 383.018 237.499 382.846 237.235C382.673 236.972 382.559 236.674 382.512 236.363C382.464 236.051 382.484 235.733 382.57 235.43C383.57 230.94 389.57 231.6 393.05 233.2C391.93 231.2 388.65 225.69 391.97 225.37C395.29 225.05 398.79 232.37 399.91 234.75C401.56 238.27 403.2 243.13 401.65 246.64C399.89 250.79 397.58 246.61 395.87 244.74Z" fill="black"/>
<path d="M396.34 245.8C393.6 242.5 385.74 241.53 385.81 239.92C385.96 236.65 392.25 237.41 395.34 238.46C393.01 236.46 388.44 232.79 389.85 230.28C391.57 227.22 397.94 233.66 400.38 238.53C403.46 244.66 401.67 248.27 400.51 248.6C398.91 249.06 396.79 246.35 396.34 245.8Z" fill="#118014"/>
<path d="M418.709 300.6L425.559 352.91H383.899C384.759 348.27 392.519 300.54 392.519 300.54L418.709 300.6Z" fill="#118014"/>
<path d="M47.4404 352.76L98.0804 352.51L148.72 352.43L250 352.26L351.28 352.42L401.92 352.51L452.56 352.76L401.92 353L351.28 353.09L250 353.26L148.72 353.09L98.0804 353L47.4404 352.76Z" fill="#263238"/>
<path d="M346.31 408.18L376.48 390.36L414.81 403.19L383.33 422.32L346.31 408.18Z" fill="white"/>
<path d="M382.14 417.36C383.99 415.99 385.9 414.72 387.82 413.45C389.74 412.18 391.7 410.98 393.65 409.78C395.6 408.58 397.59 407.41 399.65 406.3L402.65 404.63C403.65 404.1 404.65 403.55 405.73 403.05C404.8 403.74 403.85 404.38 402.91 405.05L400 407C398.08 408.27 396.13 409.48 394.17 410.68C392.21 411.88 390.23 413.04 388.22 414.16C386.21 415.28 384.21 416.34 382.14 417.36Z" fill="#DBDBDB"/>
<path d="M387.12 410.12C389.26 408.404 391.515 406.837 393.87 405.43C396.202 403.987 398.631 402.707 401.14 401.6C396.838 405.001 392.137 407.862 387.14 410.12H387.12Z" fill="#DBDBDB"/>
<path d="M373.05 414.46C374.9 413.09 376.81 411.82 378.74 410.56C380.67 409.3 382.61 408.08 384.56 406.88C386.51 405.68 388.5 404.52 390.51 403.4L393.51 401.73C394.51 401.21 395.51 400.65 396.58 400.15C395.65 400.84 394.7 401.48 393.76 402.15L390.89 404.06C388.97 405.33 387.02 406.53 385.06 407.73C383.1 408.93 381.12 410.1 379.11 411.21C377.1 412.32 375.12 413.45 373.05 414.46Z" fill="#DBDBDB"/>
<path d="M371.89 411C375.04 408.62 378.36 406.5 381.71 404.44C385.06 402.38 388.48 400.44 392.05 398.74C388.9 401.12 385.58 403.24 382.23 405.3C378.88 407.36 375.45 409.25 371.89 411Z" fill="#DBDBDB"/>
<path d="M375.83 404.35C377.574 402.862 379.441 401.524 381.41 400.35C383.351 399.139 385.392 398.095 387.51 397.23C385.766 398.718 383.899 400.056 381.93 401.23C379.987 402.438 377.946 403.481 375.83 404.35Z" fill="#DBDBDB"/>
<path d="M282.609 421.3L330.269 402.68L376.259 430.41L328.839 449.69L282.609 421.3Z" fill="white"/>
<path d="M328.17 444C331.27 442.52 334.42 441.14 337.57 439.77C340.72 438.4 343.9 437.08 347.07 435.77C350.24 434.46 353.45 433.2 356.66 431.99L361.49 430.18C363.11 429.61 364.72 429.01 366.36 428.47C364.81 429.22 363.24 429.91 361.68 430.64L357 432.76C353.86 434.13 350.68 435.44 347.5 436.76C344.32 438.08 341.13 439.33 337.91 440.54C334.69 441.75 331.43 442.94 328.17 444Z" fill="#DBDBDB"/>
<path d="M340.38 434.17C343.78 432.37 347.29 430.84 350.83 429.38C354.37 427.92 357.96 426.6 361.66 425.52C358.26 427.33 354.75 428.85 351.21 430.31C347.67 431.77 344.08 433.09 340.38 434.17Z" fill="#DBDBDB"/>
<path d="M323.47 436.14C326.18 434.82 328.94 433.59 331.7 432.38C334.46 431.17 337.24 430.02 340.03 428.87C342.82 427.72 345.62 426.62 348.44 425.57L352.68 424C354.11 423.51 355.52 423 356.96 422.53C355.61 423.2 354.23 423.81 352.87 424.45L348.73 426.29C345.98 427.5 343.19 428.65 340.4 429.8C337.61 430.95 334.81 432.04 331.99 433.09C329.17 434.14 326.34 435.2 323.47 436.14Z" fill="#DBDBDB"/>
<path d="M321.25 432.14C323.76 430.89 326.31 429.75 328.86 428.63C331.41 427.51 333.99 426.43 336.57 425.37C339.15 424.31 341.75 423.29 344.37 422.32L348.29 420.88C349.62 420.43 350.93 419.95 352.29 419.53C351.04 420.16 349.77 420.73 348.51 421.33L344.65 423C342.1 424.13 339.53 425.19 336.95 426.26C334.37 427.33 331.77 428.33 329.15 429.26C326.53 430.19 323.91 431.28 321.25 432.14Z" fill="#DBDBDB"/>
<path d="M309.38 432.06C312.48 430.57 315.63 429.19 318.78 427.82C321.93 426.45 325.1 425.14 328.28 423.82C331.46 422.5 334.66 421.26 337.87 420.05L342.7 418.24C344.32 417.67 345.93 417.06 347.56 416.52C346.02 417.27 344.44 417.97 342.88 418.69L338.16 420.76C335.01 422.14 331.84 423.44 328.66 424.76C325.48 426.08 322.28 427.32 319.07 428.53C315.86 429.74 312.64 431 309.38 432.06Z" fill="#DBDBDB"/>
<path d="M309 427.31C311.75 425.97 314.54 424.74 317.33 423.51C320.12 422.28 322.94 421.12 325.76 419.96C328.58 418.8 331.41 417.69 334.27 416.62L338.56 415.03C340 414.53 341.43 414.03 342.89 413.54C341.52 414.21 340.12 414.83 338.74 415.49L334.56 417.34C331.77 418.57 328.95 419.73 326.13 420.89C323.31 422.05 320.48 423.16 317.62 424.22C314.76 425.28 311.88 426.35 309 427.31Z" fill="#DBDBDB"/>
<path d="M300 426.07C303.11 424.58 306.25 423.2 309.4 421.83C312.55 420.46 315.73 419.14 318.91 417.83C322.09 416.52 325.28 415.26 328.5 414.05L333.32 412.24C334.95 411.67 336.55 411.07 338.19 410.53C336.64 411.28 335.07 411.97 333.51 412.7L328.79 414.77C325.64 416.15 322.46 417.45 319.28 418.77C316.1 420.09 312.91 421.33 309.69 422.54C306.47 423.75 303.24 425 300 426.07Z" fill="#DBDBDB"/>
<path d="M310.899 416.72C314.509 414.83 318.239 413.21 321.999 411.67C325.759 410.13 329.559 408.67 333.469 407.54C329.859 409.44 326.129 411.05 322.369 412.54C318.609 414.03 314.809 415.55 310.899 416.72Z" fill="#DBDBDB"/>
<path d="M181.38 395.32L318.18 359.3L381.83 393.41L248.01 438L181.38 395.32Z" fill="#118014"/>
<path d="M189.86 394.7L250.86 433.92L376.27 392.23L314.74 359.55C314.74 359.55 277.21 364.49 275.46 365.03C273.71 365.57 257.16 372.45 257.16 372.45C257.16 372.45 233.94 376.45 232.37 377.01C230.8 377.57 189.86 394.7 189.86 394.7Z" fill="white"/>
<path d="M257.17 372.45L264.62 377.27L272.02 382.17L286.76 392.06L301.41 402.09L308.69 407.16L315.94 412.29L308.49 407.46L301.08 402.57L286.34 392.68L271.7 382.64L264.42 377.58L257.17 372.45Z" fill="#DBDBDB"/>
<path d="M268.82 401C270.4 400.49 272.01 400.05 273.62 399.62C275.23 399.19 276.85 398.81 278.47 398.43C280.09 398.05 281.73 397.71 283.37 397.43C285.01 397.15 286.65 396.83 288.31 396.61C286.72 397.13 285.11 397.61 283.5 397.99C281.89 398.37 280.28 398.8 278.66 399.18C277.04 399.56 275.41 399.9 273.77 400.18C272.13 400.46 270.49 400.8 268.82 401Z" fill="#DBDBDB"/>
<path d="M240.84 417.35C244.97 415.35 249.14 413.49 253.31 411.62C257.48 409.75 261.68 407.92 265.88 406.1C267.98 405.18 270.09 404.31 272.23 403.46C272.775 403.248 273.337 403.08 273.91 402.96L275.59 402.57L278.94 401.83C283.42 400.89 287.94 399.97 292.4 399.15C287.97 400.3 283.52 401.36 279.07 402.43L275.74 403.22C274.634 403.446 273.545 403.747 272.48 404.12C270.37 404.96 268.28 405.9 266.17 406.77L253.53 412.12C249.31 413.89 245.09 415.65 240.84 417.35Z" fill="#DBDBDB"/>
<path d="M245.11 420.16C249.11 418.16 253.11 416.33 257.19 414.47C261.27 412.61 265.3 410.81 269.36 409C271.36 408.09 273.44 407.22 275.5 406.37C276.02 406.16 276.5 405.94 277.08 405.75C277.66 405.56 278.18 405.47 278.72 405.33L281.98 404.6C286.33 403.68 290.69 402.79 295.07 402C290.77 403.13 286.44 404.16 282.12 405.22L278.88 405.99C278.34 406.13 277.79 406.25 277.29 406.42C276.79 406.59 276.29 406.81 275.77 407.02L269.65 409.66C265.56 411.41 261.51 413.24 257.41 414.97C253.31 416.7 249.23 418.46 245.11 420.16Z" fill="#DBDBDB"/>
<path d="M249.35 422.48C253.43 420.687 257.533 418.95 261.66 417.27C265.77 415.54 269.92 413.92 274.06 412.27C276.14 411.45 278.18 410.62 280.35 409.91L286.78 408.1C291.08 406.95 295.39 405.78 299.72 404.72C295.48 406.12 291.22 407.41 286.96 408.72L280.54 410.6C278.48 411.3 276.4 412.18 274.32 412.96C270.16 414.55 266.03 416.22 261.86 417.79C257.69 419.36 253.54 421 249.35 422.48Z" fill="#DBDBDB"/>
<path d="M310.79 402.17C314.58 400.32 318.43 398.61 322.33 397.01C323.33 396.61 324.28 396.2 325.27 395.84C325.77 395.66 326.27 395.47 326.8 395.32L328.33 394.91L334.44 393.29C338.5 392.19 342.59 391.17 346.67 390.11C350.75 389.05 354.83 388.03 358.93 387.03C354.88 388.22 350.84 389.39 346.78 390.53C342.72 391.67 338.67 392.83 334.61 393.92L328.51 395.59L327 396C326.53 396.14 326 396.33 325.54 396.52L322.6 397.65C318.68 399.21 314.76 400.75 310.79 402.17Z" fill="#DBDBDB"/>
<path d="M306.66 398.94C310.427 397.36 314.23 395.887 318.07 394.52C320 393.84 321.9 393.12 323.91 392.59L329.81 390.98C333.73 389.89 337.68 388.87 341.62 387.82C345.56 386.77 349.51 385.76 353.47 384.77C349.56 385.95 345.66 387.12 341.74 388.25C337.82 389.38 333.91 390.53 329.98 391.62L324.09 393.28C323.09 393.53 322.17 393.88 321.2 394.2L318.3 395.2C314.45 396.5 310.57 397.77 306.66 398.94Z" fill="#DBDBDB"/>
<path d="M302.68 396.07C306.433 394.523 310.216 393.07 314.03 391.71C315.94 391.04 317.83 390.33 319.8 389.71L325.71 388.27C329.64 387.27 333.58 386.4 337.53 385.47C341.48 384.54 345.42 383.66 349.38 382.79C345.47 383.86 341.56 384.91 337.64 385.91C333.72 386.91 329.8 387.91 325.87 388.91C323.92 389.4 321.93 389.91 320 390.39L314.25 392.3C310.423 393.653 306.566 394.91 302.68 396.07Z" fill="#DBDBDB"/>
<path d="M299.28 394C302.88 392.06 306.57 390.36 310.34 388.77C310.81 388.57 311.28 388.39 311.77 388.22C312.266 388.042 312.774 387.901 313.29 387.8L316.29 387.15L322.29 385.87C330.29 384.22 338.24 382.59 346.24 381.07C338.32 382.95 330.37 384.73 322.43 386.5L316.43 387.82L313.43 388.49C312.46 388.743 311.514 389.078 310.6 389.49C306.85 390.91 303.11 392.54 299.28 394Z" fill="#DBDBDB"/>
<path d="M295.55 391.35C299.15 389.42 302.84 387.71 306.61 386.13C307.08 385.93 307.55 385.75 308.05 385.58C308.541 385.401 309.046 385.26 309.56 385.16L312.56 384.51L318.56 383.23C326.56 381.57 334.51 379.95 342.51 378.43C334.59 380.31 326.64 382.09 318.7 383.86L312.7 385.18L309.7 385.85C308.727 386.094 307.78 386.429 306.87 386.85C303.12 388.32 299.38 390 295.55 391.35Z" fill="#DBDBDB"/>
<path d="M291.82 388.76C295.42 386.83 299.11 385.12 302.88 383.54C303.35 383.34 303.83 383.15 304.32 382.98C304.812 382.805 305.317 382.668 305.83 382.57L308.83 381.91L314.83 380.64C322.83 378.98 330.83 377.36 338.83 375.84C330.91 377.71 322.96 379.49 315.02 381.27L309.02 382.58L306.02 383.26C305.048 383.504 304.1 383.839 303.19 384.26C299.39 385.72 295.66 387.36 291.82 388.76Z" fill="#DBDBDB"/>
<path d="M288.09 386.17C291.69 384.23 295.38 382.53 299.15 380.94C299.62 380.74 300.15 380.56 300.59 380.39C301.082 380.212 301.587 380.071 302.1 379.97L305.1 379.32L311.1 378.05C319.1 376.39 327.05 374.76 335.05 373.25C327.13 375.12 319.19 376.9 311.24 378.68L305.24 379.99L302.24 380.66C301.269 380.909 300.322 381.243 299.41 381.66C295.66 383.13 291.93 384.77 288.09 386.17Z" fill="#DBDBDB"/>
<path d="M283.28 384.08C286.88 382.15 290.57 380.45 294.34 378.86C294.81 378.66 295.34 378.48 295.78 378.31C296.272 378.132 296.777 377.991 297.29 377.89L300.29 377.24L306.29 375.96C314.29 374.3 322.24 372.68 330.24 371.16C322.32 373.04 314.38 374.82 306.43 376.59L300.43 377.91L297.43 378.58C296.46 378.833 295.514 379.168 294.6 379.58C290.85 381.05 287.12 382.68 283.28 384.08Z" fill="#DBDBDB"/>
<path d="M278.609 382C282.199 380.07 285.899 378.37 289.659 376.78C290.129 376.58 290.609 376.4 291.099 376.23C291.592 376.053 292.096 375.913 292.609 375.81L295.609 375.16L301.609 373.88C309.609 372.22 317.549 370.6 325.549 369.08C317.629 370.96 309.689 372.74 301.739 374.51L295.739 375.83L292.739 376.5C291.766 376.752 290.816 377.086 289.899 377.5C286.169 379 282.439 380.62 278.609 382Z" fill="#DBDBDB"/>
<path d="M274.88 379.43C278.46 377.5 282.15 375.8 285.88 374.21C286.35 374.01 286.82 373.83 287.31 373.66C287.804 373.481 288.312 373.343 288.83 373.25L291.83 372.64L297.83 371.47C305.83 369.96 313.83 368.47 321.83 367.12C313.88 368.84 305.92 370.47 297.96 372.12L291.96 373.34L288.96 373.96C287.99 374.203 287.046 374.537 286.14 374.96C282.42 376.4 278.7 378 274.88 379.43Z" fill="#DBDBDB"/>
<path d="M271.149 376.84C274.729 374.91 278.409 373.21 282.149 371.63C282.619 371.43 283.099 371.24 283.579 371.08C284.072 370.896 284.581 370.759 285.099 370.67L288.099 370.11L294.099 369.06C302.099 367.71 310.099 366.41 318.099 365.22C310.099 366.77 302.149 368.22 294.169 369.7L288.169 370.79L285.169 371.36C284.204 371.585 283.263 371.903 282.359 372.31C278.679 373.81 274.999 375.44 271.149 376.84Z" fill="#DBDBDB"/>
<path d="M267.42 374.25C270.99 372.32 274.67 370.62 278.42 369.05C278.89 368.85 279.36 368.66 279.85 368.49C280.342 368.305 280.851 368.171 281.37 368.09L284.37 367.62L290.37 366.77C294.37 366.21 298.37 365.71 302.42 365.19C306.47 364.67 310.42 364.19 314.48 363.75C306.48 365.03 298.48 366.21 290.48 367.41L284.48 368.3L281.48 368.79C280.516 369.002 279.577 369.317 278.68 369.73C274.94 371.23 271.23 372.85 267.42 374.25Z" fill="#DBDBDB"/>
<path d="M253.68 426.08C257.85 424.39 262.05 422.76 266.26 421.16C270.47 419.56 274.7 418 278.92 416.43C281.04 415.65 283.14 414.91 285.31 414.19L291.78 412.24C296.1 410.98 300.43 409.72 304.78 408.56C300.53 410.05 296.24 411.44 291.95 412.83L285.51 414.83C283.41 415.53 281.29 416.35 279.17 417.09L266.45 421.64C262.21 423.17 258 424.66 253.68 426.08Z" fill="#DBDBDB"/>
<path d="M313.859 405.34C318.079 403.73 322.329 402.19 326.589 400.67C330.849 399.15 335.119 397.67 339.389 396.21C341.529 395.47 343.649 394.77 345.849 394.09L352.379 392.28C356.739 391.11 361.099 389.93 365.489 388.86C361.199 390.26 356.869 391.56 352.539 392.86L346.029 394.76C343.909 395.42 341.759 396.2 339.619 396.89L326.769 401.18C322.469 402.6 318.179 404 313.859 405.34Z" fill="#DBDBDB"/>
<path d="M189.78 412.62C193.11 412.14 197.4 412.14 197.64 414.05C197.88 415.96 196.37 416.99 196.84 417.94C197.31 418.89 200.02 420.64 201.29 421.94C202.352 423.068 203.115 424.443 203.51 425.94C203.51 426.42 204.31 427.21 203.51 428.17C202.71 429.13 202.27 430.55 201.62 431.27C200.97 431.99 200.69 432.77 201.62 434.04C202.55 435.31 201.77 438.97 200.34 440.24C198.91 441.51 194.78 438.49 193.51 438.81C192.24 439.13 192.08 439.75 190.97 440.55C189.86 441.35 187.15 443.26 184.3 443.26C181.45 443.26 180.01 440.71 178.3 439.6C176.59 438.49 174.97 438.33 173.38 437.7C171.952 437.123 170.693 436.194 169.72 435C169.41 434.36 168.29 434.2 168.72 432.46C169.15 430.72 169.99 430.23 169.99 428.8C169.99 427.37 169.99 427.12 169.99 425.5C169.99 423.88 168.71 421.02 169.82 419.75C170.93 418.48 171.73 416.57 173.48 416.57C175.23 416.57 180.78 417.57 180.78 417.57C181.371 416.929 181.903 416.236 182.37 415.5C182.771 414.834 183.335 414.281 184.009 413.893C184.682 413.505 185.443 413.294 186.22 413.28C187.434 413.249 188.636 413.026 189.78 412.62Z" fill="white"/>
<path d="M170 428.74C172.27 429.79 174.58 430.74 176.91 431.64C179.24 432.54 181.52 433.53 183.85 434.39C186.137 435.281 188.474 436.035 190.85 436.65C191.324 436.77 191.811 436.827 192.3 436.82L193.71 436.12C194.758 435.578 195.762 434.952 196.71 434.25C197.63 433.622 198.415 432.816 199.02 431.88C199.151 431.666 199.265 431.442 199.36 431.21L199.46 430.86L199.51 430.7C199.387 430.306 199.179 429.944 198.9 429.64C197.26 427.868 195.437 426.276 193.46 424.89C191.46 423.42 189.46 422.03 187.31 420.72C186.31 420.04 185.21 419.38 184.13 418.72C183.59 418.413 183.04 418.123 182.48 417.85C182.2 417.71 181.92 417.58 181.64 417.46C181.37 417.39 181 417.16 180.79 417.46C180.98 417.16 181.4 417.34 181.68 417.36C181.96 417.38 182.3 417.51 182.6 417.6C183.2 417.8 183.79 418.03 184.37 418.27C185.53 418.75 186.68 419.27 187.81 419.83C190.05 420.97 192.237 422.217 194.37 423.57C196.591 424.898 198.628 426.512 200.43 428.37C201.015 428.976 201.399 429.748 201.53 430.58C201.55 430.736 201.55 430.894 201.53 431.05L201.45 431.35L201.29 431.9C201.163 432.248 201.002 432.583 200.81 432.9C200.08 434.079 199.121 435.099 197.99 435.9C196.923 436.652 195.8 437.321 194.63 437.9L193.77 438.32L193.35 438.52L193.11 438.63C192.958 438.692 192.801 438.739 192.64 438.77C191.882 438.835 191.119 438.757 190.39 438.54C187.942 437.828 185.554 436.922 183.25 435.83C178.655 433.817 174.224 431.446 170 428.74Z" fill="#C7C7C7"/>
<path d="M179.479 433.05C180.703 431.112 182.081 429.277 183.6 427.56C184.35 426.68 185.159 425.87 185.969 425.05C186.389 424.64 186.829 424.26 187.289 423.88C187.796 423.44 188.357 423.066 188.96 422.77C189.064 422.727 189.171 422.691 189.279 422.66C189.501 422.625 189.728 422.625 189.949 422.66C190.281 422.724 190.584 422.888 190.82 423.13C191.058 423.374 191.276 423.639 191.469 423.92C191.833 424.406 192.167 424.914 192.469 425.44C193.019 426.44 193.559 427.44 194.009 428.54C194.999 430.619 195.727 432.812 196.179 435.07L192.57 429.3C191.96 428.35 191.399 427.38 190.779 426.47C190.479 426.01 190.179 425.54 189.869 425.14C189.737 424.961 189.594 424.79 189.439 424.63C189.439 424.63 189.44 424.63 189.6 424.7C189.677 424.73 189.762 424.73 189.839 424.7H189.759C189.344 424.907 188.955 425.162 188.6 425.46L187.339 426.46L184.789 428.65C183.049 430.19 181.329 431.68 179.479 433.05Z" fill="#C7C7C7"/>
<path d="M128.189 428.44C126.389 428.87 124.039 429.09 123.809 428.06C123.579 427.03 124.349 426.38 124.039 425.89C123.21 425.175 122.327 424.523 121.399 423.94C120.761 423.383 120.273 422.675 119.979 421.88C119.979 421.62 119.479 421.22 119.869 420.66C120.259 420.1 120.419 419.29 120.739 418.86C120.841 418.756 120.919 418.632 120.968 418.495C121.017 418.358 121.035 418.212 121.022 418.068C121.009 417.923 120.964 417.783 120.891 417.657C120.818 417.532 120.719 417.423 120.599 417.34C120.019 416.69 120.269 414.65 120.989 413.88C121.709 413.11 124.119 414.56 124.799 414.32C125.479 414.08 125.539 413.72 126.099 413.23C127.067 412.288 128.292 411.655 129.619 411.41C131.189 411.26 132.099 412.58 133.109 413.1C134.012 413.463 134.951 413.728 135.909 413.89C136.721 414.132 137.457 414.576 138.049 415.18C138.259 415.51 138.869 415.54 138.699 416.52C138.529 417.5 138.119 417.81 138.189 418.59C138.259 419.37 138.269 419.51 138.359 420.4C138.449 421.29 139.289 422.79 138.749 423.54C138.209 424.29 137.859 425.38 136.909 425.47C135.959 425.56 132.909 425.32 132.909 425.32C132.615 425.702 132.358 426.11 132.139 426.54C131.954 426.926 131.673 427.258 131.323 427.505C130.973 427.752 130.565 427.905 130.139 427.95C129.468 428.01 128.81 428.175 128.189 428.44Z" fill="white"/>
<path d="M121.28 418.24C122.28 417.24 123.28 416.29 124.28 415.32L125.05 414.62L125.43 414.28C125.658 414.102 125.92 413.973 126.2 413.9C126.933 413.737 127.68 413.643 128.43 413.62C129.878 413.56 131.328 413.641 132.76 413.86C133.569 413.965 134.354 414.208 135.08 414.58C135.586 414.91 135.944 415.422 136.08 416.01C136.201 416.439 136.258 416.884 136.25 417.33C136.156 418.838 135.818 420.32 135.25 421.72C134.977 422.403 134.667 423.071 134.32 423.72C134.136 424.066 133.929 424.4 133.7 424.72C133.409 425.126 133.006 425.439 132.54 425.62C131.089 426.023 129.571 426.122 128.08 425.91C126.678 425.763 125.288 425.519 123.92 425.18C125.32 425.07 126.71 425.05 128.08 424.88C129.371 424.834 130.647 424.584 131.86 424.14C132.12 424 132.05 424 132.26 423.72C132.47 423.44 132.55 423.19 132.68 422.9C132.955 422.303 133.189 421.688 133.38 421.06C133.817 419.861 134.073 418.604 134.14 417.33C134.168 416.95 134.335 416.594 134.61 416.33C133.866 416.095 133.103 415.921 132.33 415.81C131.012 415.527 129.675 415.344 128.33 415.26C127.688 415.21 127.043 415.21 126.4 415.26C126.28 415.26 126.16 415.32 126.21 415.26L125.76 415.55L124.87 416.12C123.7 416.81 122.53 417.58 121.28 418.24Z" fill="#C7C7C7"/>
<path d="M125.6 415.57C125.68 416.91 125.6 418.19 125.73 419.36C125.73 419.91 125.9 420.58 126.04 420.61C126.18 420.64 126.04 420.61 125.99 420.61C125.94 420.61 125.99 420.61 126.11 420.61C126.351 420.599 126.592 420.573 126.83 420.53C127.96 420.34 129.18 420 130.41 419.74C131.67 419.442 132.95 419.235 134.24 419.12C132.207 420.845 129.777 422.037 127.17 422.59C126.778 422.642 126.384 422.662 125.99 422.65C125.712 422.625 125.439 422.561 125.18 422.46C124.869 422.311 124.606 422.079 124.42 421.79C124.019 421.036 123.905 420.162 124.1 419.33C124.324 417.983 124.835 416.701 125.6 415.57Z" fill="#C7C7C7"/>
<path d="M110.51 402.06C109.58 399.24 109.74 395.97 106.51 396.32C103.28 396.67 101.43 392.69 99.9999 391.74C98.5699 390.79 93.4899 391.74 92.3799 392.69C91.2699 393.64 90.7899 395.5 89.6799 396.32C88.5699 397.14 86.9799 398.41 85.5499 399.68C84.1199 400.95 82.0599 402.68 82.6899 405.87C83.3199 409.06 84.7599 410.14 85.6899 411.74C86.6199 413.34 85.0499 416.2 86.3199 419.85C87.5899 423.5 93.7899 424.93 95.3799 424.3C96.9699 423.67 101.21 420.96 103.53 420.96C105.85 420.96 106.53 422.87 108.53 421.76C110.53 420.65 113.61 418.26 113.77 417.31C113.93 416.36 112.02 415.52 112.66 414.03C113.3 412.54 115.84 409.75 115.52 407.89C115.2 406.03 111.22 404.22 110.51 402.06Z" fill="white"/>
<path d="M104.62 396C100.699 397.258 96.8698 398.785 93.1595 400.57C92.7554 400.781 92.3735 401.033 92.0195 401.32C91.8695 401.32 91.7795 402.05 91.6895 402.49C91.5195 403.49 91.3895 404.49 91.2895 405.49C91.0795 407.49 90.9195 409.58 90.9095 411.61C90.8855 412.596 90.939 413.582 91.0695 414.56C91.0936 414.833 91.1647 415.101 91.2795 415.35C91.6345 415.517 92.0117 415.631 92.3995 415.69C94.3855 415.98 96.3949 416.077 98.3995 415.98C99.4029 415.956 100.404 415.879 101.4 415.75C102.26 415.61 103.4 415.32 104.4 415.15C106.4 414.74 108.46 414.35 110.4 413.85C110.863 413.737 111.32 413.6 111.77 413.44C111.851 413.42 111.929 413.386 112 413.34C112.11 413.34 112 413.34 112 413.34C111.926 413.385 111.872 413.457 111.85 413.54C111.729 413.771 111.704 414.04 111.78 414.29C111.814 414.422 111.883 414.543 111.98 414.64C112.015 414.681 112.055 414.718 112.1 414.75L111.83 414.64C110.94 414.35 109.92 414.11 108.93 413.88L102.93 412.53C100.93 412.09 98.9295 411.64 96.8595 411.13C95.8595 410.86 94.8595 410.6 93.8095 410.25C93.189 410.063 92.6091 409.761 92.0995 409.36C92.0299 409.295 91.9694 409.221 91.9195 409.14C91.8482 409.023 91.7974 408.894 91.7695 408.76C91.7695 408.63 91.7695 408.51 91.7695 408.38C91.7749 408.181 91.8155 407.985 91.8895 407.8C91.9839 407.506 92.1044 407.222 92.2495 406.95C93.3519 405.115 94.6715 403.419 96.1795 401.9C96.5595 401.53 96.9295 401.15 97.3295 400.8C97.5395 400.62 97.7395 400.44 97.9595 400.27C98.0703 400.179 98.1873 400.095 98.3095 400.02C98.4614 399.894 98.6388 399.801 98.8295 399.75C99.0356 399.713 99.247 399.72 99.4502 399.77C99.6534 399.82 99.844 399.912 100.01 400.04C100.25 400.201 100.478 400.382 100.69 400.58C101.079 400.951 101.447 401.345 101.79 401.76C104.312 405.07 106.569 408.575 108.54 412.24C106.241 408.819 103.729 405.546 101.02 402.44C100.67 402.08 100.32 401.72 99.9595 401.44C99.7201 401.218 99.4422 401.042 99.1395 400.92L98.9895 401.03C98.8925 401.09 98.802 401.161 98.7195 401.24C98.5395 401.39 98.3595 401.57 98.1895 401.74C97.8295 402.09 97.4895 402.46 97.1895 402.83C95.8505 404.313 94.6892 405.947 93.7295 407.7C93.6365 407.889 93.5628 408.086 93.5095 408.29C93.5095 408.35 93.4495 408.48 93.5095 408.46C93.4973 408.385 93.4701 408.314 93.4295 408.25L93.3795 408.18C93.728 408.356 94.0932 408.497 94.4695 408.6C95.3995 408.9 96.3995 409.15 97.3895 409.39C99.3895 409.86 101.39 410.28 103.39 410.69L111.15 412.18C112.15 412.41 111.5 412.38 112.59 412.72L113.04 412.89C113.148 412.933 113.251 412.987 113.35 413.05C113.454 413.112 113.549 413.189 113.63 413.28C113.745 413.402 113.831 413.549 113.88 413.71C113.962 413.993 113.933 414.297 113.8 414.56C113.68 414.734 113.535 414.889 113.37 415.02C113.28 415.091 113.183 415.151 113.08 415.2C112.93 415.286 112.773 415.356 112.61 415.41C112.088 415.612 111.553 415.779 111.01 415.91C108.94 416.41 106.9 416.77 104.87 417.15C103.8 417.33 102.96 417.53 101.77 417.72C100.707 417.84 99.6389 417.907 98.5695 417.92C96.4342 417.992 94.2969 417.852 92.1895 417.5C91.5521 417.4 90.9404 417.176 90.3895 416.84C90.0361 416.57 89.7828 416.19 89.6695 415.76C89.5691 415.462 89.5053 415.153 89.4795 414.84C89.3948 413.762 89.3948 412.678 89.4795 411.6C89.5895 409.49 89.8395 407.43 90.1495 405.36C90.3095 404.36 90.4795 403.3 90.7095 402.27C90.8995 401.74 90.7795 401.27 91.4095 400.56C91.8504 400.194 92.3422 399.894 92.8695 399.67C94.7947 398.855 96.7685 398.161 98.7795 397.59C100.6 397 102.59 396.4 104.62 396Z" fill="#C7C7C7"/>
<path d="M265.83 228.9C298.33 261.83 339.2 331.11 331.58 345.16C323.1 360.8 277.85 314.63 278.02 311.94C278.16 309.94 262.24 267.81 250.16 237.21C238.08 206.61 257.8 220.75 265.83 228.9Z" fill="#AD6359"/>
<path d="M277.719 312C276.339 307.5 254.719 252 248.489 234.45C242.259 216.9 248.039 211.45 265.719 227.55C283.399 243.65 322.159 297.31 330.999 325.8C339.519 353.26 325.389 353.26 306.739 340.6C291.469 330.24 277.719 312 277.719 312Z" fill="#118014"/>
<path d="M262.65 229.36C262.455 230.59 262.085 231.785 261.55 232.91C261.036 234.05 260.362 235.11 259.55 236.06C259.743 234.83 260.113 233.634 260.65 232.51C261.164 231.37 261.837 230.31 262.65 229.36Z" fill="white"/>
<path d="M318.209 302.51C318.007 303.741 317.637 304.939 317.109 306.07C316.599 307.211 315.925 308.272 315.109 309.22C315.53 306.752 316.592 304.438 318.189 302.51H318.209Z" fill="white"/>
<path d="M299.05 273.36C298.626 275.824 297.564 278.134 295.97 280.06C296.166 278.829 296.54 277.633 297.08 276.51C297.584 275.372 298.248 274.312 299.05 273.36Z" fill="white"/>
<path d="M280.33 271.17C279.1 270.969 277.905 270.595 276.78 270.06C275.638 269.55 274.577 268.876 273.63 268.06C276.094 268.483 278.404 269.545 280.33 271.14V271.17Z" fill="white"/>
<path d="M298.27 300.65C297.038 300.448 295.84 300.078 294.71 299.55C293.57 299.036 292.51 298.362 291.56 297.55C294.028 297.971 296.342 299.033 298.27 300.63V300.65Z" fill="white"/>
<path d="M283.689 250.15C282.457 249.952 281.259 249.582 280.129 249.05C278.988 248.539 277.927 247.866 276.979 247.05C278.21 247.246 279.406 247.62 280.529 248.16C281.67 248.673 282.734 249.343 283.689 250.15Z" fill="white"/>
<path d="M268.58 283.91C270.02 285.955 270.903 288.34 271.14 290.83C269.7 288.785 268.817 286.4 268.58 283.91Z" fill="white"/>
<path d="M306.109 319C306.842 320.011 307.424 321.123 307.839 322.3C308.289 323.46 308.569 324.68 308.669 325.92C307.229 323.875 306.347 321.49 306.109 319Z" fill="white"/>
<path d="M285.3 315.93C284.363 316.619 283.333 317.171 282.24 317.57L281.59 316.79H281.67C282.832 316.33 284.055 316.041 285.3 315.93Z" fill="white"/>
<path d="M322.51 338.56C323.523 337.829 324.634 337.243 325.81 336.82C326.97 336.37 328.189 336.091 329.43 335.99C328.423 336.724 327.315 337.306 326.14 337.72C324.975 338.169 323.753 338.452 322.51 338.56Z" fill="white"/>
<path d="M263 255.58C261.988 256.312 260.877 256.895 259.7 257.31C258.889 257.616 258.052 257.847 257.2 258L257.02 257.51C257.769 257.075 258.555 256.707 259.37 256.41C260.533 255.959 261.756 255.679 263 255.58Z" fill="white"/>
<path d="M273.84 352.76H150.3C150.3 352.76 169.94 255.87 217.3 213.93C223.15 208.75 236.36 209.93 244.98 214.21C248.05 215.74 259.1 231.21 262.25 245.8C265.4 260.39 274.18 352.32 273.84 352.76Z" fill="#118014"/>
<path d="M263.339 251.84C264.339 255.1 265.109 258.49 265.769 261.84C265.769 261.71 265.769 261.58 265.769 261.44C265.769 259.54 265.829 257.59 266.039 255.69C266.039 255.59 266.209 255.56 266.219 255.69C266.468 257.613 266.521 259.556 266.379 261.49C266.379 262.4 266.269 263.32 266.199 264.23C266.459 265.75 266.689 267.28 266.879 268.79C267.239 271.68 268.209 282.41 268.289 284.54C268.289 284.99 267.799 285.07 267.669 284.6C267.089 282.44 265.549 271.38 265.059 268.53C264.105 263.003 263.454 257.428 263.109 251.83C263.119 251.73 263.309 251.73 263.339 251.84Z" fill="#263238"/>
<path d="M225.06 239.22C224.639 241.688 223.577 244.002 221.98 245.93C222.174 244.699 222.548 243.503 223.09 242.38C223.594 241.239 224.257 240.175 225.06 239.22ZM208.32 288.42C207.783 289.547 207.413 290.746 207.22 291.98C208.035 291.029 208.709 289.964 209.22 288.82C209.752 287.694 210.122 286.499 210.32 285.27C209.504 286.218 208.83 287.279 208.32 288.42ZM168.19 306C167.658 307.126 167.287 308.321 167.09 309.55C167.905 308.602 168.579 307.541 169.09 306.4C169.622 305.271 169.992 304.072 170.19 302.84C169.377 303.794 168.704 304.858 168.19 306ZM197.69 337.54C197.153 338.664 196.783 339.86 196.59 341.09C197.405 340.142 198.079 339.081 198.59 337.94C199.117 336.809 199.487 335.611 199.69 334.38C198.873 335.345 198.199 336.423 197.69 337.58V337.54ZM249.19 276.59C248.658 277.716 248.287 278.911 248.09 280.14C248.905 279.192 249.579 278.131 250.09 276.99C250.622 275.864 250.992 274.669 251.19 273.44C250.378 274.405 249.704 275.479 249.19 276.63V276.59ZM265.42 310.06C264.883 311.187 264.513 312.386 264.32 313.62C265.136 312.673 265.809 311.612 266.32 310.47C266.837 309.368 267.2 308.201 267.4 307C266.595 307.934 265.928 308.977 265.42 310.1V310.06ZM226.15 334.18C225.618 335.309 225.247 336.508 225.05 337.74C225.865 336.792 226.539 335.731 227.05 334.59C227.582 333.461 227.952 332.262 228.15 331.03C227.334 331.992 226.661 333.067 226.15 334.22V334.18ZM188.52 269C187.985 270.125 187.614 271.32 187.42 272.55C188.232 271.6 188.906 270.54 189.42 269.4C189.956 268.276 190.327 267.08 190.52 265.85C189.707 266.8 189.033 267.86 188.52 269ZM235.22 258C234.096 257.463 232.9 257.093 231.67 256.9C232.617 257.716 233.678 258.389 234.82 258.9C235.947 259.428 237.141 259.798 238.37 260C237.422 259.184 236.361 258.511 235.22 258ZM243 297.71C241.876 297.173 240.68 296.803 239.45 296.61C240.397 297.426 241.458 298.099 242.6 298.61C243.727 299.136 244.922 299.506 246.15 299.71C245.202 298.894 244.141 298.221 243 297.71ZM170.36 339.83C169.235 339.295 168.039 338.925 166.81 338.73C167.757 339.546 168.818 340.219 169.96 340.73C171.087 341.258 172.281 341.628 173.51 341.83C172.565 341.015 171.507 340.341 170.37 339.83H170.36ZM244.28 347.88C243.152 347.344 241.953 346.974 240.72 346.78C241.671 347.591 242.731 348.264 243.87 348.78L244.63 349.11L246.63 349.24C245.893 348.715 245.11 348.26 244.29 347.88H244.28ZM198.13 307.65C197.005 307.115 195.809 306.745 194.58 306.55C195.527 307.366 196.588 308.04 197.73 308.55C198.855 309.085 200.05 309.459 201.28 309.66C200.336 308.842 199.278 308.165 198.14 307.65H198.13ZM235.21 222.77C234.086 222.233 232.89 221.863 231.66 221.67C232.607 222.486 233.668 223.16 234.81 223.67C235.935 224.205 237.13 224.579 238.36 224.78C237.416 223.962 236.358 223.285 235.22 222.77H235.21ZM243.21 241.21C243.642 242.388 244.245 243.497 245 244.5C244.762 242.01 243.88 239.625 242.44 237.58C242.523 238.821 242.786 240.044 243.22 241.21H243.21ZM262.83 333.21C263.246 334.384 263.828 335.492 264.56 336.5C264.322 334.01 263.44 331.625 262 329.58C262.109 330.807 262.391 332.012 262.84 333.16L262.83 333.21ZM209.83 264.37C210.243 265.545 210.826 266.653 211.56 267.66C211.459 266.42 211.179 265.2 210.73 264.04C210.306 262.864 209.721 261.753 208.99 260.74C209.108 261.967 209.398 263.172 209.85 264.32L209.83 264.37ZM225.1 304.8C225.523 305.973 226.109 307.08 226.84 308.09C226.605 305.598 225.718 303.211 224.27 301.17C224.375 302.413 224.654 303.635 225.1 304.8ZM154.31 352.25C154.31 352.42 154.31 352.59 154.31 352.76H154.63C154.55 352.593 154.443 352.423 154.31 352.25ZM189.09 352.09C188.666 350.914 188.081 349.803 187.35 348.79C187.454 350.033 187.733 351.255 188.18 352.42L188.31 352.76H189.31C189.24 352.54 189.17 352.31 189.09 352.09ZM182 323.56C182.415 324.737 182.997 325.849 183.73 326.86C183.63 325.616 183.35 324.393 182.9 323.23C182.478 322.056 181.893 320.949 181.16 319.94C181.268 321.18 181.551 322.399 182 323.56ZM211.91 228.32C212.331 229.494 212.917 230.601 213.65 231.61C213.4 229.124 212.515 226.744 211.08 224.7C211.182 225.939 211.458 227.158 211.9 228.32H211.91ZM245 321.67C246.175 321.256 247.283 320.674 248.29 319.94C247.049 320.041 245.83 320.32 244.67 320.77C243.496 321.188 242.389 321.77 241.38 322.5C242.62 322.399 243.839 322.12 245 321.67ZM212.66 351.42C213.837 351.005 214.948 350.422 215.96 349.69C214.716 349.79 213.493 350.069 212.33 350.52C211.156 350.938 210.049 351.52 209.04 352.25C210.266 352.146 211.472 351.866 212.62 351.42H212.66ZM157.66 324.48C157.58 324.76 157.49 325.05 157.41 325.32C158.001 325.042 158.563 324.707 159.09 324.32C158.596 324.336 158.105 324.389 157.62 324.48H157.66ZM185.86 290.22C187.035 289.803 188.143 289.217 189.15 288.48C186.661 288.732 184.279 289.616 182.23 291.05C183.459 290.942 184.667 290.663 185.82 290.22H185.86ZM211.75 323C212.925 322.586 214.033 322.004 215.04 321.27C213.796 321.371 212.573 321.651 211.41 322.1C210.237 322.523 209.13 323.109 208.12 323.84C209.363 323.731 210.585 323.448 211.75 323ZM227.15 276C228.325 275.583 229.433 274.997 230.44 274.26C229.196 274.364 227.973 274.647 226.81 275.1C225.636 275.518 224.529 276.1 223.52 276.83C224.763 276.726 225.985 276.446 227.15 276ZM259.74 257.31C260.917 256.895 262.028 256.312 263.04 255.58C260.55 255.817 258.165 256.7 256.12 258.14C257.36 258.039 258.579 257.76 259.74 257.31ZM201.46 246.38C202.635 245.966 203.743 245.384 204.75 244.65C203.509 244.749 202.29 245.029 201.13 245.48C199.954 245.9 198.843 246.482 197.83 247.21C199.073 247.11 200.296 246.831 201.46 246.38Z" fill="white"/>
<path d="M244.429 234.68C236.999 236.14 224.679 224.32 219.999 215C219.679 214.35 220.899 207.76 221.999 199.68C222.659 194.78 223.269 189.3 223.459 184.26C223.459 183.26 254.769 193.18 254.769 193.18C254.769 193.18 251.249 203.62 250.959 212.4C250.94 213.096 250.984 213.792 251.089 214.48C251.096 214.597 251.096 214.713 251.089 214.83C251.639 218.73 251.649 233.26 244.429 234.68Z" fill="#AD6359"/>
<path d="M247.9 214.82C248.981 214.912 250.068 214.912 251.15 214.82C251.156 214.707 251.156 214.593 251.15 214.48C251.039 213.793 250.996 213.096 251.02 212.4C251.31 203.62 254.82 193.18 254.82 193.18C254.82 193.18 229.45 185.1 224.39 184.25C225.11 190.06 229.28 213.67 247.9 214.82Z" fill="#263238"/>
<path d="M215.72 153.29C213.29 164.76 221.99 196.52 230.57 203.02C242.99 212.45 261.94 211.81 269.57 197.19C276.99 183.02 264.91 141.83 255.47 136.06C241.59 127.57 219.32 136.35 215.72 153.29Z" fill="#AD6359"/>
<path d="M248.299 171.59C248.299 171.51 248.159 171.73 248.189 171.82C248.829 173.94 249.189 176.49 247.469 177.72C247.409 177.72 247.469 177.86 247.519 177.83C249.789 176.86 249.249 173.5 248.299 171.59Z" fill="#263238"/>
<path d="M245.789 169.86C242.269 170.53 243.859 177.51 247.119 176.86C250.379 176.21 248.739 169.31 245.789 169.86Z" fill="#263238"/>
<path d="M261.51 168.28C261.51 168.19 261.7 168.34 261.72 168.43C262.14 170.61 262.99 173.03 265.11 173.31C265.18 173.31 265.19 173.43 265.11 173.43C262.66 173.64 261.56 170.41 261.51 168.28Z" fill="#263238"/>
<path d="M262.92 165.58C266.34 164.52 268.2 171.44 265.03 172.42C261.86 173.4 260.06 166.46 262.92 165.58Z" fill="#263238"/>
<path d="M242.659 169.19C243.621 168.996 244.572 168.753 245.509 168.46C246.545 168.335 247.513 167.879 248.269 167.16C248.46 166.885 248.555 166.554 248.538 166.22C248.522 165.885 248.396 165.565 248.179 165.31C247.677 164.869 247.067 164.571 246.411 164.446C245.755 164.322 245.078 164.375 244.449 164.6C243.1 164.854 241.894 165.603 241.069 166.7C240.898 166.961 240.806 167.266 240.805 167.578C240.803 167.89 240.891 168.196 241.059 168.459C241.227 168.722 241.468 168.931 241.751 169.061C242.035 169.19 242.35 169.235 242.659 169.19Z" fill="#263238"/>
<path d="M264.819 161.45C263.839 161.47 262.857 161.44 261.879 161.36C260.834 161.478 259.779 161.246 258.879 160.7C258.632 160.475 258.466 160.174 258.409 159.845C258.351 159.515 258.404 159.176 258.559 158.88C258.953 158.339 259.484 157.913 260.098 157.646C260.711 157.379 261.385 157.28 262.049 157.36C263.419 157.315 264.756 157.782 265.799 158.67C266.027 158.884 266.188 159.159 266.262 159.463C266.337 159.766 266.321 160.085 266.217 160.38C266.113 160.675 265.925 160.933 265.677 161.123C265.429 161.313 265.131 161.426 264.819 161.45Z" fill="#263238"/>
<path d="M250.87 191.37C251.51 191.76 252.18 192.37 252.98 192.23C253.779 192.03 254.529 191.666 255.18 191.16C255.193 191.151 255.209 191.147 255.226 191.147C255.242 191.148 255.258 191.153 255.271 191.163C255.284 191.173 255.294 191.187 255.299 191.202C255.304 191.218 255.304 191.234 255.3 191.25C255.085 191.743 254.741 192.17 254.305 192.485C253.868 192.8 253.355 192.991 252.82 193.04C252.354 193.028 251.902 192.876 251.522 192.606C251.143 192.335 250.853 191.957 250.69 191.52C250.63 191.4 250.78 191.32 250.87 191.37Z" fill="#263238"/>
<path d="M251.67 184.38C252.414 185.11 253.301 185.678 254.275 186.05C255.248 186.422 256.288 186.588 257.33 186.54C258.241 186.509 259.144 186.348 260.01 186.06C260.177 186.012 260.341 185.952 260.5 185.88C260.658 185.833 260.812 185.773 260.96 185.7C261.071 185.654 261.163 185.572 261.221 185.466C261.28 185.361 261.3 185.239 261.28 185.12C261.266 185.047 261.242 184.977 261.21 184.91V184.72C260.88 183.05 260.14 180.55 260.14 180.55C260.82 180.72 264.24 181.41 263.99 180.55C261.92 173.44 259.62 165.55 256.06 158.91C256.041 158.86 256.003 158.819 255.955 158.796C255.906 158.774 255.85 158.771 255.8 158.79C255.749 158.809 255.708 158.846 255.686 158.895C255.663 158.944 255.661 159 255.68 159.05C257.4 165.96 260.32 172.52 262.15 179.43C260.932 179.166 259.682 179.078 258.44 179.17C258.22 179.29 259.95 183.96 260.04 184.73C260.046 184.756 260.046 184.784 260.04 184.81C257.33 185.81 255.04 185.44 251.88 184.18C251.64 184.05 251.5 184.24 251.67 184.38Z" fill="#263238"/>
<path d="M221.929 181.64C221.929 181.64 210.309 164.44 210.799 154.14C211.019 149.49 217.179 146.05 217.179 146.05C216.605 144.183 216.565 142.192 217.063 140.302C217.562 138.413 218.579 136.701 219.999 135.36C225.229 129.92 238.549 130.42 238.549 130.42C238.549 130.42 246.549 117.56 258.949 121.89C271.349 126.22 264.119 140.4 264.119 140.4C264.119 140.4 268.899 146.51 258.239 152.01C247.859 157.36 225.919 153.7 225.919 153.7C227.296 161.12 227.559 168.703 226.699 176.2C226.486 177.459 225.927 178.635 225.084 179.595C224.242 180.556 223.15 181.264 221.929 181.64Z" fill="#263238"/>
<path d="M240.619 130.48C237.848 129.513 234.907 129.125 231.979 129.34C229.357 129.43 226.77 129.968 224.329 130.93C220.029 132.72 216.329 136.14 215.799 140.93C215.674 142.117 215.787 143.318 216.13 144.461C216.474 145.604 217.041 146.668 217.799 147.59C217.859 147.66 217.969 147.59 217.909 147.47C214.909 144.13 216.129 138.64 218.909 135.58C222.029 132.11 226.999 130.58 231.509 130.19C234.519 130.003 237.54 130.171 240.509 130.69C240.534 130.692 240.559 130.686 240.581 130.673C240.603 130.661 240.621 130.643 240.632 130.621C240.644 130.598 240.649 130.573 240.647 130.548C240.644 130.523 240.635 130.5 240.619 130.48Z" fill="#263238"/>
<path d="M267.9 127.33C266.72 123.97 263.69 121.93 260.36 121.04C256.522 120.084 252.475 120.436 248.86 122.04C245.227 123.672 242.096 126.244 239.79 129.49C239.79 129.56 239.86 129.65 239.91 129.58C244.22 123.94 251.23 120.5 258.38 121.65C261.57 122.16 264.82 123.65 266.43 126.58C267.12 127.983 267.494 129.521 267.525 131.085C267.556 132.649 267.244 134.2 266.61 135.63C265.14 139.08 262.22 141.78 259.18 143.86C259.11 143.86 259.18 144.02 259.25 143.98C262.294 142.3 264.861 139.874 266.71 136.93C267.586 135.509 268.145 133.916 268.351 132.26C268.556 130.603 268.402 128.922 267.9 127.33Z" fill="#263238"/>
<path d="M260.87 152.45C256.112 154.66 250.936 155.826 245.69 155.87C240.251 155.991 234.816 155.519 229.48 154.46C226.37 153.88 223.28 153.17 220.2 152.41C220.1 152.41 220.07 152.53 220.2 152.56C225.61 154.569 231.218 156.001 236.93 156.83C242.241 157.555 247.642 157.235 252.83 155.89C255.67 155.124 258.401 154.002 260.96 152.55C261 152.52 260.93 152.42 260.87 152.45Z" fill="#263238"/>
<path d="M249.05 184.31C247.406 184.536 245.732 184.296 244.217 183.618C242.703 182.94 241.409 181.851 240.483 180.475C239.557 179.098 239.035 177.49 238.977 175.832C238.919 174.173 239.328 172.532 240.156 171.095C240.984 169.657 242.199 168.48 243.663 167.699C245.126 166.917 246.779 166.561 248.435 166.672C250.09 166.783 251.681 167.356 253.028 168.327C254.374 169.297 255.421 170.625 256.05 172.16C256.938 174.339 256.925 176.781 256.013 178.95C255.102 181.12 253.367 182.839 251.19 183.73C250.504 184.014 249.785 184.209 249.05 184.31ZM246.76 167.91C246.128 167.995 245.51 168.16 244.92 168.4C243.1 169.135 241.63 170.536 240.808 172.318C239.986 174.1 239.874 176.128 240.495 177.989C241.116 179.851 242.424 181.405 244.152 182.336C245.879 183.267 247.896 183.504 249.793 182.999C251.689 182.494 253.321 181.285 254.357 179.618C255.393 177.952 255.754 175.953 255.367 174.029C254.981 172.105 253.875 170.401 252.276 169.264C250.676 168.127 248.704 167.643 246.76 167.91Z" fill="#EBEBEB"/>
<path d="M268.73 179.05C265.36 179.52 261.83 176.5 260.66 172.05C260.065 169.917 260.152 167.651 260.91 165.57C261.179 164.657 261.679 163.829 262.362 163.167C263.046 162.505 263.889 162.03 264.809 161.79C265.73 161.549 266.697 161.551 267.617 161.795C268.537 162.038 269.379 162.515 270.06 163.18C271.736 164.621 272.919 166.552 273.44 168.7C274.68 173.44 272.82 178.04 269.3 178.96C269.112 179.004 268.922 179.034 268.73 179.05ZM265.55 162.83C265.401 162.849 265.254 162.879 265.11 162.92C264.38 163.142 263.715 163.538 263.173 164.075C262.631 164.612 262.228 165.272 262 166C261.334 167.849 261.264 169.86 261.8 171.75C262.87 175.85 266.09 178.57 268.99 177.81C271.89 177.05 273.36 173.1 272.28 169C271.821 167.089 270.771 165.371 269.28 164.09C268.778 163.634 268.188 163.287 267.546 163.071C266.904 162.854 266.225 162.772 265.55 162.83Z" fill="#EBEBEB"/>
<path d="M256 173.23L255 172.54C256 171.11 258.64 168.85 261.33 170.54L260.69 171.54C258.33 170 256.1 173.1 256 173.23Z" fill="#EBEBEB"/>
<path d="M218.34 185.44L217.18 185.18C217.3 184.64 218.44 179.88 220.89 178.79C223.34 177.7 238.95 175.2 239.62 175.09L239.81 176.26C235.29 177 223.14 179.09 221.37 179.87C219.6 180.65 218.63 184.13 218.34 185.44Z" fill="#EBEBEB"/>
<path d="M226.88 179.85C226.88 179.85 218.48 170.22 214.03 173.32C209.58 176.42 216.68 190.94 222.45 192.41C223.178 192.649 223.946 192.739 224.709 192.674C225.473 192.608 226.215 192.389 226.891 192.029C227.567 191.67 228.164 191.177 228.645 190.581C229.126 189.984 229.481 189.297 229.69 188.56L226.88 179.85Z" fill="#AD6359"/>
<path d="M216.17 177.43C216.08 177.43 216.08 177.56 216.17 177.58C220.23 178.74 222.66 182.13 224.5 185.72C223.19 184.4 221.5 183.78 219.75 185.37C219.65 185.45 219.75 185.6 219.87 185.56C220.53 185.269 221.265 185.189 221.972 185.332C222.68 185.475 223.325 185.835 223.82 186.36C224.644 187.247 225.371 188.219 225.99 189.26C226.2 189.59 226.81 189.33 226.64 188.95C226.636 188.92 226.636 188.89 226.64 188.86C226.15 183.89 221.55 177.36 216.17 177.43Z" fill="#263238"/>
<path d="M331.58 345.16C324.27 355.62 304.36 357.61 254.7 367.34C247.83 368.69 225.29 322.75 232.55 320.94C241.7 318.65 277.7 311.76 280.4 311.59C303.14 310.15 336.54 338.06 331.58 345.16Z" fill="#AD6359"/>
<path d="M242.489 318.67C242.489 318.67 221.489 321.85 210.909 326.94C196.809 333.76 187.429 345.45 183.799 350.59C176.219 361.32 165.299 392.49 173.729 397.2C181.359 401.46 190.909 369.04 190.909 369.04C190.909 369.04 175.719 400.49 185.849 403.94C195.979 407.39 204.929 369.11 204.929 369.11C204.929 369.11 190.039 401.78 201.049 403.68C209.379 405.11 219.429 370.9 219.429 370.9C219.429 370.9 206.829 399.07 215.319 400.9C224.709 402.9 235.969 371.9 235.969 371.9C258.349 372.96 269.429 364.3 276.589 357.21C278.319 355.55 242.489 318.67 242.489 318.67Z" fill="#AD6359"/>
<path d="M195.47 357.82C193.55 361.45 191.58 365.11 190 368.9C188.42 372.69 186.95 376.54 185.72 380.46C182.72 390.07 182.32 396.56 182.39 396.16C183.98 386.74 189.46 373.09 191.05 369.3C192.64 365.51 194.05 361.66 195.62 357.87C195.66 357.78 195.51 357.73 195.47 357.82Z" fill="#263238"/>
<path d="M209.249 363.31C206.999 368.05 204.599 372.67 202.559 377.52C200.519 382.37 198.999 387.09 197.329 392C197.199 392.38 197.449 392.33 197.599 392C199.479 387.13 201.599 382.76 203.599 377.91C205.599 373.06 207.309 368.13 209.419 363.37C209.399 363.28 209.289 363.24 209.249 363.31Z" fill="#263238"/>
<path d="M221.929 365.89C218.119 372.96 215.619 380.73 213.359 388.4C213.239 388.78 213.559 388.68 213.689 388.29C216.399 380.76 218.469 374.83 222.179 366.02C222.239 365.89 221.999 365.74 221.929 365.89Z" fill="#263238"/>
<path d="M238.1 318.67L281.6 367.12C281.6 367.12 325.6 357.02 332.08 345.74C336.35 338.31 303.19 308.33 278.18 311.84L238.1 318.67Z" fill="#118014"/>
<path d="M276.73 348.9C276.532 350.129 276.162 351.324 275.63 352.45C275.122 353.596 274.448 354.66 273.63 355.61C273.828 354.377 274.198 353.179 274.73 352.05C275.241 350.909 275.914 349.848 276.73 348.9ZM307 346.19C306.468 347.316 306.098 348.511 305.9 349.74C306.716 348.792 307.389 347.731 307.9 346.59C308.432 345.461 308.802 344.262 309 343.03C308.187 343.984 307.514 345.048 307 346.19ZM285.4 336C284.272 335.463 283.073 335.093 281.84 334.9C282.787 335.716 283.849 336.389 284.99 336.9C286.119 337.432 287.317 337.802 288.55 338C287.602 337.184 286.541 336.511 285.4 336ZM306.94 322.66C307.354 323.835 307.936 324.943 308.67 325.95C308.569 324.71 308.29 323.49 307.84 322.33C307.425 321.153 306.842 320.041 306.11 319.03C306.208 320.277 306.488 321.503 306.94 322.67V322.66ZM262.84 333.15C263.256 334.324 263.839 335.432 264.57 336.44C264.332 333.95 263.45 331.565 262.01 329.52C262.11 330.767 262.39 331.993 262.84 333.16V333.15ZM245 321.67C246.175 321.256 247.283 320.673 248.29 319.94C247.049 320.041 245.83 320.32 244.67 320.77C243.497 321.188 242.389 321.77 241.38 322.5C242.62 322.399 243.84 322.12 245 321.67ZM282 317.67C283.175 317.256 284.283 316.673 285.29 315.94C284.046 316.041 282.824 316.321 281.66 316.77C280.49 317.196 279.384 317.778 278.37 318.5C279.614 318.397 280.837 318.114 282 317.66V317.67ZM295.7 360.27C296.879 359.855 297.991 359.268 299 358.53C297.756 358.638 296.534 358.92 295.37 359.37C294.195 359.784 293.087 360.366 292.08 361.1C293.323 360.992 294.545 360.709 295.71 360.26L295.7 360.27ZM328.41 336.11C327.521 336.273 326.647 336.514 325.8 336.83C324.624 337.253 323.513 337.839 322.5 338.57C323.743 338.462 324.965 338.179 326.13 337.73C327.029 337.404 327.894 336.989 328.71 336.49L328.41 336.11Z" fill="white"/>
<path d="M308.05 319.76C304.05 316.84 292.66 310.03 278.18 311.84C278.06 311.84 278.05 312.06 278.18 312.06C289.1 311.75 303.83 317.46 307.95 319.94C308.06 320 308.15 319.83 308.05 319.76Z" fill="#263238"/>
<path d="M293.5 359C289 353.41 284.21 348.08 279.4 342.75C274.59 337.42 269.79 332.09 264.85 326.88C262.06 323.94 259.28 320.97 256.38 318.13C256.31 318.06 256.16 318.13 256.23 318.25C260.72 323.83 265.5 329.19 270.23 334.54C274.96 339.89 279.84 345.21 284.72 350.48C287.48 353.48 290.29 356.38 293.19 359.22C293.36 359.37 293.63 359.17 293.5 359Z" fill="#263238"/>
<path d="M253.47 221.14C253.47 221.127 253.464 221.114 253.455 221.105C253.446 221.095 253.433 221.09 253.42 221.09C253.406 221.09 253.394 221.095 253.384 221.105C253.375 221.114 253.37 221.127 253.37 221.14C254.24 227.82 255.83 243.35 245.24 243.14C240.98 243.05 236.93 240.67 233.53 238.3C230.053 235.837 226.851 233.007 223.98 229.86C220.645 226.426 217.595 222.727 214.86 218.8C214.75 218.63 214.5 218.8 214.62 219C217.4 222.93 219.77 227 222.93 230.71C225.928 234.288 229.4 237.44 233.25 240.08C236.88 242.5 241.18 244.86 245.68 244.74C249.97 244.63 252.89 241.74 253.87 237.74C255.16 232.45 254.66 226.39 253.47 221.14Z" fill="#263238"/>
<path d="M251.14 214.62L243.42 233.2L220.5 209.32L213.84 216.82C213.84 216.82 236.1 254.61 236.26 252.91L244.14 236.91L255.14 248.23L254.56 220.12L251.14 214.62Z" fill="white"/>
<path d="M255.62 234.32C255.37 229.68 255.24 225 254.78 220.38C254.78 220.21 254.5 220.14 254.46 220.38C253.46 224.85 254.54 242.58 254.46 246.83L254.41 246.78C253.95 246.29 244.23 236.78 244.13 236.96C242.43 239.5 236.65 251.15 236.25 252.21C232.73 246.21 219.25 224.38 215.04 218.7C215.017 218.668 214.984 218.645 214.946 218.636C214.908 218.627 214.868 218.633 214.833 218.651C214.799 218.67 214.773 218.7 214.759 218.737C214.745 218.773 214.746 218.814 214.76 218.85C217.86 225.19 235.76 254.58 236.01 254.5C236.2 254.65 243.38 240.29 244.25 237.58C245.89 239.64 255.69 250.32 255.73 249.63C255.96 244.528 255.923 239.418 255.62 234.32Z" fill="#263238"/>
<path d="M293 285.77C293 285.77 297.77 296.58 290.14 299.23C282.51 301.88 279.54 290.45 279.54 290.45L293 285.77Z" fill="#455A64"/>
<path d="M252.39 212.43L254.09 201L254.62 197.22L257.42 199.83L265.85 207.75L293.12 286.21L279.65 290.89L252.4 212.43H252.39Z" fill="#455A64"/>
<path d="M254.08 200.98L254.63 197.21L257.43 199.82L254.08 200.98Z" fill="#37474F"/>
<path d="M278.674 291.722L294.392 286.258L293.308 283.141L277.591 288.605L278.674 291.722Z" fill="#37474F"/>
<path d="M277.481 288.267L293.198 282.803L292.115 279.686L276.397 285.15L277.481 288.267Z" fill="#37474F"/>
<path d="M292.119 279.67L287.049 281.44L279.979 252.08L281.879 251.54L292.119 279.67Z" fill="#37474F"/>
<path d="M195.619 237.29C163.999 276.8 135.299 333.66 141.119 354.22C143.249 361.74 156.839 374.22 177.249 367.47C200.249 359.85 228.899 341.11 255.599 321.2C261.259 316.98 214.829 281.75 208.699 286.2C205.849 288.26 198.069 295.52 196.889 294.96C195.119 294.11 204.479 274.66 212.409 244.16C220.769 212 209.379 220.12 195.619 237.29Z" fill="#AD6359"/>
<path d="M275.249 233.79C279.539 239.02 265.729 248.5 265.729 248.5C268.632 248.215 271.544 248.954 273.959 250.59C278.079 253.67 275.049 261.48 275.049 261.48C278.125 261.811 281.03 263.059 283.389 265.06C287.029 268.41 285.099 276.72 285.099 276.72C287.754 278.585 289.65 281.343 290.439 284.49C292.209 292.98 282.649 302.14 276.639 308.03C270.629 313.92 247.999 325 243.999 327.53L205.869 289.24C205.869 289.24 225.339 255.16 233.399 249.24C240.139 244.25 268.699 225.78 275.249 233.79Z" fill="#AD6359"/>
<path d="M265.5 248.44C257.01 252.01 249.39 257.6 242.1 263.08C242.075 263.108 242.061 263.143 242.06 263.18C242.058 263.217 242.07 263.254 242.092 263.283C242.115 263.313 242.147 263.334 242.183 263.342C242.219 263.351 242.257 263.346 242.29 263.33C249.48 257.8 258.29 254.05 265.72 248.82C265.767 248.789 265.799 248.741 265.812 248.687C265.825 248.632 265.816 248.575 265.788 248.527C265.76 248.479 265.715 248.443 265.661 248.426C265.608 248.41 265.55 248.415 265.5 248.44Z" fill="#263238"/>
<path d="M274.429 261.1C272.579 262.095 270.868 263.329 269.339 264.77C267.633 266.197 265.966 267.65 264.339 269.13C261.006 272.09 257.753 275.133 254.579 278.26C254.439 278.4 254.579 278.65 254.769 278.51C258.103 275.563 261.479 272.683 264.899 269.87C266.626 268.457 268.359 267.067 270.099 265.7C271.831 264.507 273.424 263.125 274.849 261.58C274.913 261.524 274.952 261.446 274.957 261.361C274.963 261.277 274.935 261.194 274.879 261.13C274.824 261.066 274.745 261.027 274.66 261.022C274.576 261.016 274.493 261.044 274.429 261.1Z" fill="#263238"/>
<path d="M285 276.84C283.32 277.53 281.9 279.18 280.59 280.4C279.1 281.78 277.59 283.15 276.1 284.51C273.1 287.24 270.1 289.97 266.99 292.59C266.84 292.72 266.99 292.97 267.18 292.84C270.35 290.19 273.54 287.59 276.68 284.91C278.22 283.577 279.757 282.243 281.29 280.91C282.58 279.78 284.34 278.51 285.14 276.91C285.135 276.896 285.128 276.883 285.119 276.872C285.109 276.861 285.098 276.852 285.085 276.846C285.071 276.839 285.057 276.835 285.043 276.834C285.028 276.833 285.014 276.835 285 276.84Z" fill="#263238"/>
<path d="M243.67 329.91C245.438 328.183 247.333 326.592 249.34 325.15C251.322 323.675 253.415 322.354 255.6 321.2C253.837 322.932 251.941 324.524 249.93 325.96C247.948 327.435 245.855 328.756 243.67 329.91Z" fill="#263238"/>
<path d="M198.19 292.7C198.19 292.7 206.8 267.5 212.71 247.05C218.62 226.6 220.49 207.6 198.71 230.69C176.93 253.78 138 321.83 138.6 348.63C138.76 356.42 147.12 371.43 168.69 370.93C190.26 370.43 249 334.82 249 334.82L205.43 287.41L198.19 292.7Z" fill="#118014"/>
<path d="M208.27 290.55C207.968 291.06 207.616 291.54 207.22 291.98C207.315 291.298 207.483 290.627 207.72 289.98L208.27 290.55ZM168.19 306C167.658 307.126 167.287 308.321 167.09 309.55C167.905 308.602 168.579 307.541 169.09 306.4C169.622 305.271 169.992 304.072 170.19 302.84C169.377 303.794 168.704 304.858 168.19 306ZM197.69 337.54C197.153 338.664 196.783 339.86 196.59 341.09C197.405 340.142 198.079 339.081 198.59 337.94C199.117 336.809 199.487 335.611 199.69 334.38C198.873 335.345 198.199 336.423 197.69 337.58V337.54ZM142.24 342.06C141.708 343.186 141.337 344.381 141.14 345.61C141.955 344.662 142.629 343.601 143.14 342.46C143.67 341.334 144.041 340.139 144.24 338.91C143.424 339.872 142.751 340.947 142.24 342.1V342.06ZM226.15 334.18C225.618 335.309 225.247 336.508 225.05 337.74C225.865 336.792 226.539 335.731 227.05 334.59C227.582 333.461 227.952 332.262 228.15 331.03C227.334 331.992 226.661 333.067 226.15 334.22V334.18ZM188.52 269C187.985 270.125 187.614 271.32 187.42 272.55C188.232 271.6 188.906 270.54 189.42 269.4C189.956 268.276 190.327 267.08 190.52 265.85C189.707 266.8 189.034 267.86 188.52 269ZM181.79 252.57C182.661 252.936 183.575 253.191 184.51 253.33C183.836 252.744 183.094 252.24 182.3 251.83L181.79 252.57ZM152.33 304.22C152.19 304.51 152.05 304.8 151.92 305.1C153.051 305.628 154.248 305.998 155.48 306.2C154.531 305.384 153.47 304.707 152.33 304.19V304.22ZM170.33 339.86C169.205 339.325 168.01 338.955 166.78 338.76C167.727 339.576 168.788 340.249 169.93 340.76C171.057 341.288 172.251 341.658 173.48 341.86C172.546 341.037 171.499 340.353 170.37 339.83L170.33 339.86ZM198.1 307.68C196.975 307.145 195.78 306.775 194.55 306.58C195.497 307.396 196.558 308.07 197.7 308.58C198.825 309.115 200.02 309.489 201.25 309.69C200.317 308.863 199.269 308.176 198.14 307.65L198.1 307.68ZM155.1 355.91C155.513 357.085 156.096 358.193 156.83 359.2C156.729 357.96 156.449 356.74 156 355.58C155.584 354.403 155.002 353.291 154.27 352.28C154.385 353.516 154.678 354.728 155.14 355.88L155.1 355.91ZM188.1 352.45C188.521 353.624 189.107 354.731 189.84 355.74C189.734 354.5 189.455 353.282 189.01 352.12C188.586 350.944 188.001 349.834 187.27 348.82C187.402 350.057 187.709 351.269 188.18 352.42L188.1 352.45ZM182 323.56C182.415 324.737 182.998 325.849 183.73 326.86C183.63 325.616 183.351 324.393 182.9 323.23C182.478 322.056 181.893 320.949 181.16 319.94C181.268 321.18 181.551 322.399 182 323.56ZM168.19 283.46C168.603 284.635 169.186 285.743 169.92 286.75C169.682 284.26 168.8 281.875 167.36 279.83C167.456 281.073 167.732 282.296 168.18 283.46H168.19ZM211.91 228.32C212.331 229.494 212.917 230.601 213.65 231.61C213.4 229.124 212.515 226.745 211.08 224.7C211.182 225.939 211.458 227.158 211.9 228.32H211.91ZM201.47 246.38C202.645 245.966 203.753 245.384 204.76 244.65C203.519 244.749 202.3 245.029 201.14 245.48C199.964 245.9 198.853 246.482 197.84 247.21C199.08 247.11 200.299 246.83 201.46 246.38H201.47ZM212.63 351.38C213.807 350.965 214.918 350.382 215.93 349.65C214.686 349.75 213.463 350.029 212.3 350.48C211.126 350.898 210.019 351.48 209.01 352.21C210.245 352.121 211.46 351.855 212.62 351.42L212.63 351.38ZM155.76 326C156.935 325.586 158.043 325.004 159.05 324.27C157.806 324.371 156.584 324.651 155.42 325.1C154.247 325.523 153.14 326.109 152.13 326.84C153.373 326.732 154.595 326.449 155.76 326ZM174.11 363.09C175.284 362.674 176.392 362.091 177.4 361.36C176.156 361.46 174.933 361.739 173.77 362.19C172.597 362.613 171.49 363.199 170.48 363.93C171.722 363.828 172.944 363.552 174.11 363.11V363.09ZM185.82 290.2C186.995 289.783 188.103 289.197 189.11 288.46C186.621 288.712 184.239 289.596 182.19 291.03C183.432 290.932 184.654 290.659 185.82 290.22V290.2ZM211.75 323C212.925 322.586 214.033 322.004 215.04 321.27C213.796 321.371 212.574 321.651 211.41 322.1C210.237 322.523 209.13 323.109 208.12 323.84C209.363 323.731 210.585 323.448 211.75 323Z" fill="white"/>
<path d="M235.52 338.42C231.02 332.84 226.23 327.5 221.42 322.18C216.61 316.86 211.81 311.51 206.87 306.3C204.07 303.36 201.3 300.4 198.4 297.56C198.33 297.48 198.18 297.56 198.25 297.68C202.74 303.25 207.52 308.62 212.25 313.96C216.98 319.3 221.86 324.64 226.74 329.9C229.5 332.9 232.31 335.8 235.21 338.65C235.38 338.79 235.65 338.59 235.52 338.42Z" fill="#263238"/>
<path d="M211.109 261.86C210.259 263.11 209.489 264.41 208.769 265.73C209.009 265.05 209.259 264.37 209.489 263.68C210.489 260.91 211.349 258.12 212.279 255.33C212.339 255.16 212.039 255.04 211.969 255.21C210.969 257.62 209.969 260.01 209.019 262.43C208.069 264.85 207.189 267.23 206.269 269.63C204.419 274.48 202.579 279.32 200.869 284.22C199.869 286.99 199.009 289.77 198.199 292.6C198.199 292.71 198.349 292.79 198.399 292.68C200.549 287.98 202.399 283.15 204.229 278.3C205.389 275.127 206.543 271.95 207.689 268.77C208.939 266.53 210.149 264.26 211.249 261.94C211.26 261.921 211.263 261.899 211.257 261.879C211.251 261.858 211.238 261.841 211.219 261.83C211.201 261.819 211.179 261.817 211.158 261.822C211.137 261.828 211.12 261.841 211.109 261.86Z" fill="#263238"/>
<path d="M206.059 288.27C206.059 288.27 205.379 287.73 205.349 287.7C203.199 289.58 200.869 291.22 198.649 292.99C197.469 293.94 188.709 300.89 185.709 303.42C178.599 309.42 171.709 315.65 164.889 322.03C161.499 325.22 158.169 328.48 154.889 331.77C151.609 335.06 148.259 338.4 145.109 341.88C145.095 341.891 145.077 341.897 145.059 341.897C145.041 341.896 145.023 341.89 145.009 341.878C144.995 341.866 144.986 341.85 144.982 341.833C144.978 341.815 144.981 341.796 144.989 341.78C148.409 337.78 151.819 333.69 155.389 329.78C161.698 322.857 168.406 316.309 175.479 310.17C179.019 307.11 182.629 304.133 186.309 301.24C188.729 299.33 196.769 293.13 197.919 292.24C200.289 290.45 202.669 288.52 205.069 286.93C205.159 286.87 206.159 288.12 206.189 288.14C206.219 288.16 206.109 288.36 206.059 288.27Z" fill="#263238"/>
<path d="M116.34 382.08H92.6699V385.77H116.34V382.08Z" fill="#455A64"/>
<path d="M116.34 382.08H92.6699V384.52H116.34V382.08Z" fill="#263238"/>
<path d="M64.5704 372.15C66.0124 374.278 68.0355 375.946 70.3987 376.957C72.762 377.967 75.3659 378.277 77.9004 377.85C78.7204 377.696 79.524 377.465 80.3004 377.16C81.4785 376.698 82.6019 376.108 83.6504 375.4L80.6504 370.94C80.0933 371.334 79.4968 371.669 78.8704 371.94C73.2404 374.5 69.6704 370.05 68.9704 369.04C65.7204 364.48 64.5604 354.04 67.8504 350.04C68.0704 349.74 69.0204 349.27 72.8504 350.04C73.5504 350.2 74.3504 350.38 75.2504 350.63C75.9538 350.866 76.6819 351.02 77.4204 351.09L77.5104 348.42L77.7704 345.74C77.5304 345.74 77.1404 345.59 76.6404 345.45C74.8802 344.932 73.081 344.558 71.2604 344.33C68.4604 344.04 65.5204 344.38 63.7104 346.59C58.3404 353.2 60.5104 366.43 64.5704 372.15Z" fill="#455A64"/>
<path opacity="0.1" d="M80.6404 370.94C80.0832 371.334 79.4867 371.669 78.8604 371.94L80.3004 377.15C81.4784 376.688 82.6019 376.098 83.6504 375.39L80.6404 370.94Z" fill="black"/>
<path d="M71.2305 344.4L72.8205 350.11C73.5205 350.27 74.3205 350.45 75.2205 350.7C75.9239 350.936 76.6519 351.09 77.3905 351.16L77.4805 348.49L77.7405 345.81C77.5005 345.81 77.1105 345.66 76.6105 345.52C74.8502 345.002 73.051 344.628 71.2305 344.4Z" fill="#263238"/>
<path d="M136 337.42C136 337.42 133.16 361.54 128.25 371.71C123.34 381.88 116.49 383 112.24 383H96.76C92.51 383 85.67 381.86 80.76 371.72C75.85 361.58 73 337.42 73 337.42H136Z" fill="#455A64"/>
<path d="M132.941 356C132.711 357 132.491 358 132.261 359.06H76.7405C76.5105 358.06 76.2905 357.06 76.0605 356H132.941Z" fill="#37474F"/>
<path d="M131.51 362.11C130.91 364.39 130.27 366.58 129.56 368.51H79.4404C78.7304 366.58 78.0904 364.39 77.4404 362.11H131.51Z" fill="#37474F"/>
<path d="M308.992 157.872C315.065 156.34 318.745 150.175 317.213 144.102C315.681 138.03 309.516 134.349 303.444 135.881C297.371 137.413 293.69 143.578 295.222 149.651C296.754 155.723 302.919 159.404 308.992 157.872Z" fill="white"/>
<path d="M317.52 145.9C317.803 148.903 316.882 151.896 314.96 154.22C313.998 155.4 312.814 156.379 311.473 157.102C310.133 157.824 308.664 158.275 307.149 158.429C305.634 158.583 304.104 158.437 302.646 158C301.188 157.563 299.83 156.842 298.65 155.88C297.448 154.898 296.456 153.686 295.731 152.314C295.006 150.942 294.564 149.438 294.431 147.892C294.297 146.346 294.475 144.789 294.955 143.313C295.434 141.838 296.204 140.473 297.22 139.3C298.218 138.15 299.432 137.208 300.793 136.528C302.155 135.847 303.637 135.441 305.155 135.334C306.673 135.226 308.198 135.418 309.642 135.9C311.086 136.381 312.421 137.143 313.57 138.14C315.861 140.103 317.281 142.893 317.52 145.9ZM317.52 145.9C317.245 142.923 315.808 140.174 313.52 138.25C311.237 136.396 308.311 135.523 305.384 135.823C302.458 136.123 299.77 137.571 297.91 139.85C296.09 142.084 295.212 144.939 295.46 147.809C295.708 150.68 297.064 153.341 299.24 155.23C300.339 156.187 301.616 156.918 302.998 157.381C304.38 157.843 305.84 158.029 307.293 157.927C308.747 157.825 310.166 157.437 311.47 156.785C312.774 156.134 313.936 155.231 314.89 154.13C316.819 151.841 317.764 148.883 317.52 145.9Z" fill="#263238"/>
<path d="M287.48 157.67C287.588 158.913 287.325 160.16 286.724 161.254C286.124 162.347 285.212 163.238 284.105 163.814C282.998 164.389 281.746 164.624 280.506 164.488C279.265 164.352 278.093 163.851 277.138 163.049C276.182 162.247 275.485 161.18 275.136 159.982C274.787 158.784 274.8 157.51 275.175 156.32C275.55 155.13 276.269 154.078 277.242 153.296C278.215 152.515 279.397 152.039 280.64 151.93C282.307 151.788 283.963 152.313 285.245 153.388C286.526 154.464 287.33 156.003 287.48 157.67Z" fill="white"/>
<path d="M287.48 157.67C287.623 159.361 287.106 161.042 286.038 162.362C284.97 163.681 283.434 164.537 281.75 164.75C280.885 164.837 280.012 164.751 279.181 164.497C278.35 164.244 277.577 163.827 276.908 163.273C276.239 162.718 275.687 162.036 275.284 161.266C274.881 160.496 274.634 159.654 274.56 158.788C274.485 157.922 274.583 157.05 274.848 156.222C275.113 155.395 275.54 154.628 276.103 153.967C276.667 153.305 277.357 152.763 278.132 152.37C278.908 151.977 279.753 151.743 280.62 151.68C282.318 151.599 283.98 152.178 285.26 153.297C286.539 154.416 287.335 155.987 287.48 157.68V157.67ZM287.48 157.67C287.409 156.856 287.174 156.066 286.789 155.345C286.405 154.624 285.879 153.989 285.243 153.476C284.607 152.964 283.875 152.585 283.089 152.362C282.303 152.139 281.48 152.077 280.67 152.18C279.133 152.394 277.737 153.188 276.767 154.399C275.797 155.61 275.328 157.147 275.456 158.693C275.584 160.239 276.3 161.678 277.455 162.713C278.611 163.749 280.119 164.302 281.67 164.26C282.487 164.223 283.289 164.02 284.026 163.666C284.763 163.311 285.421 162.81 285.96 162.195C286.499 161.579 286.908 160.861 287.162 160.084C287.416 159.306 287.511 158.485 287.44 157.67H287.48Z" fill="#263238"/>
<path d="M416.56 97.27C417.262 103.032 416.437 108.878 414.168 114.22C411.899 119.563 408.266 124.216 403.632 127.712C398.998 131.209 393.527 133.426 387.767 134.141C382.006 134.857 376.159 134.046 370.81 131.79C368.21 135.186 364.862 137.935 361.025 139.824C357.188 141.713 352.967 142.691 348.691 142.681C344.414 142.672 340.197 141.675 336.369 139.768C332.541 137.862 329.205 135.097 326.62 131.69C322.136 133.03 317.346 132.94 312.915 131.431C308.485 129.923 304.634 127.072 301.899 123.274C299.164 119.477 297.679 114.921 297.653 110.241C297.626 105.561 299.058 100.989 301.75 97.16C296.862 90.9536 294.353 83.2036 294.678 75.3097C295.004 67.4158 298.141 59.8983 303.523 54.1149C308.906 48.3315 316.179 44.6634 324.029 43.7731C331.879 42.8828 339.789 44.8289 346.33 49.26C349.398 45.4377 353.421 42.4945 357.993 40.729C362.565 38.9634 367.523 38.4384 372.363 39.207C377.203 39.9756 381.754 42.0106 385.554 45.1056C389.354 48.2006 392.268 52.2455 394 56.83C395.155 56.4358 396.349 56.1643 397.56 56.02C401.244 55.573 404.976 56.2639 408.255 57.9998C411.535 59.7357 414.205 62.4336 415.906 65.731C417.608 69.0284 418.259 72.7675 417.774 76.4462C417.289 80.1248 415.689 83.5669 413.19 86.31C414.959 89.7327 416.101 93.4447 416.56 97.27Z" fill="white"/>
<path d="M416.56 97.27C416.891 100.139 416.86 103.038 416.47 105.9C416.278 107.333 415.994 108.753 415.62 110.15C415.44 110.84 415.17 111.52 414.95 112.21C414.742 112.894 414.484 113.563 414.18 114.21L413.29 116.21C412.96 116.86 412.58 117.47 412.23 118.1L411.7 119.04C411.5 119.35 411.28 119.64 411.08 119.94L409.83 121.71L408.42 123.35L407.71 124.17L406.93 124.93C406.41 125.42 405.93 125.93 405.36 126.42L403.66 127.77C403.38 127.99 403.1 128.23 402.8 128.43L401.89 129.02C401.28 129.4 400.68 129.82 400.06 130.18C398.796 130.881 397.49 131.506 396.15 132.05C395.47 132.31 394.81 132.59 394.15 132.83L392.06 133.42L391.06 133.71L389.99 133.9L387.85 134.28C382.078 135.01 376.216 134.21 370.85 131.96H371.06C367.118 137.131 361.499 140.768 355.167 142.248C348.836 143.727 342.186 142.958 336.36 140.07C332.496 138.141 329.118 135.361 326.48 131.94L326.81 132.05C325.685 132.39 324.535 132.64 323.37 132.8C322.78 132.88 322.19 132.9 321.61 132.95L320.73 133.01H319.85C317.49 132.993 315.149 132.588 312.92 131.81C308.419 130.288 304.499 127.41 301.7 123.57C300.33 121.645 299.248 119.529 298.49 117.29L298.01 115.58C297.84 115.02 297.79 114.43 297.67 113.85C297.454 112.686 297.347 111.504 297.35 110.32C297.3 105.551 298.744 100.886 301.48 96.98V97.52C296.485 91.2499 293.937 83.3784 294.31 75.37C294.642 67.3664 297.836 59.7477 303.31 53.9C308.758 48.0761 316.084 44.3583 324 43.4C331.929 42.5191 339.91 44.5056 346.5 49L346.09 49.06C349.197 45.2064 353.269 42.2452 357.893 40.478C362.516 38.7108 367.526 38.2008 372.41 39C374.829 39.3874 377.184 40.1005 379.41 41.12C380.525 41.6281 381.61 42.1991 382.66 42.83C383.7 43.494 384.701 44.2151 385.66 44.99C387.554 46.5468 389.235 48.3455 390.66 50.34C392.077 52.3449 393.24 54.5183 394.12 56.81L393.93 56.72C394.899 56.3975 395.892 56.1567 396.9 56C397.895 55.8671 398.897 55.8002 399.9 55.8C401.907 55.7864 403.901 56.1248 405.79 56.8C409.617 58.1207 412.886 60.6925 415.07 64.1C417.264 67.4858 418.274 71.5033 417.941 75.5239C417.608 79.5445 415.951 83.3412 413.23 86.32C414.981 89.7436 416.109 93.4514 416.56 97.27ZM416.56 97.27C416.102 93.4318 414.961 89.7064 413.19 86.27C415.88 83.2987 417.508 79.5192 417.819 75.5236C418.13 71.528 417.107 67.542 414.91 64.19C412.74 60.8314 409.498 58.3047 405.71 57.02C403.843 56.3538 401.874 56.0155 399.89 56.02C398.904 56.0398 397.919 56.1132 396.94 56.24C395.965 56.395 395.005 56.6325 394.07 56.95L393.93 57L393.87 56.86C392.988 54.599 391.83 52.456 390.42 50.48C388.995 48.5154 387.313 46.7498 385.42 45.23C384.482 44.4664 383.496 43.7617 382.47 43.12C381.432 42.4951 380.357 41.934 379.25 41.44C377.045 40.4444 374.713 39.7547 372.32 39.39C367.523 38.6297 362.61 39.1546 358.081 40.9112C353.552 42.6678 349.57 45.5935 346.54 49.39L346.37 49.61L346.13 49.45C339.652 45.0713 331.817 43.1623 324.05 44.07C316.303 45.0216 309.142 48.6803 303.83 54.4C298.569 60.1345 295.508 67.5472 295.191 75.3234C294.875 83.0996 297.322 90.7367 302.1 96.88L302.31 97.15L302.12 97.42C299.484 101.172 298.085 105.654 298.12 110.24C298.111 111.38 298.211 112.519 298.42 113.64C298.53 114.2 298.58 114.77 298.74 115.32L299.19 116.96C299.911 119.129 300.945 121.181 302.26 123.05C304.954 126.77 308.734 129.565 313.08 131.05C315.24 131.814 317.51 132.219 319.8 132.25H320.66L321.51 132.19C322.08 132.19 322.65 132.14 323.22 132.06C324.355 131.912 325.475 131.671 326.57 131.34L326.78 131.28L326.91 131.45C329.475 134.809 332.768 137.544 336.54 139.45C340.33 141.35 344.507 142.349 348.746 142.37C352.986 142.39 357.172 141.432 360.98 139.57C364.79 137.701 368.12 134.981 370.71 131.62L370.8 131.51L370.92 131.56C376.22 133.834 382.024 134.675 387.75 134L389.87 133.64L390.93 133.46L391.93 133.17L394.01 132.6C394.69 132.37 395.35 132.09 396.01 131.83C397.38 131.309 398.713 130.698 400 130C400.62 129.65 401.22 129.24 401.83 128.86L402.74 128.28C403.04 128.08 403.31 127.84 403.59 127.63L405.29 126.3C405.83 125.81 406.34 125.3 406.86 124.81L407.64 124.07L408.35 123.26L409.77 121.62L411.02 119.87C411.22 119.57 411.45 119.29 411.64 118.98L412.18 118.05C412.53 117.42 412.91 116.81 413.24 116.17L414.14 114.17C414.446 113.522 414.706 112.854 414.92 112.17C415.14 111.49 415.41 110.81 415.6 110.12C415.971 108.728 416.259 107.316 416.46 105.89C416.858 103.032 416.891 100.136 416.56 97.27Z" fill="#263238"/>
<path d="M380.86 79.23C380.86 79.23 380.81 79.23 380.78 79.17H380.71C380.592 79.1289 380.472 79.0955 380.35 79.07C380.22 79.07 380.07 79.01 379.91 78.97L379.43 78.88H379.3H379.07H378.83L377.4 78.67H377.12H376.8H376.51H376.2H376.14H375.84L374.4 78.49L374 78.1L372.68 77.94L372.04 77.86H371.74L370.98 77.77L370.21 77.68H370.14L369.14 77.57L368.14 77.44H367.75L364.75 77H364.4L363.13 76.82H362.99H362.77H362.66H362.58C362.51 76.82 362.45 76.82 362.44 76.82C362.06 76.56 353.02 65.47 346.9 58.93C344.17 56.01 342.01 53.99 341.48 54.26C339.75 55.13 333.22 72.1 332.73 72.11C332.24 72.12 323.97 63.19 322.73 64.39C321.61 65.39 319.03 83.25 318.16 88.21C318.104 88.6367 318.014 89.0581 317.89 89.47L317.68 89.7L317.86 89.6C317.763 89.6398 317.675 89.6975 317.6 89.77L317.44 89.93C316.26 91.04 313.44 93.55 311.11 95.81C311.035 95.8715 310.965 95.9384 310.9 96.01L310.5 96.4C310.44 96.47 310.38 96.52 310.31 96.59C308.58 98.32 307.31 99.76 307.68 100.05C308.63 100.86 330.37 90.05 341.68 87.22C352.99 84.39 380.46 80 380.99 79.41L380.86 79.23ZM325.09 86.86C324.09 87.17 323.16 87.47 322.31 87.75C320.48 88.35 319.07 88.85 318.25 89.21C319.45 88.67 321.9 87.85 325.09 86.86C326.43 86.44 327.89 86.01 329.43 85.55L325.09 86.86ZM331.14 85.06C333.02 84.51 334.99 83.94 337.01 83.38C335 84 333 84.51 331.14 85.06Z" fill="#118014"/>
<path opacity="0.1" d="M380.86 79.23C380.86 79.23 380.81 79.23 380.78 79.17H380.71C380.592 79.1289 380.472 79.0955 380.35 79.07C380.22 79.07 380.07 79.01 379.91 78.97L379.43 78.88H379.3H379.07H378.83L377.4 78.67H377.12H376.8H376.51H376.2H376.14H375.84L374.4 78.49L374 78.1L372.68 77.94L372.04 77.86H371.74L370.98 77.77L370.21 77.68H370.14L369.14 77.57L368.14 77.44H367.75L364.75 77H364.4L363.13 76.82H362.99H362.77H362.66H362.58C362.51 76.82 362.45 76.82 362.44 76.82C362.06 76.56 353.02 65.47 346.9 58.93C344.17 56.01 342.01 53.99 341.48 54.26C339.75 55.13 333.22 72.1 332.73 72.11C332.24 72.12 323.97 63.19 322.73 64.39C321.61 65.39 319.03 83.25 318.16 88.21C318.104 88.6367 318.014 89.0581 317.89 89.47L317.68 89.7L317.86 89.6C317.763 89.6398 317.675 89.6975 317.6 89.77L317.44 89.93C316.26 91.04 313.44 93.55 311.11 95.81C311.035 95.8715 310.965 95.9384 310.9 96.01L310.5 96.4C310.44 96.47 310.38 96.52 310.31 96.59C308.58 98.32 307.31 99.76 307.68 100.05C308.63 100.86 330.37 90.05 341.68 87.22C352.99 84.39 380.46 80 380.99 79.41L380.86 79.23ZM325.09 86.86C324.09 87.17 323.16 87.47 322.31 87.75C320.48 88.35 319.07 88.85 318.25 89.21C319.45 88.67 321.9 87.85 325.09 86.86C326.43 86.44 327.89 86.01 329.43 85.55L325.09 86.86ZM331.14 85.06C333.02 84.51 334.99 83.94 337.01 83.38C335 84 333 84.51 331.14 85.06Z" fill="black"/>
<path d="M318.25 89.21C319.45 88.67 321.9 87.85 325.09 86.86C324.09 87.17 323.16 87.47 322.31 87.75C320.48 88.35 319.07 88.85 318.25 89.21Z" fill="#118014"/>
<path d="M325.09 86.86C326.43 86.44 327.89 86.01 329.43 85.55L325.09 86.86Z" fill="#118014"/>
<path d="M337 83.38C335 83.95 333 84.51 331.13 85.06C333 84.51 335 83.94 337 83.38Z" fill="#118014"/>
<path d="M318.25 89.21C319.45 88.67 321.9 87.85 325.09 86.86C324.09 87.17 323.16 87.47 322.31 87.75C320.48 88.35 319.07 88.85 318.25 89.21Z" fill="#118014"/>
<path d="M325.09 86.86C326.43 86.44 327.89 86.01 329.43 85.55L325.09 86.86Z" fill="#118014"/>
<path d="M337 83.38C335 83.95 333 84.51 331.13 85.06C333 84.51 335 83.94 337 83.38Z" fill="#118014"/>
<path d="M363.12 76.78C353.92 78.51 319.25 88.02 317.51 89.62C317.08 89.93 316.98 84.17 317.51 83.54C317.972 83.1712 318.46 82.837 318.97 82.54C319.5 82.22 320.16 81.83 320.97 81.4L321.44 81.13C321.91 80.88 322.44 80.6 322.97 80.32L323.47 80.06C323.94 79.81 324.47 79.57 324.94 79.31L325.4 79.09C335.16 74.2654 345.623 71.0217 356.4 69.48C357.4 69.35 358.4 69.24 359.4 69.15C360.4 69.06 364 76.59 363.12 76.78Z" fill="#263238"/>
<path d="M317.001 101.28C317.361 101.36 328.511 103.44 329.471 104.03C330.432 105.406 331.304 106.842 332.081 108.33L332.601 109.23L332.811 109.59C336.671 116.34 341.261 125.46 344.501 126.66C346.483 127.437 348.635 127.68 350.741 127.364C352.847 127.048 354.833 126.185 356.501 124.86C358.201 123.46 360.061 118.12 361.221 113.86L361.441 112.98C361.551 112.55 361.661 112.13 361.751 111.73C361.961 110.73 362.131 109.94 362.231 109.31C362.31 108.907 362.31 108.493 362.231 108.09C360.16 108.757 358.04 109.259 355.891 109.59H355.511H355.271C353.091 109.43 348.041 106.79 348.041 106.79C348.041 106.79 348.281 108.59 348.481 110.67C348.481 110.84 348.481 111 348.531 111.17L348.591 111.85C348.591 112.26 348.651 112.68 348.671 113.08C348.771 114.8 348.751 116.3 348.451 116.69C348.012 117.162 347.424 117.467 346.786 117.555C346.148 117.642 345.5 117.506 344.951 117.17C344.041 116.6 340.451 111.51 337.151 107.31L336.951 107.05L336.631 106.64L335.991 105.86C334.251 103.72 332.691 102.03 331.821 101.69C329.131 100.69 317.221 99.59 316.821 100.02C316.421 100.45 316.611 101.21 317.001 101.28Z" fill="#118014"/>
<path d="M348 106.76C348 106.76 353.35 109.55 355.41 109.57H355.47H355.85C358 109.239 360.12 108.737 362.19 108.07H362.12H362.04H361.97L361.75 107.95L361.6 107.87L360.89 107.51L360.67 107.4L359.78 106.96L359.62 106.88L359.48 106.82L358.95 106.56L358.41 106.32L357.81 106.05L357.3 105.83L357.03 105.72L356.78 105.62L356.07 105.37L355.67 105.25H355.47C354.472 105.2 353.473 105.329 352.52 105.63C352.1 105.73 351.68 105.85 351.27 105.97L350.72 106.13L350.42 106.23L349.94 106.38L349.7 106.46L349.36 106.57H349.25L349.07 106.63L348.2 106.93H348.15L348 106.76Z" fill="#263238"/>
<path d="M317 101.29C317.36 101.36 328.51 103.44 329.48 104.03C330.435 105.408 331.303 106.844 332.08 108.33C332.638 107.678 333.262 107.085 333.94 106.56C334.26 106.4 335.26 106.07 336.01 105.83C334.27 103.69 332.71 102 331.83 101.66C329.15 100.66 317.24 99.56 316.83 100C316.42 100.44 316.61 101.21 317 101.29Z" fill="#263238"/>
<path d="M332.561 109.23L332.771 109.59C333.301 109.11 334.531 108 334.701 107.91C334.871 107.82 336.141 107.31 336.931 107.02C336.821 106.88 336.711 106.75 336.611 106.61C335.838 106.82 335.083 107.088 334.351 107.41C334.081 107.61 333.061 108.69 332.561 109.23Z" fill="#263238"/>
<path d="M348.46 110.64L349.32 111.03C351.002 111.827 352.766 112.438 354.58 112.85C356.24 113.05 360.04 112.12 361.69 111.69C361.9 110.69 362.07 109.9 362.17 109.27C362.25 108.871 362.25 108.459 362.17 108.06C359.982 108.771 357.733 109.277 355.45 109.57C353.45 109.57 347.98 106.76 347.98 106.76C347.98 106.76 348.26 108.57 348.46 110.64Z" fill="#455A64"/>
<path d="M348.65 113.05C349.95 113.66 353.19 115.05 354.76 115.21C356.33 115.37 359.87 114.21 361.15 113.82C361.23 113.53 361.31 113.23 361.38 112.94C359.98 113.35 356.38 114.33 354.75 114.14C352.611 113.597 350.538 112.819 348.57 111.82C348.6 112.23 348.63 112.65 348.65 113.05Z" fill="#455A64"/>
<path d="M348 106.76C348 106.76 353.35 109.55 355.41 109.57H355.47H355.85C358 109.239 360.12 108.737 362.19 108.07H362.12H362.04H361.97L361.75 107.95L361.6 107.87L360.89 107.51L360.67 107.4L359.78 106.96L359.62 106.88L359.48 106.82L358.95 106.56L358.41 106.32L357.81 106.05L357.3 105.83L357.03 105.72L356.78 105.62L356.07 105.37L355.67 105.25H355.49C355.4 105.454 355.336 105.669 355.3 105.89C357.055 106.488 358.763 107.217 360.41 108.07C358.845 108.457 357.259 108.75 355.66 108.95C355.577 108.957 355.493 108.957 355.41 108.95C355.138 108.925 354.87 108.871 354.61 108.79C353.021 108.338 351.473 107.756 349.98 107.05C350.881 106.651 351.828 106.365 352.8 106.2C352.7 106 352.6 105.8 352.52 105.6C352.1 105.7 351.68 105.82 351.27 105.94L350.72 106.1L350.42 106.2L349.94 106.35L349.7 106.43L349.36 106.54H349.25L349.07 106.6L348.2 106.9H348.15L348 106.76Z" fill="#37474F"/>
<path d="M352.44 105.38C352.52 105.58 352.62 105.78 352.72 105.98C353.229 106.906 353.835 107.774 354.53 108.57C354.79 108.651 355.058 108.705 355.33 108.73H355.58C355.234 107.746 355.111 106.697 355.22 105.66C355.254 105.438 355.322 105.222 355.42 105.02C355.547 104.728 355.755 104.478 356.02 104.3C357.53 103.457 359.13 102.786 360.79 102.3C363.62 101.21 366.23 99.56 367.11 96.48C369.01 89.8 361.33 85.07 356.36 82.48C356.29 82.48 356.25 82.55 356.3 82.6C358.95 85.1 362.22 88.27 361.25 92.32C360.59 95.1 357.81 96.44 355.66 97.93C353.66 99.31 351.98 101.1 352.04 103.67C352.059 104.261 352.195 104.842 352.44 105.38Z" fill="#EBEBEB"/>
<g opacity="0.2">
<path d="M387.92 77.86C389.397 79.8284 390.257 82.1905 390.391 84.6476C390.525 87.1046 389.927 89.5463 388.674 91.6637C387.42 93.7811 385.566 95.4791 383.347 96.543C381.129 97.6068 378.644 97.9887 376.208 97.6403C373.772 97.2919 371.494 96.2289 369.662 94.5857C367.831 92.9426 366.527 90.7931 365.918 88.4091C365.308 86.0252 365.418 83.5139 366.236 81.1929C367.053 78.8719 368.541 76.8455 370.51 75.37C373.149 73.3925 376.466 72.544 379.731 73.0109C382.995 73.4778 385.941 75.222 387.92 77.86Z" fill="white"/>
<path d="M389.62 81C390.779 84.0733 390.676 87.4804 389.333 90.4778C387.99 93.4753 385.516 95.8199 382.45 97L389.62 81Z" fill="#EBEBEB"/>
<path d="M379.881 73L370.061 94.89C369.311 94.2596 368.639 93.5411 368.061 92.75C367.372 91.8348 366.819 90.8242 366.421 89.75L373.661 73.59C375.651 72.8717 377.791 72.6688 379.881 73Z" fill="#EBEBEB"/>
<path d="M387.131 76.91L377.781 97.76C376.963 97.747 376.149 97.6532 375.351 97.48L385.351 75.28C385.997 75.7629 386.593 76.3089 387.131 76.91Z" fill="#EBEBEB"/>
<path d="M381.541 73.41L371.441 95.91L371.061 95.67L381.061 73.29C381.223 73.319 381.383 73.3591 381.541 73.41Z" fill="#EBEBEB"/>
<path d="M370.001 75.76L365.521 85.76C365.521 85.39 365.521 85.02 365.521 84.64L369.171 76.52C369.432 76.2507 369.709 75.9969 370.001 75.76Z" fill="#EBEBEB"/>
</g>
<path d="M387.088 94.9043L384.623 96.7515L391.418 105.818L393.883 103.971L387.088 94.9043Z" fill="#37474F"/>
<path d="M392.133 101.833L389.829 103.56C389.435 103.855 389.355 104.413 389.65 104.806L396.113 113.433C396.408 113.827 396.966 113.907 397.359 113.612L399.664 111.885C400.058 111.59 400.138 111.033 399.843 110.639L393.379 102.012C393.085 101.618 392.527 101.538 392.133 101.833Z" fill="#263238"/>
<path d="M378 70.61C375.091 70.61 372.247 71.4727 369.828 73.0891C367.409 74.7054 365.523 77.0028 364.41 79.6907C363.296 82.3786 363.005 85.3363 363.573 88.1898C364.14 91.0432 365.541 93.6643 367.598 95.7215C369.656 97.7788 372.277 99.1797 375.13 99.7473C377.984 100.315 380.941 100.024 383.629 98.9103C386.317 97.7969 388.615 95.9115 390.231 93.4924C391.847 91.0734 392.71 88.2293 392.71 85.32C392.705 81.4203 391.153 77.6818 388.396 74.9243C385.638 72.1668 381.9 70.6153 378 70.61ZM378 97.09C375.672 97.09 373.397 96.3997 371.461 95.1064C369.525 93.8131 368.017 91.9749 367.126 89.8242C366.235 87.6735 366.002 85.3069 366.456 83.0238C366.91 80.7406 368.031 78.6434 369.677 76.9973C371.323 75.3513 373.421 74.2303 375.704 73.7761C377.987 73.322 380.354 73.5551 382.504 74.4459C384.655 75.3368 386.493 76.8454 387.786 78.7809C389.08 80.7165 389.77 82.9921 389.77 85.32C389.767 88.4408 388.526 91.433 386.32 93.6397C384.113 95.8464 381.121 97.0873 378 97.09Z" fill="#263238"/>
<path d="M75.5 237C98.9721 237 118 218.196 118 195C118 171.804 98.9721 153 75.5 153C52.0279 153 33 171.804 33 195C33 218.196 52.0279 237 75.5 237Z" fill="#4CAF50"/>
<path d="M80 169H71V221H80V169Z" fill="white"/>
<path d="M102 200V190H49V200H102Z" fill="white"/>
</svg>
