<svg width="600" height="600" viewBox="0 0 600 600" fill="none" xmlns="http://www.w3.org/2000/svg">
<g clip-path="url(#clip0_567_277)">
<path d="M14.24 145.59H-77.5V278.57H14.24V145.59Z" fill="#E0E0E0"/>
<path d="M9.64039 145.59H-82.0996V278.57H9.64039V145.59Z" fill="#F5F5F5"/>
<path d="M9.9097 145.59C9.43547 146.44 8.88665 147.247 8.2697 148C7.2097 149.42 5.6897 151.36 3.9697 153.46C2.2497 155.56 0.629688 157.41 -0.570312 158.73C-1.17337 159.476 -1.84277 160.165 -2.57031 160.79C-2.05238 159.979 -1.46698 159.213 -0.820312 158.5L3.5997 153.14L7.99969 147.75C8.57404 146.977 9.21301 146.255 9.9097 145.59Z" fill="#E0E0E0"/>
<path d="M-1.39844 263.83C2.02533 269.265 6.05074 274.297 10.6016 278.83Z" fill="white"/>
<path d="M10.6299 278.87C9.86041 278.314 9.15597 277.673 8.52985 276.96C6.93102 275.335 5.41574 273.629 3.98985 271.85C2.32985 269.76 0.939853 267.77 -0.0101471 266.3C-0.556545 265.524 -1.02547 264.697 -1.41016 263.83C-0.791664 264.544 -0.226789 265.303 0.279846 266.1C1.27985 267.52 2.71984 269.46 4.36984 271.53C6.01984 273.6 7.61985 275.42 8.77985 276.72C9.44717 277.391 10.0654 278.11 10.6299 278.87Z" fill="#E0E0E0"/>
<path d="M137.931 126.21V184.45H54.2912L51.2812 126.62L137.931 126.21Z" fill="#E0E0E0"/>
<path d="M51.2715 126.62V184.32H134.911V126.62H51.2715Z" fill="white"/>
<path d="M135.311 184.72H50.8809V126.22H135.311V184.72ZM51.6808 183.93H134.521V127H51.6808V183.93Z" fill="#E0E0E0"/>
<path d="M125.86 133.79H60.3398V177.15H125.86V133.79Z" fill="white"/>
<path d="M125.86 133.79H124.6H121H107.5L60.3398 134L60.5298 133.81C60.5298 147.06 60.5298 161.74 60.5298 177.17L60.3298 176.97H125.85L125.68 177.13C125.68 163.94 125.75 153.13 125.77 145.58C125.77 141.82 125.77 138.88 125.77 136.86C125.77 135.86 125.77 135.1 125.77 134.57C125.77 134.04 125.77 133.77 125.77 133.77C125.77 133.77 125.77 134.02 125.77 134.53C125.77 135.04 125.77 135.81 125.77 136.79C125.77 138.79 125.77 141.73 125.82 145.48C125.82 153.04 125.87 163.9 125.9 177.13V177.3H125.74H60.2198H60.0098V177.09C60.0098 161.66 60.0098 146.98 60.0098 133.73V133.6H60.1998L107.49 133.69L120.95 133.75H124.51H125.72L125.86 133.79Z" fill="#E0E0E0"/>
<path d="M51.2812 126.46C51.7982 126.709 52.282 127.021 52.7213 127.39C53.5713 128.01 54.7213 128.89 56.0013 129.89C57.2813 130.89 58.3613 131.89 59.1413 132.56C59.5875 132.922 59.9902 133.335 60.3412 133.79C58.7479 132.676 57.2126 131.481 55.7413 130.21C54.1766 129.056 52.6869 127.803 51.2812 126.46Z" fill="#E0E0E0"/>
<path d="M134.921 126.62C133.546 127.973 132.075 129.226 130.521 130.37C129.05 131.618 127.493 132.761 125.861 133.79C127.237 132.437 128.707 131.184 130.261 130.04C131.73 128.789 133.288 127.646 134.921 126.62Z" fill="#E0E0E0"/>
<path d="M134.852 184.33L125.521 176.77Z" fill="white"/>
<path d="M125.521 176.77C127.199 177.87 128.803 179.079 130.322 180.39C131.918 181.6 133.432 182.917 134.852 184.33C133.172 183.236 131.572 182.027 130.061 180.71C128.458 179.505 126.941 178.188 125.521 176.77Z" fill="#E0E0E0"/>
<path d="M51.2812 184.32C52.64 182.983 54.0938 181.747 55.6313 180.62C57.0861 179.383 58.6266 178.25 60.2413 177.23C58.8867 178.574 57.4326 179.815 55.8913 180.94C54.438 182.176 52.8973 183.306 51.2812 184.32Z" fill="#E0E0E0"/>
<path d="M73.6406 147.3V161.82H114.871V147.3H73.6406Z" fill="#E0E0E0"/>
<path d="M478.69 387.17C478.69 387.17 471.18 383.67 465.29 401.27C459.4 418.87 457.65 428.78 457.65 428.78C457.65 428.78 455.96 432.54 453.27 430.65C450.58 428.76 446.41 422.89 442.58 424.65C438.75 426.41 437.93 431.29 439.74 437.98C441.55 444.67 444.98 459.46 445.28 460.8C445.58 462.14 445.11 464.19 443.08 463.2C441.05 462.21 428.63 451.96 424.08 458.13C419.53 464.3 427.67 482.13 428.52 484.07C429.37 486.01 429.1 486.97 428.2 487.62C427.3 488.27 423.47 484.43 419.82 481.62C416.17 478.81 411.46 476.28 409.15 480.06C406.84 483.84 408.04 497.93 424.71 518.61L433.06 527.68L445.19 525.17C470.82 518.22 480.06 507.52 480.41 503.1C480.76 498.68 475.41 498 470.86 498.1C466.31 498.2 460.92 499.05 460.58 497.99C460.24 496.93 460.58 495.99 462.4 494.99C464.22 493.99 481.25 484.24 481.23 476.59C481.21 468.94 465.14 469.96 462.91 469.59C460.68 469.22 461.52 467.24 462.53 466.35C463.54 465.46 475.02 455.48 480.41 451.13C485.8 446.78 488.1 442.47 485.94 438.68C483.78 434.89 477.04 437.32 473.76 437.27C470.48 437.22 471.31 433.18 471.31 433.18C471.31 433.18 475.71 424.18 481.31 406.43C486.91 388.68 478.53 387.15 478.53 387.15" fill="#EBEBEB"/>
<path d="M431.48 530.19C435.62 517.19 443.36 494.24 449.91 474.49C456.46 454.74 462.371 436.87 466.581 423.91C468.671 417.43 470.361 412.19 471.581 408.55C472.171 406.75 472.58 405.34 472.94 404.37C473.094 403.91 473.214 403.55 473.3 403.29C473.38 403.04 473.43 402.92 473.43 402.92C473.43 402.92 473.431 403.05 473.331 403.3C473.231 403.55 473.15 403.92 473.01 404.39C472.71 405.39 472.28 406.78 471.72 408.59C470.6 412.24 468.95 417.5 466.87 423.99C462.73 436.99 456.87 454.87 450.32 474.61C443.77 494.35 435.981 517.31 431.771 530.27" fill="#E0E0E0"/>
<path d="M448.09 433.08C448.256 433.327 448.4 433.588 448.52 433.86C448.78 434.37 449.13 435.13 449.52 436.06C450.37 437.93 451.52 440.54 452.63 443.44C453.74 446.34 454.79 448.89 455.63 450.87C455.98 451.76 456.29 452.52 456.53 453.12C456.667 453.385 456.767 453.668 456.83 453.96C456.664 453.713 456.52 453.452 456.4 453.18C456.14 452.67 455.79 451.92 455.4 450.98C454.57 449.1 453.5 446.48 452.34 443.58C451.18 440.68 450.14 438.14 449.34 436.17L448.42 433.92C448.275 433.655 448.164 433.373 448.09 433.08Z" fill="#E0E0E0"/>
<path d="M458 454C457.95 453.9 463.23 451.4 469.79 448.4C476.35 445.4 481.69 443.06 481.79 443.16C481.89 443.26 476.55 445.76 469.99 448.75C463.43 451.74 458 454.11 458 454Z" fill="#E0E0E0"/>
<path d="M446.541 483.88C446.833 483.786 447.135 483.725 447.441 483.7L449.891 483.34C451.951 483.04 454.811 482.61 457.941 482.01C461.071 481.41 463.881 480.8 465.941 480.32L468.351 479.77C468.643 479.679 468.946 479.625 469.251 479.61C468.974 479.736 468.686 479.836 468.391 479.91C467.831 480.08 467.021 480.32 466.011 480.59C464.011 481.13 461.171 481.8 458.011 482.39C454.851 482.98 452.011 483.39 449.921 483.61C448.921 483.73 448.041 483.81 447.451 483.85C447.149 483.886 446.845 483.896 446.541 483.88Z" fill="#E0E0E0"/>
<path d="M433.441 466.91C433.658 467.09 433.852 467.295 434.021 467.52L435.491 469.28C436.721 470.77 438.391 472.85 440.221 475.16C442.051 477.47 443.701 479.57 444.871 481.11L446.241 482.94C446.421 483.157 446.578 483.392 446.711 483.64C446.492 483.463 446.297 483.258 446.131 483.03L444.661 481.28C443.431 479.78 441.761 477.71 439.921 475.4C438.081 473.09 436.451 470.98 435.281 469.45L433.911 467.62C433.727 467.402 433.57 467.164 433.441 466.91Z" fill="#E0E0E0"/>
<path d="M420 492C420.27 492.237 420.515 492.502 420.73 492.79C421.23 493.37 421.86 494.13 422.62 495.03C424.21 496.93 426.37 499.58 428.75 502.52C431.13 505.46 433.26 508.13 434.75 510.08L436.55 512.39C436.779 512.668 436.983 512.966 437.16 513.28C436.896 513.036 436.652 512.772 436.43 512.49L434.54 510.25C432.96 508.34 430.79 505.7 428.41 502.76C426.03 499.82 423.9 497.15 422.41 495.2C421.69 494.27 421.08 493.49 420.62 492.88C420.385 492.608 420.177 492.313 420 492Z" fill="#E0E0E0"/>
<path d="M437 512.65C437.366 512.538 437.741 512.455 438.12 512.4L441.21 511.84C443.82 511.36 447.42 510.68 451.37 509.84C455.32 509 458.88 508.12 461.45 507.47L464.5 506.71C464.87 506.6 465.247 506.519 465.63 506.47C465.279 506.63 464.914 506.757 464.54 506.85C463.83 507.07 462.8 507.38 461.54 507.73C458.98 508.45 455.43 509.36 451.47 510.21C447.51 511.06 443.9 511.71 441.28 512.12C439.97 512.33 438.9 512.48 438.17 512.57C437.783 512.634 437.392 512.661 437 512.65Z" fill="#E0E0E0"/>
<path d="M500.999 529.83C500.999 529.97 363.609 530.09 194.179 530.09C24.7494 530.09 -112.641 530 -112.641 529.83C-112.641 529.66 24.7194 529.57 194.219 529.57C363.719 529.57 500.999 529.69 500.999 529.83Z" fill="#263238"/>
<path d="M313.357 181.824L303.842 189.962L316.543 204.813L326.058 196.675L313.357 181.824Z" fill="#263238"/>
<path d="M321.58 180.67L302 197.49L288.27 181.49C293.67 173.91 300.11 168.19 307.82 164.67L321.58 180.67Z" fill="#455A64"/>
<path d="M305.3 194.67C305.19 194.77 301.88 191.13 297.9 186.56C293.92 181.99 290.78 178.21 290.9 178.11C291.02 178.01 294.32 181.65 298.3 186.22C302.28 190.79 305.41 194.58 305.3 194.67Z" fill="#263238"/>
<path d="M309 191.47C308.209 190.7 307.473 189.875 306.8 189C305.48 187.45 303.69 185.3 301.72 182.9L296.72 176.74L295.22 174.87C294.86 174.41 294.67 174.2 294.67 174.17C294.87 173.99 298.2 177.78 302.14 182.57C304.14 184.97 305.86 187.16 307.14 188.77C307.838 189.613 308.461 190.517 309 191.47Z" fill="#263238"/>
<path d="M314.001 187.2C313.197 186.433 312.452 185.607 311.771 184.73C310.441 183.16 308.641 180.97 306.661 178.54L301.661 172.28L300.161 170.37C299.966 170.142 299.792 169.898 299.641 169.64C300.5 170.35 301.272 171.159 301.941 172.05C303.291 173.6 305.111 175.78 307.081 178.21C309.051 180.64 310.821 182.87 312.081 184.5C312.795 185.345 313.438 186.248 314.001 187.2Z" fill="#263238"/>
<path d="M318.51 183.2C318.4 183.29 315.11 179.62 311.16 175C307.21 170.38 304.11 166.55 304.22 166.45C304.33 166.35 307.61 170.03 311.56 174.66C315.51 179.29 318.62 183.11 318.51 183.2Z" fill="#263238"/>
<path d="M480.915 191.933L472.266 182.881L458.139 196.381L466.789 205.433L480.915 191.933Z" fill="#263238"/>
<path d="M481.33 200.84L463.51 182.19L478.74 167.64C486.58 172.64 492.64 178.77 496.55 186.29L481.33 200.84Z" fill="#455A64"/>
<path d="M466.49 185.32C466.39 185.21 469.84 181.71 474.2 177.5C478.56 173.29 482.2 169.96 482.27 170.06C482.34 170.16 478.92 173.66 474.56 177.88C470.2 182.1 466.59 185.42 466.49 185.32Z" fill="#263238"/>
<path d="M469.891 188.87C470.601 188.03 471.377 187.248 472.211 186.53C473.681 185.13 475.741 183.22 478.031 181.12L483.921 175.79L485.711 174.19C486.141 173.81 486.351 173.62 486.381 173.61C486.571 173.8 482.961 177.33 478.381 181.51C476.091 183.6 473.991 185.51 472.451 186.8C471.653 187.556 470.797 188.248 469.891 188.87Z" fill="#263238"/>
<path d="M474.41 193.6C475.13 192.752 475.916 191.963 476.76 191.24C478.25 189.83 480.34 187.91 482.67 185.81L488.67 180.47L490.5 178.87C490.724 178.671 490.957 178.484 491.2 178.31C490.539 179.207 489.774 180.023 488.92 180.74C487.44 182.17 485.35 184.1 483.03 186.2C480.71 188.3 478.57 190.2 477.03 191.52C476.212 192.28 475.336 192.975 474.41 193.6Z" fill="#263238"/>
<path d="M478.641 197.91C478.541 197.8 482.041 194.33 486.451 190.14C490.861 185.95 494.521 182.65 494.621 182.76C494.721 182.87 491.221 186.34 486.811 190.52C482.401 194.7 478.741 198 478.641 197.91Z" fill="#263238"/>
<path d="M401.08 148.72H386.26V171.85H401.08V148.72Z" fill="#263238"/>
<path d="M409 155.64H378.5V130.71C389.19 128.07 399.39 127.91 409.03 130.71L409 155.64Z" fill="#006D06"/>
<path d="M409.389 130.81C409.032 131.033 408.654 131.221 408.259 131.37C407.215 131.83 406.143 132.224 405.049 132.55C403.411 133.055 401.74 133.449 400.049 133.73C397.995 134.056 395.919 134.23 393.839 134.25C391.761 134.253 389.685 134.099 387.629 133.79C385.939 133.528 384.268 133.15 382.629 132.66C381.534 132.34 380.459 131.956 379.409 131.51C379.012 131.372 378.633 131.188 378.279 130.96C378.279 130.87 379.959 131.56 382.729 132.3C384.355 132.73 386.004 133.064 387.669 133.3C389.704 133.575 391.756 133.716 393.809 133.72C395.864 133.697 397.916 133.536 399.949 133.24C401.607 133 403.25 132.666 404.869 132.24C407.709 131.43 409.349 130.72 409.389 130.81Z" fill="#263238"/>
<path d="M388.58 155.57C388.44 155.57 388.32 150.78 388.32 144.88C388.32 138.98 388.44 134.19 388.58 134.19C388.72 134.19 388.84 138.97 388.84 144.88C388.84 150.79 388.73 155.57 388.58 155.57Z" fill="#263238"/>
<path d="M394.391 155.71C394.251 155.71 394.131 150.9 394.131 144.97C394.131 139.04 394.251 134.24 394.391 134.24C394.531 134.24 394.651 139.04 394.651 144.97C394.651 150.9 394.541 155.71 394.391 155.71Z" fill="#263238"/>
<path d="M400.199 155.62C400.059 155.62 399.939 150.81 399.939 144.88C399.939 138.95 400.059 134.14 400.199 134.14C400.339 134.14 400.459 138.95 400.459 144.88C400.459 150.81 400.349 155.62 400.199 155.62Z" fill="#263238"/>
<path d="M405 155.62C404.85 155.62 404.74 150.42 404.74 144.01C404.74 137.6 404.85 132.4 405 132.4C405.15 132.4 405.26 137.6 405.26 144.01C405.26 150.42 405.18 155.62 405 155.62Z" fill="#263238"/>
<path d="M383.09 155.47C382.95 155.47 382.83 150.27 382.83 143.86C382.83 137.45 382.95 132.25 383.09 132.25C383.23 132.25 383.35 137.45 383.35 143.86C383.35 150.27 383.24 155.47 383.09 155.47Z" fill="#263238"/>
<path d="M468.127 348.772C510.237 306.661 510.237 238.387 468.127 196.277C426.017 154.167 357.742 154.167 315.632 196.277C273.522 238.387 273.522 306.661 315.632 348.772C357.742 390.882 426.017 390.882 468.127 348.772Z" fill="#006D06"/>
<path d="M391.88 362.23C441.895 362.23 482.44 321.685 482.44 271.67C482.44 221.655 441.895 181.11 391.88 181.11C341.865 181.11 301.32 221.655 301.32 271.67C301.32 321.685 341.865 362.23 391.88 362.23Z" fill="#FAFAFA"/>
<path d="M482.441 271.67C482.441 271.67 482.441 271.18 482.371 270.21C482.301 269.24 482.371 267.79 482.181 265.9C481.824 260.386 480.96 254.916 479.601 249.56C478.621 245.694 477.381 241.899 475.891 238.2C474.139 233.79 472.032 229.529 469.591 225.46C463.618 215.519 455.814 206.801 446.591 199.77C435.397 191.254 422.367 185.473 408.541 182.89C396.822 180.734 384.796 180.873 373.131 183.3C369.034 184.189 364.999 185.342 361.051 186.75C344.249 192.87 329.635 203.827 319.051 218.24C316.289 221.993 313.828 225.959 311.691 230.1C310.581 232.17 309.631 234.32 308.691 236.48C307.751 238.64 306.911 240.88 306.201 243.16C304.666 247.723 303.515 252.406 302.761 257.16C302.002 261.967 301.604 266.824 301.571 271.69C301.606 276.559 302 281.419 302.751 286.23C303.516 290.982 304.667 295.664 306.191 300.23C306.911 302.5 307.811 304.7 308.681 306.9C309.551 309.1 310.601 311.22 311.681 313.29C313.817 317.433 316.282 321.399 319.051 325.15C329.632 339.568 344.247 350.528 361.051 356.65C364.999 358.058 369.034 359.211 373.131 360.1C377.125 360.935 381.171 361.499 385.241 361.79C393.03 362.379 400.863 361.948 408.541 360.51C422.367 357.927 435.397 352.146 446.591 343.63C455.816 336.602 463.622 327.884 469.591 317.94C472.03 313.87 474.137 309.609 475.891 305.2C479.442 296.358 481.566 287.008 482.181 277.5C482.351 275.61 482.321 274.16 482.371 273.19C482.421 272.22 482.441 271.72 482.441 271.72C482.441 271.72 482.441 272.22 482.441 273.19C482.441 274.16 482.441 275.61 482.301 277.5C481.753 287.035 479.67 296.419 476.131 305.29C474.389 309.72 472.289 314.001 469.851 318.09C463.892 328.081 456.087 336.848 446.851 343.92C435.617 352.488 422.535 358.31 408.651 360.92C400.938 362.377 393.068 362.821 385.241 362.24C381.151 361.95 377.085 361.385 373.071 360.55C368.949 359.663 364.891 358.508 360.921 357.09C344.019 350.946 329.317 339.933 318.671 325.44C315.892 321.669 313.417 317.683 311.271 313.52C310.151 311.44 309.191 309.26 308.211 307.09C307.231 304.92 306.431 302.67 305.711 300.38C304.177 295.795 303.019 291.093 302.251 286.32C300.664 276.638 300.664 266.762 302.251 257.08C303.023 252.327 304.18 247.645 305.711 243.08C306.441 240.79 307.341 238.58 308.221 236.37C309.101 234.16 310.151 232.03 311.271 229.95C313.424 225.789 315.902 221.803 318.681 218.03C329.323 203.539 344.022 192.528 360.921 186.39C364.888 184.974 368.943 183.818 373.061 182.93C377.078 182.095 381.147 181.531 385.241 181.24C393.065 180.659 400.931 181.103 408.641 182.56C422.529 185.159 435.613 190.981 446.841 199.56C456.077 206.637 463.882 215.406 469.841 225.4C474.32 232.944 477.688 241.095 479.841 249.6C481.175 254.975 482.008 260.461 482.331 265.99C482.481 267.88 482.431 269.33 482.471 270.3C482.511 271.27 482.441 271.67 482.441 271.67Z" fill="#263238"/>
<path d="M469.15 268.39C466.28 268.51 463.94 268.39 463.93 268.14C463.92 267.89 466.23 267.55 469.1 267.39C471.97 267.23 474.31 267.33 474.33 267.63C474.35 267.93 472 268.27 469.15 268.39Z" fill="#263238"/>
<path d="M467.221 289.24C464.421 288.58 462.221 287.85 462.221 287.6C462.221 287.35 464.601 287.65 467.411 288.26C470.221 288.87 472.411 289.61 472.411 289.9C472.411 290.19 470.001 289.89 467.221 289.24Z" fill="#263238"/>
<path d="M459.75 308.79C457.22 307.41 455.28 306.1 455.4 305.88C455.52 305.66 457.68 306.57 460.22 307.88C462.76 309.19 464.71 310.54 464.57 310.8C464.43 311.06 462.27 310.18 459.75 308.79Z" fill="#263238"/>
<path d="M447.299 325.63C445.239 323.63 443.709 321.85 443.889 321.63C444.069 321.41 445.889 322.9 447.989 324.88C450.089 326.86 451.599 328.63 451.399 328.88C451.199 329.13 449.349 327.64 447.299 325.63Z" fill="#263238"/>
<path d="M430.799 338.53C429.359 336.04 428.359 333.92 428.579 333.79C428.799 333.66 430.179 335.56 431.659 338.02C433.139 340.48 434.139 342.6 433.889 342.76C433.639 342.92 432.249 341 430.799 338.53Z" fill="#263238"/>
<path d="M411.449 346.52C410.729 343.73 410.339 341.42 410.589 341.36C410.839 341.3 411.649 343.49 412.419 346.26C413.189 349.03 413.569 351.34 413.279 351.42C412.989 351.5 412.169 349.3 411.449 346.52Z" fill="#263238"/>
<path d="M390.659 349C390.659 346.12 390.949 343.79 391.199 343.79C391.449 343.79 391.659 346.13 391.659 349C391.659 351.87 391.409 354.21 391.119 354.21C390.829 354.21 390.609 351.89 390.659 349Z" fill="#263238"/>
<path d="M369.999 345.87C370.819 343.11 371.679 340.94 371.929 341.01C372.179 341.08 371.739 343.38 370.929 346.15C370.119 348.92 369.289 351.15 368.999 351.01C368.709 350.87 369.129 348.63 369.999 345.87Z" fill="#263238"/>
<path d="M350.871 337.26C352.401 334.83 353.811 332.96 354.031 333.09C354.251 333.22 353.211 335.33 351.721 337.79C350.231 340.25 348.811 342.11 348.561 341.96C348.311 341.81 349.341 339.7 350.871 337.26Z" fill="#263238"/>
<path d="M334.78 323.86C336.91 321.92 338.78 320.5 338.94 320.69C339.1 320.88 337.56 322.62 335.46 324.59C333.36 326.56 331.51 327.98 331.3 327.77C331.09 327.56 332.66 325.8 334.78 323.86Z" fill="#263238"/>
<path d="M322.86 306.64C325.43 305.35 327.61 304.48 327.72 304.7C327.83 304.92 325.87 306.19 323.32 307.53C320.77 308.87 318.6 309.74 318.46 309.47C318.32 309.2 320.3 307.94 322.86 306.64Z" fill="#263238"/>
<path d="M315.999 286.86C318.829 286.3 321.159 286.05 321.209 286.3C321.259 286.55 319.019 287.24 316.209 287.84C313.399 288.44 311.059 288.69 310.999 288.4C310.939 288.11 313.199 287.42 315.999 286.86Z" fill="#263238"/>
<path d="M314.73 266C317.6 266.21 319.91 266.59 319.9 266.84C319.89 267.09 317.54 267.16 314.67 266.99C311.8 266.82 309.48 266.45 309.5 266.15C309.52 265.85 311.86 265.74 314.73 266Z" fill="#263238"/>
<path d="M319.081 245.47C321.791 246.47 323.911 247.47 323.831 247.68C323.751 247.89 321.471 247.35 318.751 246.41C316.031 245.47 313.911 244.49 314.001 244.21C314.091 243.93 316.381 244.49 319.081 245.47Z" fill="#263238"/>
<path d="M328.789 226.92C331.129 228.59 332.909 230.11 332.789 230.32C332.669 230.53 330.609 229.37 328.239 227.74C325.869 226.11 324.089 224.59 324.239 224.34C324.389 224.09 326.439 225.25 328.789 226.92Z" fill="#263238"/>
<path d="M343.099 211.64C344.909 213.87 346.219 215.81 346.029 215.98C345.839 216.15 344.169 214.48 342.329 212.27C340.489 210.06 339.169 208.13 339.399 207.94C339.629 207.75 341.289 209.41 343.099 211.64Z" fill="#263238"/>
<path d="M361 200.74C362.14 203.38 362.89 205.6 362.65 205.74C362.41 205.88 361.27 203.8 360.09 201.18C358.91 198.56 358.16 196.34 358.43 196.18C358.7 196.02 359.83 198.11 361 200.74Z" fill="#263238"/>
<path d="M381.139 195.07C381.529 197.92 381.649 200.26 381.389 200.3C381.129 200.34 380.579 198.06 380.149 195.22C379.719 192.38 379.599 190.03 379.889 189.99C380.179 189.95 380.749 192.22 381.139 195.07Z" fill="#263238"/>
<path d="M402.08 195C401.7 197.85 401.19 200.14 400.94 200.11C400.69 200.08 400.75 197.73 401.09 194.88C401.43 192.03 401.94 189.73 402.23 189.77C402.52 189.81 402.46 192.14 402.08 195Z" fill="#263238"/>
<path d="M422.271 200.53C421.141 203.18 420.031 205.24 419.791 205.14C419.551 205.04 420.261 202.81 421.351 200.14C422.441 197.47 423.561 195.42 423.831 195.54C424.101 195.66 423.411 197.89 422.271 200.53Z" fill="#263238"/>
<path d="M440.231 211.3C438.431 213.55 436.811 215.24 436.611 215.08C436.411 214.92 437.681 212.95 439.451 210.68C441.221 208.41 442.831 206.68 443.071 206.91C443.311 207.14 442.001 209.06 440.231 211.3Z" fill="#263238"/>
<path d="M454.659 226.48C452.319 228.16 450.309 229.36 450.159 229.15C450.009 228.94 451.759 227.39 454.069 225.67C456.379 223.95 458.389 222.76 458.569 223C458.749 223.24 456.999 224.8 454.659 226.48Z" fill="#263238"/>
<path d="M464.489 245C461.789 246 459.489 246.59 459.429 246.36C459.369 246.13 461.429 245.09 464.139 244.06C466.849 243.03 469.079 242.42 469.189 242.7C469.299 242.98 467.189 244 464.489 245Z" fill="#263238"/>
<path d="M469 265.42C466.13 265.65 463.79 265.63 463.77 265.42C463.75 265.21 466.05 264.75 468.91 264.42C471.77 264.09 474.12 264.17 474.14 264.47C474.16 264.77 471.84 265.19 469 265.42Z" fill="#263238"/>
<path d="M356.709 173.7L356.399 173.84L355.479 174.21C354.679 174.55 353.479 174.96 351.949 175.63C347.638 177.432 343.452 179.52 339.419 181.88C336.859 183.36 334.149 185.13 331.299 187.12C328.449 189.11 325.539 191.43 322.629 194.04C309.853 205.301 300.094 219.577 294.239 235.57C292.869 239.23 291.839 242.81 290.949 246.16C290.059 249.51 289.459 252.71 289.009 255.63C288.279 260.244 287.855 264.9 287.739 269.57C287.659 271.23 287.739 272.51 287.739 273.38C287.739 273.8 287.739 274.12 287.739 274.38C287.748 274.493 287.748 274.607 287.739 274.72C287.726 274.61 287.726 274.5 287.739 274.39C287.739 274.14 287.739 273.81 287.739 273.39C287.739 272.52 287.629 271.24 287.679 269.58C287.715 264.893 288.086 260.214 288.789 255.58C289.209 252.64 289.859 249.45 290.669 246.06C291.573 242.457 292.661 238.902 293.929 235.41C299.755 219.31 309.571 204.952 322.459 193.68C325.389 191.07 328.369 188.82 331.189 186.77C334.009 184.72 336.789 183.02 339.379 181.56C343.439 179.224 347.66 177.179 352.009 175.44C353.539 174.8 354.769 174.44 355.589 174.11L356.529 173.79C356.587 173.756 356.647 173.725 356.709 173.7Z" fill="white"/>
<path d="M386.81 167.86C385.781 168.074 384.738 168.211 383.69 168.27C381.75 168.47 379.09 168.76 376.15 169.14C373.21 169.52 370.56 169.92 368.64 170.22C367.611 170.431 366.568 170.565 365.52 170.62C366.514 170.273 367.538 170.019 368.58 169.86C370.49 169.47 373.14 169.01 376.08 168.63C379.02 168.25 381.709 168.01 383.659 167.9C384.706 167.788 385.761 167.775 386.81 167.86Z" fill="white"/>
<g opacity="0.4">
<path d="M319.5 326.11C319.5 326.11 366.43 400.17 439.23 362.24C515.23 322.64 473.23 231.87 473.23 231.87C473.23 231.87 508.99 304.21 434.91 351.37C416.46 363.12 396.37 363.13 381.05 361.59C341.9 357.67 319.5 326.11 319.5 326.11Z" fill="black"/>
</g>
<path d="M417.12 223.54C417.57 236.822 417.17 250.119 415.92 263.35C415.46 268.14 414.92 272.98 413.07 277.43C411.22 281.88 408.07 285.96 403.63 287.84C399.19 289.72 393.51 288.94 390.42 285.26L417.12 223.54Z" fill="#E0E0E0"/>
<path d="M389.91 264.53L422.82 209.11L402.96 271.68L392.81 274.71L389.91 264.53Z" fill="#006D06"/>
<g opacity="0.4">
<path d="M422.82 209.11L398.41 265.74L402.96 271.68L422.82 209.11Z" fill="black"/>
</g>
<path d="M392.811 285.3C398.659 285.3 403.401 280.559 403.401 274.71C403.401 268.861 398.659 264.12 392.811 264.12C386.962 264.12 382.221 268.861 382.221 274.71C382.221 280.559 386.962 285.3 392.811 285.3Z" fill="#FAFAFA"/>
<path d="M403.401 274.71C403.306 273.849 403.162 272.995 402.971 272.15C402.357 269.869 400.999 267.859 399.111 266.44C397.724 265.396 396.097 264.717 394.38 264.464C392.663 264.21 390.91 264.391 389.281 264.99C388.343 265.322 387.462 265.798 386.671 266.4C385.828 267.011 385.088 267.754 384.481 268.6C383.181 270.372 382.48 272.512 382.48 274.71C382.48 276.908 383.181 279.048 384.481 280.82C385.695 282.467 387.363 283.725 389.281 284.44C390.649 284.942 392.107 285.152 393.562 285.057C395.016 284.963 396.435 284.565 397.727 283.89C399.018 283.215 400.155 282.277 401.063 281.137C401.971 279.997 402.631 278.68 403.001 277.27C403.194 276.426 403.337 275.571 403.431 274.71C403.492 275.587 403.415 276.468 403.201 277.32C402.654 279.704 401.297 281.825 399.361 283.32C398.033 284.351 396.481 285.053 394.831 285.37C392.932 285.733 390.971 285.581 389.151 284.93C388.162 284.589 387.234 284.092 386.401 283.46C385.516 282.821 384.74 282.044 384.101 281.16C382.724 279.306 381.98 277.059 381.98 274.75C381.98 272.441 382.724 270.194 384.101 268.34C384.743 267.458 385.519 266.682 386.401 266.04C387.238 265.416 388.165 264.924 389.151 264.58C390.97 263.924 392.932 263.772 394.831 264.14C396.847 264.528 398.709 265.488 400.194 266.907C401.678 268.326 402.722 270.143 403.201 272.14C403.4 272.981 403.468 273.848 403.401 274.71Z" fill="#263238"/>
<path d="M400.568 276.298C401.43 272.032 398.671 267.875 394.405 267.012C390.14 266.15 385.983 268.909 385.12 273.174C384.258 277.44 387.017 281.597 391.282 282.46C395.548 283.322 399.705 280.563 400.568 276.298Z" fill="#455A64"/>
<path d="M309.32 528.89H361.42L337.13 319.55L309.32 528.89Z" fill="#E0E0E0"/>
<path d="M52.9591 319.55L19.0391 531.36L308.489 535.13L337.129 319.55H52.9591Z" fill="#FAFAFA"/>
<path d="M324.24 416.58H37.4199L43.6599 377.58H329.42L324.24 416.58Z" fill="#EBEBEB"/>
<path d="M324.261 416.61H37.3906L43.6406 377.61H329.451L324.261 416.61ZM37.4506 416.56H324.221L329.391 377.56H43.6906L37.4506 416.56Z" fill="#263238"/>
<path d="M52.9602 319.55L43.6602 377.58H329.42L337.13 319.55H52.9602Z" fill="#006D06"/>
<path d="M53 319.55L337.17 319.31H337.44V319.58C329.07 382.69 319.57 454.26 309.53 529.85V530.08H306.05L19.28 530H19V529.75L53 319.55C52.72 321.29 39.8 402.5 19.53 529.85L19.32 529.6H305.98H309.23L308.98 529.82C319.03 454.23 328.55 382.67 336.98 319.56L337.21 319.82L53 319.55Z" fill="#263238"/>
<path d="M329.42 377.58C329.42 377.72 265.42 377.84 186.55 377.84C107.68 377.84 43.6602 377.72 43.6602 377.58C43.6602 377.44 107.66 377.32 186.55 377.32C265.44 377.32 329.42 377.43 329.42 377.58Z" fill="#263238"/>
<path d="M324.239 416.58C324.239 416.73 259.899 416.84 180.559 416.84C101.219 416.84 36.8691 416.73 36.8691 416.58C36.8691 416.43 101.189 416.32 180.559 416.32C259.929 416.32 324.239 416.44 324.239 416.58Z" fill="#263238"/>
<path d="M318.4 452.47C318.4 452.62 254.07 452.73 174.73 452.73C95.39 452.73 31 452.62 31 452.47C31 452.32 95.32 452.21 174.69 452.21C254.06 452.21 318.4 452.33 318.4 452.47Z" fill="#263238"/>
<path d="M312.569 488.36C312.569 488.5 248.229 488.62 168.889 488.62C89.5492 488.62 25.1992 488.5 25.1992 488.36C25.1992 488.22 89.5192 488.1 168.889 488.1C248.259 488.1 312.569 488.22 312.569 488.36Z" fill="#263238"/>
<path d="M59.6707 530.14C59.5307 530.14 64.7807 495.94 71.4107 453.82C78.0407 411.7 83.5107 377.55 83.6507 377.58C83.7907 377.61 78.5407 411.76 71.9207 453.9C65.3007 496.04 59.8207 530.16 59.6707 530.14Z" fill="#263238"/>
<path d="M103.9 530.14C103.75 530.14 109.01 495.94 115.63 453.82C122.25 411.7 127.73 377.55 127.88 377.58C128.03 377.61 122.77 411.76 116.14 453.9C109.51 496.04 104 530.16 103.9 530.14Z" fill="#263238"/>
<path d="M145.001 528.61C144.861 528.61 150.061 494.76 156.611 453.06C163.161 411.36 168.611 377.55 168.741 377.58C168.871 377.61 163.681 411.42 157.131 453.14C150.581 494.86 145.131 528.63 145.001 528.61Z" fill="#263238"/>
<path d="M185.649 529.82C185.509 529.82 190.749 495.69 197.359 453.66C203.969 411.63 209.439 377.55 209.579 377.58C209.719 377.61 204.479 411.69 197.869 453.74C191.259 495.79 185.789 529.84 185.649 529.82Z" fill="#263238"/>
<path d="M226.501 529.82C226.361 529.82 231.601 495.69 238.211 453.66C244.821 411.63 250.291 377.55 250.431 377.58C250.571 377.61 245.341 411.69 238.731 453.74C232.121 495.79 226.651 529.84 226.501 529.82Z" fill="#263238"/>
<path d="M267.319 530C267.179 530 272.429 495.83 279.049 453.73C285.669 411.63 291.139 377.51 291.289 377.54C291.439 377.57 286.179 411.7 279.559 453.81C272.939 495.92 267.459 530.06 267.319 530Z" fill="#263238"/>
<g opacity="0.2">
<path d="M241.62 380.3C246.54 378.12 249.62 373 250.89 367.77C252.16 362.54 251.96 357.08 252.15 351.69C252.34 346.3 252.98 340.75 255.73 336.12C257.36 333.39 259.65 331.12 261.46 328.49C263.27 325.86 264.61 322.66 263.94 319.49L233.16 319.65L241.62 380.3Z" fill="black"/>
</g>
<path d="M114 419.47C113.918 419.604 113.817 419.725 113.7 419.83L112.78 420.83C111.97 421.66 110.78 422.83 109.28 424.29C106.28 427.17 102.11 431.09 97.3604 435.29C92.6104 439.49 88.2104 443.15 84.9804 445.75C83.3604 447.05 82.0404 448.09 81.1204 448.75L80.0504 449.55C79.9313 449.654 79.7962 449.739 79.6504 449.8C79.6504 449.8 79.7604 449.67 79.9804 449.47L80.9804 448.59L84.7304 445.42C87.9104 442.75 92.2704 439.04 97.0104 434.86C101.75 430.68 106.01 426.8 109.01 423.99L112.62 420.66L113.62 419.77C113.734 419.654 113.862 419.554 114 419.47Z" fill="#263238"/>
<path d="M111.689 450.2C111.264 449.829 110.867 449.428 110.499 449L107.369 445.66C104.669 442.79 101.049 438.93 97.0591 434.66L86.6392 423.76L83.4792 420.45C83.0803 420.056 82.7094 419.635 82.3691 419.19C82.8221 419.525 83.2438 419.899 83.6292 420.31C84.4092 421.05 85.5291 422.14 86.8991 423.5C89.6391 426.22 93.3791 430.03 97.4291 434.31C101.479 438.59 105.079 442.53 107.639 445.42C108.919 446.86 109.949 448.04 110.639 448.86C111.03 449.273 111.381 449.722 111.689 450.2Z" fill="#263238"/>
<path d="M122.37 428.66C122.37 428.66 122.47 428.4 122.68 427.89C123.011 427.15 123.413 426.443 123.88 425.78C125.719 423.211 128.312 421.278 131.3 420.25C133.44 419.476 135.722 419.176 137.99 419.37C140.69 419.632 143.292 420.519 145.59 421.96C148.243 423.595 150.484 425.819 152.14 428.46C154.055 431.408 155.008 434.877 154.87 438.39C154.755 440.285 154.167 442.121 153.16 443.73C152.104 445.399 150.699 446.818 149.04 447.89C145.508 450.155 141.349 451.244 137.16 451C134.966 450.882 132.805 450.413 130.76 449.61C128.632 448.779 126.718 447.48 125.16 445.81C124.386 444.931 123.733 443.953 123.22 442.9C122.731 441.825 122.394 440.688 122.22 439.52C121.888 437.128 122.096 434.691 122.83 432.39C124.359 427.591 127.674 423.563 132.09 421.14C134.379 419.883 136.926 419.167 139.535 419.047C142.144 418.927 144.745 419.407 147.14 420.45C149.621 421.495 151.793 423.158 153.45 425.28C155.109 427.459 156.146 430.048 156.45 432.77C156.796 435.531 156.349 438.334 155.16 440.85C154.549 442.113 153.746 443.273 152.78 444.29C151.796 445.292 150.687 446.163 149.48 446.88C147.045 448.221 144.359 449.046 141.591 449.305C138.823 449.563 136.031 449.248 133.39 448.38C130.789 447.581 128.398 446.215 126.39 444.38C124.398 442.544 123.037 440.125 122.5 437.47C121.936 434.86 122.308 432.134 123.55 429.77C124.18 428.605 125.045 427.583 126.09 426.77C127.119 425.993 128.267 425.389 129.49 424.98C131.891 424.21 134.41 423.871 136.93 423.98C139.383 423.998 141.823 424.334 144.19 424.98C146.529 425.595 148.691 426.753 150.5 428.36C152.233 429.977 153.415 432.096 153.88 434.42C154.339 436.666 154.205 438.992 153.49 441.17C152.782 443.27 151.586 445.172 150 446.72C146.987 449.665 142.998 451.402 138.79 451.6C136.82 451.704 134.849 451.419 132.99 450.76C131.205 450.12 129.6 449.06 128.31 447.67C127.089 446.344 126.165 444.772 125.6 443.06C125.043 441.454 124.795 439.758 124.87 438.06C125.012 434.916 126.267 431.925 128.41 429.62C130.242 427.615 132.56 426.117 135.14 425.27C137.305 424.564 139.6 424.346 141.86 424.63C144.983 425.018 147.951 426.214 150.47 428.1C151.124 428.581 151.742 429.109 152.32 429.68C152.71 430.07 152.9 430.28 152.9 430.28C152.9 430.28 152.68 430.09 152.29 429.72C151.696 429.168 151.068 428.654 150.41 428.18C147.886 426.35 144.936 425.197 141.84 424.83C139.399 424.547 136.925 424.854 134.627 425.724C132.329 426.594 130.272 428.002 128.63 429.83C126.543 432.085 125.327 435.01 125.2 438.08C125.132 439.745 125.38 441.407 125.93 442.98C126.487 444.641 127.39 446.164 128.58 447.45C129.833 448.797 131.39 449.825 133.12 450.45C134.934 451.08 136.852 451.352 138.77 451.25C142.877 451.048 146.767 449.343 149.7 446.46C151.232 444.962 152.387 443.121 153.07 441.09C153.754 438.985 153.878 436.738 153.43 434.57C152.98 432.339 151.843 430.304 150.18 428.75C148.42 427.203 146.325 426.087 144.06 425.49C141.732 424.853 139.333 424.517 136.92 424.49C134.46 424.397 132.003 424.736 129.66 425.49C127.27 426.222 125.247 427.834 124 430C122.816 432.261 122.462 434.865 123 437.36C123.518 439.911 124.831 442.232 126.75 443.99C128.695 445.788 131.019 447.127 133.55 447.91C136.12 448.756 138.838 449.063 141.532 448.812C144.226 448.56 146.84 447.756 149.21 446.45C150.38 445.763 151.453 444.922 152.4 443.95C153.328 442.974 154.101 441.861 154.69 440.65C155.841 438.222 156.274 435.516 155.94 432.85C155.654 430.222 154.662 427.72 153.07 425.61C151.468 423.559 149.368 421.951 146.97 420.94C144.646 419.925 142.121 419.457 139.588 419.571C137.055 419.685 134.582 420.38 132.36 421.6C128.068 423.963 124.847 427.882 123.36 432.55C122.647 434.783 122.439 437.147 122.75 439.47C122.93 440.598 123.266 441.695 123.75 442.73C124.245 443.741 124.87 444.682 125.61 445.53C127.118 447.147 128.97 448.405 131.03 449.21C133.03 450.001 135.143 450.467 137.29 450.59C141.389 450.841 145.463 449.791 148.93 447.59C150.532 446.609 151.882 445.265 152.87 443.668C153.859 442.07 154.458 440.262 154.62 438.39C154.76 434.954 153.834 431.559 151.97 428.67C150.352 426.063 148.155 423.862 145.55 422.24C143.293 420.812 140.736 419.925 138.08 419.65C135.846 419.438 133.594 419.718 131.48 420.47C128.519 421.471 125.936 423.356 124.08 425.87C123.601 426.522 123.186 427.219 122.84 427.95C122.5 428.41 122.37 428.66 122.37 428.66Z" fill="#006D06"/>
<path d="M149.46 456.27C149.55 456.38 141.62 463.16 131.74 471.42C121.86 479.68 113.74 486.27 113.68 486.16C113.62 486.05 121.52 479.27 131.4 471.02C141.28 462.77 149.37 456.16 149.46 456.27Z" fill="#263238"/>
<path d="M151.19 485.27C150.72 484.993 150.274 484.675 149.86 484.32L146.34 481.58C143.39 479.24 139.34 475.98 134.88 472.36C130.42 468.74 126.41 465.44 123.52 463.03L120.11 460.15C119.678 459.82 119.276 459.452 118.91 459.05C119.379 459.33 119.823 459.648 120.24 460L123.75 462.74C126.7 465.08 130.75 468.34 135.21 471.96C139.67 475.58 143.68 478.88 146.58 481.29L149.98 484.16C150.41 484.5 150.814 484.871 151.19 485.27Z" fill="#263238"/>
<path d="M232.939 456.66C233.019 456.77 225.439 462.58 215.989 469.66C206.539 476.74 198.819 482.33 198.729 482.21C198.639 482.09 206.229 476.29 215.679 469.21C225.129 462.13 232.849 456.54 232.939 456.66Z" fill="#263238"/>
<path d="M235.88 481.26C235.81 481.38 227.75 476.39 217.88 470.1C208.01 463.81 200.1 458.63 200.17 458.5C200.24 458.37 208.3 463.38 218.17 469.66C228.04 475.94 236 481.14 235.88 481.26Z" fill="#263238"/>
<path d="M150.761 529.83C150.651 529.73 158.531 521.47 168.351 511.4C178.171 501.33 186.221 493.22 186.351 493.32C186.481 493.42 178.581 501.68 168.761 511.76C158.941 521.84 150.861 529.93 150.761 529.83Z" fill="#006D06"/>
<path d="M184.07 529.82C184.07 529.82 183.94 529.71 183.74 529.47L182.9 528.47C182.12 527.47 181.08 526.18 179.81 524.6C177.2 521.34 173.5 516.91 169.21 512.2C164.92 507.49 160.85 503.4 157.85 500.5L154.29 497L153.29 496.06C153.175 495.955 153.071 495.837 152.98 495.71C152.98 495.71 153.13 495.79 153.36 495.98L154.36 496.85C155.25 497.61 156.51 498.74 158.05 500.16C161.11 503 165.23 507.06 169.54 511.78C173.85 516.5 177.54 520.98 180.04 524.3C181.32 525.96 182.33 527.3 183.04 528.3L183.81 529.4C183.914 529.529 184.001 529.67 184.07 529.82Z" fill="#006D06"/>
<path d="M102.209 487.76C102.209 487.76 102.529 512.33 96.3291 527.04L58.5391 520.6C58.5391 520.6 69.9191 497.32 66.8191 484.38L102.209 487.76Z" fill="#EBEBEB"/>
<path d="M102.2 486.84C102.2 486.84 97.46 517 94.56 526L57 518.54C57 518.54 64.73 489.38 64.63 481.26L102.2 486.84Z" fill="#006D06"/>
<path d="M68.4395 494.78C68.4395 494.92 74.0195 496.22 80.9695 497.68C87.9195 499.14 93.5695 500.21 93.5995 500.08C93.6295 499.95 88.0195 498.64 81.0695 497.18C74.1195 495.72 68.4695 494.64 68.4395 494.78Z" fill="white"/>
<path d="M67.4805 501.17C67.4805 501.31 73.0605 502.6 80.0105 504.07C86.9605 505.54 92.6105 506.6 92.6405 506.47C92.6705 506.34 87.0605 505.03 80.1105 503.57C73.1605 502.11 67.5105 501 67.4805 501.17Z" fill="white"/>
<path d="M73 508.4C73.6406 508.679 74.3119 508.88 75 509C76.29 509.31 78.08 509.72 80.05 510.14C82.02 510.56 83.83 510.9 85.14 511.14C85.8397 511.316 86.5586 511.403 87.28 511.4C86.615 511.12 85.9206 510.915 85.21 510.79C83.93 510.47 82.14 510.06 80.16 509.65C78.18 509.24 76.38 508.88 75.08 508.65C74.3993 508.483 73.7009 508.399 73 508.4Z" fill="white"/>
<path d="M280.999 418.77C280.999 418.77 284.869 442.71 280.949 457.98L243.109 457.17C243.109 457.17 250.849 432.79 245.939 420.6L280.999 418.77Z" fill="#EBEBEB"/>
<path d="M280.829 417.87C280.829 417.87 280.579 447.98 279.049 457.17L241.279 455.38C241.279 455.38 244.589 425.78 243.279 417.87H280.829Z" fill="#455A64"/>
<path d="M248.641 431.27C248.641 431.41 254.321 431.53 261.331 431.54C268.341 431.55 274.031 431.45 274.031 431.31C274.031 431.17 268.351 431.05 261.331 431.04C254.311 431.03 248.641 431.13 248.641 431.27Z" fill="white"/>
<path d="M249 437.64C249 437.78 254.68 437.9 261.69 437.91C268.7 437.92 274.39 437.82 274.39 437.68C274.39 437.54 268.71 437.42 261.69 437.41C254.67 437.4 249 437.5 249 437.64Z" fill="white"/>
<path d="M255.77 443.51C256.466 443.659 257.178 443.723 257.89 443.7C259.2 443.7 261.01 443.77 263.01 443.78C265.01 443.79 266.81 443.78 268.12 443.71C268.83 443.739 269.542 443.682 270.24 443.54C269.543 443.391 268.831 443.331 268.12 443.36C266.81 443.31 265.01 443.28 263.01 443.27C261.01 443.26 259.2 443.27 257.89 443.34C257.179 443.311 256.467 443.369 255.77 443.51Z" fill="white"/>
<path d="M289.001 349.74C281.941 349.74 274.831 345.31 271.091 338.34C267.455 331.399 266.328 323.416 267.901 315.74C269.971 305.74 276.591 297.54 284.771 294.92C291.721 292.69 304.141 293.92 310.001 303.73C312.792 308.527 314.178 314.013 314.001 319.56C313.975 319.954 313.871 320.339 313.696 320.693C313.521 321.047 313.278 321.363 312.981 321.623C312.684 321.883 312.338 322.082 311.964 322.208C311.59 322.335 311.195 322.386 310.801 322.36C310.005 322.307 309.263 321.94 308.738 321.34C308.213 320.74 307.948 319.956 308.001 319.16C308.055 314.829 306.943 310.563 304.781 306.81C300.261 299.26 290.351 299.41 286.531 300.63C279.531 302.87 275.051 310.44 273.701 316.95C272.405 323.253 273.327 329.809 276.311 335.51C279.261 341.01 285.231 344.43 290.521 343.62C291.302 343.511 292.094 343.714 292.726 344.185C293.359 344.656 293.78 345.357 293.9 346.136C294.019 346.916 293.827 347.711 293.365 348.349C292.903 348.988 292.208 349.42 291.431 349.55C290.627 349.675 289.814 349.738 289.001 349.74Z" fill="#263238"/>
<path d="M95.3205 349.74C88.2505 349.74 81.1505 345.31 77.4105 338.34C73.7715 331.401 72.6411 323.417 74.2105 315.74C75.9605 307.3 81.8805 297.58 91.2105 294.9C95.709 293.682 100.478 293.923 104.83 295.59L102.671 301.19C99.5382 300 96.1129 299.815 92.8705 300.66C85.9905 302.66 81.5105 310.28 80.1305 316.95C78.8343 323.253 79.7563 329.809 82.7405 335.51C85.6905 341.02 91.6705 344.43 96.9505 343.62L97.8605 349.55C97.0201 349.68 96.1708 349.744 95.3205 349.74Z" fill="#263238"/>
<path d="M286.53 319.71L283.77 334.82H324.38L327.99 319.86L286.53 319.71Z" fill="#006D06"/>
<path d="M105.609 347.35C105.611 348.629 105.234 349.879 104.525 350.943C103.816 352.007 102.807 352.836 101.626 353.326C100.445 353.817 99.1457 353.945 97.8916 353.696C96.6376 353.447 95.4856 352.832 94.5815 351.928C93.6775 351.024 93.062 349.872 92.8131 348.618C92.5642 347.364 92.6929 346.064 93.1831 344.883C93.6733 343.702 94.5028 342.694 95.5667 341.985C96.6306 341.275 97.8809 340.898 99.1594 340.9C100.869 340.903 102.508 341.583 103.717 342.792C104.926 344.001 105.607 345.64 105.609 347.35Z" fill="#263238"/>
<path d="M299.119 347.35C299.121 348.629 298.744 349.879 298.035 350.943C297.326 352.007 296.317 352.836 295.136 353.326C293.955 353.817 292.655 353.945 291.401 353.696C290.147 353.447 288.995 352.832 288.091 351.928C287.187 351.024 286.572 349.872 286.323 348.618C286.074 347.364 286.203 346.064 286.693 344.883C287.183 343.702 288.013 342.694 289.076 341.985C290.14 341.275 291.391 340.898 292.669 340.9C294.379 340.903 296.018 341.583 297.227 342.792C298.436 344.001 299.117 345.64 299.119 347.35Z" fill="#263238"/>
<path d="M192.55 222.32L181.93 262.6L145.27 266.54V273.04L196.78 274.85L206.46 229.66L192.55 222.32Z" fill="#FFBE9D"/>
<path d="M208.001 275.92C208.001 275.92 150.721 273.19 134.411 285.92C118.101 298.65 126.001 319.55 126.001 319.55L218.181 319.31L226.321 272.58L208.001 275.92Z" fill="#263238"/>
<path d="M217.751 306.75C217.473 306.757 217.195 306.737 216.921 306.69C216.381 306.63 215.591 306.55 214.571 306.42C212.571 306.17 209.571 305.75 205.971 305.14C196.519 303.532 187.17 301.372 177.971 298.67C172.591 297.08 167.501 295.48 162.801 294.31C158.652 293.236 154.409 292.566 150.131 292.31C147.245 292.148 144.349 292.316 141.501 292.81C140.501 292.93 139.731 293.19 139.191 293.28C138.924 293.346 138.654 293.396 138.381 293.43C138.635 293.321 138.9 293.237 139.171 293.18C139.923 292.946 140.687 292.755 141.461 292.61C144.316 292.033 147.231 291.808 150.141 291.94C154.48 292.147 158.789 292.787 163.001 293.85C167.731 294.99 172.831 296.59 178.191 298.18C187.34 300.859 196.623 303.059 206.001 304.77C209.611 305.43 212.541 305.9 214.571 306.22L216.911 306.59C217.195 306.62 217.476 306.673 217.751 306.75Z" fill="#455A64"/>
<path d="M164.51 294C162.919 292.688 161.223 291.507 159.44 290.47C157.572 289.596 155.635 288.873 153.65 288.31C154.266 288.256 154.887 288.317 155.48 288.49C156.943 288.805 158.355 289.316 159.68 290.01C161.003 290.708 162.228 291.579 163.32 292.6C163.8 292.989 164.204 293.464 164.51 294Z" fill="#455A64"/>
<path d="M214.071 400.43L214.841 424.5L210.001 443.72C209.922 444.049 209.912 444.391 209.972 444.724C210.031 445.057 210.159 445.375 210.347 445.656C210.534 445.938 210.778 446.178 211.063 446.361C211.348 446.544 211.667 446.666 212.001 446.72C212.387 446.791 212.785 446.767 213.161 446.653C213.537 446.538 213.88 446.335 214.161 446.06C217.801 442.5 231.161 429.34 230.991 427.59C230.811 425.59 231.861 402.13 231.861 402.13L214.071 400.43Z" fill="#006D06"/>
<g opacity="0.6">
<path d="M211.91 446.76L230.91 426V427C230.922 427.883 230.617 428.742 230.05 429.42C228.54 431.23 224.25 436.14 214.16 446.08C213.872 446.365 213.517 446.575 213.128 446.69C212.739 446.805 212.327 446.822 211.93 446.74L211.91 446.76Z" fill="white"/>
</g>
<g opacity="0.6">
<path d="M225.87 418.27C225.565 418.493 225.356 418.823 225.284 419.194C225.211 419.564 225.282 419.949 225.48 420.27C225.691 420.57 226.008 420.778 226.366 420.852C226.725 420.926 227.098 420.861 227.41 420.67C227.724 420.438 227.939 420.096 228.013 419.713C228.087 419.33 228.015 418.933 227.81 418.6C227.562 418.307 227.208 418.122 226.826 418.085C226.443 418.048 226.061 418.161 225.76 418.4" fill="white"/>
</g>
<path d="M217.32 436.18C217.18 436.25 216.62 435 215.19 434.33C214.305 433.982 213.361 433.812 212.41 433.83C212.41 433.77 212.69 433.58 213.25 433.49C213.992 433.4 214.745 433.524 215.418 433.849C216.092 434.173 216.658 434.684 217.05 435.32C217.33 435.81 217.37 436.16 217.32 436.18Z" fill="#263238"/>
<path d="M215.631 439.43C214.939 439.052 214.224 438.718 213.491 438.43C212.71 438.292 211.922 438.199 211.131 438.15C211.498 437.914 211.918 437.769 212.353 437.729C212.788 437.689 213.226 437.755 213.631 437.92C215.051 438.3 215.751 439.36 215.631 439.43Z" fill="#263238"/>
<path d="M220.469 432C219.448 431.326 218.378 430.728 217.269 430.21C216.098 429.852 214.902 429.585 213.689 429.41C214.949 429.146 216.258 429.25 217.46 429.709C218.662 430.168 219.707 430.964 220.469 432Z" fill="#263238"/>
<path d="M220.851 424.68C220.791 424.83 219.451 424.28 217.721 424.24C215.991 424.2 214.621 424.62 214.561 424.47C215.531 423.935 216.627 423.673 217.734 423.709C218.842 423.746 219.918 424.082 220.851 424.68Z" fill="#263238"/>
<path d="M220.801 417.61C219.748 417.279 218.654 417.094 217.551 417.06C216.458 417.187 215.387 417.467 214.371 417.89C214.371 417.84 214.591 417.53 215.141 417.21C215.877 416.794 216.701 416.558 217.546 416.522C218.391 416.485 219.232 416.649 220.001 417C220.551 417.27 220.841 417.55 220.801 417.61Z" fill="#263238"/>
<path d="M217.58 415.71C217.518 415.41 217.518 415.1 217.58 414.8C217.655 413.964 217.896 413.151 218.29 412.41C218.524 411.839 218.943 411.364 219.48 411.06C219.666 410.977 219.873 410.952 220.073 410.99C220.273 411.027 220.457 411.125 220.6 411.27C220.858 411.57 220.996 411.955 220.99 412.35C220.943 413.156 220.618 413.921 220.071 414.515C219.525 415.109 218.789 415.496 217.99 415.61C217.192 415.699 216.386 415.548 215.674 415.178C214.962 414.808 214.376 414.234 213.99 413.53C213.893 413.352 213.835 413.156 213.822 412.954C213.808 412.752 213.838 412.549 213.91 412.36C214.004 412.181 214.149 412.035 214.328 411.94C214.506 411.845 214.709 411.807 214.91 411.83C215.505 411.957 216.056 412.236 216.51 412.64C217.166 413.16 217.728 413.789 218.17 414.5C218.347 414.751 218.475 415.032 218.55 415.33C217.914 414.427 217.15 413.621 216.28 412.94C215.874 412.607 215.394 412.377 214.88 412.27C214.769 412.251 214.655 412.268 214.554 412.319C214.454 412.369 214.372 412.45 214.32 412.55C214.285 412.679 214.275 412.813 214.292 412.945C214.309 413.077 214.353 413.205 214.42 413.32C214.771 413.916 215.285 414.398 215.902 414.71C216.519 415.022 217.212 415.151 217.9 415.08C218.582 414.993 219.213 414.674 219.689 414.177C220.164 413.68 220.454 413.035 220.51 412.35C220.523 412.076 220.438 411.807 220.27 411.59C220.194 411.504 220.093 411.446 219.982 411.422C219.87 411.399 219.754 411.412 219.65 411.46C219.211 411.728 218.863 412.122 218.65 412.59C218.118 413.561 217.756 414.617 217.58 415.71Z" fill="#263238"/>
<path d="M226.271 272.58C226.271 272.58 201.501 319.41 201.161 327.58C200.821 335.75 201.161 411.06 201.161 411.06H239.501C240.501 411.06 246.251 377.13 245.081 369.32C243.911 361.51 239.781 319.53 239.781 319.53H261.841C261.841 319.53 267.891 313.06 267.671 304.85C267.541 300.32 264.581 291.06 261.671 286.15C259.781 283 247.671 266.51 247.671 266.51L226.271 272.58Z" fill="#263238"/>
<path d="M224.61 275.75C224.583 275.844 224.546 275.934 224.5 276.02C224.41 276.22 224.29 276.47 224.14 276.78L222.7 279.7C222.05 280.97 221.28 282.51 220.38 284.3L218.94 287.17L217.43 290.44L210 306.53C208.59 309.53 207.11 312.74 205.57 316.03L203.24 321.03C202.487 322.759 201.917 324.562 201.54 326.41C201.16 328.263 200.962 330.149 200.95 332.04C200.89 333.91 200.85 335.76 200.82 337.57C200.82 341.21 200.75 344.71 200.76 348.05C200.76 354.73 200.84 360.75 200.91 365.8C200.98 370.85 201.04 374.9 201.09 377.8C201.09 379.18 201.09 380.27 201.09 381.05C201.09 381.4 201.09 381.68 201.09 381.9C201.09 382.12 201.09 382.19 201.09 382.19C201.073 382.094 201.073 381.996 201.09 381.9C201.09 381.68 201.09 381.4 201.09 381.06C201.09 380.27 201.01 379.19 200.95 377.8C200.85 374.98 200.72 370.89 200.61 365.8C200.5 360.71 200.38 354.74 200.35 348.05C200.35 344.71 200.35 341.2 200.35 337.57C200.35 335.75 200.41 333.9 200.48 332.02C200.489 330.099 200.687 328.183 201.07 326.3C201.457 324.418 202.04 322.581 202.81 320.82L205.15 315.82L209.61 306.34L217.19 290.29L218.73 287.03C219.26 286.03 219.73 285.03 220.21 284.18L222.6 279.62C223.25 278.39 223.77 277.43 224.13 276.74C224.3 276.44 224.44 276.2 224.54 276C224.64 275.8 224.6 275.74 224.61 275.75Z" fill="#455A64"/>
<path d="M216.591 291.7C215.796 289.796 215.128 287.842 214.591 285.85C213.889 283.91 213.317 281.926 212.881 279.91C213.813 281.758 214.55 283.699 215.081 285.7C215.789 287.643 216.295 289.653 216.591 291.7Z" fill="#455A64"/>
<path d="M245.161 367.85C245.097 367.68 245.057 367.501 245.041 367.32C244.994 366.913 244.924 366.403 244.831 365.79C244.651 364.38 244.421 362.46 244.131 360.13C243.581 355.29 242.841 348.72 242.021 341.46C241.201 334.2 240.531 327.55 240.121 322.76C239.931 320.42 239.771 318.5 239.651 317.09C239.651 316.46 239.571 315.95 239.541 315.54C239.528 315.36 239.528 315.18 239.541 315C239.604 315.17 239.641 315.349 239.651 315.53C239.701 315.94 239.771 316.45 239.851 317.07C240.011 318.48 240.231 320.39 240.491 322.73C241.021 327.57 241.741 334.15 242.491 341.41C243.241 348.67 243.951 355.24 244.491 360.09C244.711 362.43 244.901 364.35 245.031 365.76C245.081 366.38 245.121 366.9 245.151 367.31C245.17 367.489 245.173 367.67 245.161 367.85Z" fill="#455A64"/>
<path d="M235.42 147.16C234.83 143.16 238.26 139.31 242.22 138.84C246.18 138.37 250.17 140.84 251.99 144.45C252.837 146.266 253.301 148.236 253.352 150.239C253.404 152.241 253.042 154.233 252.29 156.09C251.29 158.62 249.44 161.18 246.75 161.38C244.06 161.58 242 159.53 240.22 157.64" fill="#263238"/>
<path d="M207.271 167C199.271 149.47 218.271 140.66 228.601 143.58C238.321 146.33 242.471 151.17 244.071 157.67C245.823 164.191 245.473 171.099 243.071 177.41C241.811 180.47 239.551 183.57 236.271 183.95" fill="#263238"/>
<path d="M234.801 153.31C235.624 153.395 236.384 153.787 236.931 154.408C237.478 155.029 237.77 155.833 237.751 156.66L235.881 201.28C235.811 206.55 228.121 209.53 222.471 209.41C216.781 209.29 216.591 206.49 216.471 201.48C216.341 193.11 216.341 189.96 216.341 190.01C216.341 190.06 209.141 188.81 207.651 179.42C206.901 174.75 207.141 167.09 207.531 160.83C207.891 155.2 211.621 148.28 217.241 148.83L234.801 153.31Z" fill="#FFBE9D"/>
<path d="M211.211 166.17C211.206 166.485 211.324 166.789 211.541 167.018C211.758 167.246 212.056 167.38 212.371 167.39C212.525 167.402 212.679 167.384 212.825 167.335C212.971 167.286 213.106 167.209 213.222 167.107C213.337 167.006 213.431 166.882 213.498 166.743C213.565 166.605 213.604 166.454 213.611 166.3C213.614 165.986 213.495 165.683 213.278 165.455C213.062 165.228 212.765 165.093 212.451 165.08C212.298 165.068 212.143 165.087 211.997 165.135C211.851 165.184 211.716 165.261 211.6 165.363C211.485 165.464 211.391 165.588 211.324 165.727C211.257 165.866 211.219 166.016 211.211 166.17Z" fill="#263238"/>
<path d="M209.22 164.82C209.37 164.97 210.29 164.3 211.58 164.3C212.87 164.3 213.83 164.95 213.97 164.79C214.11 164.63 213.89 164.44 213.47 164.14C212.909 163.752 212.242 163.546 211.56 163.55C210.887 163.544 210.23 163.758 209.69 164.16C209.29 164.46 209.15 164.75 209.22 164.82Z" fill="#263238"/>
<path d="M223.881 166.17C223.878 166.478 223.991 166.775 224.2 167.002C224.408 167.228 224.694 167.367 225.001 167.39C225.154 167.402 225.309 167.384 225.455 167.335C225.601 167.286 225.736 167.209 225.852 167.107C225.967 167.006 226.061 166.882 226.128 166.743C226.195 166.605 226.233 166.454 226.241 166.3C226.244 165.986 226.124 165.683 225.908 165.455C225.691 165.228 225.395 165.093 225.081 165.08C224.777 165.066 224.481 165.173 224.256 165.378C224.031 165.582 223.896 165.867 223.881 166.17Z" fill="#263238"/>
<path d="M222 165.06C222.15 165.21 223.06 164.54 224.35 164.54C225.64 164.54 226.6 165.19 226.74 165.04C226.88 164.89 226.66 164.68 226.24 164.38C225.68 163.991 225.013 163.784 224.33 163.79C223.658 163.79 223.003 164.004 222.46 164.4C222 164.7 221.89 165 222 165.06Z" fill="#263238"/>
<path d="M217.259 174.67C216.577 174.46 215.872 174.332 215.159 174.29C214.829 174.29 214.509 174.19 214.459 173.97C214.428 173.622 214.505 173.273 214.679 172.97C214.989 172.17 215.309 171.33 215.679 170.45C216.586 168.315 217.321 166.111 217.879 163.86C216.796 165.915 215.883 168.056 215.149 170.26L214.209 172.8C214.003 173.2 213.942 173.66 214.039 174.1C214.089 174.216 214.164 174.32 214.259 174.403C214.355 174.486 214.467 174.547 214.589 174.58C214.772 174.628 214.96 174.655 215.149 174.66C215.849 174.751 216.558 174.754 217.259 174.67Z" fill="#263238"/>
<path d="M216.371 190C220.811 190.081 225.185 188.921 229.001 186.65C229.001 186.65 225.941 193.11 216.541 192.23L216.371 190Z" fill="#EB996E"/>
<path d="M217.811 177.79C218.058 177.482 218.38 177.241 218.745 177.091C219.111 176.941 219.508 176.885 219.901 176.93C220.188 176.954 220.468 177.037 220.722 177.172C220.977 177.308 221.201 177.495 221.381 177.72C221.553 177.936 221.655 178.199 221.673 178.474C221.691 178.75 221.624 179.024 221.481 179.26C221.273 179.494 221 179.66 220.697 179.736C220.394 179.813 220.075 179.797 219.781 179.69C219.165 179.473 218.6 179.133 218.121 178.69C217.976 178.587 217.85 178.458 217.751 178.31C217.704 178.239 217.68 178.155 217.68 178.07C217.68 177.985 217.704 177.901 217.751 177.83" fill="#EB996E"/>
<path d="M221.079 175.57C220.869 175.57 220.859 176.96 219.659 177.96C218.459 178.96 216.959 178.8 216.949 178.96C216.939 179.12 217.279 179.23 217.949 179.25C218.775 179.259 219.578 178.98 220.219 178.46C220.829 177.959 221.222 177.243 221.319 176.46C221.329 175.91 221.169 175.56 221.079 175.57Z" fill="#263238"/>
<path d="M221.381 162.79C221.511 163.14 222.811 162.97 224.331 163.16C225.851 163.35 227.081 163.75 227.281 163.44C227.371 163.29 227.151 162.96 226.661 162.61C226.001 162.186 225.251 161.926 224.471 161.85C223.693 161.753 222.904 161.846 222.171 162.12C221.611 162.34 221.331 162.62 221.381 162.79Z" fill="#263238"/>
<path d="M209.7 161.06C209.93 161.36 210.82 161.06 211.9 161.06C212.98 161.06 213.9 161.26 214.09 160.95C214.18 160.8 214.09 160.5 213.64 160.23C213.113 159.884 212.49 159.712 211.86 159.74C211.23 159.753 210.62 159.959 210.11 160.33C209.73 160.62 209.6 160.92 209.7 161.06Z" fill="#263238"/>
<path d="M221.929 145.75C218.742 145.913 215.646 146.876 212.929 148.55C211.406 149.34 210.053 150.422 208.948 151.734C207.843 153.047 207.008 154.564 206.489 156.2C206.358 156.54 206.297 156.904 206.31 157.268C206.324 157.633 206.412 157.991 206.569 158.32C206.867 158.697 207.286 158.958 207.755 159.058C208.224 159.159 208.714 159.092 209.139 158.87C209.987 158.409 210.709 157.746 211.239 156.94C211.451 157.822 211.955 158.605 212.67 159.163C213.385 159.72 214.269 160.018 215.175 160.007C216.082 159.997 216.958 159.679 217.66 159.105C218.362 158.531 218.848 157.736 219.039 156.85C219.111 157.751 219.527 158.59 220.201 159.191C220.876 159.793 221.756 160.111 222.659 160.08C223.56 160.002 224.419 159.662 225.13 159.103C225.841 158.543 226.372 157.788 226.659 156.93C226.88 158.556 227.442 160.117 228.309 161.51C228.753 162.202 229.399 162.739 230.16 163.051C230.92 163.362 231.758 163.432 232.559 163.25C232.223 164.633 232.244 166.078 232.619 167.45C233.119 168.77 235.109 191.36 236.449 190.9C237.789 190.44 237.739 167.4 238.039 166.06C238.704 163.49 239.041 160.845 239.039 158.19C239.129 155.455 238.242 152.777 236.538 150.635C234.835 148.494 232.425 147.028 229.739 146.5C227.058 145.885 224.307 145.633 221.559 145.75" fill="#263238"/>
<path d="M240.75 186.89C240.75 186.89 240.66 186.95 240.46 187.02C240.179 187.123 239.887 187.193 239.59 187.23C238.2 187.407 236.787 187.185 235.518 186.59C234.249 185.995 233.174 185.052 232.42 183.87C231.398 182.09 230.967 180.031 231.19 177.99C231.34 175.84 231.84 173.88 232.07 172.08C232.297 170.482 232.437 168.873 232.49 167.26C232.49 165.88 232.49 164.77 232.49 163.99C232.447 163.591 232.447 163.189 232.49 162.79C232.609 163.183 232.68 163.59 232.7 164C232.81 165.093 232.863 166.191 232.86 167.29C232.858 168.918 232.755 170.545 232.55 172.16C232.33 174 231.86 175.97 231.71 178.04C231.496 179.978 231.888 181.934 232.83 183.64C233.652 184.998 234.916 186.033 236.41 186.57C237.414 186.953 238.488 187.117 239.56 187.05C240.33 187 240.74 186.84 240.75 186.89Z" fill="#263238"/>
<path d="M218.621 144.54C218.985 145.225 219.154 145.996 219.111 146.77C219.146 148.665 218.429 150.497 217.117 151.865C215.806 153.232 214.006 154.025 212.111 154.07C211.342 154.144 210.567 154.005 209.871 153.67C209.871 153.58 210.731 153.82 212.091 153.67C213.868 153.549 215.537 152.772 216.774 151.49C218.01 150.207 218.726 148.511 218.781 146.73C218.811 145.4 218.531 144.56 218.621 144.54Z" fill="#455A64"/>
<path d="M220 155.6C220.05 155.6 219.93 156.24 219.21 156.94C218.732 157.37 218.172 157.699 217.564 157.906C216.955 158.114 216.311 158.197 215.67 158.15C214.413 158.038 213.202 157.623 212.14 156.94C211.33 156.43 210.89 156.04 210.93 155.94C211.414 156.092 211.878 156.304 212.31 156.57C213.365 157.118 214.516 157.458 215.7 157.57C216.875 157.639 218.035 157.284 218.97 156.57C219.7 156.11 219.94 155.56 220 155.6Z" fill="#455A64"/>
<path d="M242.65 152.73C242.717 153.591 242.656 154.457 242.47 155.3C242.187 157.389 241.398 159.376 240.17 161.09C239.529 161.94 238.722 162.649 237.796 163.176C236.871 163.702 235.848 164.033 234.79 164.15C234.147 164.208 233.499 164.143 232.88 163.96C232.45 163.83 232.24 163.7 232.25 163.67C233.075 163.818 233.916 163.855 234.75 163.78C236.74 163.457 238.529 162.383 239.75 160.78C240.922 159.123 241.723 157.234 242.1 155.24C242.232 154.393 242.415 153.554 242.65 152.73Z" fill="#455A64"/>
<path d="M244.37 157.28C244.462 157.537 244.512 157.807 244.52 158.08C244.587 158.808 244.604 159.54 244.57 160.27C244.517 162.731 243.637 165.102 242.07 167C241.185 168.044 240.035 168.828 238.74 169.27C237.678 169.617 236.546 169.686 235.45 169.47C234.714 169.329 234.016 169.037 233.4 168.61C232.98 168.3 232.8 168.07 232.82 168.05C233.641 168.572 234.554 168.932 235.51 169.11C236.542 169.258 237.594 169.159 238.58 168.82C239.781 168.377 240.848 167.633 241.68 166.66C243.165 164.832 244.049 162.59 244.21 160.24C244.37 158.43 244.28 157.29 244.37 157.28Z" fill="#455A64"/>
<path d="M112.56 278.15L94.4102 319.66H119.4L137.2 277.82L112.56 278.15Z" fill="#455A64"/>
<path d="M99.3611 234L119.831 274.26H184.391L181.781 269L163.081 268.44L147.831 234.5C147.368 233.466 146.615 232.588 145.664 231.972C144.713 231.357 143.604 231.029 142.471 231.03H101.181C100.827 231.017 100.476 231.099 100.164 231.266C99.8513 231.434 99.5892 231.682 99.4041 231.984C99.2189 232.286 99.1174 232.632 99.1098 232.986C99.1023 233.34 99.189 233.69 99.3611 234Z" fill="#E0E0E0"/>
<path d="M131.69 252.05C131.69 252.539 131.545 253.016 131.274 253.422C131.002 253.829 130.617 254.145 130.165 254.332C129.714 254.519 129.217 254.568 128.738 254.473C128.259 254.377 127.819 254.142 127.473 253.797C127.128 253.451 126.893 253.011 126.797 252.532C126.702 252.053 126.751 251.556 126.938 251.105C127.125 250.654 127.442 250.268 127.848 249.996C128.254 249.725 128.731 249.58 129.22 249.58C129.874 249.583 130.501 249.844 130.964 250.306C131.426 250.769 131.687 251.396 131.69 252.05Z" fill="#263238"/>
<path d="M191.27 274.34H112.35V278.19H191.27V274.34Z" fill="#455A64"/>
<path d="M166.961 276.27L190.971 319.7H202.451L204.951 314.73L207.251 309.5L191.271 278.19L166.961 276.27Z" fill="#455A64"/>
<path d="M208.68 201.81C208.68 201.81 194.74 206.72 191.74 222.32L206.46 229.66L208.68 201.81Z" fill="#006D06"/>
<path d="M208.679 201.81C208.679 201.81 198.929 223.67 199.299 235.61C199.429 239.76 202.149 250.61 202.149 250.61L207.219 277.47C207.219 277.47 246.029 272.22 246.889 272.22C247.749 272.22 245.589 250.17 245.589 250.17L251.919 207.8C251.919 207.8 249.019 202.03 235.919 200.03C228.069 198.8 208.679 201.81 208.679 201.81Z" fill="#006D06"/>
<path d="M205 214.5C205.09 214.55 204.07 216.18 202.84 219C202.127 220.651 201.526 222.348 201.04 224.08C200.456 226.202 200.032 228.365 199.77 230.55C199.54 232.739 199.47 234.941 199.56 237.14C199.651 238.935 199.862 240.723 200.19 242.49C200.75 245.49 201.39 247.33 201.29 247.36C201.081 246.962 200.913 246.543 200.79 246.11C200.612 245.615 200.458 245.111 200.33 244.6C200.17 244 199.96 243.33 199.82 242.6C199.445 240.82 199.198 239.015 199.08 237.2C198.961 234.972 199.018 232.739 199.25 230.52C199.517 228.304 199.961 226.114 200.58 223.97C201.094 222.227 201.74 220.526 202.51 218.88C202.791 218.241 203.105 217.617 203.45 217.01C203.69 216.54 203.953 216.082 204.24 215.64C204.454 215.235 204.709 214.853 205 214.5Z" fill="#263238"/>
<path d="M213.4 201.61L213.96 195.61C214.022 194.987 214.311 194.407 214.772 193.983C215.233 193.559 215.834 193.319 216.46 193.31L235.61 193.02C236.191 193.013 236.753 193.227 237.182 193.619C237.611 194.011 237.875 194.551 237.92 195.13L238.41 201.6C236.807 204.998 234.095 207.749 230.72 209.4C225.09 212.13 216.34 212.22 216.34 212.22L213.4 201.61Z" fill="#006D06"/>
<path d="M218.41 193.36C218.47 193.36 218.19 193.75 218.07 194.36C217.961 195.243 217.961 196.137 218.07 197.02C218.238 198.308 218.238 199.612 218.07 200.9C217.726 199.646 217.551 198.351 217.55 197.05C217.416 196.124 217.457 195.181 217.67 194.27C218 193.58 218.38 193.31 218.41 193.36Z" fill="#263238"/>
<path d="M223.001 200.78C222.666 199.555 222.505 198.29 222.521 197.02C222.446 196.122 222.446 195.219 222.521 194.32C222.621 193.6 222.911 193.23 222.971 193.32C223.031 193.41 222.881 193.74 222.891 194.4C222.901 195.06 223.001 196 223.001 197C223.169 198.254 223.169 199.526 223.001 200.78Z" fill="#263238"/>
<path d="M228.749 200.62C228.336 199.453 228.084 198.235 227.999 197C227.752 195.776 227.675 194.525 227.769 193.28C228.187 194.456 228.44 195.684 228.519 196.93C228.763 198.144 228.84 199.385 228.749 200.62Z" fill="#263238"/>
<path d="M233.71 201C233.253 199.715 233.01 198.364 232.99 197C232.798 195.64 232.832 194.259 233.09 192.91C233.352 194.228 233.492 195.567 233.51 196.91C233.704 198.264 233.771 199.633 233.71 201Z" fill="#263238"/>
<g opacity="0.3">
<path d="M237.511 223.91C236.741 230.64 237.251 242.24 239.631 248.59L250.811 230.12L237.511 223.91Z" fill="black"/>
</g>
<path d="M250.881 206.41L250.941 206.47C254.111 209.798 256.431 213.843 257.701 218.26L259.761 227.65L237.761 231.05C236.55 227.067 236.263 222.861 236.921 218.75C238.001 211.67 250.881 206.41 250.881 206.41Z" fill="#006D06"/>
<path d="M259.76 227.65C259.617 227.7 259.47 227.737 259.32 227.76L258.06 227.99L253.35 228.76L237.41 231.18H237.13V230.89C237.08 229.56 237.04 228.18 237.01 226.76C236.96 223.07 237.01 219.54 237.23 216.33C237.382 213.453 238.263 210.663 239.79 208.22C240.816 206.577 242.222 205.205 243.89 204.22C244.34 203.953 244.816 203.732 245.31 203.56C245.475 203.484 245.65 203.434 245.83 203.41C245.83 203.41 245.13 203.68 243.99 204.41C242.403 205.427 241.072 206.795 240.1 208.41C238.651 210.837 237.827 213.586 237.7 216.41C237.47 219.59 237.48 223.11 237.54 226.8C237.54 228.2 237.61 229.59 237.64 230.91L237.35 230.66L253.35 228.41L258.08 227.8L259.36 227.65C259.493 227.633 259.627 227.633 259.76 227.65Z" fill="#263238"/>
<path d="M213.29 213.86C212.17 213.208 211.141 212.411 210.23 211.49C209.202 210.697 208.287 209.769 207.51 208.73C209.657 210.174 211.601 211.9 213.29 213.86Z" fill="#FAFAFA"/>
<path d="M210.321 225.43C209.536 226.236 208.628 226.911 207.631 227.43C206.715 228.094 205.704 228.613 204.631 228.97C206.328 227.511 208.241 226.324 210.301 225.45L210.321 225.43Z" fill="#FAFAFA"/>
<path d="M222.59 228.28C222.413 226.859 222.413 225.421 222.59 224C222.597 222.571 222.772 221.148 223.11 219.76C223.285 221.178 223.285 222.612 223.11 224.03C223.107 225.462 222.932 226.889 222.59 228.28Z" fill="#FAFAFA"/>
<path d="M234.52 239.85C233.525 238.916 232.596 237.913 231.74 236.85C230.757 235.913 229.838 234.911 228.99 233.85C230.19 234.546 231.251 235.458 232.12 236.54C233.11 237.493 233.922 238.613 234.52 239.85Z" fill="#FAFAFA"/>
<path d="M236.2 215.66C235.342 216.553 234.362 217.32 233.29 217.94C232.308 218.696 231.228 219.315 230.08 219.78C230.941 218.886 231.924 218.118 233 217.5C233.981 216.748 235.057 216.129 236.2 215.66Z" fill="#FAFAFA"/>
<path d="M225.419 206.91C224.47 207.833 223.4 208.624 222.239 209.26C221.175 210.048 220.011 210.694 218.779 211.18C219.729 210.255 220.799 209.462 221.959 208.82C223.028 208.042 224.191 207.4 225.419 206.91Z" fill="#FAFAFA"/>
<path d="M235.141 210.39C234.486 209.422 233.974 208.364 233.621 207.25C233.129 206.191 232.792 205.066 232.621 203.91C233.284 204.877 233.797 205.939 234.141 207.06C234.639 208.114 234.976 209.236 235.141 210.39Z" fill="#FAFAFA"/>
<path d="M248.51 214.78C246.911 213.671 245.523 212.286 244.41 210.69C245.257 211.174 246.012 211.804 246.64 212.55C247.393 213.174 248.027 213.93 248.51 214.78Z" fill="#FAFAFA"/>
<path d="M243 224.53C242.682 223.542 242.536 222.507 242.57 221.47C242.42 220.446 242.451 219.404 242.66 218.39C243.119 220.403 243.234 222.479 243 224.53Z" fill="#FAFAFA"/>
<path d="M254.11 222.51C252.947 222.696 251.758 222.655 250.61 222.39C249.439 222.294 248.295 221.979 247.24 221.46C248.402 221.472 249.559 221.613 250.69 221.88C251.849 221.968 252.996 222.179 254.11 222.51Z" fill="#FAFAFA"/>
<path d="M209.31 242.66C208.494 241.531 207.822 240.305 207.31 239.01C206.64 237.788 206.122 236.488 205.77 235.14C206.585 236.269 207.257 237.495 207.77 238.79C208.442 240.011 208.959 241.311 209.31 242.66Z" fill="#FAFAFA"/>
<path d="M224 258.44C223.061 257.586 222.243 256.607 221.57 255.53C220.767 254.548 220.095 253.465 219.57 252.31C220.512 253.165 221.333 254.144 222.01 255.22C222.817 256.198 223.487 257.281 224 258.44Z" fill="#FAFAFA"/>
<path d="M236.141 251.82C235.111 252.491 233.994 253.016 232.821 253.38C231.709 253.905 230.526 254.265 229.311 254.45C231.45 253.251 233.75 252.365 236.141 251.82Z" fill="#FAFAFA"/>
<path d="M206.23 264.6C206.711 262.713 207.52 260.926 208.62 259.32C208.451 260.288 208.113 261.219 207.62 262.07C207.309 262.988 206.839 263.845 206.23 264.6Z" fill="#FAFAFA"/>
<path d="M196.82 219.41C196.242 218.678 195.894 217.79 195.82 216.86C195.585 215.959 195.627 215.007 195.94 214.13C196.146 214.997 196.28 215.88 196.34 216.77C196.571 217.636 196.732 218.518 196.82 219.41Z" fill="#FAFAFA"/>
<path d="M213.531 254.48C212.463 254.199 211.449 253.743 210.531 253.13C209.534 252.678 208.616 252.07 207.811 251.33C208.877 251.616 209.89 252.072 210.811 252.68C211.803 253.14 212.72 253.747 213.531 254.48Z" fill="#FAFAFA"/>
<path d="M223.18 237.82C221.54 239.784 219.635 241.51 217.52 242.95C218.278 241.915 219.173 240.987 220.18 240.19C221.067 239.267 222.076 238.47 223.18 237.82Z" fill="#FAFAFA"/>
<g opacity="0.3">
<path d="M217.27 237.51C217.754 240.996 219.309 244.245 221.72 246.81C224.22 249.25 228.09 250.48 231.34 249.21C231.695 249.112 232.021 248.93 232.291 248.68C232.561 248.429 232.766 248.117 232.89 247.77C232.944 247.344 232.85 246.911 232.622 246.547C232.394 246.182 232.047 245.908 231.64 245.77C230.829 245.51 229.981 245.388 229.13 245.41C226.705 245.251 224.361 244.475 222.32 243.155C220.279 241.835 218.61 240.016 217.47 237.87" fill="black"/>
</g>
<path d="M230.27 245.57C230.27 245.57 230.04 245.65 229.6 245.69C228.981 245.753 228.358 245.753 227.74 245.69C226.821 245.582 225.918 245.367 225.05 245.05C222.906 244.279 221.002 242.958 219.53 241.22C218.932 240.516 218.418 239.744 218 238.92C217.705 238.371 217.474 237.791 217.31 237.19C217.229 236.976 217.185 236.749 217.18 236.52C217.28 236.52 217.55 237.42 218.32 238.74C218.77 239.51 219.296 240.234 219.89 240.9C220.625 241.711 221.446 242.438 222.34 243.07C223.242 243.682 224.208 244.195 225.22 244.6C226.05 244.926 226.911 245.168 227.79 245.32C229.3 245.54 230.27 245.47 230.27 245.57Z" fill="#263238"/>
<path d="M175.221 261.69L189.701 260L199.911 266.69L238.911 257.33L239.831 230.61L257.161 228.33V260.68C257.064 264.607 255.413 268.336 252.571 271.049C249.73 273.761 245.928 275.236 242.001 275.15L184.841 273.56L182.411 268.7L170.141 268.33L175.221 261.69Z" fill="#FFBE9D"/>
<path d="M238.451 257.28C238.211 257.376 237.963 257.453 237.711 257.51L235.591 258.06L227.761 260L201.881 266.27L199.471 266.85H199.371H199.291L189.091 260.14H189.231L174.741 261.82L174.841 261.76L171.001 266.63L170.001 267.91C169.89 268.063 169.763 268.204 169.621 268.33C169.714 268.167 169.818 268.01 169.931 267.86L170.931 266.54L174.651 261.6H174.711L189.181 259.79H189.261H189.321L199.541 266.47H199.361L201.771 265.89L227.681 259.75L235.551 257.94L237.691 257.47C237.939 257.387 238.193 257.323 238.451 257.28Z" fill="#EB996E"/>
<path d="M183.13 265.84C181.262 266.059 179.38 266.132 177.5 266.06H176.5L176.64 266.01C175.509 267.05 174.288 267.987 172.99 268.81C174.021 267.672 175.145 266.622 176.35 265.67L176.41 265.61H177.52C179.393 265.533 181.27 265.61 183.13 265.84Z" fill="#EB996E"/>
<path d="M245.641 261.65C244.896 260.474 243.927 259.455 242.791 258.65C241.585 257.969 240.256 257.534 238.881 257.37C239.285 257.23 239.719 257.195 240.141 257.27C241.162 257.378 242.145 257.72 243.012 258.27C243.879 258.82 244.608 259.562 245.141 260.44C245.411 260.793 245.583 261.21 245.641 261.65Z" fill="#EB996E"/>
<path d="M-27.1504 412.73L-23.6504 412.44C-21.1614 412.236 -18.7461 411.496 -16.5704 410.27C-15.5055 409.649 -14.4035 409.095 -13.2704 408.61C-8.9404 406.88 -4.1004 407.19 0.559601 406.95C8.19477 406.565 15.6754 404.654 22.5596 401.33C22.9731 401.147 23.3217 400.844 23.5596 400.46C24.2796 399.15 22.9396 397.98 21.7896 397.27C15.8796 393.63 9.8696 389.95 3.1796 388.14C-3.5104 386.33 -11.1204 386.64 -16.8204 390.57C-23.5204 395.19 -25.9704 404.67 -27.1004 412.73" fill="#006D06"/>
<path d="M23.5897 400C23.3881 399.917 23.1912 399.824 22.9997 399.72L21.3397 398.85C19.8997 398.09 17.8297 396.97 15.1997 395.72C12.1536 394.215 8.97725 392.99 5.7097 392.06C1.71375 390.911 -2.47131 390.571 -6.60031 391.06C-10.7352 391.52 -14.6403 393.197 -17.8203 395.88C-20.3041 398.188 -22.2913 400.978 -23.6603 404.08C-24.8903 406.71 -25.6603 408.95 -26.2003 410.47L-26.8303 412.24C-26.8923 412.45 -26.9726 412.654 -27.0703 412.85C-27.0415 412.632 -26.9913 412.418 -26.9203 412.21C-26.7803 411.76 -26.6003 411.16 -26.3803 410.42C-25.713 408.235 -24.9183 406.092 -24.0003 404C-22.6528 400.826 -20.6568 397.968 -18.1403 395.61C-14.9156 392.832 -10.9292 391.09 -6.7003 390.61C-2.51531 390.104 1.72866 390.444 5.77969 391.61C9.06572 392.575 12.2559 393.84 15.3097 395.39C17.9197 396.69 19.9697 397.85 21.3897 398.66L23.0097 399.61C23.2187 399.715 23.4135 399.846 23.5897 400Z" fill="#263238"/>
<path d="M15.1799 404.55C15.1099 404.65 10.5199 401.69 4.93987 397.93C-0.640131 394.17 -5.11013 391.03 -5.06013 390.93C-5.01013 390.83 -0.410135 393.79 5.16986 397.55C10.7499 401.31 15.2499 404.44 15.1799 404.55Z" fill="#263238"/>
<path d="M10.7788 390.48C8.44372 391.214 5.97906 391.442 3.54883 391.15C4.73725 390.903 5.94539 390.762 7.15883 390.73C8.35602 390.542 9.5672 390.459 10.7788 390.48Z" fill="#263238"/>
<path d="M-22.0009 427.62C-25.3409 426.73 -29.3309 429.98 -30.0009 433.37C-30.6709 436.76 -29.4109 440.22 -27.9309 443.37C-24.7461 450.364 -20.0218 456.548 -14.1109 461.46C-8.14904 466.349 -0.710025 469.08 6.99907 469.21C5.58907 462.65 7.36906 455.79 6.58906 449.12C5.89228 443.245 3.22324 437.78 -0.981787 433.619C-5.18681 429.458 -10.6791 426.846 -16.5609 426.21C-18.6909 425.98 -21.1609 425.65 -22.0109 427.62" fill="#006D06"/>
<path d="M6.9993 469.21C6.83172 469.154 6.67076 469.081 6.5193 468.99C6.08139 468.743 5.66345 468.462 5.2693 468.15C3.86875 466.931 2.74381 465.428 1.9693 463.74C1.4393 462.74 0.839293 461.58 0.259293 460.33C-0.320707 459.08 -0.900695 457.76 -1.5407 456.33C-2.18219 454.866 -2.92049 453.446 -3.7507 452.08C-4.64112 450.624 -5.64419 449.24 -6.7507 447.94C-9.0307 445.26 -11.4907 442.94 -13.6207 440.71C-15.5465 438.769 -17.2997 436.665 -18.8607 434.42C-19.9064 432.898 -20.7659 431.256 -21.4207 429.53C-21.6307 428.92 -21.7907 428.43 -21.8707 428.1C-21.9261 427.935 -21.9597 427.764 -21.9707 427.59C-21.9707 427.59 -21.7407 428.27 -21.2507 429.47C-20.5376 431.151 -19.6458 432.75 -18.5907 434.24C-16.9999 436.436 -15.2341 438.499 -13.3107 440.41C-11.1707 442.61 -8.7007 444.93 -6.3907 447.64C-5.25863 448.957 -4.23213 450.361 -3.32071 451.84C-2.49387 453.229 -1.75572 454.668 -1.1107 456.15L0.649292 460.15C1.20929 461.39 1.7893 462.53 2.3093 463.56C3.03922 465.232 4.10059 466.739 5.42929 467.99C6.38929 468.85 7.0493 469.17 6.9993 469.21Z" fill="#263238"/>
<path d="M6.38985 447.65C5.58928 447.532 4.79989 447.348 4.02985 447.1C2.58985 446.73 0.599847 446.21 -1.61015 445.71C-3.82015 445.21 -5.84016 444.83 -7.30016 444.55C-8.10076 444.447 -8.89057 444.273 -9.66016 444.03C-8.85196 444.009 -8.04391 444.077 -7.25015 444.23C-5.77015 444.42 -3.73015 444.76 -1.51015 445.23C0.709853 445.7 2.69984 446.3 4.11984 446.76C4.9053 446.977 5.66606 447.275 6.38985 447.65Z" fill="#263238"/>
<path d="M513.5 138C545.256 138 571 112.48 571 81C571 49.5198 545.256 24 513.5 24C481.744 24 456 49.5198 456 81C456 112.48 481.744 138 513.5 138Z" fill="#4CAF50"/>
<path d="M519 45H508V117H519V45Z" fill="white"/>
<path d="M549 88V74H478V88H549Z" fill="white"/>
</g>
<defs>
<clipPath id="clip0_567_277">
<rect width="600" height="600" fill="white"/>
</clipPath>
</defs>
</svg>
