<svg width="491" height="467" viewBox="0 0 491 467" fill="none" xmlns="http://www.w3.org/2000/svg">
<path d="M543 403.814H0V404.078H543V403.814Z" fill="#EBEBEB"/>
<path d="M488.591 420.805H452.623V421.069H488.591V420.805Z" fill="#EBEBEB"/>
<path d="M359.705 423.678H350.268V423.942H359.705V423.678Z" fill="#EBEBEB"/>
<path d="M451.537 411.006H430.697V411.27H451.537V411.006Z" fill="#EBEBEB"/>
<path d="M103.876 412.78H56.9716V413.044H103.876V412.78Z" fill="#EBEBEB"/>
<path d="M120.427 412.78H113.552V413.044H120.427V412.78Z" fill="#EBEBEB"/>
<path d="M244.513 417.236H142.776V417.5H244.513V417.236Z" fill="#EBEBEB"/>
<path d="M257.382 356.717H47.6863C46.0435 356.714 44.469 356.077 43.3085 354.947C42.1479 353.817 41.4961 352.284 41.4961 350.687V64.057C41.5104 62.4688 42.1685 60.9502 43.3275 59.8311C44.4866 58.712 46.0529 58.0827 47.6863 58.08H257.382C259.027 58.08 260.604 58.7153 261.767 59.8461C262.93 60.9769 263.583 62.5106 263.583 64.1098V350.687C263.583 352.286 262.93 353.82 261.767 354.951C260.604 356.082 259.027 356.717 257.382 356.717ZM47.6863 58.2912C46.1155 58.294 44.6101 58.9027 43.5005 59.9837C42.3908 61.0647 41.7676 62.5296 41.7676 64.057V350.687C41.7676 352.214 42.3908 353.679 43.5005 354.76C44.6101 355.841 46.1155 356.45 47.6863 356.453H257.382C258.954 356.45 260.46 355.842 261.572 354.761C262.683 353.68 263.309 352.215 263.312 350.687V64.057C263.309 62.5286 262.683 61.0637 261.572 59.983C260.46 58.9024 258.954 58.294 257.382 58.2912H47.6863Z" fill="#EBEBEB"/>
<path d="M492.295 356.717H282.588C280.944 356.714 279.369 356.078 278.206 354.948C277.044 353.817 276.39 352.285 276.387 350.687V64.057C276.404 62.4678 277.065 60.9492 278.225 59.8304C279.386 58.7116 280.954 58.0827 282.588 58.08H492.295C493.926 58.0855 495.49 58.716 496.646 59.8348C497.803 60.9536 498.46 62.4706 498.474 64.057V350.687C498.474 352.283 497.824 353.813 496.665 354.943C495.507 356.073 493.936 356.711 492.295 356.717ZM282.588 58.2912C281.016 58.294 279.51 58.9024 278.398 59.983C277.287 61.0637 276.661 62.5286 276.658 64.057V350.687C276.661 352.215 277.287 353.68 278.398 354.761C279.51 355.842 281.016 356.45 282.588 356.453H492.295C493.866 356.45 495.373 355.842 496.484 354.761C497.596 353.68 498.221 352.215 498.224 350.687V64.057C498.221 62.5286 497.596 61.0637 496.484 59.983C495.373 58.9024 493.866 58.294 492.295 58.2912H282.588Z" fill="#EBEBEB"/>
<path d="M263.181 183.617H108.991V403.445H263.181V183.617Z" fill="#F0F0F0"/>
<path d="M257.73 190.534H114.432V231.137H257.73V190.534Z" fill="#E0E0E0"/>
<path d="M122.577 197.102H114.432V231.127H122.577V197.102Z" fill="#EBEBEB"/>
<path d="M161.944 197.102H153.799V231.127H161.944V197.102Z" fill="#EBEBEB"/>
<path d="M206.624 196.248L198.598 197.593L204.542 231.123L212.568 229.778L206.624 196.248Z" fill="#EBEBEB"/>
<path d="M132.666 201.59H124.521V231.137H132.666V201.59Z" fill="#EBEBEB"/>
<path d="M151.378 201.59H143.233V231.137H151.378V201.59Z" fill="#EBEBEB"/>
<path d="M198.608 201.59H190.463V231.137H198.608V201.59Z" fill="#EBEBEB"/>
<path d="M172.643 200.565L164.692 202.283L171.284 231.127L179.235 229.408L172.643 200.565Z" fill="#EBEBEB"/>
<path d="M139.703 195.413H135.631V231.127H139.703V195.413Z" fill="#EBEBEB"/>
<path d="M188.117 195.413H184.044V231.127H188.117V195.413Z" fill="#EBEBEB"/>
<path d="M114.443 278.172H257.74V237.568H114.443V278.172Z" fill="#E0E0E0"/>
<path d="M249.585 278.161H257.73V244.137H249.585V278.161Z" fill="#EBEBEB"/>
<path d="M210.228 278.161H218.373V244.137H210.228V278.161Z" fill="#EBEBEB"/>
<path d="M159.606 276.809L167.633 278.154L173.577 244.624L165.55 243.279L159.606 276.809Z" fill="#EBEBEB"/>
<path d="M239.496 278.172H247.641V248.625H239.496V278.172Z" fill="#EBEBEB"/>
<path d="M220.795 278.172H228.94V248.625H220.795V278.172Z" fill="#EBEBEB"/>
<path d="M173.565 278.172H181.71V248.625H173.565V278.172Z" fill="#EBEBEB"/>
<path d="M192.964 276.445L200.915 278.164L207.507 249.32L199.556 247.602L192.964 276.445Z" fill="#EBEBEB"/>
<path d="M232.458 278.161H236.531V242.447H232.458V278.161Z" fill="#EBEBEB"/>
<path d="M184.055 278.161H188.128V242.447H184.055V278.161Z" fill="#EBEBEB"/>
<path d="M122.577 244.137H114.432V278.161H122.577V244.137Z" fill="#EBEBEB"/>
<path d="M132.666 248.614H124.521V278.161H132.666V248.614Z" fill="#EBEBEB"/>
<path d="M151.378 248.614H143.233V278.161H151.378V248.614Z" fill="#EBEBEB"/>
<path d="M139.703 242.447H135.631V278.161H139.703V242.447Z" fill="#EBEBEB"/>
<path d="M257.73 284.592H114.432V325.195H257.73V284.592Z" fill="#E0E0E0"/>
<path d="M204.83 291.16H196.685V325.185H204.83V291.16Z" fill="#EBEBEB"/>
<path d="M249.517 290.303L241.49 291.649L247.434 325.178L255.461 323.833L249.517 290.303Z" fill="#EBEBEB"/>
<path d="M175.552 295.648H167.407V325.195H175.552V295.648Z" fill="#EBEBEB"/>
<path d="M194.264 295.648H186.119V325.195H194.264V295.648Z" fill="#EBEBEB"/>
<path d="M241.494 295.648H233.349V325.195H241.494V295.648Z" fill="#EBEBEB"/>
<path d="M215.532 294.624L207.581 296.343L214.174 325.186L222.125 323.467L215.532 294.624Z" fill="#EBEBEB"/>
<path d="M182.589 289.471H178.517V325.185H182.589V289.471Z" fill="#EBEBEB"/>
<path d="M231.003 289.471H226.931V325.185H231.003V289.471Z" fill="#EBEBEB"/>
<path d="M155.864 290.311L147.837 291.656L153.781 325.186L161.808 323.841L155.864 290.311Z" fill="#EBEBEB"/>
<path d="M147.837 295.648H139.692V325.195H147.837V295.648Z" fill="#EBEBEB"/>
<path d="M121.88 294.624L113.929 296.342L120.521 325.186L128.472 323.467L121.88 294.624Z" fill="#EBEBEB"/>
<path d="M137.357 289.471H133.285V325.185H137.357V289.471Z" fill="#EBEBEB"/>
<path d="M82.384 404.015H108.991L108.991 183.617H82.384L82.384 404.015Z" fill="#E0E0E0"/>
<path d="M353.428 398.26H330.828L342.709 304.128C342.994 302.161 343.988 300.357 345.513 299.036C347.039 297.715 348.997 296.964 351.039 296.916H449.604L435.149 398.218L353.428 398.26Z" fill="#F5F5F5"/>
<path d="M425.104 398.26H447.704L459.595 304.128C459.74 303.223 459.679 302.298 459.416 301.419C459.153 300.54 458.695 299.727 458.073 299.039C457.451 298.351 456.682 297.804 455.819 297.437C454.956 297.07 454.021 296.892 453.079 296.916H445.314C443.276 296.976 441.325 297.732 439.802 299.05C438.279 300.369 437.282 302.166 436.985 304.128L425.104 398.26Z" fill="#F0F0F0"/>
<path d="M416.785 398.112L420.879 352.598C420.966 351.611 421.398 350.682 422.103 349.967C422.809 349.253 423.745 348.795 424.756 348.67L426.44 348.459C427.798 348.294 429.057 347.678 430.005 346.717C430.952 345.755 431.53 344.506 431.642 343.179L432.391 334.879C432.465 334.074 432.366 333.263 432.099 332.498C431.833 331.733 431.406 331.029 430.845 330.433C430.285 329.837 429.602 329.361 428.842 329.036C428.081 328.71 427.26 328.542 426.429 328.543H464.2C465.031 328.542 465.852 328.71 466.613 329.036C467.373 329.361 468.056 329.837 468.617 330.433C469.177 331.029 469.604 331.733 469.871 332.498C470.137 333.263 470.236 334.074 470.162 334.879L469.413 343.179C469.301 344.506 468.723 345.755 467.776 346.717C466.828 347.678 465.569 348.294 464.211 348.459L462.527 348.67C461.517 348.796 460.582 349.255 459.877 349.97C459.171 350.684 458.739 351.612 458.65 352.598L454.556 398.112C454.41 399.711 453.653 401.2 452.435 402.284C451.218 403.369 449.626 403.971 447.975 403.973H410.204C411.855 403.971 413.446 403.369 414.664 402.284C415.882 401.2 416.639 399.711 416.785 398.112Z" fill="#E6E6E6"/>
<path d="M312.833 341.246C312.534 337.792 310.911 334.572 308.286 332.225C305.662 329.878 302.227 328.575 298.661 328.574H331.545C335.101 328.589 338.523 329.897 341.136 332.243C343.749 334.588 345.364 337.801 345.663 341.246L348.921 377.319H316.08L312.833 341.246Z" fill="#E6E6E6"/>
<path d="M284.054 328.617H298.65C302.216 328.618 305.651 329.921 308.276 332.267C310.9 334.614 312.523 337.834 312.822 341.289L316.08 377.362H394.403L397.661 341.289C397.957 337.842 399.571 334.628 402.185 332.282C404.798 329.936 408.222 328.628 411.779 328.617H426.385C427.216 328.616 428.038 328.784 428.798 329.11C429.559 329.435 430.241 329.911 430.802 330.507C431.363 331.103 431.79 331.806 432.056 332.572C432.322 333.337 432.421 334.148 432.347 334.953L431.598 343.253C431.487 344.58 430.908 345.829 429.961 346.791C429.014 347.752 427.755 348.367 426.396 348.533L424.713 348.744C423.702 348.869 422.765 349.326 422.06 350.041C421.354 350.756 420.922 351.685 420.836 352.672L416.785 398.112C416.639 399.711 415.882 401.2 414.664 402.284C413.446 403.369 411.855 403.971 410.204 403.973H300.279C298.628 403.971 297.036 403.369 295.819 402.284C294.601 401.2 293.844 399.711 293.698 398.112L289.604 352.598C289.513 351.612 289.08 350.686 288.375 349.972C287.67 349.257 286.736 348.798 285.727 348.67L284.043 348.459C282.684 348.292 281.425 347.677 280.476 346.716C279.527 345.755 278.947 344.506 278.83 343.179L278.092 334.879C278.029 334.08 278.137 333.277 278.408 332.521C278.679 331.764 279.108 331.07 279.667 330.482C280.227 329.894 280.906 329.425 281.661 329.104C282.415 328.783 283.23 328.617 284.054 328.617Z" fill="#F0F0F0"/>
<path d="M110.946 172.635C110.946 172.635 109.74 164.916 115.529 159.963C121.317 155.01 120.807 152.075 119.145 151.694C117.483 151.314 115.974 156.256 113.433 157.619C113.433 157.619 113.346 150.564 115.93 147.977C118.515 145.39 119.873 138.684 117.407 138.568C114.942 138.452 114.703 142.539 114.149 145.443C113.596 148.347 110.891 152.423 110.891 152.423C110.891 152.423 110.359 146.087 108.719 143.521C107.08 140.955 111.5 134.988 109.805 132.401C108.111 129.814 105.038 134.746 105.288 140.311C105.537 145.876 109.36 151.811 108.47 157.619C108.47 157.619 106.786 153.532 105.277 153.162C103.767 152.793 102.236 150.1 101.226 149.097C100.216 148.093 98.9346 151.557 101.226 154.767C103.518 157.978 109.36 166.584 108.47 173.532L110.946 172.635Z" fill="#E6E6E6"/>
<path d="M114.399 169.118L116.3 180.682C116.436 181.521 116.384 182.379 116.147 183.198C115.909 184.016 115.492 184.774 114.925 185.42C114.357 186.067 113.652 186.586 112.858 186.942C112.065 187.298 111.201 187.482 110.327 187.482H108.307C107.433 187.482 106.569 187.298 105.775 186.942C104.981 186.586 104.276 186.067 103.709 185.42C103.141 184.774 102.724 184.016 102.487 183.198C102.249 182.379 102.197 181.521 102.334 180.682L104.256 169.118H114.399Z" fill="#E6E6E6"/>
<path d="M228.114 185.222H234.011V160.565H228.114V185.222Z" fill="#EBEBEB"/>
<path d="M199.596 185.222H205.493V160.565H199.596V185.222Z" fill="#EBEBEB"/>
<path d="M162.915 184.242L168.727 185.216L173.034 160.917L167.223 159.943L162.915 184.242Z" fill="#EBEBEB"/>
<path d="M220.806 185.212H226.703V163.807H220.806V185.212Z" fill="#EBEBEB"/>
<path d="M207.252 185.212H213.149V163.807H207.252V185.212Z" fill="#EBEBEB"/>
<path d="M173.022 185.212H178.919V163.807H173.022V185.212Z" fill="#EBEBEB"/>
<path d="M187.086 183.97L192.842 185.214L197.618 164.319L191.861 163.075L187.086 183.97Z" fill="#EBEBEB"/>
<path d="M215.701 185.222H218.655V159.34H215.701V185.222Z" fill="#EBEBEB"/>
<path d="M180.613 185.222H183.567V159.34H180.613V185.222Z" fill="#EBEBEB"/>
<path d="M159.588 165.644H130.841V184.937H159.588V165.644Z" fill="#EBEBEB"/>
<path d="M258.175 173.543H234.098V187.947H258.175V173.543Z" fill="#EBEBEB"/>
<path d="M252.549 160.882H240.506V175.285H252.549V160.882Z" fill="#EBEBEB"/>
<path d="M453.742 141.821H425.104V257.854H453.742V141.821Z" fill="#E0E0E0"/>
<path d="M343.567 258.171H450.668V141.831H343.567V258.171Z" fill="#E0E0E0"/>
<path d="M340.114 258.171H451.233V141.831H340.114V258.171Z" fill="#F0F0F0"/>
<path d="M344.87 252.817H446.672V145.527H344.87V252.817Z" fill="white"/>
<path d="M344.859 252.817H346.749V145.527H344.859V252.817Z" fill="#E0E0E0"/>
<path d="M346.445 222.689V225.583H446.943V222.689H346.445Z" fill="#E0E0E0"/>
<path d="M344.859 222.679H448.257V217.821H344.859V222.679Z" fill="#F0F0F0"/>
<path d="M271.5 451.503C387.792 451.503 482.065 446.151 482.065 439.549C482.065 432.947 387.792 427.596 271.5 427.596C155.208 427.596 60.9355 432.947 60.9355 439.549C60.9355 446.151 155.208 451.503 271.5 451.503Z" fill="#F5F5F5"/>
<path d="M349.638 161.378H155.341C150.951 161.378 147.392 164.839 147.392 169.108V391.565C147.392 395.834 150.951 399.295 155.341 399.295H349.638C354.028 399.295 357.587 395.834 357.587 391.565V169.108C357.587 164.839 354.028 161.378 349.638 161.378Z" fill="#0CBC4C"/>
<path opacity="0.6" d="M349.638 161.378H155.341C150.951 161.378 147.392 164.839 147.392 169.108V391.565C147.392 395.834 150.951 399.295 155.341 399.295H349.638C354.028 399.295 357.587 395.834 357.587 391.565V169.108C357.587 164.839 354.028 161.378 349.638 161.378Z" fill="white"/>
<path d="M323.541 270.494H181.449V294.149H323.541V270.494Z" fill="white"/>
<g opacity="0.4">
<path d="M194.155 284.624V285.247H189.225V278.467H194.003V279.08H189.963V281.498H193.569V282.1H189.963V284.624H194.155Z" fill="#263238"/>
<path d="M195.143 282.322H197.761V282.913H195.143V282.322Z" fill="#263238"/>
<path d="M207.98 282.29V285.247H207.274V282.353C207.274 281.297 206.72 280.727 205.775 280.727C205.53 280.716 205.286 280.757 205.059 280.848C204.832 280.938 204.628 281.075 204.462 281.25C204.295 281.425 204.17 281.634 204.095 281.861C204.02 282.088 203.996 282.328 204.027 282.564V285.247H203.31V282.353C203.31 281.297 202.756 280.727 201.801 280.727C201.556 280.716 201.311 280.757 201.084 280.848C200.857 280.938 200.653 281.075 200.487 281.25C200.32 281.425 200.195 281.634 200.12 281.861C200.045 282.088 200.022 282.328 200.052 282.564V285.247H199.335V280.146H200.019V281.076C200.224 280.764 200.51 280.511 200.847 280.34C201.184 280.17 201.562 280.088 201.942 280.104C202.325 280.072 202.71 280.157 203.042 280.346C203.375 280.535 203.639 280.819 203.799 281.16C204.016 280.82 204.323 280.542 204.688 280.356C205.052 280.171 205.462 280.084 205.873 280.104C206.168 280.082 206.464 280.125 206.739 280.229C207.015 280.333 207.263 280.496 207.465 280.706C207.667 280.916 207.818 281.167 207.907 281.441C207.997 281.715 208.021 282.005 207.98 282.29Z" fill="#263238"/>
<path d="M213.866 282.079V285.247H213.182V284.444C212.987 284.73 212.717 284.959 212.4 285.108C212.083 285.257 211.73 285.319 211.379 285.289C210.195 285.289 209.468 284.687 209.468 283.811C209.468 282.934 209.989 282.364 211.488 282.364H213.149V282.058C213.149 281.181 212.65 280.706 211.672 280.706C211.035 280.699 210.415 280.912 209.924 281.308L209.609 280.801C210.222 280.321 210.994 280.073 211.781 280.104C212.058 280.071 212.339 280.099 212.604 280.186C212.868 280.273 213.11 280.416 213.31 280.606C213.51 280.795 213.664 281.026 213.76 281.281C213.856 281.536 213.892 281.808 213.866 282.079ZM213.149 283.716V282.881H211.509C210.499 282.881 210.163 283.261 210.163 283.789C210.163 284.317 210.651 284.75 211.488 284.75C211.842 284.773 212.194 284.685 212.494 284.499C212.793 284.313 213.022 284.038 213.149 283.716Z" fill="#263238"/>
<path d="M215.625 278.541C215.627 278.476 215.641 278.412 215.668 278.352C215.695 278.292 215.734 278.238 215.782 278.193C215.831 278.148 215.888 278.113 215.95 278.089C216.013 278.065 216.08 278.054 216.147 278.055C216.212 278.054 216.277 278.065 216.339 278.088C216.4 278.111 216.456 278.146 216.503 278.19C216.55 278.234 216.588 278.287 216.615 278.345C216.641 278.404 216.656 278.467 216.657 278.531C216.658 278.597 216.646 278.662 216.621 278.724C216.596 278.785 216.559 278.841 216.511 278.888C216.464 278.936 216.407 278.973 216.344 278.999C216.282 279.024 216.215 279.037 216.147 279.037C216.079 279.039 216.011 279.027 215.948 279.003C215.885 278.978 215.827 278.942 215.779 278.896C215.73 278.85 215.692 278.794 215.665 278.734C215.639 278.673 215.625 278.607 215.625 278.541ZM215.788 280.146H216.494V285.247H215.788V280.146Z" fill="#263238"/>
<path d="M218.46 278.055H219.166V285.247H218.46V278.055Z" fill="#263238"/>
</g>
<path d="M323.541 302.808H181.449V326.462H323.541V302.808Z" fill="white"/>
<g opacity="0.4">
<path d="M194.676 313.136C194.676 314.582 193.59 315.459 191.831 315.459H189.963V317.571H189.225V310.791H191.831C193.601 310.812 194.676 311.689 194.676 313.136ZM193.938 313.136C193.938 312.08 193.21 311.436 191.766 311.436H189.92V314.825H191.766C193.21 314.825 193.938 314.202 193.938 313.136Z" fill="#263238"/>
<path d="M200.03 314.435V317.603H199.346V316.8C199.152 317.086 198.882 317.315 198.564 317.464C198.247 317.612 197.894 317.675 197.543 317.645C196.36 317.645 195.632 317.043 195.632 316.156C195.632 315.269 196.153 314.688 197.652 314.688H199.314V314.371C199.314 313.505 198.803 313.03 197.826 313.03C197.191 313.022 196.575 313.235 196.088 313.632L195.762 313.115C196.381 312.645 197.15 312.402 197.934 312.428C198.215 312.393 198.501 312.42 198.77 312.508C199.038 312.596 199.283 312.742 199.485 312.935C199.687 313.128 199.841 313.364 199.935 313.624C200.03 313.883 200.062 314.161 200.03 314.435ZM199.324 316.061V315.227H197.652C196.642 315.227 196.316 315.617 196.316 316.145C196.316 316.673 196.794 317.096 197.641 317.096C197.999 317.121 198.355 317.035 198.658 316.848C198.962 316.662 199.195 316.386 199.324 316.061Z" fill="#263238"/>
<path d="M201.225 317.011L201.54 316.473C202.088 316.844 202.74 317.044 203.408 317.043C204.396 317.043 204.809 316.716 204.809 316.209C204.809 314.878 201.41 315.924 201.41 313.917C201.41 313.083 202.148 312.46 203.484 312.46C204.135 312.454 204.777 312.618 205.341 312.935L205.026 313.484C204.569 313.191 204.031 313.04 203.484 313.051C202.539 313.051 202.115 313.41 202.115 313.896C202.115 315.269 205.515 314.234 205.515 316.188C205.515 317.075 204.722 317.645 203.343 317.645C202.585 317.664 201.841 317.441 201.225 317.011Z" fill="#263238"/>
<path d="M206.09 317.011L206.416 316.473C206.958 316.849 207.608 317.048 208.273 317.043C209.272 317.043 209.674 316.716 209.674 316.209C209.674 314.878 206.286 315.924 206.286 313.917C206.286 313.083 207.024 312.46 208.349 312.46C209.001 312.452 209.643 312.616 210.206 312.935L209.902 313.484C209.441 313.192 208.9 313.041 208.349 313.051C207.404 313.051 206.992 313.41 206.992 313.896C206.992 315.269 210.391 314.234 210.391 316.188C210.391 317.075 209.587 317.645 208.219 317.645C207.458 317.662 206.711 317.44 206.09 317.011Z" fill="#263238"/>
<path d="M219.274 312.502L217.298 317.592H216.635L215.028 313.421L213.377 317.592H212.715L210.684 312.502H211.357L213.008 316.832L214.691 312.502H215.299L216.972 316.832L218.634 312.502H219.274Z" fill="#263238"/>
<path d="M219.665 315.047C219.665 314.533 219.822 314.031 220.115 313.604C220.409 313.177 220.826 312.844 221.314 312.647C221.803 312.45 222.34 312.399 222.858 312.499C223.376 312.599 223.852 312.847 224.226 313.21C224.599 313.573 224.854 314.036 224.957 314.54C225.06 315.044 225.007 315.566 224.805 316.041C224.603 316.516 224.26 316.922 223.821 317.207C223.382 317.492 222.865 317.645 222.337 317.645C221.983 317.657 221.63 317.597 221.3 317.471C220.971 317.345 220.671 317.154 220.421 316.91C220.17 316.667 219.974 316.375 219.844 316.055C219.714 315.734 219.653 315.391 219.665 315.047ZM224.281 315.047C224.264 314.675 224.134 314.315 223.909 314.014C223.684 313.712 223.372 313.482 223.013 313.351C222.654 313.221 222.264 313.196 221.89 313.279C221.517 313.362 221.176 313.551 220.912 313.821C220.648 314.091 220.471 314.43 220.404 314.797C220.336 315.164 220.381 315.542 220.533 315.884C220.685 316.227 220.937 316.518 221.257 316.722C221.578 316.926 221.953 317.034 222.337 317.032C222.602 317.037 222.865 316.989 223.11 316.889C223.354 316.79 223.575 316.642 223.758 316.456C223.941 316.269 224.082 316.047 224.172 315.805C224.262 315.562 224.299 315.304 224.281 315.047Z" fill="#263238"/>
<path d="M229.081 312.46V313.125H228.907C228.659 313.114 228.411 313.155 228.181 313.248C227.951 313.34 227.744 313.48 227.576 313.658C227.409 313.837 227.283 314.049 227.209 314.28C227.135 314.511 227.114 314.755 227.148 314.994V317.592H226.442V312.502H227.115V313.495C227.298 313.15 227.584 312.868 227.934 312.683C228.285 312.499 228.684 312.421 229.081 312.46Z" fill="#263238"/>
<path d="M235.086 310.464V317.645H234.413V316.642C234.202 316.975 233.904 317.249 233.55 317.434C233.195 317.62 232.796 317.711 232.393 317.698C231.715 317.656 231.08 317.364 230.615 316.883C230.15 316.401 229.892 315.765 229.892 315.105C229.892 314.445 230.15 313.809 230.615 313.328C231.08 312.846 231.715 312.555 232.393 312.513C232.79 312.504 233.183 312.597 233.532 312.782C233.881 312.968 234.173 313.239 234.381 313.569V310.464H235.086ZM234.391 315.1C234.374 314.727 234.245 314.368 234.02 314.067C233.794 313.765 233.483 313.535 233.124 313.404C232.765 313.274 232.374 313.248 232.001 313.332C231.627 313.415 231.287 313.604 231.023 313.874C230.758 314.144 230.582 314.483 230.514 314.85C230.447 315.217 230.492 315.595 230.644 315.937C230.795 316.279 231.047 316.571 231.368 316.775C231.689 316.979 232.064 317.087 232.447 317.085C232.717 317.091 232.986 317.041 233.234 316.938C233.483 316.836 233.707 316.683 233.89 316.491C234.074 316.298 234.214 316.07 234.3 315.821C234.386 315.572 234.418 315.308 234.391 315.047V315.1Z" fill="#263238"/>
</g>
<path opacity="0.2" d="M323.541 350.592H181.449V374.246H323.541V350.592Z" fill="black"/>
<g opacity="0.5">
<path d="M216.005 339.726H213.681L213.182 340.782H212.726L214.626 336.737H215.061L216.961 340.782H216.505L216.005 339.726ZM215.842 339.377L214.843 337.202L213.844 339.377H215.842Z" fill="black"/>
<path d="M217.569 336.516H217.993V340.803H217.569V336.516Z" fill="black"/>
<path d="M220.751 337.74V338.142H220.643C220.491 338.129 220.338 338.15 220.196 338.203C220.054 338.255 219.926 338.339 219.821 338.446C219.717 338.554 219.639 338.683 219.593 338.824C219.547 338.965 219.535 339.115 219.557 339.261V340.813H219.133V337.772H219.546V338.364C219.655 338.15 219.829 337.976 220.046 337.864C220.262 337.752 220.509 337.709 220.751 337.74Z" fill="black"/>
<path d="M224.205 339.409H221.544C221.552 339.557 221.591 339.702 221.657 339.835C221.723 339.969 221.816 340.088 221.931 340.186C222.045 340.285 222.178 340.36 222.322 340.408C222.466 340.455 222.619 340.475 222.771 340.465C222.952 340.471 223.131 340.439 223.298 340.372C223.465 340.304 223.615 340.203 223.738 340.074L223.966 340.338C223.741 340.567 223.452 340.727 223.135 340.797C222.817 340.867 222.486 340.844 222.182 340.731C221.878 340.618 221.615 340.42 221.426 340.163C221.237 339.905 221.131 339.599 221.12 339.282C221.11 339.082 221.142 338.881 221.215 338.693C221.287 338.505 221.399 338.333 221.542 338.188C221.686 338.044 221.858 337.93 222.049 337.852C222.24 337.775 222.445 337.737 222.652 337.74C222.858 337.736 223.064 337.773 223.255 337.849C223.446 337.926 223.618 338.04 223.761 338.185C223.904 338.331 224.015 338.503 224.086 338.692C224.156 338.881 224.186 339.082 224.172 339.282C224.172 339.282 224.205 339.367 224.205 339.409ZM221.587 339.103H223.759C223.759 338.823 223.645 338.554 223.441 338.356C223.238 338.158 222.961 338.047 222.673 338.047C222.385 338.047 222.109 338.158 221.906 338.356C221.702 338.554 221.587 338.823 221.587 339.103Z" fill="black"/>
<path d="M227.343 338.976V340.856H226.974V340.38C226.859 340.554 226.696 340.694 226.505 340.783C226.313 340.873 226.1 340.909 225.888 340.887C225.182 340.887 224.802 340.528 224.802 340C224.802 339.472 225.106 339.134 226.007 339.134H226.974V338.955C226.974 338.437 226.67 338.152 226.083 338.152C225.688 338.138 225.302 338.266 224.997 338.511L224.813 338.205C225.173 337.926 225.623 337.78 226.083 337.793C226.252 337.765 226.424 337.776 226.587 337.825C226.75 337.874 226.899 337.959 227.021 338.074C227.144 338.19 227.237 338.331 227.293 338.488C227.349 338.644 227.366 338.812 227.343 338.976ZM226.931 339.947V339.441H225.942C225.334 339.441 225.139 339.673 225.139 339.99C225.139 340.307 225.432 340.56 225.931 340.56C226.156 340.577 226.381 340.52 226.569 340.4C226.758 340.28 226.9 340.102 226.974 339.895L226.931 339.947Z" fill="black"/>
<path d="M231.318 336.516V340.803H230.916V340.201C230.793 340.403 230.616 340.568 230.403 340.68C230.191 340.791 229.952 340.845 229.711 340.835C229.311 340.802 228.939 340.626 228.668 340.339C228.396 340.052 228.246 339.677 228.246 339.288C228.246 338.898 228.396 338.523 228.668 338.236C228.939 337.949 229.311 337.773 229.711 337.74C229.946 337.734 230.179 337.786 230.388 337.892C230.597 337.997 230.775 338.152 230.905 338.342V336.516H231.318ZM230.905 339.282C230.895 339.061 230.818 338.848 230.684 338.67C230.55 338.491 230.365 338.354 230.152 338.277C229.939 338.199 229.707 338.184 229.485 338.234C229.263 338.283 229.061 338.395 228.904 338.555C228.747 338.714 228.642 338.916 228.601 339.133C228.561 339.351 228.587 339.575 228.676 339.779C228.765 339.982 228.914 340.156 229.104 340.278C229.293 340.4 229.516 340.465 229.743 340.465C229.905 340.474 230.067 340.45 230.218 340.394C230.37 340.338 230.507 340.251 230.621 340.139C230.735 340.027 230.823 339.892 230.88 339.745C230.936 339.597 230.96 339.439 230.949 339.282H230.905Z" fill="black"/>
<path d="M235.173 337.762L233.609 341.172C233.349 341.764 233.012 341.954 232.523 341.954C232.243 341.961 231.971 341.863 231.763 341.679L231.959 341.373C232.111 341.522 232.318 341.605 232.534 341.605C232.817 341.605 233.001 341.479 233.186 341.088L233.316 340.803L231.915 337.762H232.404L233.588 340.349L234.761 337.762H235.173Z" fill="black"/>
<path d="M239.691 338.976V340.856H239.289V340.38C239.174 340.554 239.012 340.694 238.82 340.783C238.628 340.873 238.415 340.909 238.203 340.887C237.497 340.887 237.117 340.528 237.117 340C237.117 339.472 237.421 339.134 238.323 339.134H239.311V338.955C239.311 338.437 239.018 338.152 238.431 338.152C238.036 338.138 237.65 338.266 237.345 338.511L237.15 338.205C237.514 337.926 237.968 337.78 238.431 337.793C238.599 337.765 238.772 337.776 238.935 337.825C239.098 337.874 239.247 337.959 239.369 338.074C239.492 338.19 239.585 338.331 239.641 338.488C239.697 338.644 239.714 338.812 239.691 338.976ZM239.268 339.947V339.441H238.29C237.682 339.441 237.486 339.673 237.486 339.99C237.486 340.307 237.78 340.56 238.279 340.56C238.496 340.568 238.709 340.508 238.888 340.388C239.066 340.268 239.199 340.095 239.268 339.895V339.947Z" fill="black"/>
<path d="M247.608 339.039V340.803H247.195V339.082C247.195 338.437 246.859 338.11 246.294 338.11C246.148 338.099 246.002 338.119 245.865 338.168C245.728 338.217 245.604 338.294 245.501 338.395C245.397 338.495 245.318 338.616 245.267 338.749C245.217 338.882 245.196 339.025 245.208 339.166V340.761H244.795V339.082C244.795 338.437 244.459 338.11 243.883 338.11C243.738 338.099 243.591 338.119 243.454 338.168C243.317 338.217 243.193 338.294 243.09 338.395C242.987 338.495 242.907 338.616 242.856 338.749C242.806 338.882 242.786 339.025 242.797 339.166V340.761H242.373V337.719H242.775V338.279C242.895 338.09 243.065 337.936 243.268 337.834C243.471 337.731 243.698 337.684 243.926 337.698C244.154 337.681 244.382 337.734 244.577 337.85C244.772 337.965 244.924 338.138 245.012 338.342C245.139 338.135 245.321 337.966 245.539 337.853C245.757 337.739 246.003 337.686 246.251 337.698C246.438 337.666 246.631 337.678 246.813 337.734C246.994 337.79 247.159 337.889 247.293 338.021C247.426 338.153 247.525 338.315 247.58 338.492C247.635 338.67 247.645 338.857 247.608 339.039Z" fill="black"/>
<path d="M251.452 339.409H248.835C248.857 339.708 249 339.986 249.232 340.184C249.463 340.381 249.766 340.482 250.073 340.465C250.252 340.472 250.43 340.44 250.596 340.373C250.761 340.305 250.909 340.203 251.029 340.074L251.268 340.338C251.115 340.5 250.929 340.628 250.721 340.714C250.513 340.8 250.288 340.841 250.062 340.835C249.847 340.848 249.631 340.817 249.429 340.745C249.227 340.672 249.042 340.559 248.888 340.413C248.733 340.266 248.612 340.09 248.532 339.895C248.452 339.701 248.414 339.492 248.422 339.282C248.422 338.89 248.583 338.514 248.868 338.237C249.153 337.96 249.54 337.804 249.943 337.804C250.346 337.804 250.733 337.96 251.018 338.237C251.303 338.514 251.463 338.89 251.463 339.282C251.463 339.282 251.452 339.367 251.452 339.409ZM248.835 339.103H251.061C251.061 338.816 250.944 338.54 250.735 338.337C250.527 338.134 250.244 338.02 249.948 338.02C249.653 338.02 249.37 338.134 249.161 338.337C248.952 338.54 248.835 338.816 248.835 339.103Z" fill="black"/>
<path d="M257.491 339.039V340.803H257.067V339.082C257.067 338.437 256.741 338.11 256.177 338.11C256.031 338.097 255.883 338.115 255.746 338.164C255.608 338.212 255.483 338.29 255.379 338.391C255.275 338.491 255.196 338.613 255.146 338.747C255.096 338.881 255.077 339.024 255.091 339.166V340.761H254.667V339.082C254.667 338.437 254.341 338.11 253.766 338.11C253.62 338.097 253.473 338.115 253.335 338.164C253.197 338.212 253.072 338.29 252.968 338.391C252.864 338.491 252.785 338.613 252.735 338.747C252.685 338.881 252.666 339.024 252.68 339.166V340.761H252.256V337.719H252.658V338.279C252.777 338.089 252.947 337.934 253.15 337.832C253.353 337.73 253.581 337.683 253.809 337.698C254.037 337.681 254.264 337.734 254.459 337.85C254.654 337.965 254.807 338.138 254.895 338.342C255.021 338.135 255.204 337.966 255.422 337.853C255.64 337.739 255.886 337.686 256.133 337.698C256.321 337.666 256.514 337.678 256.695 337.734C256.877 337.79 257.042 337.889 257.175 338.021C257.309 338.153 257.408 338.315 257.463 338.492C257.517 338.67 257.527 338.857 257.491 339.039Z" fill="black"/>
<path d="M261.813 339.282C261.823 339.485 261.791 339.688 261.717 339.878C261.643 340.068 261.53 340.242 261.384 340.387C261.238 340.533 261.063 340.648 260.87 340.725C260.677 340.802 260.469 340.839 260.26 340.835C260.019 340.845 259.779 340.791 259.567 340.68C259.355 340.568 259.178 340.403 259.054 340.201V340.803H258.642V336.516H259.065V338.342C259.195 338.151 259.373 337.996 259.582 337.89C259.791 337.785 260.024 337.733 260.26 337.74C260.468 337.734 260.676 337.77 260.869 337.846C261.063 337.922 261.238 338.036 261.384 338.181C261.53 338.325 261.643 338.498 261.717 338.688C261.791 338.877 261.823 339.08 261.813 339.282ZM261.389 339.282C261.379 339.061 261.302 338.848 261.168 338.67C261.034 338.491 260.849 338.354 260.636 338.277C260.423 338.199 260.191 338.184 259.969 338.234C259.747 338.283 259.545 338.395 259.388 338.555C259.231 338.714 259.126 338.916 259.085 339.133C259.045 339.351 259.071 339.575 259.16 339.779C259.249 339.982 259.398 340.156 259.588 340.278C259.777 340.4 260 340.465 260.227 340.465C260.385 340.468 260.543 340.439 260.689 340.38C260.835 340.322 260.967 340.234 261.076 340.122C261.185 340.011 261.27 339.879 261.324 339.734C261.378 339.59 261.4 339.436 261.389 339.282Z" fill="black"/>
<path d="M265.408 339.409H262.812C262.82 339.557 262.859 339.702 262.925 339.835C262.991 339.969 263.084 340.088 263.199 340.186C263.313 340.285 263.446 340.36 263.59 340.408C263.734 340.455 263.887 340.475 264.039 340.465C264.22 340.465 264.398 340.426 264.561 340.351C264.725 340.276 264.869 340.167 264.984 340.032L265.223 340.296C264.998 340.525 264.709 340.685 264.392 340.755C264.075 340.824 263.743 340.802 263.439 340.689C263.135 340.576 262.872 340.378 262.683 340.12C262.494 339.863 262.388 339.556 262.378 339.24C262.367 339.039 262.399 338.839 262.472 338.651C262.544 338.462 262.656 338.291 262.799 338.146C262.943 338.002 263.115 337.887 263.306 337.81C263.497 337.733 263.702 337.695 263.909 337.698C264.115 337.693 264.32 337.73 264.511 337.807C264.701 337.884 264.873 337.998 265.015 338.144C265.157 338.289 265.267 338.461 265.336 338.65C265.406 338.839 265.434 339.04 265.418 339.24L265.408 339.409ZM262.79 339.103H264.962C264.962 338.823 264.848 338.554 264.644 338.356C264.441 338.158 264.164 338.047 263.876 338.047C263.588 338.047 263.312 338.158 263.108 338.356C262.905 338.554 262.79 338.823 262.79 339.103Z" fill="black"/>
<path d="M267.851 337.74V338.142H267.753C267.602 338.129 267.449 338.15 267.307 338.203C267.165 338.255 267.037 338.339 266.932 338.446C266.828 338.554 266.75 338.683 266.704 338.824C266.658 338.965 266.645 339.115 266.667 339.261V340.813H266.244V337.772H266.646V338.364C266.756 338.151 266.931 337.978 267.147 337.866C267.362 337.754 267.609 337.711 267.851 337.74Z" fill="black"/>
<path d="M270.588 337.793C270.588 337.371 270.24 337.086 269.632 337.086C269.418 337.074 269.204 337.11 269.007 337.19C268.809 337.271 268.633 337.394 268.492 337.55L268.177 337.318C268.362 337.115 268.592 336.955 268.85 336.851C269.107 336.747 269.386 336.701 269.665 336.716C270.501 336.716 271.033 337.107 271.033 337.772C271.033 338.754 269.947 338.828 269.947 339.631H269.502C269.502 338.638 270.588 338.543 270.588 337.793ZM269.415 340.528C269.428 340.458 269.467 340.395 269.523 340.349C269.58 340.304 269.651 340.279 269.724 340.279C269.798 340.279 269.869 340.304 269.925 340.349C269.982 340.395 270.02 340.458 270.034 340.528C270.042 340.573 270.041 340.618 270.029 340.662C270.018 340.705 269.996 340.746 269.967 340.78C269.937 340.815 269.9 340.843 269.858 340.862C269.816 340.881 269.771 340.891 269.724 340.891C269.678 340.891 269.632 340.881 269.59 340.862C269.549 340.843 269.512 340.815 269.482 340.78C269.452 340.746 269.431 340.705 269.419 340.662C269.408 340.618 269.406 340.573 269.415 340.528Z" fill="black"/>
<path d="M273.531 336.758H274.497V340.032H276.582V340.792H273.531V336.758Z" fill="black"/>
<path d="M276.8 339.251C276.778 338.909 276.862 338.568 277.042 338.273C277.222 337.978 277.488 337.743 277.807 337.597C278.126 337.451 278.483 337.402 278.831 337.455C279.179 337.509 279.502 337.663 279.759 337.897C280.016 338.132 280.195 338.436 280.272 338.77C280.349 339.105 280.322 339.454 280.192 339.773C280.063 340.092 279.838 340.365 279.547 340.558C279.256 340.751 278.911 340.855 278.559 340.856C278.333 340.87 278.107 340.839 277.894 340.765C277.681 340.691 277.486 340.575 277.321 340.425C277.156 340.274 277.025 340.092 276.935 339.89C276.845 339.688 276.799 339.471 276.8 339.251ZM279.373 339.251C279.361 339.097 279.303 338.951 279.206 338.829C279.109 338.707 278.978 338.616 278.828 338.566C278.679 338.515 278.517 338.508 278.364 338.546C278.21 338.583 278.071 338.663 277.964 338.776C277.856 338.889 277.785 339.03 277.759 339.181C277.732 339.333 277.752 339.489 277.815 339.63C277.878 339.771 277.982 339.891 278.114 339.976C278.246 340.06 278.401 340.105 278.559 340.106C278.672 340.108 278.784 340.087 278.889 340.043C278.993 340 279.086 339.936 279.163 339.856C279.24 339.775 279.299 339.679 279.335 339.575C279.371 339.471 279.384 339.36 279.373 339.251Z" fill="black"/>
<path d="M284.239 337.688V340.285C284.269 340.519 284.242 340.756 284.162 340.978C284.081 341.2 283.949 341.4 283.775 341.564C283.602 341.728 283.391 341.85 283.161 341.921C282.93 341.993 282.686 342.011 282.447 341.975C281.888 341.996 281.337 341.844 280.872 341.542L281.241 340.898C281.559 341.119 281.937 341.24 282.327 341.246C282.979 341.246 283.272 340.961 283.272 340.402V340.264C283.142 340.396 282.985 340.499 282.811 340.566C282.637 340.633 282.45 340.664 282.262 340.655C282.048 340.672 281.833 340.647 281.629 340.579C281.426 340.511 281.239 340.403 281.081 340.262C280.923 340.12 280.797 339.948 280.71 339.757C280.624 339.566 280.58 339.359 280.58 339.15C280.58 338.941 280.624 338.735 280.71 338.543C280.797 338.352 280.923 338.18 281.081 338.039C281.239 337.897 281.426 337.789 281.629 337.722C281.833 337.654 282.048 337.628 282.262 337.645C282.467 337.63 282.672 337.662 282.861 337.739C283.05 337.816 283.217 337.936 283.348 338.089V337.688H284.239ZM283.327 339.156C283.33 339.05 283.31 338.944 283.269 338.847C283.228 338.749 283.165 338.66 283.086 338.588C283.007 338.515 282.913 338.459 282.811 338.424C282.708 338.389 282.599 338.376 282.49 338.385C282.379 338.372 282.266 338.382 282.16 338.415C282.053 338.448 281.955 338.502 281.871 338.574C281.787 338.646 281.72 338.735 281.674 338.835C281.629 338.934 281.605 339.041 281.605 339.15C281.605 339.259 281.629 339.367 281.674 339.466C281.72 339.565 281.787 339.654 281.871 339.726C281.955 339.799 282.053 339.853 282.16 339.886C282.266 339.918 282.379 339.929 282.49 339.916C282.598 339.925 282.706 339.912 282.808 339.877C282.91 339.843 283.003 339.788 283.082 339.716C283.161 339.645 283.224 339.558 283.266 339.461C283.308 339.365 283.328 339.26 283.327 339.156Z" fill="black"/>
<path d="M286.704 336.758C286.705 336.688 286.721 336.618 286.751 336.553C286.782 336.489 286.825 336.431 286.879 336.384C286.933 336.336 286.996 336.3 287.065 336.277C287.134 336.254 287.207 336.246 287.28 336.252C287.351 336.244 287.422 336.251 287.491 336.272C287.559 336.293 287.622 336.327 287.676 336.373C287.73 336.418 287.774 336.474 287.804 336.537C287.835 336.6 287.853 336.668 287.855 336.737C287.855 336.886 287.794 337.028 287.687 337.133C287.579 337.238 287.432 337.297 287.28 337.297C287.127 337.297 286.981 337.238 286.873 337.133C286.765 337.028 286.704 336.886 286.704 336.737V336.758ZM286.813 337.688H287.736V340.856H286.813V337.688Z" fill="black"/>
<path d="M291.852 338.976V340.761H290.929V339.124C290.929 338.617 290.69 338.385 290.277 338.385C289.864 338.385 289.506 338.649 289.506 339.219V340.761H288.583V337.593H289.473V337.962C289.613 337.822 289.783 337.712 289.97 337.641C290.158 337.57 290.358 337.539 290.559 337.55C290.747 337.541 290.934 337.573 291.107 337.644C291.28 337.715 291.435 337.823 291.559 337.96C291.683 338.097 291.774 338.26 291.825 338.436C291.875 338.611 291.885 338.796 291.852 338.976Z" fill="black"/>
</g>
<path d="M323.541 349.145H181.449V372.8H323.541V349.145Z" fill="#0CBC4C"/>
<path d="M234.142 364.647L232.404 362.208H231.883H229.819V364.668H228.625V356.569H231.883C234.055 356.569 235.347 357.625 235.347 359.399C235.375 359.961 235.211 360.516 234.881 360.978C234.551 361.44 234.073 361.783 233.523 361.955L235.499 364.668L234.142 364.647ZM234.142 359.367C234.142 358.206 233.349 357.551 231.818 357.551H229.798V361.194H231.818C233.316 361.205 234.109 360.529 234.109 359.378L234.142 359.367Z" fill="white"/>
<path d="M242.743 361.955H237.628C237.708 362.477 237.987 362.951 238.409 363.283C238.831 363.616 239.366 363.782 239.908 363.75C240.249 363.762 240.589 363.702 240.904 363.574C241.219 363.447 241.501 363.254 241.733 363.011L242.363 363.729C241.898 364.187 241.307 364.506 240.66 364.646C240.014 364.786 239.34 364.743 238.719 364.52C238.097 364.297 237.555 363.904 237.158 363.389C236.76 362.874 236.523 362.259 236.476 361.617C236.454 361.202 236.52 360.787 236.67 360.399C236.82 360.01 237.051 359.656 237.349 359.358C237.647 359.061 238.005 358.826 238.401 358.67C238.796 358.513 239.221 358.438 239.648 358.449C240.072 358.437 240.495 358.512 240.887 358.67C241.28 358.827 241.635 359.062 241.929 359.36C242.222 359.659 242.448 360.014 242.592 360.402C242.736 360.791 242.795 361.205 242.764 361.617C242.764 361.712 242.754 361.849 242.743 361.955ZM237.628 361.152H241.668C241.616 360.666 241.381 360.216 241.007 359.889C240.634 359.562 240.15 359.381 239.648 359.381C239.145 359.381 238.661 359.562 238.288 359.889C237.915 360.216 237.68 360.666 237.628 361.152Z" fill="white"/>
<path d="M250.388 358.523V363.803C250.388 365.967 249.248 366.971 247.13 366.971C246.05 367.016 244.986 366.695 244.122 366.062L244.665 365.207C245.36 365.732 246.218 366.011 247.098 365.999C248.585 365.999 249.27 365.334 249.27 363.94V363.454C248.989 363.768 248.639 364.016 248.246 364.18C247.853 364.345 247.427 364.421 247 364.404C246.19 364.404 245.414 364.092 244.842 363.535C244.27 362.979 243.948 362.224 243.948 361.437C243.948 360.65 244.27 359.895 244.842 359.339C245.414 358.782 246.19 358.47 247 358.47C247.447 358.457 247.891 358.545 248.296 358.729C248.701 358.912 249.057 359.185 249.335 359.526V358.575L250.388 358.523ZM249.302 361.427C249.326 361.005 249.219 360.585 248.996 360.223C248.772 359.861 248.442 359.572 248.047 359.395C247.653 359.217 247.213 359.158 246.784 359.226C246.356 359.294 245.957 359.485 245.642 359.775C245.326 360.066 245.107 360.441 245.013 360.854C244.919 361.266 244.954 361.697 245.115 362.089C245.275 362.482 245.553 362.819 245.912 363.057C246.271 363.294 246.696 363.422 247.13 363.422C247.408 363.438 247.686 363.398 247.948 363.305C248.209 363.211 248.447 363.066 248.648 362.879C248.849 362.692 249.008 362.466 249.115 362.216C249.222 361.966 249.275 361.697 249.27 361.427H249.302Z" fill="white"/>
<path d="M252.365 356.622C252.366 356.525 252.387 356.429 252.427 356.34C252.466 356.251 252.523 356.17 252.595 356.102C252.667 356.034 252.751 355.981 252.844 355.945C252.937 355.909 253.036 355.892 253.136 355.893C253.241 355.881 253.348 355.89 253.449 355.921C253.55 355.952 253.643 356.003 253.723 356.071C253.802 356.14 253.866 356.223 253.909 356.317C253.953 356.411 253.975 356.513 253.975 356.616C253.975 356.72 253.953 356.821 253.909 356.915C253.866 357.009 253.802 357.093 253.723 357.162C253.643 357.23 253.55 357.281 253.449 357.312C253.348 357.343 253.241 357.352 253.136 357.34C253.036 357.343 252.938 357.326 252.845 357.292C252.752 357.257 252.667 357.205 252.596 357.138C252.524 357.071 252.467 356.991 252.427 356.902C252.387 356.814 252.366 356.718 252.365 356.622ZM252.571 358.523H253.711V364.647H252.571V358.523Z" fill="white"/>
<path d="M255.091 364.003L255.568 363.127C256.215 363.535 256.969 363.755 257.74 363.76C258.826 363.76 259.239 363.444 259.239 362.926C259.239 361.553 255.253 362.747 255.253 360.297C255.253 359.241 256.263 358.459 257.882 358.459C258.683 358.447 259.473 358.64 260.173 359.019L259.684 359.895C259.142 359.564 258.511 359.395 257.871 359.41C256.872 359.41 256.383 359.769 256.383 360.254C256.383 361.701 260.379 360.518 260.379 362.905C260.379 363.961 259.293 364.721 257.653 364.721C256.745 364.734 255.853 364.484 255.091 364.003Z" fill="white"/>
<path d="M265.397 364.32C265.001 364.614 264.515 364.766 264.017 364.753C263.75 364.783 263.478 364.754 263.223 364.668C262.968 364.582 262.736 364.442 262.545 364.258C262.353 364.073 262.206 363.849 262.115 363.602C262.024 363.356 261.991 363.092 262.019 362.831V359.462H260.933V358.554H262.019V357.213H263.105V358.554H264.984V359.462H263.17V362.789C263.145 362.925 263.152 363.065 263.191 363.197C263.23 363.33 263.3 363.453 263.396 363.555C263.491 363.657 263.61 363.736 263.742 363.787C263.875 363.837 264.017 363.857 264.159 363.845C264.48 363.848 264.793 363.748 265.049 363.56L265.397 364.32Z" fill="white"/>
<path d="M272.238 361.955H267.156C267.237 362.479 267.517 362.954 267.941 363.287C268.366 363.62 268.904 363.785 269.447 363.75C269.787 363.762 270.125 363.703 270.438 363.575C270.751 363.447 271.032 363.255 271.261 363.011L271.891 363.729C271.428 364.189 270.837 364.508 270.191 364.649C269.545 364.79 268.871 364.746 268.25 364.523C267.629 364.3 267.087 363.907 266.691 363.391C266.295 362.875 266.06 362.259 266.016 361.617C265.993 361.202 266.059 360.787 266.209 360.399C266.359 360.01 266.591 359.656 266.889 359.358C267.186 359.061 267.544 358.826 267.94 358.67C268.335 358.513 268.76 358.438 269.187 358.449C269.611 358.439 270.033 358.515 270.425 358.673C270.817 358.83 271.171 359.066 271.464 359.364C271.757 359.662 271.984 360.016 272.128 360.404C272.273 360.792 272.332 361.205 272.304 361.617C272.292 361.731 272.271 361.844 272.238 361.955ZM267.156 361.152H271.207C271.144 360.673 270.904 360.232 270.531 359.913C270.158 359.593 269.678 359.417 269.181 359.417C268.684 359.417 268.205 359.593 267.832 359.913C267.459 360.232 267.219 360.673 267.156 361.152Z" fill="white"/>
<path d="M277.245 358.459V359.515H276.984C276.702 359.496 276.419 359.539 276.156 359.641C275.893 359.743 275.657 359.901 275.466 360.104C275.275 360.307 275.133 360.55 275.052 360.814C274.971 361.077 274.952 361.355 274.997 361.627V364.679H273.857V358.554H274.943V359.61C275.172 359.224 275.511 358.909 275.92 358.705C276.328 358.501 276.788 358.416 277.245 358.459Z" fill="white"/>
<g opacity="0.6">
<path d="M227.615 187.556L228.103 186.564C228.946 187.25 230.012 187.625 231.112 187.62C232.686 187.62 233.36 187.028 233.36 186.257C233.36 184.145 227.843 185.455 227.843 182.171C227.843 180.798 228.929 179.636 231.329 179.636C232.363 179.62 233.38 179.891 234.261 180.418L233.827 181.474C233.081 181.009 232.215 180.76 231.329 180.756C229.776 180.756 229.157 181.389 229.157 182.16C229.157 184.272 234.685 182.963 234.685 186.226C234.685 187.577 233.599 188.739 231.155 188.739C229.868 188.765 228.613 188.346 227.615 187.556Z" fill="#263238"/>
<path d="M236.14 179.773C236.141 179.667 236.164 179.562 236.208 179.465C236.251 179.367 236.314 179.279 236.393 179.205C236.472 179.132 236.565 179.074 236.667 179.035C236.769 178.997 236.878 178.979 236.987 178.981C237.095 178.977 237.202 178.994 237.304 179.03C237.405 179.067 237.498 179.123 237.576 179.195C237.655 179.266 237.719 179.353 237.763 179.448C237.807 179.544 237.831 179.647 237.834 179.752C237.834 179.971 237.745 180.18 237.586 180.335C237.427 180.489 237.212 180.576 236.987 180.576C236.762 180.576 236.547 180.489 236.388 180.335C236.229 180.18 236.14 179.971 236.14 179.752V179.773ZM236.357 181.885H237.617V188.602H236.357V181.885Z" fill="#263238"/>
<path d="M246.598 181.854V187.651C246.598 190.027 245.36 191.104 243.025 191.104C241.853 191.14 240.704 190.787 239.767 190.101L240.364 189.161C241.121 189.743 242.061 190.053 243.025 190.038C244.654 190.038 245.393 189.299 245.393 187.778V187.25C245.085 187.595 244.702 187.869 244.272 188.052C243.842 188.234 243.375 188.321 242.906 188.306C242.451 188.331 241.996 188.266 241.568 188.114C241.141 187.962 240.749 187.727 240.418 187.423C240.087 187.119 239.824 186.753 239.643 186.346C239.463 185.94 239.37 185.501 239.37 185.059C239.37 184.616 239.463 184.178 239.643 183.771C239.824 183.365 240.087 182.998 240.418 182.694C240.749 182.39 241.141 182.155 241.568 182.003C241.996 181.852 242.451 181.786 242.906 181.812C243.386 181.787 243.865 181.87 244.307 182.053C244.749 182.236 245.143 182.514 245.458 182.868V181.812L246.598 181.854ZM245.382 185.022C245.406 184.56 245.287 184.102 245.04 183.707C244.794 183.312 244.431 182.997 243.999 182.804C243.567 182.611 243.086 182.549 242.617 182.624C242.148 182.7 241.713 182.91 241.368 183.229C241.024 183.547 240.785 183.959 240.683 184.41C240.581 184.861 240.621 185.332 240.797 185.762C240.973 186.191 241.277 186.559 241.67 186.819C242.064 187.079 242.528 187.218 243.003 187.218C243.314 187.245 243.627 187.208 243.922 187.11C244.217 187.012 244.488 186.855 244.717 186.649C244.946 186.443 245.129 186.193 245.252 185.914C245.376 185.636 245.439 185.336 245.436 185.032L245.382 185.022Z" fill="#263238"/>
<path d="M255.547 184.705V188.57H254.287V184.8C254.287 183.48 253.614 182.836 252.43 182.836C252.129 182.817 251.828 182.862 251.547 182.969C251.266 183.076 251.014 183.242 250.806 183.454C250.599 183.667 250.442 183.922 250.347 184.2C250.253 184.478 250.222 184.773 250.258 185.064V188.528H249.009V181.812H250.214V182.868C250.511 182.51 250.892 182.227 251.325 182.043C251.758 181.859 252.23 181.78 252.701 181.812C253.093 181.786 253.486 181.844 253.852 181.983C254.218 182.121 254.548 182.335 254.82 182.611C255.091 182.887 255.297 183.218 255.422 183.58C255.548 183.941 255.59 184.326 255.547 184.705Z" fill="#263238"/>
<path d="M267.808 181.854V188.57H266.624V187.514C266.348 187.86 265.991 188.136 265.583 188.319C265.175 188.503 264.727 188.589 264.278 188.57C263.874 188.61 263.466 188.562 263.084 188.429C262.702 188.296 262.355 188.081 262.07 187.8C261.784 187.52 261.567 187.18 261.434 186.807C261.302 186.434 261.256 186.037 261.302 185.645V181.78H262.551V185.508C262.551 186.817 263.236 187.482 264.419 187.482C264.72 187.503 265.023 187.459 265.304 187.353C265.586 187.247 265.84 187.081 266.047 186.868C266.255 186.655 266.412 186.399 266.506 186.12C266.6 185.841 266.629 185.545 266.591 185.254V181.78L267.808 181.854Z" fill="#263238"/>
<path d="M277.343 185.212C277.367 185.665 277.294 186.119 277.128 186.543C276.962 186.967 276.707 187.353 276.379 187.676C276.051 187.999 275.657 188.252 275.223 188.419C274.788 188.585 274.323 188.662 273.857 188.644C273.398 188.661 272.942 188.575 272.523 188.392C272.105 188.208 271.736 187.933 271.446 187.588V191.052H270.197V181.885H271.391V182.941C271.678 182.574 272.052 182.279 272.481 182.082C272.911 181.886 273.382 181.793 273.857 181.812C274.321 181.792 274.784 181.867 275.217 182.031C275.649 182.195 276.042 182.445 276.37 182.765C276.698 183.085 276.954 183.467 277.121 183.889C277.289 184.31 277.364 184.761 277.343 185.212ZM276.083 185.212C276.062 184.77 275.908 184.345 275.64 183.987C275.373 183.63 275.004 183.357 274.578 183.202C274.153 183.046 273.69 183.016 273.246 183.114C272.803 183.212 272.399 183.434 272.085 183.753C271.77 184.071 271.558 184.473 271.476 184.908C271.393 185.342 271.444 185.791 271.621 186.198C271.798 186.605 272.094 186.952 272.472 187.197C272.85 187.443 273.294 187.575 273.748 187.577C274.065 187.584 274.38 187.526 274.672 187.408C274.965 187.29 275.23 187.115 275.449 186.893C275.668 186.67 275.838 186.406 275.947 186.117C276.056 185.828 276.102 185.519 276.083 185.212Z" fill="#263238"/>
</g>
<path d="M323.541 238.17H181.449V261.825H323.541V238.17Z" fill="white"/>
<g opacity="0.4">
<path d="M189.225 246.143H189.963V252.3H193.862V252.923H189.225V246.143Z" fill="#263238"/>
<path d="M198.912 249.765V252.933H198.238V252.141C198.041 252.424 197.77 252.65 197.454 252.799C197.137 252.947 196.786 253.012 196.436 252.986C195.252 252.986 194.524 252.384 194.524 251.497C194.524 250.61 195.035 250.061 196.544 250.061H198.206V249.755C198.206 248.878 197.695 248.403 196.718 248.403C196.083 248.395 195.467 248.608 194.98 249.005L194.655 248.487C195.275 248.02 196.043 247.778 196.827 247.801C197.103 247.768 197.383 247.796 197.647 247.883C197.91 247.969 198.151 248.111 198.351 248.3C198.551 248.488 198.705 248.717 198.802 248.971C198.899 249.224 198.936 249.496 198.912 249.765ZM198.206 251.391V250.557H196.566C195.545 250.557 195.219 250.948 195.219 251.476C195.219 252.004 195.708 252.426 196.544 252.426C196.898 252.447 197.25 252.359 197.549 252.172C197.847 251.986 198.078 251.713 198.206 251.391Z" fill="#263238"/>
<path d="M200.106 252.384L200.421 251.845C200.969 252.217 201.621 252.416 202.289 252.416C203.288 252.416 203.69 252.088 203.69 251.581C203.69 250.251 200.302 251.296 200.302 249.29C200.302 248.456 201.029 247.833 202.365 247.833C203.017 247.824 203.659 247.989 204.222 248.308L203.907 248.857C203.451 248.564 202.913 248.413 202.365 248.424C201.42 248.424 201.008 248.783 201.008 249.269C201.008 250.642 204.396 249.607 204.396 251.56C204.396 252.447 203.603 253.018 202.224 253.018C201.466 253.034 200.724 252.811 200.106 252.384Z" fill="#263238"/>
<path d="M208.512 252.616C208.204 252.854 207.82 252.981 207.426 252.975C207.219 252.997 207.011 252.973 206.815 252.906C206.619 252.839 206.441 252.73 206.294 252.587C206.147 252.444 206.035 252.271 205.966 252.081C205.897 251.89 205.872 251.687 205.895 251.486V248.413H204.95V247.833H205.895V246.713H206.601V247.833H208.186V248.413H206.601V251.455C206.582 251.576 206.592 251.701 206.63 251.818C206.668 251.935 206.733 252.043 206.819 252.132C206.906 252.221 207.013 252.291 207.131 252.334C207.249 252.378 207.376 252.395 207.502 252.384C207.787 252.392 208.065 252.298 208.284 252.12L208.512 252.616Z" fill="#263238"/>
<path d="M218.286 246.143V252.923H217.678L213.204 247.421V252.923H212.465V246.143H213.073L217.558 251.645V246.143H218.286Z" fill="#263238"/>
<path d="M224.411 249.765V252.933H223.716V252.141C223.52 252.425 223.25 252.653 222.933 252.802C222.616 252.95 222.264 253.014 221.913 252.986C220.729 252.986 220.002 252.384 220.002 251.497C220.002 250.61 220.523 250.061 222.033 250.061H223.716V249.755C223.716 248.878 223.206 248.403 222.228 248.403C221.594 248.395 220.977 248.608 220.491 249.005L220.165 248.487C220.784 248.018 221.552 247.775 222.337 247.801C222.612 247.77 222.891 247.799 223.153 247.886C223.416 247.973 223.655 248.116 223.854 248.304C224.052 248.492 224.205 248.721 224.302 248.974C224.398 249.226 224.435 249.497 224.411 249.765ZM223.705 251.391V250.557H222.054C221.044 250.557 220.719 250.948 220.719 251.476C220.719 252.004 221.207 252.426 222.044 252.426C222.399 252.45 222.754 252.362 223.054 252.176C223.355 251.99 223.587 251.715 223.716 251.391H223.705Z" fill="#263238"/>
<path d="M234.978 249.966V252.923H234.272V250.04C234.272 248.984 233.707 248.413 232.762 248.413C232.517 248.402 232.273 248.443 232.046 248.534C231.819 248.624 231.615 248.762 231.449 248.937C231.282 249.112 231.157 249.32 231.082 249.547C231.007 249.774 230.984 250.014 231.014 250.251V252.923H230.308V250.04C230.308 248.984 229.743 248.413 228.788 248.413C228.543 248.402 228.298 248.443 228.071 248.534C227.844 248.624 227.641 248.762 227.474 248.937C227.307 249.112 227.182 249.32 227.107 249.547C227.032 249.774 227.009 250.014 227.039 250.251V252.923H226.333V247.833H226.974V248.762C227.179 248.451 227.464 248.197 227.802 248.027C228.139 247.856 228.516 247.775 228.896 247.79C229.281 247.76 229.667 247.844 230.001 248.033C230.335 248.222 230.601 248.506 230.764 248.846C230.979 248.506 231.283 248.228 231.647 248.043C232.01 247.857 232.418 247.77 232.828 247.79C233.125 247.762 233.425 247.8 233.705 247.9C233.985 248.001 234.238 248.162 234.445 248.371C234.652 248.581 234.807 248.833 234.9 249.109C234.992 249.385 235.019 249.678 234.978 249.966Z" fill="#263238"/>
<path d="M241.483 250.589H237.139C237.154 250.837 237.22 251.08 237.332 251.304C237.444 251.528 237.6 251.728 237.792 251.892C237.983 252.057 238.207 252.184 238.449 252.264C238.691 252.345 238.947 252.379 239.202 252.363C239.504 252.372 239.804 252.318 240.082 252.203C240.359 252.088 240.608 251.915 240.81 251.698L241.201 252.141C240.824 252.523 240.34 252.789 239.81 252.906C239.279 253.022 238.724 252.984 238.216 252.796C237.707 252.607 237.267 252.278 236.95 251.848C236.633 251.418 236.453 250.906 236.433 250.378C236.415 250.041 236.468 249.705 236.59 249.39C236.711 249.074 236.897 248.786 237.138 248.544C237.378 248.301 237.667 248.109 237.986 247.98C238.306 247.85 238.65 247.786 238.996 247.79C239.342 247.784 239.685 247.847 240.005 247.976C240.324 248.106 240.612 248.298 240.851 248.541C241.09 248.784 241.274 249.073 241.392 249.389C241.511 249.705 241.56 250.042 241.537 250.378C241.494 250.441 241.483 250.515 241.483 250.589ZM237.139 250.082H240.853C240.853 249.603 240.657 249.144 240.309 248.805C239.961 248.466 239.489 248.276 238.996 248.276C238.503 248.276 238.031 248.466 237.683 248.805C237.335 249.144 237.139 249.603 237.139 250.082Z" fill="#263238"/>
</g>
<path d="M323.541 205.857H181.449V229.511H323.541V205.857Z" fill="white"/>
<g opacity="0.4">
<path d="M189.963 214.452V217.114H193.569V217.737H189.963V220.609H189.225V213.829H194.003V214.452H189.963Z" fill="#263238"/>
<path d="M195.122 213.903C195.119 213.802 195.148 213.703 195.205 213.618C195.261 213.533 195.343 213.466 195.438 213.427C195.534 213.387 195.64 213.376 195.742 213.395C195.844 213.414 195.938 213.463 196.011 213.534C196.085 213.606 196.135 213.697 196.155 213.797C196.174 213.896 196.163 213.999 196.122 214.092C196.081 214.185 196.013 214.264 195.926 214.319C195.838 214.374 195.736 214.402 195.632 214.4C195.497 214.4 195.367 214.347 195.271 214.254C195.175 214.161 195.122 214.035 195.122 213.903ZM195.274 215.519H195.98V220.609H195.274V215.519Z" fill="#263238"/>
<path d="M200.595 215.477V216.142H200.421C200.172 216.13 199.923 216.172 199.692 216.265C199.461 216.358 199.254 216.499 199.086 216.679C198.918 216.858 198.793 217.072 198.719 217.304C198.646 217.536 198.626 217.781 198.662 218.022V220.62H197.956V215.53H198.629V216.48C198.817 216.142 199.105 215.865 199.455 215.687C199.805 215.508 200.202 215.435 200.595 215.477Z" fill="#263238"/>
<path d="M201.181 220.028L201.496 219.479C202.039 219.862 202.694 220.065 203.364 220.06C204.363 220.06 204.765 219.722 204.765 219.226C204.765 217.895 201.377 218.94 201.377 216.923C201.377 216.1 202.105 215.477 203.44 215.477C204.093 215.463 204.736 215.628 205.297 215.952L204.982 216.501C204.526 216.208 203.988 216.057 203.44 216.068C202.496 216.068 202.083 216.427 202.083 216.913C202.083 218.286 205.471 217.251 205.471 219.204C205.471 220.081 204.678 220.651 203.299 220.651C202.543 220.67 201.8 220.452 201.181 220.028Z" fill="#263238"/>
<path d="M209.598 220.303C209.286 220.533 208.904 220.656 208.512 220.651C208.306 220.675 208.097 220.653 207.901 220.587C207.705 220.521 207.527 220.413 207.38 220.271C207.233 220.129 207.12 219.956 207.051 219.766C206.982 219.576 206.958 219.373 206.981 219.173V216.1H206.036V215.519H206.981V214.368H207.687V215.487H209.272V216.068H207.687V219.099C207.668 219.221 207.679 219.345 207.716 219.463C207.754 219.581 207.819 219.689 207.905 219.779C207.992 219.869 208.098 219.939 208.216 219.984C208.334 220.029 208.462 220.048 208.588 220.039C208.872 220.042 209.149 219.949 209.37 219.775L209.598 220.303Z" fill="#263238"/>
<path d="M219.372 213.829V220.609H218.764L214.29 215.107V220.609H213.551V213.829H214.159L218.644 219.331V213.829H219.372Z" fill="#263238"/>
<path d="M225.486 217.452V220.62H224.802V219.828C224.607 220.11 224.338 220.336 224.023 220.482C223.708 220.629 223.358 220.691 223.01 220.662C221.815 220.662 221.088 220.07 221.088 219.183C221.088 218.296 221.609 217.747 223.119 217.747H224.802V217.43C224.802 216.564 224.292 216.089 223.314 216.089C222.68 216.081 222.063 216.295 221.577 216.691L221.251 216.174C221.87 215.705 222.638 215.462 223.423 215.487C223.698 215.456 223.976 215.485 224.238 215.572C224.5 215.659 224.739 215.802 224.936 215.991C225.134 216.179 225.286 216.408 225.381 216.661C225.477 216.913 225.512 217.184 225.486 217.452ZM224.78 219.078V218.244H223.13C222.12 218.244 221.794 218.634 221.794 219.152C221.794 219.669 222.282 220.113 223.119 220.113C223.476 220.137 223.832 220.049 224.135 219.863C224.437 219.677 224.671 219.402 224.802 219.078H224.78Z" fill="#263238"/>
<path d="M236.053 217.652V220.609H235.347V217.726C235.347 216.67 234.782 216.1 233.838 216.1C233.593 216.089 233.348 216.13 233.121 216.22C232.894 216.311 232.69 216.448 232.524 216.623C232.357 216.798 232.232 217.007 232.157 217.233C232.082 217.46 232.059 217.701 232.089 217.937V220.609H231.383V217.726C231.383 216.67 230.818 216.1 229.863 216.1C229.618 216.089 229.373 216.13 229.146 216.22C228.92 216.311 228.716 216.448 228.549 216.623C228.383 216.798 228.257 217.007 228.182 217.233C228.107 217.46 228.084 217.701 228.114 217.937V220.609H227.408V215.519H228.06V216.48C228.265 216.169 228.55 215.915 228.888 215.745C229.225 215.574 229.602 215.493 229.982 215.508C230.367 215.478 230.753 215.562 231.087 215.751C231.421 215.94 231.687 216.224 231.85 216.564C232.063 216.223 232.367 215.944 232.731 215.758C233.094 215.571 233.503 215.485 233.914 215.508C234.207 215.483 234.502 215.521 234.778 215.621C235.054 215.72 235.304 215.879 235.509 216.084C235.714 216.29 235.869 216.537 235.963 216.808C236.058 217.08 236.088 217.368 236.053 217.652Z" fill="#263238"/>
<path d="M242.558 218.275H238.214C238.229 218.524 238.295 218.767 238.407 218.99C238.519 219.214 238.675 219.414 238.867 219.579C239.059 219.744 239.282 219.87 239.524 219.951C239.766 220.032 240.022 220.065 240.277 220.049C240.58 220.059 240.881 220.003 241.159 219.886C241.437 219.77 241.685 219.594 241.885 219.373L242.276 219.827C241.899 220.21 241.416 220.476 240.885 220.592C240.354 220.708 239.8 220.67 239.291 220.482C238.782 220.294 238.342 219.964 238.025 219.534C237.708 219.104 237.528 218.593 237.508 218.064C237.49 217.728 237.544 217.391 237.665 217.076C237.786 216.76 237.973 216.473 238.213 216.23C238.453 215.988 238.742 215.796 239.062 215.666C239.381 215.536 239.725 215.472 240.071 215.477C240.417 215.47 240.76 215.534 241.08 215.663C241.399 215.792 241.687 215.984 241.926 216.228C242.165 216.471 242.349 216.76 242.468 217.076C242.586 217.392 242.635 217.728 242.612 218.064C242.569 218.117 242.558 218.191 242.558 218.275ZM238.214 217.758H241.928C241.928 217.279 241.733 216.82 241.384 216.481C241.036 216.142 240.564 215.952 240.071 215.952C239.579 215.952 239.106 216.142 238.758 216.481C238.41 216.82 238.214 217.279 238.214 217.758Z" fill="#263238"/>
</g>
<path d="M127.985 406.856H126.953C126.953 405.367 128.224 370.476 134.469 364.616C140.887 358.544 148.434 364.531 148.5 364.616L147.848 365.376C147.566 365.154 140.93 359.916 135.174 365.376C129.234 370.878 127.996 406.497 127.985 406.856Z" fill="#0CBC4C"/>
<path d="M127.464 413.857L126.443 413.762C126.443 413.34 130.483 371.395 114.855 353.95L115.626 353.295C131.547 371.068 127.507 413.435 127.464 413.857Z" fill="#0CBC4C"/>
<path d="M127.963 409.38C127.833 407.394 124.825 360.804 136.836 350.032L137.531 350.772C125.878 361.184 128.952 408.852 128.984 409.306L127.963 409.38Z" fill="#0CBC4C"/>
<path d="M126.443 409.348C126.443 409.031 126.074 377.668 117.527 372.948C116.8 372.482 115.969 372.192 115.104 372.104C114.238 372.016 113.363 372.131 112.553 372.441C107.547 374.458 104.886 383.75 104.853 383.845L103.865 383.581C103.974 383.18 106.689 373.729 112.162 371.522C113.116 371.149 114.147 371.006 115.17 371.103C116.193 371.201 117.176 371.536 118.037 372.082C127.084 377.119 127.464 407.986 127.475 409.337L126.443 409.348Z" fill="#0CBC4C"/>
<path d="M129.962 409.369C129.896 408.313 128.582 384.616 135.5 375.82C137.346 373.486 139.388 372.377 141.604 372.536C146.523 372.863 150.292 379.347 150.498 379.621L149.607 380.118C149.607 380.054 145.893 373.782 141.528 373.528C139.692 373.391 137.933 374.373 136.315 376.432C129.625 384.88 130.972 409.073 130.982 409.316L129.962 409.369Z" fill="#0CBC4C"/>
<path d="M128.582 412.653L127.562 412.579C127.562 412.009 131.906 355.428 124.738 345.988L125.563 345.396C132.97 355.133 128.767 410.309 128.582 412.653Z" fill="#0CBC4C"/>
<path d="M110.175 377.15C110.175 377.15 114.606 378.745 113.292 382.494C111.977 386.243 97.9463 392.42 97.9463 392.42C97.9463 392.42 92.0711 387.193 97.4685 378.692C102.866 370.191 110.055 374.468 110.175 377.15Z" fill="#0CBC4C"/>
<path opacity="0.2" d="M110.175 377.15C110.175 377.15 114.606 378.745 113.292 382.494C111.977 386.243 97.9463 392.42 97.9463 392.42C97.9463 392.42 92.0711 387.193 97.4685 378.692C102.866 370.191 110.055 374.468 110.175 377.15Z" fill="black"/>
<path d="M129.451 370.012C129.451 370.012 124.727 369.822 124.456 373.771C124.184 377.721 134.664 388.682 134.664 388.682C134.664 388.682 142.157 386.042 140.55 376.168C138.943 366.295 130.624 367.572 129.451 370.012Z" fill="#0CBC4C"/>
<path opacity="0.2" d="M129.451 370.012C129.451 370.012 124.727 369.822 124.456 373.771C124.184 377.721 134.664 388.682 134.664 388.682C134.664 388.682 142.157 386.042 140.55 376.168C138.943 366.295 130.624 367.572 129.451 370.012Z" fill="black"/>
<path d="M133.448 351.067C133.448 351.067 130.298 350.74 130.548 348.881C130.798 347.023 142.787 342.218 149.857 349.937C149.857 349.937 145.329 357.498 138.791 357.604C132.253 357.709 133.448 351.067 133.448 351.067Z" fill="#0CBC4C"/>
<path opacity="0.2" d="M133.448 351.067C133.448 351.067 130.298 350.74 130.548 348.881C130.798 347.023 142.787 342.218 149.857 349.937C149.857 349.937 145.329 357.498 138.791 357.604C132.253 357.709 133.448 351.067 133.448 351.067Z" fill="black"/>
<path d="M127.583 346.537C127.583 346.537 130.429 347.878 131.232 346.167C132.036 344.457 124.466 334.224 114.247 337.17C114.247 337.17 113.976 345.914 119.471 349.367C124.966 352.82 127.583 346.537 127.583 346.537Z" fill="#0CBC4C"/>
<path opacity="0.2" d="M127.583 346.537C127.583 346.537 130.429 347.878 131.232 346.167C132.036 344.457 124.466 334.224 114.247 337.17C114.247 337.17 113.976 345.914 119.471 349.367C124.966 352.82 127.583 346.537 127.583 346.537Z" fill="black"/>
<path d="M142.483 375.651C142.483 375.651 140.311 373.94 142.657 373.106C145.003 372.272 156.503 372.515 156.623 383.592C156.623 383.592 143.222 385.757 141.571 381.533C139.92 377.309 142.483 375.651 142.483 375.651Z" fill="#0CBC4C"/>
<path opacity="0.2" d="M142.483 375.651C142.483 375.651 140.311 373.94 142.657 373.106C145.003 372.272 156.503 372.515 156.623 383.592C156.623 383.592 143.222 385.757 141.571 381.533C139.92 377.309 142.483 375.651 142.483 375.651Z" fill="black"/>
<path d="M115.116 350.793C115.116 350.793 117.288 349.082 114.942 348.258C112.596 347.435 101.096 347.656 100.976 358.734C100.976 358.734 114.378 360.909 116.028 356.685C117.679 352.461 115.116 350.793 115.116 350.793Z" fill="#0CBC4C"/>
<path opacity="0.2" d="M115.116 350.793C115.116 350.793 117.288 349.082 114.942 348.258C112.596 347.435 101.096 347.656 100.976 358.734C100.976 358.734 114.378 360.909 116.028 356.685C117.679 352.461 115.116 350.793 115.116 350.793Z" fill="black"/>
<path d="M122.24 359.716C122.24 359.716 122.436 357.604 120.709 358.459C118.982 359.315 112.998 365.566 119.21 371.532C119.21 371.532 127.583 365.503 126.074 362.366C124.564 359.23 122.24 359.716 122.24 359.716Z" fill="#0CBC4C"/>
<path opacity="0.2" d="M122.24 359.716C122.24 359.716 122.436 357.604 120.709 358.459C118.982 359.315 112.998 365.566 119.21 371.532C119.21 371.532 127.583 365.503 126.074 362.366C124.564 359.23 122.24 359.716 122.24 359.716Z" fill="black"/>
<path d="M144.438 362.673C144.438 362.673 143.135 361.015 145.046 360.814C146.958 360.613 155.472 362.82 153.484 371.1C153.484 371.1 143.102 370.339 142.624 366.876C142.147 363.412 144.438 362.673 144.438 362.673Z" fill="#0CBC4C"/>
<path opacity="0.2" d="M144.438 362.673C144.438 362.673 143.135 361.015 145.046 360.814C146.958 360.613 155.472 362.82 153.484 371.1C153.484 371.1 143.102 370.339 142.624 366.876C142.147 363.412 144.438 362.673 144.438 362.673Z" fill="black"/>
<path d="M110.946 440.056H144.514L148.977 408.313H106.482L110.946 440.056Z" fill="#263238"/>
<path opacity="0.2" d="M110.946 440.056H144.514L148.977 408.313H106.482L110.946 440.056Z" fill="white"/>
<path d="M153.191 405.736V408.756C153.191 409.726 152.795 410.655 152.091 411.34C151.386 412.025 150.43 412.41 149.434 412.41H105.613C104.617 412.41 103.661 412.025 102.956 411.34C102.252 410.655 101.856 409.726 101.856 408.756V405.736H153.191Z" fill="#263238"/>
<path d="M432.901 104.871H401.701C399.154 104.871 396.713 105.855 394.912 107.606C393.112 109.356 392.1 111.731 392.1 114.206V140.606C392.099 141.833 392.346 143.048 392.828 144.182C393.31 145.316 394.017 146.346 394.908 147.214C395.8 148.082 396.859 148.771 398.024 149.24C399.19 149.71 400.439 149.952 401.701 149.952H410.812L408.64 158.284L417.328 149.952H432.956C435.505 149.952 437.949 148.967 439.752 147.215C441.554 145.462 442.567 143.085 442.567 140.606V114.206C442.567 112.975 442.316 111.756 441.83 110.619C441.343 109.483 440.63 108.451 439.732 107.583C438.833 106.715 437.767 106.029 436.595 105.564C435.423 105.098 434.168 104.863 432.901 104.871Z" fill="#0CBC4C"/>
<path opacity="0.7" d="M432.901 104.871H401.701C399.154 104.871 396.713 105.855 394.912 107.606C393.112 109.356 392.1 111.731 392.1 114.206V140.606C392.099 141.833 392.346 143.048 392.828 144.182C393.31 145.316 394.017 146.346 394.908 147.214C395.8 148.082 396.859 148.771 398.024 149.24C399.19 149.71 400.439 149.952 401.701 149.952H410.812L408.64 158.284L417.328 149.952H432.956C435.505 149.952 437.949 148.967 439.752 147.215C441.554 145.462 442.567 143.085 442.567 140.606V114.206C442.567 112.975 442.316 111.756 441.83 110.619C441.343 109.483 440.63 108.451 439.732 107.583C438.833 106.715 437.767 106.029 436.595 105.564C435.423 105.098 434.168 104.863 432.901 104.871Z" fill="white"/>
<path d="M417.306 139.075C423.994 139.075 429.415 133.804 429.415 127.301C429.415 120.798 423.994 115.526 417.306 115.526C410.619 115.526 405.197 120.798 405.197 127.301C405.197 133.804 410.619 139.075 417.306 139.075Z" fill="white"/>
<path d="M417.306 112.242C414.243 112.242 411.249 113.125 408.703 114.78C406.156 116.435 404.171 118.787 402.999 121.538C401.827 124.29 401.52 127.318 402.118 130.239C402.715 133.16 404.19 135.843 406.356 137.949C408.522 140.055 411.281 141.489 414.285 142.07C417.289 142.651 420.403 142.353 423.233 141.213C426.062 140.073 428.481 138.143 430.183 135.667C431.884 133.191 432.793 130.279 432.793 127.301C432.794 125.323 432.395 123.364 431.617 121.537C430.839 119.709 429.698 118.048 428.26 116.65C426.822 115.251 425.114 114.142 423.234 113.386C421.355 112.629 419.34 112.241 417.306 112.242ZM426.092 122.802L416.763 133.489C416.631 133.643 416.465 133.767 416.277 133.851C416.089 133.935 415.884 133.977 415.677 133.975C415.471 133.976 415.266 133.933 415.079 133.849C414.891 133.765 414.725 133.642 414.591 133.489L408.521 126.53C408.392 126.392 408.294 126.231 408.231 126.056C408.168 125.88 408.142 125.694 408.155 125.509C408.168 125.324 408.219 125.143 408.305 124.977C408.391 124.811 408.511 124.664 408.656 124.544C408.802 124.424 408.972 124.334 409.154 124.279C409.336 124.224 409.528 124.206 409.718 124.225C409.908 124.243 410.093 124.299 410.26 124.389C410.427 124.478 410.574 124.599 410.693 124.745L415.677 130.458L423.92 121.018C424.168 120.752 424.512 120.59 424.88 120.566C425.248 120.543 425.611 120.659 425.892 120.89C426.174 121.121 426.352 121.45 426.39 121.807C426.427 122.164 426.32 122.52 426.092 122.802Z" fill="#0CBC4C"/>
<path d="M427.493 267.759C427.493 267.759 408.586 265.436 379.937 273.039C379.937 273.039 375.332 223.26 375.875 216.417C376.418 209.574 420.108 211.58 420.108 211.58C420.108 211.58 421.194 231.507 424.04 243.524C426.885 255.541 428.97 265.447 427.493 267.759Z" fill="#0CBC4C"/>
<path opacity="0.2" d="M427.493 267.759C427.493 267.759 408.586 265.436 379.937 273.039C379.937 273.039 375.332 223.26 375.875 216.417C376.418 209.574 420.108 211.58 420.108 211.58C420.108 211.58 421.194 231.507 424.04 243.524C426.885 255.541 428.97 265.447 427.493 267.759Z" fill="black"/>
<path d="M366.123 432.559L373.834 434.681L375.669 423.012L376.657 416.772L368.947 414.649L367.633 423.012L366.123 432.559Z" fill="#E4897B"/>
<path d="M410.454 433.171L418.403 434.196L418.479 423.012L418.534 416.064L410.573 415.05L410.519 423.012L410.454 433.171Z" fill="#E4897B"/>
<path opacity="0.2" d="M410.573 415.05L410.519 423.012H418.479L418.534 416.064L410.573 415.05Z" fill="black"/>
<path opacity="0.2" d="M367.633 423.012H375.669L376.657 416.772L368.947 414.649L367.633 423.012Z" fill="black"/>
<path d="M331.892 220.503L324.236 218.307L325.637 226.808C325.637 226.808 332.587 228.36 333.239 224.844L331.892 220.503Z" fill="#E4897B"/>
<path d="M316.591 220.282L320.348 227.188L325.637 226.808L324.236 218.307L316.591 220.282Z" fill="#E4897B"/>
<path d="M342.459 222.679L329.883 219.944L328.743 225.878L340.157 228.582L342.459 222.679Z" fill="#E4897B"/>
<path d="M380.502 217.314L379.763 218.17C378.178 219.975 374.333 224.337 370.326 228.096C367.068 231.158 363.81 233.83 361.638 234.369C355.48 235.91 333.098 229.5 333.098 229.5L335.411 220.672C335.411 220.672 356.262 223.365 357.88 223.365C359.108 223.365 371.792 205.498 374.865 204.03L380.502 217.314Z" fill="#0CBC4C"/>
<path opacity="0.2" d="M379.763 218.17C378.178 219.975 374.333 224.337 370.326 228.096C371.13 221.908 373.465 216.227 376.538 212.636C376.824 212.29 377.153 211.978 377.515 211.707L379.763 218.17Z" fill="black"/>
<path d="M366.221 431.387L374.974 431.165C375.132 431.16 375.287 431.208 375.413 431.3C375.539 431.392 375.63 431.523 375.669 431.672L377.515 438.525C377.559 438.689 377.565 438.861 377.532 439.027C377.498 439.194 377.427 439.351 377.322 439.487C377.218 439.623 377.084 439.734 376.929 439.812C376.774 439.891 376.604 439.935 376.429 439.94C373.269 439.94 368.697 439.94 364.733 440.014C360.085 440.141 357.131 439.919 351.701 440.014C348.443 440.099 347.357 436.909 348.747 436.582C354.97 435.083 359.042 435.378 364.342 431.999C364.901 431.636 365.55 431.425 366.221 431.387Z" fill="#263238"/>
<path d="M365.461 432.485C364.179 432.759 361.899 433.129 360.986 432.4C360.853 432.293 360.749 432.157 360.681 432.003C360.613 431.849 360.583 431.681 360.595 431.513C360.595 431.413 360.622 431.314 360.673 431.227C360.725 431.14 360.799 431.067 360.889 431.017C361.855 430.457 365.124 431.967 365.504 432.136C365.537 432.154 365.565 432.18 365.584 432.211C365.603 432.243 365.613 432.279 365.613 432.316C365.611 432.357 365.595 432.396 365.567 432.426C365.54 432.457 365.502 432.478 365.461 432.485ZM361.117 431.313H361.052C361.015 431.333 360.985 431.362 360.964 431.397C360.943 431.433 360.932 431.473 360.932 431.513C360.923 431.622 360.941 431.732 360.984 431.833C361.028 431.934 361.096 432.024 361.182 432.094C361.692 432.506 363.017 432.548 364.777 432.21C363.506 431.693 361.736 431.091 361.138 431.313H361.117Z" fill="#0CBC4C"/>
<path d="M365.461 432.485H365.33C364.342 432.084 362.366 430.457 362.474 429.581C362.474 429.37 362.648 429.106 363.169 429.042C363.361 429.018 363.555 429.031 363.741 429.08C363.928 429.128 364.102 429.213 364.255 429.327C365.341 430.119 365.591 432.2 365.613 432.284C365.616 432.316 365.611 432.349 365.597 432.378C365.584 432.408 365.563 432.434 365.537 432.453L365.461 432.485ZM363.028 429.454C362.865 429.507 362.854 429.591 362.854 429.623C362.789 430.151 364.136 431.439 365.146 431.988C365.029 431.101 364.626 430.273 363.995 429.623C363.887 429.535 363.762 429.471 363.627 429.435C363.492 429.398 363.351 429.391 363.213 429.412C363.149 429.417 363.087 429.431 363.028 429.454Z" fill="#0CBC4C"/>
<path d="M410.769 431.387L419.522 431.165C419.681 431.159 419.837 431.207 419.966 431.299C420.094 431.391 420.186 431.522 420.228 431.672L422.063 438.525C422.109 438.689 422.116 438.862 422.084 439.029C422.051 439.196 421.98 439.354 421.875 439.491C421.771 439.627 421.635 439.738 421.48 439.816C421.324 439.894 421.152 439.937 420.977 439.94C417.817 439.94 413.245 439.94 409.27 440.014C404.633 440.141 401.668 439.919 396.238 440.014C392.98 440.099 391.894 436.909 393.284 436.582C399.507 435.083 403.568 435.378 408.868 431.999C409.434 431.633 410.09 431.421 410.769 431.387Z" fill="#263238"/>
<path d="M410.019 432.485C408.738 432.759 406.446 433.129 405.545 432.4C405.412 432.293 405.307 432.157 405.239 432.003C405.171 431.849 405.142 431.681 405.154 431.513C405.154 431.413 405.18 431.314 405.232 431.227C405.283 431.14 405.358 431.067 405.447 431.017C406.403 430.457 409.683 431.967 410.052 432.136C410.088 432.15 410.118 432.175 410.138 432.208C410.158 432.24 410.166 432.278 410.161 432.316C410.158 432.355 410.143 432.392 410.117 432.422C410.092 432.452 410.058 432.474 410.019 432.485ZM405.675 431.313H405.61C405.574 431.333 405.545 431.362 405.526 431.398C405.507 431.433 405.498 431.473 405.502 431.513C405.491 431.623 405.508 431.733 405.551 431.834C405.595 431.936 405.664 432.025 405.751 432.094C406.262 432.506 407.576 432.548 409.346 432.21C408.054 431.693 406.283 431.091 405.686 431.313H405.675Z" fill="#0CBC4C"/>
<path d="M410.019 432.485H409.878C408.901 432.084 406.913 430.457 407.033 429.581C407.033 429.37 407.196 429.106 407.717 429.042C407.908 429.017 408.103 429.029 408.29 429.078C408.476 429.127 408.651 429.212 408.803 429.327C409.563 430.15 410.038 431.185 410.16 432.284C410.166 432.316 410.162 432.35 410.148 432.38C410.135 432.41 410.113 432.435 410.084 432.453L410.019 432.485ZM407.576 429.454C407.424 429.507 407.413 429.591 407.413 429.623C407.337 430.151 408.694 431.439 409.704 431.988C409.58 431.104 409.178 430.278 408.553 429.623C408.446 429.536 408.32 429.472 408.186 429.436C408.051 429.399 407.91 429.391 407.771 429.412L407.576 429.454Z" fill="#0CBC4C"/>
<path d="M426.852 263.219C431.066 280.97 423.833 420.626 423.833 420.626H409.867L403.894 304.244L381.903 420.626L366.97 419.57C376.744 329.409 385.356 275.584 385.356 275.584V268.784L426.852 263.219Z" fill="#263238"/>
<path opacity="0.4" d="M366.97 419.57L381.903 420.626L399.214 329.007L403.894 304.244L409.867 420.626H423.833C423.833 420.626 431.066 280.97 426.852 263.219L385.335 268.784V275.584C385.335 275.584 376.733 329.409 366.97 419.57Z" fill="white"/>
<path d="M419.326 197.472C418.898 205.959 419.12 214.466 419.989 222.922C420.575 228.835 421.379 234.421 422.237 239.459C424.246 251.275 426.527 260.135 426.852 263.229L385.335 268.794C370.196 227.61 375.897 203.681 375.897 203.681C379.002 202.435 382.182 201.377 385.421 200.513C386.106 200.334 386.801 200.165 387.517 200.006C393.349 198.891 399.241 198.101 405.165 197.641C406.251 197.546 407.435 197.472 408.542 197.419C414.211 197.145 419.326 197.472 419.326 197.472Z" fill="#263238"/>
<path d="M397.107 178.939C397.411 184.589 398.03 195.191 402.863 197.884C402.863 197.884 399.854 203.449 393.349 204.019C388.43 204.442 388.755 199.721 388.755 199.721C391.601 197.662 390.927 194.167 388.755 190.217L397.107 178.939Z" fill="#E4897B"/>
<path opacity="0.2" d="M393.697 183.543L388.788 190.217C389.305 191.13 389.741 192.084 390.091 193.068C392.372 192.181 394.989 188.844 394.609 186.426C394.49 185.419 394.181 184.442 393.697 183.543Z" fill="black"/>
<path d="M375.93 167.566C374.985 170.502 375.506 176.521 379.709 174.567C383.912 172.614 377.559 162.529 375.93 167.566Z" fill="#263238"/>
<path d="M397.65 171.537C398.117 179.066 398.736 183.448 395.358 187.715C390.222 194.124 380.274 191.738 377.494 184.473C374.996 177.925 374.659 166.711 381.838 162.909C383.429 162.067 385.214 161.632 387.025 161.643C388.837 161.655 390.615 162.113 392.195 162.975C393.775 163.837 395.104 165.074 396.058 166.572C397.012 168.069 397.56 169.777 397.65 171.537Z" fill="#E4897B"/>
<path d="M392.22 167.439V158.991C392.22 158.991 401.429 158.326 401.016 162.909C406.121 165.37 403.71 173.089 396.857 176.869C393.099 173.944 393.534 166.911 393.534 166.911C393.132 167.112 392.676 167.281 392.22 167.439Z" fill="#263238"/>
<path d="M401.396 177.408C401.219 178.329 400.854 179.206 400.322 179.988C399.791 180.77 399.104 181.44 398.301 181.959C396.129 183.343 394.251 181.643 394.175 179.267C394.109 177.155 395.141 173.818 397.639 173.395C398.185 173.312 398.744 173.363 399.266 173.541C399.787 173.72 400.255 174.022 400.627 174.419C401 174.817 401.265 175.298 401.399 175.819C401.533 176.341 401.532 176.887 401.396 177.408Z" fill="#E4897B"/>
<path d="M386.214 174.895C386.29 175.507 386.019 176.035 385.606 176.077C385.193 176.12 384.802 175.666 384.726 175.021C384.65 174.377 384.922 173.881 385.324 173.839C385.726 173.796 386.138 174.24 386.214 174.895Z" fill="#263238"/>
<path d="M379.112 175.666C379.188 176.278 378.916 176.806 378.504 176.848C378.091 176.891 377.7 176.436 377.624 175.792C377.548 175.148 377.819 174.652 378.232 174.61C378.645 174.567 379.014 175.053 379.112 175.666Z" fill="#263238"/>
<path d="M381.403 175.718C380.854 177.607 380.039 179.412 378.981 181.083C379.45 181.317 379.964 181.452 380.49 181.479C381.016 181.507 381.542 181.426 382.033 181.241L381.403 175.718Z" fill="#DE5753"/>
<path d="M385.693 183.205C385.425 183.272 385.153 183.321 384.878 183.353C384.829 183.353 384.782 183.334 384.748 183.301C384.713 183.267 384.694 183.221 384.694 183.174C384.694 183.126 384.713 183.08 384.748 183.047C384.782 183.013 384.829 182.994 384.878 182.994C385.658 182.925 386.411 182.679 387.075 182.276C387.739 181.872 388.296 181.323 388.701 180.671C388.71 180.65 388.724 180.63 388.741 180.614C388.759 180.599 388.779 180.586 388.802 180.578C388.824 180.57 388.848 180.567 388.872 180.568C388.896 180.57 388.919 180.576 388.94 180.587C388.962 180.597 388.982 180.611 388.999 180.629C389.015 180.647 389.028 180.668 389.036 180.69C389.044 180.713 389.048 180.737 389.046 180.761C389.044 180.785 389.038 180.808 389.027 180.829C388.672 181.429 388.192 181.95 387.618 182.359C387.044 182.769 386.388 183.057 385.693 183.205Z" fill="#263238"/>
<path d="M388.126 172.434C388.06 172.449 387.991 172.447 387.927 172.429C387.862 172.41 387.803 172.376 387.756 172.329C387.442 171.994 387.051 171.734 386.616 171.571C386.181 171.408 385.712 171.346 385.248 171.389C385.2 171.4 385.15 171.401 385.102 171.392C385.053 171.383 385.007 171.365 384.967 171.338C384.926 171.311 384.891 171.277 384.865 171.236C384.838 171.196 384.821 171.151 384.813 171.104C384.804 171.057 384.804 171.009 384.814 170.963C384.823 170.917 384.842 170.872 384.869 170.833C384.897 170.794 384.932 170.76 384.972 170.734C385.013 170.708 385.059 170.69 385.106 170.681C385.693 170.613 386.287 170.682 386.841 170.883C387.394 171.083 387.89 171.408 388.288 171.832C388.324 171.865 388.352 171.904 388.372 171.948C388.391 171.991 388.401 172.038 388.401 172.086C388.401 172.133 388.391 172.18 388.372 172.224C388.352 172.267 388.324 172.307 388.288 172.339C388.242 172.382 388.186 172.415 388.126 172.434Z" fill="#263238"/>
<path d="M375.756 173.628C375.686 173.654 375.609 173.654 375.539 173.628C375.447 173.596 375.371 173.531 375.329 173.446C375.286 173.361 375.28 173.263 375.311 173.173C375.49 172.63 375.802 172.137 376.22 171.736C376.638 171.335 377.149 171.038 377.711 170.871C377.806 170.848 377.907 170.861 377.991 170.91C378.076 170.958 378.137 171.038 378.161 171.13C378.186 171.222 378.172 171.321 378.122 171.403C378.072 171.485 377.99 171.545 377.895 171.568C377.451 171.701 377.048 171.939 376.72 172.259C376.393 172.579 376.151 172.973 376.017 173.406C375.996 173.461 375.961 173.511 375.916 173.549C375.87 173.588 375.815 173.615 375.756 173.628Z" fill="#263238"/>
<path d="M396.303 170.565C396.303 170.565 390.873 168.633 388.397 165.57C388.397 165.57 383.467 166.827 382.457 168.738C381.996 168.354 381.698 167.818 381.619 167.233C381.541 166.648 381.688 166.056 382.033 165.57C382.033 165.57 378.341 166.331 377.613 168.738C377.013 168.46 376.52 168.003 376.208 167.433C375.895 166.862 375.778 166.21 375.875 165.57C375.875 165.57 374.236 166.172 373.703 168.738C373.703 168.738 369.631 160.48 383.086 158.115C382.068 157.779 381.001 157.604 379.926 157.597C379.926 157.597 389.32 153.912 396.759 157.281C404.198 160.649 402.906 167.175 396.303 170.565Z" fill="#263238"/>
<path d="M430.056 270.336L417.024 272.026C417.024 272.026 411.648 235.499 409.281 223.703V198.528L416.09 196.786L421.368 198.528C422.816 203.593 423.929 208.743 424.702 213.946C425.343 217.895 425.918 222.119 426.429 226.396C427.135 232.225 427.721 238.16 428.221 243.714C429.003 252.68 429.524 260.61 429.806 265.457C429.969 268.499 430.056 270.336 430.056 270.336Z" fill="#0CBC4C"/>
<path d="M409.292 223.682C409.292 223.682 410.378 205.909 416.101 196.743C416.101 196.743 415.96 194.124 414.819 193.702C413.679 193.28 409.292 195.814 409.292 195.814C409.292 195.814 406.566 193.998 405.969 194.843C405.371 195.687 403.916 201.305 409.292 223.682Z" fill="#0CBC4C"/>
<path opacity="0.7" d="M409.292 223.682C409.292 223.682 410.378 205.909 416.101 196.743C416.101 196.743 415.96 194.124 414.819 193.702C413.679 193.28 409.292 195.814 409.292 195.814C409.292 195.814 406.566 193.998 405.969 194.843C405.371 195.687 403.916 201.305 409.292 223.682Z" fill="white"/>
<path d="M379.666 275.204L381.153 276.26C381.153 276.26 378.981 264.486 379.872 234.707C379.872 233.27 379.97 231.887 380.024 230.567C381.11 205.371 385.15 200.788 385.454 200.513L381.696 201.759L374.887 204.04C372.835 225.53 379.666 275.204 379.666 275.204Z" fill="#0CBC4C"/>
<path d="M380.252 226.227C380.252 226.227 376.494 208.951 377.613 202.995C378.732 197.039 382.739 199.69 382.739 199.69C382.739 199.69 386.42 196.796 387.517 199.985C387.517 199.985 382.457 203.449 380.252 226.227Z" fill="#0CBC4C"/>
<path opacity="0.7" d="M380.252 226.227C380.252 226.227 376.494 208.951 377.613 202.995C378.732 197.039 382.739 199.69 382.739 199.69C382.739 199.69 386.42 196.796 387.517 199.985C387.517 199.985 382.457 203.449 380.252 226.227Z" fill="white"/>
<path opacity="0.2" d="M426.407 226.354C420.847 223.323 420.108 215.413 420.108 215.413C420.445 215.287 422.508 214.6 424.68 213.903C425.321 217.853 425.897 222.077 426.407 226.354Z" fill="black"/>
<path opacity="0.2" d="M399.214 329.007L403.894 304.244L402.993 291.139C402.993 291.139 396.575 313.864 399.214 329.007Z" fill="black"/>
<path opacity="0.2" d="M429.785 265.415C426.288 265.183 423.269 264.961 423.269 264.961L422.606 251.138C423.696 250.475 425.005 250.24 426.266 250.483C427.125 248.275 427.776 245.995 428.21 243.672C428.97 252.637 429.502 260.579 429.785 265.415Z" fill="black"/>
<path d="M430.979 243.661L424.17 254.295L429.556 257.305L435.953 247.727L430.979 243.661Z" fill="#E4897B"/>
<path d="M421.075 198.359C425.658 198.845 445.141 224.844 445.998 232.679C446.856 240.515 434.552 254.042 434.552 254.042L426.342 249.343C426.342 249.343 434.682 236.871 435.117 233.503C435.551 230.134 419.858 216.522 419.858 216.522C418.672 213.387 418.019 210.084 417.925 206.744C417.708 201.02 421.075 198.359 421.075 198.359Z" fill="#0CBC4C"/>
<path d="M422.595 251.148C422.595 251.148 429.6 252.606 432.423 256.893C432.423 256.893 429.491 265.816 427.395 266.788C425.299 267.759 420.108 267.759 420.108 267.759C420.108 267.759 419.772 257.833 422.595 251.148Z" fill="#0CBC4C"/>
</svg>
