<svg width="550" height="550" viewBox="0 0 550 550" fill="none" xmlns="http://www.w3.org/2000/svg">
<g clip-path="url(#clip0_499_2)">
<path d="M171.479 361.691C289.27 361.691 384.758 356.116 384.758 349.239C384.758 342.362 289.27 336.787 171.479 336.787C53.6885 336.787 -41.7998 342.362 -41.7998 349.239C-41.7998 356.116 53.6885 361.691 171.479 361.691Z" fill="#F5F5F5"/>
<path d="M322.872 349.514H102.938V294.36H322.872C324.004 294.36 325.089 294.81 325.89 295.61C326.69 296.41 327.14 297.496 327.14 298.628V345.246C327.14 346.378 326.69 347.464 325.89 348.264C325.089 349.064 324.004 349.514 322.872 349.514Z" fill="#22CA5E"/>
<path opacity="0.2" d="M322.872 349.514H102.938V294.36H322.872C324.004 294.36 325.089 294.81 325.89 295.61C326.69 296.41 327.14 297.496 327.14 298.628V345.246C327.14 346.378 326.69 347.464 325.89 348.264C325.089 349.064 324.004 349.514 322.872 349.514Z" fill="black"/>
<path opacity="0.2" d="M156.86 349.514H190.509V294.36H156.86V349.514Z" fill="black"/>
<path opacity="0.2" d="M204.962 349.514H222.023V294.36H204.962V349.514Z" fill="black"/>
<path d="M30.0849 294.36H102.927V349.514H30.0849C28.9471 349.514 27.856 349.062 27.0514 348.257C26.2469 347.453 25.7949 346.362 25.7949 345.224V298.65C25.7949 297.512 26.2469 296.421 27.0514 295.616C27.856 294.812 28.9471 294.36 30.0849 294.36Z" fill="#22CA5E"/>
<path opacity="0.9" d="M25.7949 300.289H89.5179C91.0029 300.289 92.427 300.879 93.477 301.929C94.527 302.979 95.1169 304.403 95.1169 305.888V337.975C95.1169 339.46 94.527 340.884 93.477 341.934C92.427 342.984 91.0029 343.574 89.5179 343.574H25.7949V300.289Z" fill="white"/>
<path opacity="0.2" d="M296.318 337.711C305.03 337.711 312.092 330.649 312.092 321.937C312.092 313.225 305.03 306.163 296.318 306.163C287.606 306.163 280.544 313.225 280.544 321.937C280.544 330.649 287.606 337.711 296.318 337.711Z" fill="black"/>
<path d="M338.799 294.316L118.799 294.316V254.287L338.799 254.287C339.931 254.287 341.017 254.737 341.817 255.537C342.618 256.337 343.067 257.423 343.067 258.555V290.092C343.056 291.216 342.601 292.291 341.802 293.082C341.003 293.872 339.924 294.316 338.799 294.316Z" fill="#263238"/>
<path opacity="0.2" d="M338.799 294.316L118.799 294.316V254.287L338.799 254.287C339.931 254.287 341.017 254.737 341.817 255.537C342.618 256.337 343.067 257.423 343.067 258.555V290.092C343.056 291.216 342.601 292.291 341.802 293.082C341.003 293.872 339.924 294.316 338.799 294.316Z" fill="black"/>
<path d="M46.0019 254.375H118.844V294.404H46.0019C44.8641 294.404 43.773 293.952 42.9684 293.147C42.1639 292.343 41.7119 291.252 41.7119 290.114V258.621C41.7235 257.491 42.1806 256.411 42.9839 255.616C43.7872 254.821 44.8717 254.375 46.0019 254.375Z" fill="#263238"/>
<path opacity="0.9" d="M41.6787 260.26H105.479C106.964 260.26 108.388 260.85 109.438 261.9C110.488 262.95 111.078 264.374 111.078 265.859V282.854C111.081 283.591 110.938 284.322 110.658 285.003C110.378 285.685 109.966 286.305 109.446 286.827C108.925 287.35 108.307 287.764 107.626 288.047C106.946 288.329 106.216 288.475 105.479 288.475H41.6787V260.26Z" fill="white"/>
<path opacity="0.3" d="M164.89 284.878H318.78C321.325 284.878 323.389 282.814 323.389 280.269V268.411C323.389 265.866 321.325 263.802 318.78 263.802H164.89C162.344 263.802 160.281 265.866 160.281 268.411V280.269C160.281 282.814 162.344 284.878 164.89 284.878Z" fill="#22CA5E"/>
<path opacity="0.3" d="M127.192 294.36H133.033V254.331H127.192V294.36Z" fill="#22CA5E"/>
<path opacity="0.3" d="M137.851 294.36H143.692V254.331H137.851V294.36Z" fill="#22CA5E"/>
<path d="M314.446 254.331L94.5228 254.331V212.993L314.446 212.993C315.578 212.993 316.663 213.443 317.464 214.243C318.264 215.043 318.714 216.129 318.714 217.261V250.063C318.714 251.195 318.264 252.281 317.464 253.081C316.663 253.881 315.578 254.331 314.446 254.331Z" fill="#22CA5E"/>
<path opacity="0.3" d="M314.446 254.331L94.5228 254.331V212.993L314.446 212.993C315.578 212.993 316.663 213.443 317.464 214.243C318.264 215.043 318.714 216.129 318.714 217.261V250.063C318.714 251.195 318.264 252.281 317.464 253.081C316.663 253.881 315.578 254.331 314.446 254.331Z" fill="black"/>
<path opacity="0.9" d="M148.445 254.331H224.807V213.037H148.445V254.331Z" fill="white"/>
<path opacity="0.9" d="M257.608 254.331H296.328V213.037H257.608V254.331Z" fill="white"/>
<path d="M21.6806 213.037H94.4786V254.375H21.6806C21.1173 254.375 20.5594 254.264 20.0389 254.048C19.5184 253.833 19.0455 253.517 18.6471 253.118C18.2488 252.72 17.9328 252.247 17.7172 251.727C17.5016 251.206 17.3906 250.648 17.3906 250.085V217.327C17.3906 216.764 17.5016 216.206 17.7172 215.685C17.9328 215.165 18.2488 214.692 18.6471 214.293C19.0455 213.895 19.5184 213.579 20.0389 213.364C20.5594 213.148 21.1173 213.037 21.6806 213.037Z" fill="#22CA5E"/>
<path opacity="0.9" d="M17.3906 218.955H81.1136C82.5986 218.955 84.0227 219.545 85.0727 220.595C86.1227 221.645 86.7126 223.069 86.7126 224.554V242.803C86.7126 244.288 86.1227 245.712 85.0727 246.762C84.0227 247.812 82.5986 248.402 81.1136 248.402H17.3906V218.955Z" fill="white"/>
<path d="M330.351 213.037L110.428 213.037V185.647L330.351 185.647C331.483 185.647 332.569 186.097 333.369 186.897C334.169 187.697 334.619 188.783 334.619 189.915V208.769C334.619 209.901 334.169 210.986 333.369 211.787C332.569 212.587 331.483 213.037 330.351 213.037Z" fill="#22CA5E"/>
<path opacity="0.3" d="M330.351 213.037L110.428 213.037V185.647L330.351 185.647C331.483 185.647 332.569 186.097 333.369 186.897C334.169 187.697 334.619 188.783 334.619 189.915V208.769C334.619 209.901 334.169 210.986 333.369 211.787C332.569 212.587 331.483 213.037 330.351 213.037Z" fill="white"/>
<path opacity="0.2" d="M330.351 213.037L110.428 213.037V185.647L330.351 185.647C331.483 185.647 332.569 186.097 333.369 186.897C334.169 187.697 334.619 188.783 334.619 189.915V208.769C334.619 209.901 334.169 210.986 333.369 211.787C332.569 212.587 331.483 213.037 330.351 213.037Z" fill="black"/>
<path d="M37.5869 185.647H110.429V213.037H37.5869C36.4491 213.037 35.3579 212.585 34.5534 211.78C33.7489 210.976 33.2969 209.885 33.2969 208.747V189.937C33.2969 188.799 33.7489 187.708 34.5534 186.904C35.3579 186.099 36.4491 185.647 37.5869 185.647Z" fill="#22CA5E"/>
<path opacity="0.3" d="M37.5869 185.647H110.429V213.037H37.5869C36.4491 213.037 35.3579 212.585 34.5534 211.78C33.7489 210.976 33.2969 209.885 33.2969 208.747V189.937C33.2969 188.799 33.7489 187.708 34.5534 186.904C35.3579 186.099 36.4491 185.647 37.5869 185.647Z" fill="white"/>
<path opacity="0.9" d="M33.2969 191.576H97.0089C98.4938 191.576 99.918 192.166 100.968 193.216C102.018 194.266 102.608 195.69 102.608 197.175V201.575C102.582 203.043 101.981 204.442 100.933 205.47C99.8862 206.499 98.4768 207.075 97.0089 207.075H33.2969V191.576Z" fill="white"/>
<path opacity="0.4" d="M130.108 205.821H229.79V192.874H130.108V205.821Z" fill="#263238"/>
<path d="M148.268 176.583H179.717V185.658H148.268C148.082 185.658 147.903 185.584 147.771 185.452C147.639 185.32 147.564 185.141 147.564 184.954V177.254C147.573 177.073 147.651 176.902 147.782 176.777C147.913 176.652 148.087 176.583 148.268 176.583Z" fill="#22CA5E"/>
<path opacity="0.2" d="M148.268 176.583H179.717V185.658H148.268C148.082 185.658 147.903 185.584 147.771 185.452C147.639 185.32 147.564 185.141 147.564 184.954V177.254C147.573 177.073 147.651 176.902 147.782 176.777C147.913 176.652 148.087 176.583 148.268 176.583Z" fill="black"/>
<path d="M191.708 185.669L179.762 185.669V176.594H191.752C191.939 176.594 192.118 176.668 192.25 176.8C192.382 176.932 192.456 177.111 192.456 177.298V184.998C192.452 185.091 192.429 185.183 192.389 185.268C192.349 185.352 192.292 185.428 192.223 185.49C192.153 185.553 192.072 185.601 191.983 185.632C191.895 185.662 191.801 185.675 191.708 185.669Z" fill="#22CA5E"/>
<path opacity="0.9" d="M192.423 184.69H181.94C181.695 184.69 181.46 184.593 181.286 184.419C181.113 184.246 181.016 184.011 181.016 183.766V178.486C181.016 178.241 181.113 178.006 181.286 177.833C181.46 177.659 181.695 177.562 181.94 177.562H192.423V184.69Z" fill="white"/>
<path d="M145.65 169.994H177.099V176.594H145.65C145.464 176.594 145.285 176.52 145.153 176.388C145.021 176.256 144.946 176.077 144.946 175.89V170.709C144.945 170.616 144.962 170.523 144.997 170.436C145.031 170.349 145.083 170.271 145.149 170.204C145.214 170.137 145.292 170.085 145.378 170.049C145.465 170.013 145.557 169.994 145.65 169.994Z" fill="#263238"/>
<path opacity="0.2" d="M145.65 169.994H177.099V176.594H145.65C145.464 176.594 145.285 176.52 145.153 176.388C145.021 176.256 144.946 176.077 144.946 175.89V170.709C144.945 170.616 144.962 170.523 144.997 170.436C145.031 170.349 145.083 170.271 145.149 170.204C145.214 170.137 145.292 170.085 145.378 170.049C145.465 170.013 145.557 169.994 145.65 169.994Z" fill="black"/>
<path d="M189.09 176.594H177.1V169.994H189.09C189.277 169.994 189.456 170.068 189.588 170.2C189.72 170.332 189.794 170.511 189.794 170.698V175.879C189.795 175.972 189.778 176.065 189.743 176.152C189.709 176.238 189.657 176.317 189.592 176.384C189.526 176.45 189.448 176.503 189.362 176.539C189.276 176.575 189.183 176.594 189.09 176.594Z" fill="#263238"/>
<path opacity="0.9" d="M189.805 175.615H179.322C179.2 175.615 179.08 175.591 178.968 175.545C178.856 175.498 178.754 175.43 178.668 175.344C178.583 175.259 178.514 175.157 178.468 175.045C178.422 174.932 178.398 174.812 178.398 174.691V171.897C178.398 171.652 178.495 171.417 178.668 171.244C178.842 171.07 179.077 170.973 179.322 170.973H189.805V175.615Z" fill="white"/>
<path d="M149.654 163.207H181.103V170.005H149.654C149.467 170.005 149.288 169.931 149.156 169.799C149.024 169.667 148.95 169.488 148.95 169.301V163.911C148.95 163.819 148.968 163.727 149.004 163.642C149.039 163.556 149.091 163.479 149.156 163.413C149.222 163.348 149.299 163.296 149.385 163.261C149.47 163.225 149.562 163.207 149.654 163.207Z" fill="#22CA5E"/>
<path opacity="0.3" d="M149.654 163.207H181.103V170.005H149.654C149.467 170.005 149.288 169.931 149.156 169.799C149.024 169.667 148.95 169.488 148.95 169.301V163.911C148.95 163.819 148.968 163.727 149.004 163.642C149.039 163.556 149.091 163.479 149.156 163.413C149.222 163.348 149.299 163.296 149.385 163.261C149.47 163.225 149.562 163.207 149.654 163.207Z" fill="black"/>
<path d="M193.094 169.994H181.104V163.196H193.094C193.28 163.196 193.46 163.27 193.592 163.402C193.724 163.534 193.798 163.713 193.798 163.9V169.279C193.799 169.372 193.782 169.465 193.747 169.552C193.713 169.638 193.661 169.717 193.596 169.784C193.53 169.85 193.452 169.903 193.366 169.939C193.28 169.975 193.187 169.994 193.094 169.994Z" fill="#22CA5E"/>
<path opacity="0.9" d="M193.798 169.026H183.315C183.07 169.026 182.835 168.929 182.661 168.755C182.488 168.582 182.391 168.347 182.391 168.102V165.099C182.391 164.854 182.488 164.619 182.661 164.446C182.835 164.272 183.07 164.175 183.315 164.175H193.798V169.026Z" fill="white"/>
<path d="M147.037 158.675H178.486V163.185H147.037C146.85 163.185 146.671 163.111 146.539 162.979C146.407 162.847 146.333 162.668 146.333 162.481V159.379C146.333 159.192 146.407 159.013 146.539 158.881C146.671 158.749 146.85 158.675 147.037 158.675Z" fill="#22CA5E"/>
<path opacity="0.3" d="M147.037 158.675H178.486V163.185H147.037C146.85 163.185 146.671 163.111 146.539 162.979C146.407 162.847 146.333 162.668 146.333 162.481V159.379C146.333 159.192 146.407 159.013 146.539 158.881C146.671 158.749 146.85 158.675 147.037 158.675Z" fill="white"/>
<path opacity="0.2" d="M147.037 158.675H178.486V163.185H147.037C146.85 163.185 146.671 163.111 146.539 162.979C146.407 162.847 146.333 162.668 146.333 162.481V159.379C146.333 159.192 146.407 159.013 146.539 158.881C146.671 158.749 146.85 158.675 147.037 158.675Z" fill="black"/>
<path d="M190.486 163.229H178.496V158.719H190.486C190.673 158.719 190.852 158.793 190.984 158.925C191.116 159.057 191.19 159.236 191.19 159.423V162.514C191.192 162.607 191.175 162.7 191.14 162.787C191.105 162.873 191.054 162.952 190.988 163.019C190.923 163.085 190.844 163.138 190.758 163.174C190.672 163.21 190.58 163.229 190.486 163.229Z" fill="#22CA5E"/>
<path opacity="0.3" d="M190.486 163.229H178.496V158.719H190.486C190.673 158.719 190.852 158.793 190.984 158.925C191.116 159.057 191.19 159.236 191.19 159.423V162.514C191.192 162.607 191.175 162.7 191.14 162.787C191.105 162.873 191.054 162.952 190.988 163.019C190.923 163.085 190.844 163.138 190.758 163.174C190.672 163.21 190.58 163.229 190.486 163.229Z" fill="white"/>
<path opacity="0.9" d="M191.18 162.228H180.697C180.452 162.228 180.217 162.131 180.043 161.957C179.87 161.784 179.773 161.549 179.773 161.304V160.589C179.773 160.344 179.87 160.109 180.043 159.936C180.217 159.762 180.452 159.665 180.697 159.665H191.18V162.217V162.228Z" fill="white"/>
<path d="M145.65 152.075H177.099V158.675H145.65C145.464 158.675 145.285 158.601 145.153 158.469C145.021 158.337 144.946 158.158 144.946 157.971V152.79C144.945 152.697 144.962 152.604 144.997 152.517C145.031 152.431 145.083 152.352 145.149 152.285C145.214 152.219 145.292 152.166 145.378 152.13C145.465 152.094 145.557 152.075 145.65 152.075Z" fill="#263238"/>
<path opacity="0.2" d="M145.65 152.075H177.099V158.675H145.65C145.464 158.675 145.285 158.601 145.153 158.469C145.021 158.337 144.946 158.158 144.946 157.971V152.79C144.945 152.697 144.962 152.604 144.997 152.517C145.031 152.431 145.083 152.352 145.149 152.285C145.214 152.219 145.292 152.166 145.378 152.13C145.465 152.094 145.557 152.075 145.65 152.075Z" fill="black"/>
<path d="M185.097 158.73H177.133V152.13H185.13C185.317 152.13 185.496 152.204 185.628 152.336C185.76 152.468 185.834 152.647 185.834 152.834V158.015C185.835 158.111 185.817 158.207 185.781 158.296C185.744 158.385 185.689 158.465 185.62 158.532C185.551 158.599 185.469 158.651 185.379 158.685C185.289 158.719 185.193 158.735 185.097 158.73Z" fill="#263238"/>
<path opacity="0.9" d="M185.812 157.718H179.322C179.076 157.718 178.841 157.621 178.668 157.447C178.495 157.274 178.398 157.039 178.398 156.794V154C178.398 153.755 178.495 153.52 178.668 153.347C178.841 153.173 179.076 153.076 179.322 153.076H185.812V157.718Z" fill="white"/>
<path d="M149.654 145.31H181.103V152.075H149.654C149.467 152.075 149.288 152.001 149.156 151.869C149.024 151.737 148.95 151.558 148.95 151.371V145.981C148.959 145.8 149.037 145.629 149.168 145.504C149.299 145.379 149.473 145.31 149.654 145.31Z" fill="#22CA5E"/>
<path opacity="0.3" d="M149.654 145.31H181.103V152.075H149.654C149.467 152.075 149.288 152.001 149.156 151.869C149.024 151.737 148.95 151.558 148.95 151.371V145.981C148.959 145.8 149.037 145.629 149.168 145.504C149.299 145.379 149.473 145.31 149.654 145.31Z" fill="black"/>
<path d="M189.101 152.108H181.104V145.343H189.101C189.287 145.343 189.466 145.417 189.599 145.549C189.731 145.681 189.805 145.86 189.805 146.047V151.426C189.799 151.609 189.722 151.782 189.591 151.91C189.459 152.037 189.284 152.108 189.101 152.108Z" fill="#22CA5E"/>
<path opacity="0.9" d="M189.805 151.129H183.315C183.07 151.129 182.835 151.032 182.661 150.858C182.488 150.685 182.391 150.45 182.391 150.205V147.202C182.391 146.957 182.488 146.722 182.661 146.549C182.835 146.375 183.07 146.278 183.315 146.278H189.805V151.129Z" fill="white"/>
<path d="M147.037 140.811H178.486V145.321H147.037C146.85 145.321 146.671 145.247 146.539 145.115C146.407 144.983 146.333 144.804 146.333 144.617V141.515C146.333 141.328 146.407 141.149 146.539 141.017C146.671 140.885 146.85 140.811 147.037 140.811Z" fill="#22CA5E"/>
<path opacity="0.3" d="M147.037 140.811H178.486V145.321H147.037C146.85 145.321 146.671 145.247 146.539 145.115C146.407 144.983 146.333 144.804 146.333 144.617V141.515C146.333 141.328 146.407 141.149 146.539 141.017C146.671 140.885 146.85 140.811 147.037 140.811Z" fill="white"/>
<path opacity="0.2" d="M147.037 140.811H178.486V145.321H147.037C146.85 145.321 146.671 145.247 146.539 145.115C146.407 144.983 146.333 144.804 146.333 144.617V141.515C146.333 141.328 146.407 141.149 146.539 141.017C146.671 140.885 146.85 140.811 147.037 140.811Z" fill="black"/>
<path d="M186.493 145.31H178.496V140.8H186.493C186.68 140.8 186.859 140.874 186.991 141.006C187.123 141.138 187.197 141.317 187.197 141.504V144.606C187.197 144.793 187.123 144.972 186.991 145.104C186.859 145.236 186.68 145.31 186.493 145.31Z" fill="#22CA5E"/>
<path opacity="0.3" d="M186.493 145.31H178.496V140.8H186.493C186.68 140.8 186.859 140.874 186.991 141.006C187.123 141.138 187.197 141.317 187.197 141.504V144.606C187.197 144.793 187.123 144.972 186.991 145.104C186.859 145.236 186.68 145.31 186.493 145.31Z" fill="white"/>
<path opacity="0.9" d="M187.187 144.342H180.697C180.451 144.342 180.216 144.245 180.043 144.071C179.87 143.898 179.773 143.663 179.773 143.418V142.703C179.773 142.458 179.87 142.223 180.043 142.05C180.216 141.876 180.451 141.779 180.697 141.779H187.187V144.331V144.342Z" fill="white"/>
<path d="M427.977 481.79L424.798 480.437L427.801 479.414L427.977 481.79Z" fill="#263238"/>
<path d="M397.639 489.258C397.639 489.258 433.213 470.635 433.774 473.077C433.898 473.563 433.921 474.068 433.84 474.562C433.84 474.562 433.906 474.474 433.928 474.43L433.521 479.083C431.985 480.493 430.076 481.433 428.021 481.789C428.021 481.569 427.9 480.194 427.845 479.413C426.742 479.941 425.696 480.579 424.721 481.316C422.521 482.999 421.124 485.804 418.825 489.104C417.142 491.513 413.985 492.778 409.244 493.724C404.14 494.747 399.564 494.021 398.244 492.701C397.867 492.222 397.614 491.657 397.509 491.056C397.403 490.455 397.448 489.838 397.639 489.258Z" fill="#263238"/>
<path d="M398.585 488.137C398.915 487.752 400.136 486.234 401.808 484.562C403.271 483.11 404.965 481.262 406.813 479.755C408.308 478.33 409.705 476.804 410.993 475.19C412.759 472.859 414.26 470.339 415.47 467.677C415.976 466.39 416.339 464.872 416.031 460.131C415.613 453.531 415.349 452.024 415.041 446.986L433.466 445.765C433.114 448.581 432.366 452.54 431.937 456.357C431.442 461.186 429.88 461.726 432.025 466.445C432.811 467.75 433.382 469.172 433.719 470.657C433.972 473.121 432.157 475.366 430.078 476.686C428.34 477.786 426.305 478.336 424.633 479.502C422.938 480.816 421.489 482.422 420.354 484.243C419.254 485.893 418.33 487.818 416.669 489.028C414.909 490.208 412.931 491.023 410.85 491.426C408.243 492.051 405.567 492.34 402.886 492.284C399.113 492.207 396.187 490.975 398.585 488.137Z" fill="#FFBDA7"/>
<path d="M412.412 479.986C411.534 479.546 410.572 479.301 409.59 479.267C408.609 479.233 407.632 479.411 406.725 479.788C404.151 482.076 402.039 484.111 400.543 485.53C398.728 487.246 397.133 488.83 397.309 490.667C397.584 493.56 408.837 493.802 414.909 490.667C416.795 489.888 418.303 488.404 419.111 486.531C419.111 486.531 417.989 482.538 412.412 479.986ZM433.114 468.359C432.014 466.544 431.64 465.609 431.64 465.609C429.528 466.929 426.052 472.605 428.098 478.006C429.211 477.73 430.254 477.227 431.163 476.528C432.072 475.83 432.826 474.951 433.378 473.947C433.865 473.085 434.098 472.103 434.051 471.114C434.004 470.126 433.68 469.171 433.114 468.359Z" fill="#37474F"/>
<path d="M462.913 470.053C461.989 471.714 463.771 479.887 463.87 484.111C463.958 487.961 463.969 494.847 465.531 498.499C467.39 502.833 470.844 507.739 476.168 503.009C479.468 500.072 481.206 496.519 481.239 490.975C481.239 487.114 479.204 481.988 477.411 477.423C475.332 472.099 474.474 469.228 474.474 469.228L462.913 470.053Z" fill="#263238"/>
<path d="M472.814 443.245C473.914 452.122 473.914 457.204 474.343 462.924C474.63 465.909 475.096 468.873 475.74 471.801C476.521 475.453 478.072 480.337 478.842 482.647C479.942 485.87 480.679 487.894 479.755 491.711C479.672 492.012 479.558 492.304 479.414 492.58C477.951 495.803 473.782 498.52 472.363 498.278C472.094 498.649 471.731 498.941 471.311 499.122C470.891 499.304 470.43 499.37 469.976 499.312L469.514 499.235C469.35 499.202 469.188 499.158 469.03 499.103C468.45 498.873 467.924 498.524 467.486 498.079C467.049 497.634 466.709 497.102 466.489 496.518C466.39 496.276 466.291 496.012 466.203 495.726C465.263 492.738 464.803 489.619 464.839 486.486C464.773 484.396 464.454 480.766 463.992 477.444C463.53 474.122 461.022 465.014 459.592 460.02C458.492 455.895 456.226 447.414 456.226 447.414L472.814 443.245Z" fill="#FFBDA7"/>
<path d="M480.04 486.86C476.498 485.76 466.279 486.706 465.047 491.359C465.355 495.616 465.806 498.322 468.985 501.732C473.198 506.275 477.785 500.632 479.435 497.112C480.751 493.853 480.963 490.252 480.04 486.86Z" fill="#37474F"/>
<path d="M460.186 325.908C463.761 334.642 467.149 344.256 467.699 362.758C468.436 387.145 469.58 395.956 469.822 398.893C470.229 403.898 472.385 408.441 474.706 422.818C477.027 437.195 475.806 463.595 475.806 463.595C473.301 465.814 470.205 467.255 466.896 467.742C461.825 468.49 459.592 466.499 459.592 466.499C459.592 466.499 449.934 427.581 447.492 418.979C445.05 410.377 437.801 382.052 437.801 382.052L434.93 405.867C434.93 405.867 437.801 413.369 436.965 426.14C436.129 438.911 431.619 462.836 431.619 462.836C431.619 462.836 428.913 464.904 423.424 464.629C417.935 464.354 415.724 462.429 415.724 462.429C415.724 462.429 410.807 415.008 409.993 400.631C409.179 386.254 407.155 348.403 412.402 325.831L460.186 325.908Z" fill="#455A64"/>
<path d="M416.361 349.24C418.869 355.048 426.998 358.754 430.507 359.392L435.875 381.844L434.94 405.868L437.811 382.053L431.684 354.663C431.684 354.663 422.026 354.52 416.361 349.24ZM449.086 344.465C449.79 346.764 450.439 349.086 451.121 351.396C451.803 353.706 452.463 356.038 453.178 358.37C453.063 355.934 452.766 353.511 452.287 351.121C451.836 348.734 451.242 346.368 450.56 344.025C449.861 341.689 449.031 339.394 448.074 337.15C447.144 334.889 445.972 332.735 444.576 330.727C445.434 333.015 446.215 335.281 446.963 337.569C447.711 339.857 448.415 342.155 449.086 344.465ZM452.914 339.736C453.783 341.1 454.608 342.486 455.433 343.872L457.897 348.096C457.641 346.455 457.175 344.854 456.511 343.332C455.863 341.809 455.098 340.338 454.223 338.932C453.344 337.533 452.37 336.195 451.308 334.929C450.257 333.652 449.086 332.481 447.81 331.431C448.613 332.883 449.482 334.257 450.34 335.632C451.198 337.007 452.078 338.361 452.914 339.736ZM453.046 405.604C451.242 398.234 449.823 390.765 448.415 383.285C447.007 375.805 445.665 368.336 444.213 360.823C445.115 368.391 446.094 375.947 447.271 383.482C448.448 391.017 449.79 398.53 451.594 405.966C453.398 413.402 455.378 420.729 457.369 428.088C459.36 435.447 461.406 442.784 463.562 450.088C461.978 442.63 460.302 435.194 458.535 427.78C456.742 420.388 454.894 412.963 453.013 405.604H453.046ZM415.272 382.636L415.624 362.737C414.887 369.337 414.392 375.937 414.073 382.603C413.754 389.269 413.512 395.858 413.787 402.568C414.315 409.234 415.118 415.768 415.987 422.368C416.856 428.968 417.78 435.568 418.858 442.08C418.374 435.48 417.813 428.88 417.175 422.28L416.229 412.38C415.921 409.08 415.569 405.78 415.349 402.48C415.129 399.18 415.195 395.88 415.206 392.58C415.217 389.28 415.239 385.936 415.272 382.636Z" fill="#37474F"/>
<path d="M352.451 249.59C351.505 249.161 351.109 250.063 351.56 250.91C352.66 252.901 355.377 253.407 356.499 254.397C356.752 254.672 359.612 258.797 359.491 259.765C358.578 259.094 355.872 256.74 354.915 256.113C353.747 255.516 352.546 254.983 351.318 254.518C350.9 254.288 350.44 254.143 349.965 254.089C349.635 254.089 349.162 254.705 349.591 255.497C350.361 256.905 352.253 257.279 353.573 258.181C354.233 258.599 356.224 260.062 356.565 261.624C354.541 260.524 353.133 260.293 349.756 259.864C349.36 259.864 349.25 259.996 349.206 260.249C349.191 260.471 349.23 260.693 349.32 260.897C349.41 261.1 349.549 261.278 349.723 261.415C350.537 262.108 351.923 262.207 353.32 262.724C354.759 263.335 356.028 264.286 357.016 265.496C357.398 265.928 357.687 266.433 357.863 266.981C358.038 267.685 358.174 268.397 358.27 269.115C358.594 270.515 359.328 271.786 360.379 272.766C361.429 273.746 362.748 274.39 364.166 274.615C364.346 274.671 364.537 274.671 364.716 274.615C364.857 274.527 364.973 274.406 365.056 274.262C365.138 274.118 365.184 273.956 365.189 273.79C365.783 270.578 364.881 267.322 364.408 264.099C364.254 262.999 362.923 255.09 362.824 254.804C362.725 254.518 355.619 250.965 355.388 250.888C354.673 250.635 353.353 250.008 352.451 249.59Z" fill="#F0997A"/>
<path d="M411.752 278.74C409.145 279.433 388.74 284.999 388.74 284.999C388.74 284.999 375.54 274.252 372.922 271.799C369.292 268.367 368.665 265.045 368.093 262.141C367.257 257.972 366.707 257.642 365.167 256.058C364.21 255.079 362.153 252.45 362.076 252.351C361.729 252.021 361.322 251.76 360.877 251.581L359.513 250.855C358.193 250.206 357.313 249.887 356.015 249.238C355.612 249.027 355.188 248.857 354.75 248.732C354.657 248.705 354.558 248.705 354.464 248.732C354.288 248.798 354.233 249.018 354.233 249.205C354.249 249.65 354.355 250.087 354.544 250.489C354.733 250.892 355.002 251.252 355.333 251.548C356.007 252.117 356.745 252.605 357.533 253C358.017 253.264 358.303 253.374 359.271 253.924C359.655 254.158 359.967 254.493 360.173 254.892C361.367 256.678 362.363 258.589 363.143 260.59C361.432 259.74 359.98 258.444 358.941 256.839C357.995 255.332 356.488 256.674 357.192 258.907C358.006 261.492 359.931 262.207 360.932 265.694C361.933 269.181 358.732 271.557 362.164 274.923C364.214 276.546 366.077 278.39 367.719 280.423C370.491 284.152 379.126 295.724 381.128 297.77C385.528 302.17 386.155 301.972 398.321 299.189C415.492 295.273 418.561 294.195 418.561 294.195L426.789 276.199C422.301 276.122 420.541 276.397 411.752 278.74Z" fill="#FFBDA7"/>
<path d="M426.91 275.297C424.71 275.396 424.116 275.473 415.47 277.651C406.824 279.829 388.883 284.647 388.883 284.647L384.395 280.973C383.927 283.115 382.836 285.071 381.26 286.594C379.544 288.342 377.519 289.755 375.287 290.763L379.071 295.592C382.591 300.069 384.439 300.905 385.803 301.444C387.167 301.983 389.103 301.389 392.887 300.663C396.671 299.937 419.166 294.635 419.166 294.635L426.91 275.297Z" fill="#37474F"/>
<path d="M363.165 260.59C364.094 261.232 364.931 261.998 365.651 262.867C365.915 263.219 366.036 262.196 364.881 260.832C363.726 259.468 362.538 259.303 362.329 258.753L363.165 260.59Z" fill="#F0997A"/>
<path d="M470.03 236.401C470.68 235.761 471.138 234.953 471.354 234.067C471.569 233.181 471.534 232.252 471.251 231.385C470.041 227.623 465.949 226.347 462.451 227.194C461.624 225.849 460.45 224.751 459.052 224.015C458.352 223.656 457.585 223.445 456.8 223.395C456.014 223.346 455.227 223.46 454.487 223.729C453.749 224.01 453.104 224.491 452.626 225.119C452.148 225.747 451.855 226.497 451.781 227.282C451.432 227.029 451.145 226.699 450.943 226.318C450.741 225.936 450.629 225.514 450.615 225.082C449.75 225.858 449.195 226.921 449.053 228.074C446.212 226.889 443.138 226.365 440.064 226.542C436.99 226.719 433.997 227.593 431.31 229.097C427.361 231.165 423.313 234.124 421.762 238.502C420.134 243.067 421.762 248.754 424.996 252.197C426.448 253.655 428.028 254.98 429.715 256.157L436.601 261.283C437.996 262.272 439.326 263.348 440.583 264.506C442.066 265.935 443.327 267.577 444.323 269.379C444.532 269.753 444.796 270.193 445.225 270.237C445.478 270.244 445.727 270.175 445.94 270.039C449.881 268.154 453.454 265.58 456.489 262.438C459.266 259.535 461.234 255.955 462.198 252.054C462.443 251.02 462.612 249.968 462.704 248.908H463.804C464.146 248.935 464.49 248.893 464.815 248.783C465.141 248.673 465.44 248.499 465.696 248.27C465.883 248.105 467.005 246.598 466.587 246.367C468.38 247.401 470.613 247.467 471.68 246.532C471.152 246.389 468.787 245.96 468.512 244.332C469.526 244.432 470.541 244.149 471.356 243.538C472.172 242.928 472.73 242.034 472.92 241.033C473.11 240.032 472.919 238.996 472.385 238.129C471.85 237.262 471.01 236.626 470.03 236.346V236.401Z" fill="#263238"/>
<path d="M465.168 338.36C463.188 329.989 460.636 324.698 460.768 322.872C461.395 314.941 464.211 304.656 465.223 300.091C467.423 290.191 462.847 280.863 460.647 278.729L455.4 277.09C453.684 276.551 450.89 275.99 448.261 275.429C442.409 274.186 439.956 274.076 437.734 274.153C436.634 274.153 431.42 274.714 431.42 274.714C429.825 274.967 426.943 275.286 426.932 275.297C423.968 277.643 421.427 280.478 419.419 283.679C416.559 288.079 414.843 291.764 413.71 301.466C412.28 313.83 410.531 327.657 409.926 336.314C419.782 343.343 451.374 345.169 465.168 338.36Z" fill="#F5F5F5"/>
<path d="M451.011 272.405C451.077 270.392 451.33 262.923 451.33 262.923C451.33 263.539 454.542 266.036 457.589 263.198C460.636 260.36 461.219 257.016 459.877 254.684C458.392 252.099 454.454 251.758 452.419 255.443C451.154 256.708 449.295 254.838 450.659 251.175C450.747 248.502 447.282 245.18 449.856 240.945C442.926 235.049 434.291 234.345 429.231 237.755C427.258 242.291 426.05 247.123 425.656 252.055C424.919 260.855 426.756 265.255 429.363 267.092C431.112 268.302 432.784 268.742 436.073 268.863C436.073 268.863 435.996 271.063 435.974 272.372C435.952 273.681 435.369 273.967 433.983 274.253C433.048 274.451 430.683 274.858 430.683 274.858C430.683 274.858 427.108 279.577 435.589 281.095C449.119 283.526 455.389 277.124 455.389 277.124C455.389 277.124 454.828 276.893 452.727 276.211C450.813 275.551 450.945 274.407 451.011 272.405Z" fill="#FFBDA7"/>
<path d="M436.073 268.829C442.002 268.939 447.832 267.729 449.471 265.177C449.354 266.031 449.031 266.843 448.531 267.544C448.031 268.245 447.368 268.815 446.6 269.203C443.036 270.765 436.007 270.897 436.007 270.897L436.073 268.829Z" fill="#F0997A"/>
<path d="M440.022 258.841L434.676 259.864C434.731 260.216 434.857 260.554 435.046 260.856C435.234 261.159 435.481 261.42 435.772 261.625C436.064 261.83 436.393 261.975 436.742 262.051C437.09 262.126 437.45 262.131 437.8 262.064C438.512 261.913 439.139 261.494 439.552 260.895C439.965 260.296 440.133 259.561 440.022 258.841Z" fill="#B16668"/>
<path d="M439.549 259.986C438.856 259.876 438.146 260.013 437.543 260.373C436.94 260.733 436.482 261.292 436.249 261.955C436.725 262.155 437.25 262.209 437.756 262.109C438.267 262.005 438.738 261.76 439.117 261.403C439.496 261.045 439.768 260.588 439.901 260.085C439.813 260.052 439.692 260.008 439.549 259.986Z" fill="#F0997A"/>
<path d="M430.023 243.892L433.708 243.43C433.691 243.189 433.624 242.954 433.513 242.739C433.401 242.524 433.247 242.334 433.06 242.18C432.872 242.027 432.656 241.913 432.423 241.847C432.19 241.78 431.946 241.761 431.706 241.792C431.21 241.86 430.759 242.116 430.446 242.507C430.133 242.898 429.982 243.394 430.023 243.892Z" fill="#263238"/>
<path d="M445.027 245.036L441.43 243.936C441.49 243.699 441.599 243.476 441.748 243.282C441.898 243.087 442.085 242.926 442.299 242.806C442.513 242.687 442.75 242.612 442.993 242.587C443.237 242.562 443.484 242.587 443.718 242.66C444.199 242.813 444.603 243.145 444.847 243.587C445.09 244.029 445.155 244.548 445.027 245.036Z" fill="#263238"/>
<path d="M440.088 250.471C440.082 250.754 440.16 251.033 440.312 251.273C440.465 251.512 440.685 251.7 440.945 251.814C441.205 251.927 441.493 251.961 441.772 251.911C442.052 251.86 442.31 251.728 442.513 251.53C442.717 251.333 442.857 251.079 442.916 250.802C442.976 250.524 442.951 250.235 442.845 249.972C442.74 249.708 442.558 249.482 442.324 249.322C442.09 249.162 441.813 249.076 441.529 249.074C441.343 249.071 441.158 249.104 440.985 249.173C440.811 249.242 440.653 249.344 440.519 249.474C440.386 249.603 440.279 249.758 440.205 249.929C440.131 250.1 440.091 250.284 440.088 250.471Z" fill="#263238"/>
<path d="M428.505 249.36C428.501 249.643 428.581 249.921 428.735 250.159C428.889 250.397 429.11 250.583 429.37 250.695C429.63 250.807 429.918 250.839 430.196 250.787C430.475 250.736 430.732 250.602 430.934 250.404C431.137 250.206 431.276 249.953 431.334 249.675C431.393 249.398 431.367 249.11 431.261 248.847C431.155 248.584 430.974 248.359 430.74 248.199C430.506 248.04 430.229 247.954 429.946 247.952C429.759 247.949 429.573 247.983 429.399 248.052C429.225 248.121 429.066 248.225 428.932 248.355C428.798 248.486 428.692 248.642 428.618 248.815C428.545 248.987 428.506 249.172 428.505 249.36Z" fill="#263238"/>
<path d="M448.954 246.708L457.622 252.879C457.135 252.726 456.622 252.672 456.113 252.721C455.605 252.77 455.112 252.921 454.663 253.166L448.415 248.766L448.954 246.708Z" fill="#455A64"/>
<path d="M424.413 245.983C424.941 247.16 424.611 249.195 425.095 250.537C425.513 253.188 429.99 255.168 432.718 252.869C433.154 252.47 433.525 252.006 433.818 251.494C434.577 250.196 434.643 248.26 435.655 248.194C438.449 248.194 435.248 255.168 442.783 255.597C446.435 255.861 447.535 252.484 448.206 249.745C448.459 248.953 449.119 248.876 449.306 247.886C449.493 246.896 448.701 246.5 447.909 246.39C445.512 245.726 443.024 245.447 440.539 245.565C438.196 245.928 437.327 246.566 436.062 246.401C434.797 246.236 434.192 245.4 432.124 244.465C429.762 243.654 427.272 243.282 424.776 243.365C423.654 243.464 423.94 245.4 424.413 245.983ZM438.713 247.556C440.495 245.928 445.874 246.456 446.875 247.787C447.414 248.568 446.71 250.999 446.259 252.121C446.259 252.253 446.138 252.385 446.061 252.528C445.712 253.235 445.138 253.807 444.43 254.153C443.721 254.499 442.918 254.601 442.145 254.442C441.57 254.398 441.01 254.235 440.501 253.965C439.992 253.694 439.544 253.321 439.186 252.869C438.7 252.08 438.404 251.19 438.322 250.268C438.24 249.346 438.374 248.417 438.713 247.556ZM429.022 244.674C433.125 245.565 434.643 246.72 432.949 250.746C432.3 252.682 429.33 253.408 427.449 252.143C426.911 251.714 426.475 251.17 426.172 250.552C425.87 249.934 425.708 249.256 425.7 248.568C425.37 245.136 425.656 244.278 429.066 244.674H429.022Z" fill="#455A64"/>
<path d="M430.728 254.024L435.326 256.928L437.02 249.514C436.951 249.143 436.792 248.796 436.558 248.502L430.728 254.024Z" fill="#F0997A"/>
<path d="M405.108 354.201C405.066 354.177 405.025 354.152 404.987 354.124L347.655 316.636C347.044 316.199 346.562 315.606 346.259 314.919C345.957 314.232 345.847 313.476 345.939 312.731C346.094 310.639 346.741 308.613 347.829 306.82C348.917 305.027 350.414 303.516 352.198 302.413C352.82 301.98 353.545 301.72 354.3 301.656C355.055 301.592 355.813 301.728 356.499 302.05L417.329 333.829L417.439 333.895L417.659 334.005C419.006 334.79 420.182 335.837 421.12 337.082C422.058 338.328 422.739 339.748 423.122 341.259C423.505 342.771 423.583 344.344 423.351 345.886C423.119 347.428 422.583 348.908 421.773 350.241C420.12 352.962 417.461 354.923 414.372 355.697C411.283 356.471 408.014 355.997 405.273 354.377L405.108 354.201Z" fill="#2EAC58"/>
<path opacity="0.25" d="M352.198 302.335C355.586 300.465 358.281 302.05 358.215 305.878C358.056 307.968 357.407 309.992 356.319 311.785C355.232 313.578 353.737 315.089 351.956 316.196C348.568 318.066 345.873 316.482 345.939 312.654C346.094 310.562 346.741 308.536 347.829 306.743C348.917 304.95 350.414 303.439 352.198 302.335Z" fill="black"/>
<path opacity="0.1" d="M410.795 338.635L357.434 309.551C357.899 308.387 358.163 307.152 358.215 305.9C358.308 305.158 358.199 304.406 357.901 303.721C357.603 303.036 357.127 302.443 356.521 302.005L417.329 333.773L417.439 333.84L417.659 333.949C419.006 334.735 420.183 335.782 421.121 337.027C422.059 338.273 422.739 339.693 423.122 341.204C423.505 342.716 423.583 344.289 423.352 345.831C423.12 347.373 422.584 348.853 421.773 350.185C422.873 346.544 417.813 342.496 410.795 338.635Z" fill="black"/>
<path d="M328.064 299.398C328.156 298.134 328.548 296.909 329.205 295.825C329.863 294.741 330.769 293.828 331.848 293.161C332.223 292.901 332.661 292.744 333.116 292.706C333.572 292.667 334.029 292.748 334.444 292.941L354.75 304.876C355.119 305.141 355.411 305.5 355.593 305.916C355.775 306.333 355.841 306.791 355.784 307.241C355.691 308.506 355.3 309.731 354.642 310.815C353.984 311.899 353.079 312.812 352 313.478C351.624 313.739 351.186 313.896 350.731 313.934C350.275 313.973 349.818 313.892 349.404 313.698L329.098 301.763C328.727 301.5 328.435 301.141 328.253 300.724C328.071 300.308 328.005 299.849 328.064 299.398Z" fill="#E0E0E0"/>
<path opacity="0.25" d="M345.609 299.497L338.063 295.097C336.97 298.485 335.76 301.763 334.433 304.931L341.858 309.331C343.233 306.086 344.487 302.819 345.609 299.497Z" fill="black"/>
<path d="M346.995 217.757L334.103 210.387C324.357 204.755 310.86 205.569 295.955 214.16C266.156 231.375 242 273.208 242 307.66C242 324.864 248.05 336.942 257.818 342.585L270.666 349.932C274.951 352.341 279.798 353.567 284.713 353.486C291.962 353.486 300.113 351.12 308.803 346.115C338.602 328.922 362.703 287.079 362.703 252.616C362.813 235.478 356.741 223.389 346.995 217.757ZM278.113 266.036C287.573 249.668 300.003 236.479 313.137 228.9C320.012 224.918 326.711 222.773 332.519 222.685C333.511 222.659 334.503 222.703 335.489 222.817C339.592 227.965 341.836 235.797 341.836 245.763C341.836 260.921 336.633 278.29 327.184 294.658C317.735 311.026 305.294 324.214 292.171 331.782C285.109 335.863 278.267 338.009 272.371 338.009C271.522 338.011 270.673 337.964 269.83 337.865C269.067 336.909 268.386 335.89 267.795 334.819C264.99 329.825 263.472 323.093 263.472 314.92C263.428 299.806 268.631 282.448 278.113 266.036Z" fill="#455A64"/>
<path opacity="0.1" d="M256.113 257.478L276.386 269.116C276.936 268.104 277.486 267.092 278.091 266.08C280.999 261.034 284.259 256.2 287.848 251.615L267.52 239.955C263.251 245.478 259.437 251.338 256.113 257.478ZM280.665 225.578C278.157 227.888 275.734 230.344 273.394 232.948L293.832 244.674C296.194 242.125 298.695 239.708 301.323 237.436L280.665 225.578Z" fill="white"/>
<path d="M270.6 349.856L257.818 342.551C248.05 336.908 242.011 324.83 242.011 307.626C242.011 306.966 242.011 306.306 242.011 305.635L254.859 312.983C254.859 313.643 254.859 314.303 254.859 314.963C254.859 332.123 260.876 344.202 270.6 349.856Z" fill="#37474F"/>
<path d="M348.513 230.593C347.021 228.444 345.081 226.643 342.827 225.314C340.573 223.985 338.059 223.159 335.456 222.893C339.559 228.041 341.803 235.873 341.803 245.839C341.803 260.997 336.6 278.366 327.151 294.734C317.702 311.102 305.261 324.291 292.138 331.859C285.076 335.94 278.234 338.085 272.338 338.085C271.489 338.088 270.64 338.041 269.797 337.942C271.444 340.048 273.537 341.763 275.926 342.963C278.315 344.163 280.94 344.819 283.613 344.883C283.976 344.883 284.35 344.883 284.713 344.883C290.62 344.883 297.473 342.738 304.513 338.668C317.636 331.089 330.066 317.901 339.526 301.533C348.986 285.165 354.178 267.796 354.178 252.638C354.2 243.255 352.198 235.741 348.513 230.593Z" fill="#263238"/>
<path d="M308.814 221.518C279.015 238.722 254.859 280.566 254.859 315.018C254.859 349.47 279.059 363.363 308.814 346.159C338.569 328.955 362.714 287.122 362.714 252.659C362.714 218.196 338.613 204.314 308.814 221.518ZM304.513 338.701C297.462 342.771 290.609 344.916 284.713 344.916C281.225 345.006 277.782 344.11 274.78 342.332C271.778 340.553 269.338 337.965 267.74 334.862C264.924 329.868 263.417 323.136 263.417 314.963C263.417 299.805 268.62 282.447 278.08 266.079C287.54 249.711 299.959 236.522 313.093 228.943C319.968 224.961 326.667 222.816 332.475 222.728H332.904C346.236 222.728 354.189 233.926 354.189 252.681C354.189 267.839 348.986 285.208 339.537 301.576C330.088 317.944 317.713 331.122 304.513 338.701Z" fill="#37474F"/>
<path d="M267.949 266.74C262.959 276.434 259.261 286.741 256.949 297.396C255.832 302.717 255.217 308.131 255.112 313.567C254.973 318.993 255.568 324.414 256.883 329.681C258.147 334.957 260.592 339.876 264.033 344.07C267.562 348.208 272.303 351.133 277.585 352.43C282.891 353.642 288.411 353.559 293.678 352.188C298.969 350.884 304.05 348.84 308.77 346.115C304.091 348.938 299.036 351.082 293.755 352.485C288.44 353.913 282.859 354.037 277.486 352.848C272.095 351.56 267.245 348.608 263.626 344.411C260.107 340.174 257.605 335.188 256.311 329.836C255.018 324.509 254.448 319.034 254.617 313.556C254.767 308.091 255.422 302.652 256.575 297.308C257.725 291.972 259.261 286.725 261.173 281.612C263.125 276.52 265.388 271.553 267.949 266.74Z" fill="#455A64"/>
<path d="M332.915 222.717C335.621 222.676 338.309 223.169 340.824 224.169C343.343 225.225 345.597 226.825 347.424 228.855C349.215 230.913 350.65 233.255 351.67 235.785C352.697 238.305 353.435 240.932 353.87 243.617C354.724 248.983 354.875 254.437 354.321 259.842C353.808 265.24 352.799 270.58 351.307 275.792C349.85 281.015 347.989 286.116 345.741 291.049C343.514 295.977 340.967 300.754 338.118 305.349C332.474 314.64 325.504 323.056 317.427 330.331C313.342 333.933 308.892 337.1 304.15 339.78C299.394 342.545 294.176 344.427 288.75 345.334C286 345.767 283.196 345.737 280.456 345.247C277.689 344.716 275.079 343.565 272.822 341.881C271.694 341.051 270.664 340.095 269.753 339.031C268.845 337.977 268.038 336.839 267.344 335.632C265.974 333.237 264.941 330.665 264.275 327.988C263.005 322.679 262.545 317.209 262.911 311.763C263.248 306.349 264.11 300.982 265.485 295.735C266.835 290.503 268.589 285.384 270.732 280.423C272.863 275.466 275.329 270.658 278.113 266.035C272.825 275.411 268.857 285.472 266.321 295.933C265.073 301.144 264.337 306.464 264.121 311.817C263.836 317.142 264.359 322.479 265.672 327.647C266.344 330.193 267.362 332.636 268.697 334.906C270.001 337.159 271.744 339.126 273.823 340.692C275.907 342.234 278.314 343.279 280.863 343.75C283.437 344.185 286.066 344.185 288.64 343.75C293.842 342.859 298.844 341.048 303.413 338.405C308.032 335.749 312.366 332.627 316.349 329.088C324.335 321.945 331.236 313.673 336.831 304.535C342.52 295.452 346.977 285.654 350.086 275.396C351.624 270.271 352.695 265.018 353.287 259.699C353.905 254.385 353.835 249.013 353.078 243.717C352.694 241.083 352.019 238.501 351.065 236.016C350.122 233.52 348.773 231.197 347.072 229.142C345.33 227.112 343.163 225.489 340.725 224.389C338.257 223.323 335.603 222.755 332.915 222.717Z" fill="#455A64"/>
<path opacity="0.3" d="M339.119 223.631C337.11 223.01 335.018 222.702 332.915 222.718H332.486C326.678 222.806 319.979 224.918 313.104 228.933C299.97 236.523 287.54 249.712 278.113 266.036C268.686 282.36 263.461 299.762 263.461 314.92C263.461 323.093 264.979 329.825 267.784 334.819C268.979 337.021 270.572 338.982 272.481 340.605C274.489 341.231 276.582 341.543 278.685 341.529C284.603 341.529 291.445 339.384 298.485 335.303C311.608 327.735 324.049 314.535 333.498 298.167C342.947 281.799 348.15 264.43 348.15 249.272C348.128 237.436 344.905 228.515 339.119 223.631Z" fill="white"/>
<path d="M461.109 279.422C468.16 282.282 469.777 289.179 465.872 296.912C462.44 303.688 448.877 320.342 446.732 323.059C444.587 325.776 442.838 326.689 437.437 328.79C432.036 330.891 417.747 334.83 413.578 336.073C409.409 337.316 406.725 339.658 402.754 341.385C398.783 343.112 393.371 342.87 390.654 342.353C389.262 341.917 388.06 341.021 387.244 339.812C385.352 339.273 385.11 338.492 385.253 337.832C383.57 337.557 382.855 337.106 383.504 335.951C384.868 333.542 389.411 334.004 393.569 333.179C397.551 332.376 400.697 330.726 399.707 330.187C397.694 329.087 394.339 330.319 391.314 328.515C389.532 327.415 389.873 325.886 390.731 325.919C392.315 325.996 395.45 325.028 399.344 324.94C402.886 324.863 407.297 326.349 409.893 325.348C415.998 323.016 434.324 314.017 434.324 314.017L449.713 291.335C449.713 291.335 454.003 281.908 461.109 279.422Z" fill="#FFBDA7"/>
<path d="M427.933 317.12L434.104 313.721L448.866 291.16C448.866 291.16 454.498 280.16 460.669 278.719C466.169 281.029 467.423 283.405 468.138 286.078C468.589 287.75 468.952 293.151 464.057 301.203C459.162 309.255 449.141 320.552 446.985 323.313C444.829 326.074 444.565 326.327 440.627 327.79C436.689 329.253 433.774 330.078 433.774 330.078C429.913 326.602 427.713 322.422 427.933 317.12Z" fill="#37474F"/>
</g>
<defs>
<clipPath id="clip0_499_2">
<rect width="550" height="550" fill="white"/>
</clipPath>
</defs>
</svg>
