<svg width="500" height="500" viewBox="0 0 500 500" fill="none" xmlns="http://www.w3.org/2000/svg">
<path d="M253.44 478.24C381.653 478.24 485.59 417.575 485.59 342.74C485.59 267.905 381.653 207.24 253.44 207.24C125.227 207.24 21.29 267.905 21.29 342.74C21.29 417.575 125.227 478.24 253.44 478.24Z" fill="#F0F0F0"/>
<path d="M332.99 278.96C354.452 278.96 371.85 268.913 371.85 256.52C371.85 244.127 354.452 234.08 332.99 234.08C311.528 234.08 294.13 244.127 294.13 256.52C294.13 268.913 311.528 278.96 332.99 278.96Z" fill="#E0E0E0"/>
<path d="M417.72 416.26C437.254 416.26 453.09 407.118 453.09 395.84C453.09 384.562 437.254 375.42 417.72 375.42C398.186 375.42 382.35 384.562 382.35 395.84C382.35 407.118 398.186 416.26 417.72 416.26Z" fill="#E0E0E0"/>
<path d="M459.93 383.09C466.066 383.09 471.04 380.22 471.04 376.68C471.04 373.14 466.066 370.27 459.93 370.27C453.794 370.27 448.82 373.14 448.82 376.68C448.82 380.22 453.794 383.09 459.93 383.09Z" fill="#E0E0E0"/>
<path d="M239.25 454.44L41.4199 340.26L220.35 236.96L417.98 351.25L239.25 454.44Z" fill="#E0E0E0"/>
<path d="M380.481 400.714H160.547V345.56H380.481C381.613 345.56 382.699 346.01 383.499 346.81C384.299 347.61 384.749 348.696 384.749 349.828V396.446C384.749 397.578 384.299 398.664 383.499 399.464C382.699 400.264 381.613 400.714 380.481 400.714Z" fill="#22CA5E"/>
<path opacity="0.2" d="M380.481 400.714H160.547V345.56H380.481C381.613 345.56 382.699 346.01 383.499 346.81C384.299 347.61 384.749 348.696 384.749 349.828V396.446C384.749 397.578 384.299 398.664 383.499 399.464C382.699 400.264 381.613 400.714 380.481 400.714Z" fill="black"/>
<path opacity="0.2" d="M214.469 400.714H248.118V345.56H214.469V400.714Z" fill="black"/>
<path opacity="0.2" d="M262.572 400.714H279.633V345.56H262.572V400.714Z" fill="black"/>
<path d="M87.6938 345.56H160.536V400.714H87.6938C86.556 400.714 85.4649 400.262 84.6603 399.457C83.8558 398.653 83.4038 397.562 83.4038 396.424V349.85C83.4038 348.712 83.8558 347.621 84.6603 346.816C85.4649 346.012 86.556 345.56 87.6938 345.56Z" fill="#22CA5E"/>
<path opacity="0.9" d="M83.4038 351.489H147.127C148.612 351.489 150.036 352.079 151.086 353.129C152.136 354.179 152.726 355.603 152.726 357.088V389.175C152.726 390.66 152.136 392.084 151.086 393.134C150.036 394.184 148.612 394.774 147.127 394.774H83.4038V351.489Z" fill="white"/>
<path opacity="0.2" d="M353.927 388.911C362.639 388.911 369.701 381.849 369.701 373.137C369.701 364.425 362.639 357.363 353.927 357.363C345.215 357.363 338.153 364.425 338.153 373.137C338.153 381.849 345.215 388.911 353.927 388.911Z" fill="black"/>
<path d="M396.409 345.516L176.409 345.516V305.487H396.409C397.541 305.487 398.626 305.937 399.427 306.737C400.227 307.537 400.677 308.623 400.677 309.755V341.292C400.665 342.416 400.21 343.491 399.411 344.282C398.612 345.072 397.533 345.516 396.409 345.516Z" fill="#263238"/>
<path opacity="0.2" d="M396.409 345.516L176.409 345.516V305.487H396.409C397.541 305.487 398.626 305.937 399.427 306.737C400.227 307.537 400.677 308.623 400.677 309.755V341.292C400.665 342.416 400.21 343.491 399.411 344.282C398.612 345.072 397.533 345.516 396.409 345.516Z" fill="black"/>
<path d="M103.611 305.575H176.453V345.604H103.611C102.473 345.604 101.382 345.152 100.577 344.347C99.7728 343.543 99.3208 342.452 99.3208 341.314V309.821C99.3324 308.691 99.7895 307.611 100.593 306.816C101.396 306.021 102.481 305.575 103.611 305.575Z" fill="#263238"/>
<path opacity="0.9" d="M99.2881 311.46H163.088C164.573 311.46 165.997 312.05 167.047 313.1C168.097 314.15 168.687 315.574 168.687 317.059V334.054C168.69 334.791 168.547 335.522 168.267 336.203C167.987 336.885 167.575 337.505 167.055 338.027C166.535 338.55 165.917 338.964 165.236 339.247C164.555 339.529 163.825 339.675 163.088 339.675H99.2881V311.46Z" fill="white"/>
<path opacity="0.3" d="M222.499 336.078H376.389C378.935 336.078 380.998 334.014 380.998 331.469V319.611C380.998 317.066 378.935 315.002 376.389 315.002H222.499C219.954 315.002 217.89 317.066 217.89 319.611V331.469C217.89 334.014 219.954 336.078 222.499 336.078Z" fill="#22CA5E"/>
<path opacity="0.3" d="M184.802 345.56H190.643V305.531H184.802V345.56Z" fill="#22CA5E"/>
<path opacity="0.3" d="M195.461 345.56H201.302V305.531H195.461V345.56Z" fill="#22CA5E"/>
<path d="M372.055 305.531H152.132V264.193H372.055C373.187 264.193 374.273 264.643 375.073 265.443C375.874 266.243 376.323 267.329 376.323 268.461V301.263C376.323 302.395 375.874 303.481 375.073 304.281C374.273 305.081 373.187 305.531 372.055 305.531Z" fill="#22CA5E"/>
<path opacity="0.3" d="M372.055 305.531H152.132V264.193H372.055C373.187 264.193 374.273 264.643 375.073 265.443C375.874 266.243 376.323 267.329 376.323 268.461V301.263C376.323 302.395 375.874 303.481 375.073 304.281C374.273 305.081 373.187 305.531 372.055 305.531Z" fill="black"/>
<path opacity="0.9" d="M206.054 305.531H282.416V264.237H206.054V305.531Z" fill="white"/>
<path opacity="0.9" d="M315.218 305.531H353.938V264.237H315.218V305.531Z" fill="white"/>
<path d="M79.29 264.237H152.088V305.575H79.29C78.7266 305.575 78.1688 305.464 77.6483 305.248C77.1278 305.033 76.6549 304.717 76.2565 304.318C75.8582 303.92 75.5422 303.447 75.3266 302.927C75.111 302.406 75 301.848 75 301.285V268.527C75 267.964 75.111 267.406 75.3266 266.885C75.5422 266.365 75.8582 265.892 76.2565 265.493C76.6549 265.095 77.1278 264.779 77.6483 264.564C78.1688 264.348 78.7266 264.237 79.29 264.237Z" fill="#22CA5E"/>
<path opacity="0.9" d="M75 270.155H138.723C140.208 270.155 141.632 270.745 142.682 271.795C143.732 272.845 144.322 274.269 144.322 275.754V294.003C144.322 295.488 143.732 296.912 142.682 297.962C141.632 299.012 140.208 299.602 138.723 299.602H75V270.155Z" fill="white"/>
<path d="M387.961 264.237H168.038V236.847L387.961 236.847C389.093 236.847 390.179 237.297 390.979 238.097C391.779 238.897 392.229 239.983 392.229 241.115V259.969C392.229 261.101 391.779 262.187 390.979 262.987C390.179 263.787 389.093 264.237 387.961 264.237Z" fill="#22CA5E"/>
<path opacity="0.3" d="M387.961 264.237H168.038V236.847L387.961 236.847C389.093 236.847 390.179 237.297 390.979 238.097C391.779 238.897 392.229 239.983 392.229 241.115V259.969C392.229 261.101 391.779 262.187 390.979 262.987C390.179 263.787 389.093 264.237 387.961 264.237Z" fill="white"/>
<path opacity="0.2" d="M387.961 264.237H168.038V236.847L387.961 236.847C389.093 236.847 390.179 237.297 390.979 238.097C391.779 238.897 392.229 239.983 392.229 241.115V259.969C392.229 261.101 391.779 262.187 390.979 262.987C390.179 263.787 389.093 264.237 387.961 264.237Z" fill="black"/>
<path d="M95.1958 236.847H168.038V264.237H95.1958C94.058 264.237 92.9668 263.785 92.1623 262.98C91.3577 262.176 90.9058 261.085 90.9058 259.947V241.137C90.9058 239.999 91.3577 238.908 92.1623 238.104C92.9668 237.299 94.058 236.847 95.1958 236.847Z" fill="#22CA5E"/>
<path opacity="0.3" d="M95.1958 236.847H168.038V264.237H95.1958C94.058 264.237 92.9668 263.785 92.1623 262.98C91.3577 262.176 90.9058 261.085 90.9058 259.947V241.137C90.9058 239.999 91.3577 238.908 92.1623 238.104C92.9668 237.299 94.058 236.847 95.1958 236.847Z" fill="white"/>
<path opacity="0.9" d="M90.9058 242.776H154.618C156.103 242.776 157.527 243.366 158.577 244.416C159.627 245.466 160.217 246.89 160.217 248.375V252.775C160.191 254.243 159.589 255.642 158.542 256.67C157.495 257.699 156.086 258.275 154.618 258.275H90.9058V242.776Z" fill="white"/>
<path opacity="0.4" d="M187.717 257.021H287.399V244.074H187.717V257.021Z" fill="#263238"/>
<path d="M205.878 227.783H237.327V236.858H205.878C205.691 236.858 205.512 236.784 205.38 236.652C205.248 236.52 205.174 236.341 205.174 236.154V228.454C205.182 228.273 205.26 228.102 205.391 227.977C205.522 227.852 205.697 227.783 205.878 227.783Z" fill="#22CA5E"/>
<path opacity="0.2" d="M205.878 227.783H237.327V236.858H205.878C205.691 236.858 205.512 236.784 205.38 236.652C205.248 236.52 205.174 236.341 205.174 236.154V228.454C205.182 228.273 205.26 228.102 205.391 227.977C205.522 227.852 205.697 227.783 205.878 227.783Z" fill="black"/>
<path d="M249.317 236.869L237.371 236.869V227.794H249.361C249.548 227.794 249.727 227.868 249.859 228C249.991 228.132 250.065 228.311 250.065 228.498V236.198C250.061 236.291 250.038 236.383 249.998 236.468C249.958 236.552 249.901 236.628 249.832 236.69C249.762 236.753 249.681 236.801 249.592 236.832C249.504 236.862 249.41 236.875 249.317 236.869Z" fill="#22CA5E"/>
<path opacity="0.9" d="M250.032 235.89H239.549C239.304 235.89 239.069 235.793 238.896 235.619C238.723 235.446 238.625 235.211 238.625 234.966V229.686C238.625 229.441 238.723 229.206 238.896 229.033C239.069 228.859 239.304 228.762 239.549 228.762H250.032V235.89Z" fill="white"/>
<path d="M203.26 221.194H234.709V227.794H203.26C203.074 227.794 202.894 227.72 202.762 227.588C202.63 227.456 202.556 227.277 202.556 227.09V221.909C202.555 221.816 202.572 221.723 202.607 221.636C202.641 221.55 202.693 221.471 202.758 221.404C202.824 221.338 202.902 221.285 202.988 221.249C203.074 221.213 203.167 221.194 203.26 221.194Z" fill="#263238"/>
<path opacity="0.2" d="M203.26 221.194H234.709V227.794H203.26C203.074 227.794 202.894 227.72 202.762 227.588C202.63 227.456 202.556 227.277 202.556 227.09V221.909C202.555 221.816 202.572 221.723 202.607 221.636C202.641 221.55 202.693 221.471 202.758 221.404C202.824 221.338 202.902 221.285 202.988 221.249C203.074 221.213 203.167 221.194 203.26 221.194Z" fill="black"/>
<path d="M246.699 227.794H234.709V221.194H246.699C246.886 221.194 247.065 221.268 247.197 221.4C247.329 221.532 247.403 221.711 247.403 221.898V227.079C247.405 227.172 247.388 227.265 247.353 227.352C247.318 227.438 247.266 227.517 247.201 227.584C247.135 227.65 247.057 227.703 246.971 227.739C246.885 227.775 246.793 227.794 246.699 227.794Z" fill="#263238"/>
<path opacity="0.9" d="M247.414 226.815H236.931C236.81 226.815 236.69 226.791 236.577 226.745C236.465 226.698 236.364 226.63 236.278 226.544C236.192 226.459 236.124 226.357 236.077 226.245C236.031 226.132 236.007 226.012 236.007 225.891V223.097C236.007 222.852 236.104 222.617 236.278 222.444C236.451 222.27 236.686 222.173 236.931 222.173H247.414V226.815Z" fill="white"/>
<path d="M207.264 214.407H238.713V221.205H207.264C207.077 221.205 206.898 221.131 206.766 220.999C206.634 220.867 206.56 220.688 206.56 220.501V215.111C206.56 215.019 206.578 214.927 206.614 214.842C206.649 214.756 206.701 214.679 206.766 214.613C206.832 214.548 206.909 214.496 206.995 214.461C207.08 214.425 207.172 214.407 207.264 214.407Z" fill="#22CA5E"/>
<path opacity="0.3" d="M207.264 214.407H238.713V221.205H207.264C207.077 221.205 206.898 221.131 206.766 220.999C206.634 220.867 206.56 220.688 206.56 220.501V215.111C206.56 215.019 206.578 214.927 206.614 214.842C206.649 214.756 206.701 214.679 206.766 214.613C206.832 214.548 206.909 214.496 206.995 214.461C207.08 214.425 207.172 214.407 207.264 214.407Z" fill="black"/>
<path d="M250.703 221.194H238.713V214.396H250.703C250.89 214.396 251.069 214.47 251.201 214.602C251.333 214.734 251.407 214.913 251.407 215.1V220.479C251.409 220.572 251.391 220.665 251.357 220.752C251.322 220.839 251.27 220.917 251.205 220.984C251.139 221.05 251.061 221.103 250.975 221.139C250.889 221.175 250.797 221.194 250.703 221.194Z" fill="#22CA5E"/>
<path opacity="0.9" d="M251.407 220.226H240.924C240.679 220.226 240.444 220.129 240.271 219.955C240.098 219.782 240 219.547 240 219.302V216.299C240 216.054 240.098 215.819 240.271 215.646C240.444 215.472 240.679 215.375 240.924 215.375H251.407V220.226Z" fill="white"/>
<path d="M204.646 209.875H236.095V214.385H204.646C204.459 214.385 204.28 214.311 204.148 214.179C204.016 214.047 203.942 213.868 203.942 213.681V210.579C203.942 210.392 204.016 210.213 204.148 210.081C204.28 209.949 204.459 209.875 204.646 209.875Z" fill="#22CA5E"/>
<path opacity="0.3" d="M204.646 209.875H236.095V214.385H204.646C204.459 214.385 204.28 214.311 204.148 214.179C204.016 214.047 203.942 213.868 203.942 213.681V210.579C203.942 210.392 204.016 210.213 204.148 210.081C204.28 209.949 204.459 209.875 204.646 209.875Z" fill="white"/>
<path opacity="0.2" d="M204.646 209.875H236.095V214.385H204.646C204.459 214.385 204.28 214.311 204.148 214.179C204.016 214.047 203.942 213.868 203.942 213.681V210.579C203.942 210.392 204.016 210.213 204.148 210.081C204.28 209.949 204.459 209.875 204.646 209.875Z" fill="black"/>
<path d="M248.096 214.429H236.106V209.919H248.096C248.283 209.919 248.462 209.993 248.594 210.125C248.726 210.257 248.8 210.436 248.8 210.623V213.714C248.802 213.807 248.785 213.9 248.75 213.987C248.715 214.073 248.663 214.152 248.598 214.219C248.532 214.285 248.454 214.338 248.368 214.374C248.282 214.41 248.19 214.429 248.096 214.429Z" fill="#22CA5E"/>
<path opacity="0.3" d="M248.096 214.429H236.106V209.919H248.096C248.283 209.919 248.462 209.993 248.594 210.125C248.726 210.257 248.8 210.436 248.8 210.623V213.714C248.802 213.807 248.785 213.9 248.75 213.987C248.715 214.073 248.663 214.152 248.598 214.219C248.532 214.285 248.454 214.338 248.368 214.374C248.282 214.41 248.19 214.429 248.096 214.429Z" fill="white"/>
<path opacity="0.9" d="M248.789 213.428H238.306C238.061 213.428 237.826 213.331 237.653 213.157C237.479 212.984 237.382 212.749 237.382 212.504V211.789C237.382 211.544 237.479 211.309 237.653 211.136C237.826 210.962 238.061 210.865 238.306 210.865H248.789V213.417V213.428Z" fill="white"/>
<path d="M203.26 203.275H234.709V209.875H203.26C203.074 209.875 202.894 209.801 202.762 209.669C202.63 209.537 202.556 209.358 202.556 209.171V203.99C202.555 203.897 202.572 203.804 202.607 203.717C202.641 203.631 202.693 203.552 202.758 203.485C202.824 203.419 202.902 203.366 202.988 203.33C203.074 203.294 203.167 203.275 203.26 203.275Z" fill="#263238"/>
<path opacity="0.2" d="M203.26 203.275H234.709V209.875H203.26C203.074 209.875 202.894 209.801 202.762 209.669C202.63 209.537 202.556 209.358 202.556 209.171V203.99C202.555 203.897 202.572 203.804 202.607 203.717C202.641 203.631 202.693 203.552 202.758 203.485C202.824 203.419 202.902 203.366 202.988 203.33C203.074 203.294 203.167 203.275 203.26 203.275Z" fill="black"/>
<path d="M242.706 209.93H234.742V203.33H242.739C242.926 203.33 243.105 203.404 243.237 203.536C243.369 203.668 243.443 203.847 243.443 204.034V209.215C243.445 209.311 243.427 209.407 243.39 209.496C243.353 209.585 243.299 209.665 243.23 209.732C243.16 209.799 243.078 209.851 242.988 209.885C242.898 209.919 242.802 209.935 242.706 209.93Z" fill="#263238"/>
<path opacity="0.9" d="M243.421 208.918H236.931C236.686 208.918 236.451 208.821 236.278 208.647C236.104 208.474 236.007 208.239 236.007 207.994V205.2C236.007 204.955 236.104 204.72 236.278 204.547C236.451 204.373 236.686 204.276 236.931 204.276H243.421V208.918Z" fill="white"/>
<path d="M207.264 196.51H238.713V203.275H207.264C207.077 203.275 206.898 203.201 206.766 203.069C206.634 202.937 206.56 202.758 206.56 202.571V197.181C206.569 197 206.646 196.829 206.778 196.704C206.909 196.579 207.083 196.51 207.264 196.51Z" fill="#22CA5E"/>
<path opacity="0.3" d="M207.264 196.51H238.713V203.275H207.264C207.077 203.275 206.898 203.201 206.766 203.069C206.634 202.937 206.56 202.758 206.56 202.571V197.181C206.569 197 206.646 196.829 206.778 196.704C206.909 196.579 207.083 196.51 207.264 196.51Z" fill="black"/>
<path d="M246.71 203.308H238.713V196.543H246.71C246.897 196.543 247.076 196.617 247.208 196.749C247.34 196.881 247.414 197.06 247.414 197.247V202.626C247.408 202.809 247.332 202.982 247.2 203.11C247.069 203.237 246.893 203.308 246.71 203.308Z" fill="#22CA5E"/>
<path opacity="0.9" d="M247.414 202.329H240.924C240.679 202.329 240.444 202.232 240.271 202.058C240.097 201.885 240 201.65 240 201.405V198.402C240 198.157 240.097 197.922 240.271 197.749C240.444 197.575 240.679 197.478 240.924 197.478H247.414V202.329Z" fill="white"/>
<path d="M204.646 192.011H236.095V196.521H204.646C204.459 196.521 204.28 196.447 204.148 196.315C204.016 196.183 203.942 196.004 203.942 195.817V192.715C203.942 192.528 204.016 192.349 204.148 192.217C204.28 192.085 204.459 192.011 204.646 192.011Z" fill="#22CA5E"/>
<path opacity="0.3" d="M204.646 192.011H236.095V196.521H204.646C204.459 196.521 204.28 196.447 204.148 196.315C204.016 196.183 203.942 196.004 203.942 195.817V192.715C203.942 192.528 204.016 192.349 204.148 192.217C204.28 192.085 204.459 192.011 204.646 192.011Z" fill="white"/>
<path opacity="0.2" d="M204.646 192.011H236.095V196.521H204.646C204.459 196.521 204.28 196.447 204.148 196.315C204.016 196.183 203.942 196.004 203.942 195.817V192.715C203.942 192.528 204.016 192.349 204.148 192.217C204.28 192.085 204.459 192.011 204.646 192.011Z" fill="black"/>
<path d="M244.103 196.51H236.106V192H244.103C244.29 192 244.469 192.074 244.601 192.206C244.733 192.338 244.807 192.517 244.807 192.704V195.806C244.807 195.993 244.733 196.172 244.601 196.304C244.469 196.436 244.29 196.51 244.103 196.51Z" fill="#22CA5E"/>
<path opacity="0.3" d="M244.103 196.51H236.106V192H244.103C244.29 192 244.469 192.074 244.601 192.206C244.733 192.338 244.807 192.517 244.807 192.704V195.806C244.807 195.993 244.733 196.172 244.601 196.304C244.469 196.436 244.29 196.51 244.103 196.51Z" fill="white"/>
<path opacity="0.9" d="M244.796 195.542H238.306C238.061 195.542 237.826 195.445 237.653 195.271C237.479 195.098 237.382 194.863 237.382 194.618V193.903C237.382 193.658 237.479 193.423 237.653 193.25C237.826 193.076 238.061 192.979 238.306 192.979H244.796V195.531V195.542Z" fill="white"/>
<path d="M53.1602 335.39L66.0002 328.59C66.0002 328.59 67.0002 308.94 65.4502 293.37C63.3102 271.48 47.0002 246.08 30.1702 252.26C13.3402 258.44 37.9002 280.73 43.3802 299.26C48.8602 317.79 53.1602 335.39 53.1602 335.39Z" fill="#0E9F15"/>
<path opacity="0.3" d="M53.1602 335.39L66.0002 328.59C66.0002 328.59 67.0002 308.94 65.4502 293.37C63.3102 271.48 47.0002 246.08 30.1702 252.26C13.3402 258.44 37.9002 280.73 43.3802 299.26C48.8602 317.79 53.1602 335.39 53.1602 335.39Z" fill="black"/>
<path d="M59.44 333.11C59.2897 333.102 59.1483 333.036 59.0456 332.926C58.943 332.816 58.8872 332.67 58.89 332.52C60.54 283.9 36.34 259.44 36.09 259.2C36.0322 259.149 35.9855 259.086 35.9527 259.016C35.9199 258.946 35.9017 258.87 35.8992 258.793C35.8967 258.715 35.91 258.638 35.9382 258.566C35.9664 258.494 36.009 258.429 36.0634 258.374C36.1177 258.319 36.1827 258.275 36.2544 258.246C36.326 258.217 36.4029 258.203 36.4802 258.204C36.5575 258.206 36.6337 258.223 36.7042 258.255C36.7746 258.287 36.8378 258.333 36.89 258.39C37.14 258.63 61.69 283.44 60.03 332.56C60.0274 332.635 60.0101 332.709 59.979 332.777C59.948 332.845 59.9038 332.906 59.849 332.957C59.7942 333.008 59.7299 333.048 59.6597 333.074C59.5895 333.101 59.5148 333.113 59.44 333.11Z" fill="white"/>
<path d="M46.56 339.27L53.24 335.41C54.2634 324.433 52.8462 313.365 49.09 303C42.9 286.2 26.9 277 19.54 279.54C10.54 282.6 10.54 291.2 13.77 296.86C17.62 303.5 41.7 320.37 46.56 339.27Z" fill="#0E9F15"/>
<path opacity="0.1" d="M46.56 339.27L53.24 335.41C54.2634 324.433 52.8462 313.365 49.09 303C42.9 286.2 26.9 277 19.54 279.54C10.54 282.6 10.54 291.2 13.77 296.86C17.62 303.5 41.7 320.37 46.56 339.27Z" fill="black"/>
<path d="M50.0799 337.8C50.0051 337.8 49.9309 337.785 49.8618 337.757C49.7926 337.728 49.7298 337.686 49.6769 337.633C49.6239 337.58 49.5819 337.517 49.5533 337.448C49.5247 337.379 49.5099 337.305 49.5099 337.23C49.6499 306.49 20.7799 285.71 20.5099 285.5C20.4481 285.458 20.3952 285.404 20.3546 285.341C20.314 285.278 20.2863 285.208 20.2732 285.135C20.2602 285.061 20.262 284.985 20.2786 284.912C20.2952 284.84 20.3263 284.771 20.3699 284.71C20.4136 284.649 20.4691 284.596 20.5331 284.557C20.5971 284.517 20.6684 284.49 20.7428 284.478C20.8172 284.466 20.8932 284.469 20.9666 284.486C21.0399 284.504 21.109 284.536 21.1699 284.58C21.4599 284.79 50.8099 305.91 50.6699 337.24C50.67 337.316 50.6546 337.391 50.6246 337.461C50.5946 337.531 50.5506 337.595 50.4954 337.647C50.4402 337.699 50.3749 337.74 50.3034 337.766C50.232 337.793 50.1559 337.804 50.0799 337.8Z" fill="white"/>
<path d="M472.77 342.05L460.89 376.9C460.814 377.121 460.671 377.313 460.481 377.449C460.291 377.585 460.063 377.658 459.83 377.658C459.596 377.658 459.368 377.585 459.178 377.449C458.988 377.313 458.845 377.121 458.77 376.9L446.93 341.81L472.77 342.05Z" fill="#FFA8A7"/>
<path d="M458.769 376.9C458.845 377.121 458.988 377.313 459.178 377.449C459.368 377.585 459.596 377.658 459.829 377.658C460.063 377.658 460.291 377.585 460.481 377.449C460.671 377.313 460.814 377.121 460.889 376.9L463.209 370.1C462.206 370.641 461.073 370.895 459.935 370.833C458.797 370.771 457.698 370.397 456.759 369.75L456.239 369.39L458.769 376.9Z" fill="#0E9F15"/>
<path d="M447.109 186.46V189.87V193.98L446.939 341.8C449.798 344.817 453.692 346.642 457.839 346.91C464.089 347.55 470.489 345.49 472.779 342.04L472.939 195.31V187.45C472.639 192.54 446.899 191.57 447.109 186.46Z" fill="#0E9F15"/>
<path d="M472.93 214.14C472.87 216.01 471.61 217.87 469.16 219.29C464.16 222.21 455.94 222.29 450.88 219.29C448.61 217.98 447.32 216.29 447.1 214.59V209.2C447.172 210.012 447.447 210.792 447.9 211.47C448.673 212.583 449.702 213.495 450.9 214.13C455.95 217.03 464.14 217.01 469.18 214.13C470.371 213.478 471.398 212.561 472.18 211.45C472.722 210.666 473.008 209.733 473 208.78L472.93 214.14Z" fill="#F0F0F0"/>
<path d="M472.92 209.1C472.86 210.98 471.61 212.83 469.15 214.26C464.15 217.18 455.94 217.2 450.88 214.26C448.6 212.95 447.31 211.26 447.09 209.55V204.13C447.154 204.939 447.426 205.718 447.88 206.39C448.649 207.507 449.679 208.42 450.88 209.05C455.93 211.95 464.11 211.93 469.15 209C470.346 208.354 471.374 207.436 472.15 206.32C472.692 205.535 472.982 204.604 472.98 203.65L472.92 209.1Z" fill="#0E9F15"/>
<path d="M472.92 204.07C472.85 205.94 471.6 207.8 469.15 209.22C464.15 212.14 455.93 212.17 450.87 209.27C448.59 207.96 447.31 206.27 447.08 204.56V199.13C447.152 199.942 447.427 200.722 447.88 201.4C448.65 202.516 449.68 203.429 450.88 204.06C455.93 206.96 464.12 206.94 469.15 204.01C470.345 203.363 471.372 202.445 472.15 201.33C472.688 200.544 472.974 199.613 472.97 198.66L472.92 204.07Z" fill="#F0F0F0"/>
<path opacity="0.1" d="M472.919 195.31V187.45C472.789 189.75 467.459 190.81 461.679 190.81L462.679 346.87L460.899 376.87L472.779 342.02L472.919 195.31Z" fill="black"/>
<path d="M472 153.22C471.25 152.225 470.295 151.403 469.2 150.81C464.15 147.91 455.99 147.94 450.97 150.81C448.51 152.24 447.27 154.09 447.22 155.96C447.215 155.993 447.215 156.027 447.22 156.06L447.15 186.42C447.15 186.42 447.15 186.52 447.15 186.57V186.85C447.37 188.57 448.66 190.25 450.94 191.56C456 194.46 464.17 194.44 469.21 191.56C471.67 190.14 472.92 188.28 472.98 186.41V181C472.98 181.11 472.98 181.22 472.98 181.32L473.03 156.73C473.163 155.47 472.793 154.208 472 153.22Z" fill="#FFA8A7"/>
<path opacity="0.3" d="M460.086 163.565C467.205 163.546 472.967 160.2 472.957 156.091C472.946 151.982 467.166 148.666 460.047 148.685C452.928 148.704 447.166 152.05 447.177 156.159C447.187 160.268 452.967 163.584 460.086 163.565Z" fill="white"/>
<path d="M472.999 156.08C472.999 157.98 471.749 159.88 469.249 161.33C466.832 162.642 464.147 163.384 461.399 163.5L461.719 193.69C464.35 193.545 466.915 192.818 469.229 191.56C471.589 190.19 472.829 188.42 472.979 186.63L472.999 155.8C473.005 155.893 473.005 155.987 472.999 156.08Z" fill="#F28F8F"/>
<path d="M462.329 264.23L472.909 249.68L472.979 239.83C473.852 240.136 474.627 240.667 475.228 241.37C475.829 242.072 476.233 242.921 476.399 243.83C477.341 246.971 477.681 250.263 477.399 253.53C476.979 256.38 469.129 274.7 465.509 277.14C461.889 279.58 462.329 264.23 462.329 264.23Z" fill="#FFA8A7"/>
<path d="M449.22 268.56L435.55 257.25L432.25 239.86C433.677 239.553 435.131 239.389 436.59 239.37C438.12 239.47 441.59 240.37 445.11 243.84C448.63 247.31 462.26 263.84 462.26 263.84L471.47 251.63C474.8 250.28 477.19 254.15 476.41 256.51C475.627 259.119 474.675 261.674 473.56 264.16C471.29 269.54 467.56 276.08 465.89 277.42C464.22 278.76 461.89 278.35 458.47 276.05C455.05 273.75 449.22 268.56 449.22 268.56Z" fill="#37474F"/>
<path d="M418.53 235.18L419.44 247.16L431.52 246.51L430.55 232.61L418.53 235.18Z" fill="#FFA8A7"/>
<path d="M410.58 220.54C410.58 220.54 407.76 224.82 408.08 225.24C408.4 225.66 410.48 226.04 410.48 226.04L410.58 220.54Z" fill="#F28F8F"/>
<path d="M418.41 208.71C412.7 209.91 411.06 212.42 410.52 221.48C409.96 230.95 410.92 233.92 412.17 235.2C413.01 236.06 417.67 236.2 420.03 235.57C422.97 234.75 429.63 232.39 432.75 227.63C436.42 222.03 437.38 214.43 433.45 211.32C427.93 206.93 420.73 208.22 418.41 208.71Z" fill="#FFA8A7"/>
<path d="M418.58 235.84C419.615 235.651 420.638 235.394 421.64 235.07C420.818 235.895 419.777 236.468 418.64 236.72L418.58 235.84Z" fill="#F28F8F"/>
<path d="M410.16 211.58C410.94 212.019 411.773 212.356 412.64 212.58C414.03 212.99 413.82 213.51 414.01 214.78C414.183 215.927 414.736 216.984 415.58 217.78C416.12 218.27 416.53 218.32 416.71 219.07C416.795 219.858 416.795 220.652 416.71 221.44C416.71 223.02 417.71 224.21 418.22 222.1C418.22 222.1 419.12 218.6 422.07 219.04C425.02 219.48 425.28 222.81 423.88 225.42C423.02 227 420.73 226.59 420.73 226.59C420.648 228.055 420.88 229.521 421.411 230.889C421.942 232.256 422.76 233.495 423.81 234.52C423.81 234.52 426.75 236.7 431.32 234.44C433.276 231.916 435.028 229.241 436.56 226.44C438.61 222.88 440.37 218.51 439.67 214.33C439.44 212.773 438.742 211.322 437.67 210.17C437.365 209.912 437.118 209.593 436.945 209.232C436.773 208.872 436.679 208.479 436.67 208.08C436.571 207.475 436.334 206.901 435.977 206.402C435.621 205.903 435.154 205.493 434.614 205.203C434.074 204.913 433.474 204.751 432.861 204.73C432.249 204.708 431.639 204.828 431.08 205.08C431.026 204.35 430.741 203.656 430.266 203.099C429.792 202.542 429.152 202.15 428.44 201.98C426.998 201.674 425.494 201.883 424.19 202.57C423.807 201.883 423.258 201.304 422.593 200.885C421.928 200.465 421.169 200.22 420.384 200.171C419.599 200.123 418.815 200.272 418.103 200.605C417.391 200.939 416.775 201.446 416.31 202.08C416.092 201.744 415.797 201.465 415.449 201.266C415.101 201.068 414.71 200.956 414.31 200.94C413.52 200.904 412.73 201.03 411.99 201.31C411.36 201.495 410.753 201.75 410.18 202.07C409.15 202.71 408.348 203.659 407.886 204.78C407.425 205.902 407.328 207.14 407.61 208.32C407.778 209.014 408.092 209.664 408.532 210.226C408.972 210.789 409.527 211.25 410.16 211.58Z" fill="#263238"/>
<path d="M436.86 210.64L440.28 208.64C439.981 208.261 439.555 208.003 439.081 207.913C438.607 207.823 438.116 207.908 437.699 208.151C437.283 208.395 436.968 208.781 436.814 209.239C436.66 209.696 436.676 210.194 436.86 210.64Z" fill="#263238"/>
<path d="M440.05 387.79C440.05 388.04 440.1 388.3 440.12 388.56C440.254 389.554 440.28 390.56 440.2 391.56C440.204 392.348 439.924 393.112 439.41 393.71C438.656 394.16 437.82 394.456 436.95 394.58C435.272 394.73 433.582 394.465 432.03 393.81C430.45 393.16 429.48 392.28 428.03 391.88C426.533 391.505 425.008 391.255 423.47 391.13C422.793 391.072 422.123 390.948 421.47 390.76C420.969 390.581 420.484 390.36 420.02 390.1C418.397 389.349 416.931 388.297 415.7 387C414.929 386.127 414.399 385.069 414.16 383.93C414.03 383.26 413.76 381.32 414.88 381.37C420.36 381.62 425.8 382.79 431.29 382.73C431.642 382.695 431.997 382.695 432.35 382.73C433.024 382.873 433.656 383.167 434.2 383.59C434.428 383.787 434.698 383.927 434.99 384C435.282 384.073 435.587 384.076 435.88 384.01C436.823 383.845 437.787 383.845 438.73 384.01C438.937 384.033 439.135 384.105 439.309 384.22C439.483 384.335 439.627 384.489 439.73 384.67C439.777 384.805 439.804 384.947 439.81 385.09C439.88 386 440 386.91 440.05 387.79Z" fill="#263238"/>
<path d="M420.27 403.62C420.468 404.374 420.601 405.143 420.67 405.92C420.773 406.55 420.722 407.195 420.52 407.8C420.091 408.296 419.518 408.646 418.88 408.8C417.559 409.187 416.166 409.266 414.81 409.03C413.34 408.8 412.04 408.14 410.53 408.18C408.989 408.265 407.457 408.476 405.95 408.81C404.751 408.96 403.539 408.96 402.34 408.81C400.562 408.626 398.851 408.033 397.34 407.08C396.346 406.473 395.526 405.618 394.96 404.6C394.665 404.19 394.502 403.7 394.491 403.194C394.48 402.689 394.623 402.193 394.9 401.77C395.349 401.289 395.956 400.984 396.61 400.91C397.275 400.848 397.945 400.848 398.61 400.91C400.772 401.027 402.941 400.913 405.08 400.57C407.114 400.153 409.119 399.602 411.08 398.92C411.548 398.751 412.025 398.611 412.51 398.5C413.2 398.41 413.4 398.23 414.05 398.45C414.327 398.568 414.628 398.619 414.928 398.6C415.228 398.581 415.52 398.492 415.78 398.34C416.351 398.085 416.983 397.997 417.602 398.085C418.221 398.174 418.803 398.435 419.28 398.84C419.639 399.399 419.814 400.057 419.78 400.72C419.86 401.699 420.024 402.669 420.27 403.62Z" fill="#263238"/>
<path d="M439.49 381.21L439.2 385.35C438.94 386.93 433.57 387.89 432.46 385.1L431.94 380.41L439.49 381.21Z" fill="#FFA8A7"/>
<path d="M419.13 393.73C419.13 393.73 418.7 398.35 418.69 399.39C418.41 399.99 417.82 400.98 415.4 400.97C414.705 401.034 414.004 400.947 413.346 400.714C412.689 400.481 412.089 400.107 411.59 399.62L411.01 393.49L419.13 393.73Z" fill="#FFA8A7"/>
<path d="M441.65 349.45C440.71 341.4 440 336.79 440 336.79C440 336.79 440.16 325.57 440.82 315.12C441.53 303.83 441.37 289.61 441.65 286.79C441.65 286.79 405.37 279.04 405.07 292.12C404.73 307.33 405.74 338.78 405.96 342.87C406.26 348.62 406.27 354.6 407.25 363.93C408.23 373.26 411.01 394.93 411.01 394.93C412.259 395.598 413.653 395.947 415.07 395.947C416.486 395.947 417.881 395.598 419.13 394.93C419.13 394.93 422.28 368.86 422.13 362.23C422.05 357.424 421.588 352.633 420.75 347.9L423.61 318.39C423.61 318.39 424.73 327.51 425.04 333.26C425.35 339.01 426.13 342.52 427.55 353.26C428.78 362.54 431.91 382.13 431.91 382.13C433.096 382.801 434.447 383.128 435.809 383.073C437.171 383.019 438.491 382.585 439.62 381.82C439.62 381.82 442.59 357.5 441.65 349.45Z" fill="#0E9F15"/>
<path opacity="0.3" d="M441.65 349.45C440.71 341.4 440 336.79 440 336.79C440 336.79 440.16 325.57 440.82 315.12C441.53 303.83 441.37 289.61 441.65 286.79C441.65 286.79 405.37 279.04 405.07 292.12C404.73 307.33 405.74 338.78 405.96 342.87C406.26 348.62 406.27 354.6 407.25 363.93C408.23 373.26 411.01 394.93 411.01 394.93C412.259 395.598 413.653 395.947 415.07 395.947C416.486 395.947 417.881 395.598 419.13 394.93C419.13 394.93 422.28 368.86 422.13 362.23C422.05 357.424 421.588 352.633 420.75 347.9L423.61 318.39C423.61 318.39 424.73 327.51 425.04 333.26C425.35 339.01 426.13 342.52 427.55 353.26C428.78 362.54 431.91 382.13 431.91 382.13C433.096 382.801 434.447 383.128 435.809 383.073C437.171 383.019 438.491 382.585 439.62 381.82C439.62 381.82 442.59 357.5 441.65 349.45Z" fill="black"/>
<path opacity="0.15" d="M437.44 304.65C437.44 304.65 434.93 308.8 427.3 311.84L425.18 319L425 331.48C424.71 327.48 424.26 323.04 423.69 318.38L424.55 311.04C424.55 311.04 432.92 308.48 437.44 304.65Z" fill="black"/>
<path d="M443.05 247.57C441.59 242.39 438.17 240.1 434.37 239.86C433.37 239.79 431.06 239.86 431.06 239.86C431.33 242.06 424.31 243.18 419.06 241.94C417.47 242.36 412.89 242.68 411.57 243.12C407.79 244.38 405.83 249.8 405.24 262.12C405.24 262.12 404.64 288.64 404.82 296.35C414.17 300.29 423.19 300.78 428.63 299.72C439.97 297.51 441.83 292.65 441.83 292.65C441.83 292.65 441.72 285.91 441.3 275.16C443.22 259.93 443.68 249.82 443.05 247.57Z" fill="#455A64"/>
<path d="M390.24 278.8C388.01 280.06 383.83 282.11 379.02 284.2C373.71 286.51 368.38 289.11 367.57 289.64C366.01 290.64 364.2 292.53 362.71 293.31C360.92 294.25 359.39 295.45 357.31 295.69C357.017 295.751 356.715 295.749 356.424 295.683C356.132 295.618 355.858 295.49 355.62 295.31C355.4 295.1 355.27 294.82 355.05 294.61C354.83 294.4 354.21 294.15 353.92 293.77C353.63 293.39 353.71 292.44 353.29 291.95C353.081 291.757 352.853 291.586 352.61 291.44C352.2 291.11 352.11 290.26 352.03 289.76C352.03 289.49 352.03 288.92 351.68 288.88C350.442 288.772 349.197 288.772 347.96 288.88C345.63 288.99 343.96 288.65 343.96 287.52C343.91 285.94 346.34 285.79 349.23 285.4C350.84 285.18 352.46 285.01 354.07 284.76C354.69 284.67 357.44 284.5 357.26 283.48C357.176 283.168 356.99 282.893 356.73 282.7C356.23 282.25 355.73 281.84 355.23 281.36C354.761 280.888 354.417 280.308 354.23 279.67C354.165 279.424 354.165 279.166 354.23 278.92C354.262 278.799 354.324 278.688 354.412 278.599C354.5 278.509 354.609 278.444 354.73 278.41C354.99 278.38 355.252 278.444 355.47 278.59L357.78 279.74C359.004 280.456 360.306 281.03 361.66 281.45C362.705 281.729 363.801 281.76 364.86 281.54C365.54 281.32 369.39 279.18 370.65 278.48C372.82 277.26 384.83 270.03 385.07 269.89L406.47 245.19L411.96 256.96C411.96 256.96 394.6 276.34 390.24 278.8Z" fill="#FFA8A7"/>
<path d="M400.09 271.32C403.78 267.73 410.52 260.38 410.52 260.38C410.52 260.38 418.67 251.52 413.44 242.77C411.395 242.8 409.357 243.011 407.35 243.4C404.52 244.02 403.13 246.32 398.59 252.16C392.24 260.33 385.39 268.51 385.39 268.51L368.39 279.66C370.206 282.189 371.134 285.248 371.03 288.36C371.03 288.36 389.03 280.53 390.69 279.66C392.35 278.79 396.41 274.91 400.09 271.32Z" fill="#37474F"/>
<path d="M416.32 242.41C416.796 240.887 417.364 239.395 418.02 237.94C418.21 237.745 418.448 237.604 418.71 237.53L418.77 238.29C421.037 239.384 423.579 239.774 426.07 239.41C430.07 238.75 430.88 237.29 430.88 237.29L430.81 236.29C431.041 236.408 431.247 236.567 431.42 236.76C431.887 237.987 432.284 239.239 432.61 240.51C432.61 240.51 432.38 243.22 427.41 244.18C422.44 245.14 417.36 242.3 417.36 242.3L416.32 242.41Z" fill="#37474F"/>
<path d="M316.59 109.16C312.59 114.16 303.41 123.76 299.53 128.63C297.474 131.177 296.361 134.357 296.38 137.63C296.38 140.05 297.08 142.08 299.45 141.05C301.16 140.3 302.25 139.41 304.75 136.95C307 134.73 320 118.29 320 118.29C320 118.29 323.8 110.42 324.43 108.07C324.846 106.694 325.163 105.291 325.38 103.87C322.65 103.87 321.66 102.8 316.59 109.16Z" fill="#9A4A4D"/>
<path d="M263.86 232.57L239.59 260.27C239.441 260.464 239.232 260.603 238.996 260.667C238.76 260.731 238.509 260.716 238.283 260.624C238.056 260.533 237.865 260.369 237.74 260.159C237.615 259.949 237.563 259.703 237.59 259.46L240.01 222.46L263.86 232.57Z" fill="#FFA8A7"/>
<path d="M237.63 259.46C237.603 259.703 237.655 259.949 237.78 260.159C237.905 260.369 238.096 260.533 238.323 260.624C238.549 260.716 238.8 260.731 239.036 260.667C239.272 260.603 239.481 260.464 239.63 260.27L244.37 254.87C243.236 254.984 242.091 254.786 241.062 254.296C240.032 253.806 239.157 253.043 238.53 252.09L238.19 251.56L237.63 259.46Z" fill="#F0F0F0"/>
<path d="M299.42 79L298.12 82.15L296.54 85.94L240.05 222.5C241.546 226.376 244.449 229.544 248.18 231.37C253.71 234.37 260.42 234.88 263.84 232.57L319.91 97L322.91 89.73C320.71 94.3 297.27 83.59 299.42 79Z" fill="#0E9F15"/>
<path d="M312.74 114.37C311.97 116.08 310.1 117.32 307.29 117.7C301.52 118.48 293.95 115.39 290.38 110.78C288.77 108.7 288.23 106.65 288.67 104.98L290.72 99.98C290.478 100.757 290.437 101.583 290.6 102.38C290.88 103.7 291.477 104.933 292.34 105.97C295.9 110.57 303.47 113.67 309.25 112.89C310.59 112.732 311.876 112.27 313.01 111.54C313.808 111.017 314.429 110.263 314.79 109.38L312.74 114.37Z" fill="#F0F0F0"/>
<path d="M314.65 109.72C313.88 111.43 312.02 112.72 309.2 113.05C303.43 113.83 295.86 110.73 292.29 106.12C290.68 104.04 290.14 102 290.58 100.32L292.64 95.32C292.39 96.0953 292.345 96.9222 292.51 97.72C292.794 99.0388 293.391 100.27 294.25 101.31C297.81 105.92 305.39 109.02 311.16 108.23C312.501 108.076 313.788 107.614 314.92 106.88C315.718 106.361 316.339 105.611 316.7 104.73L314.65 109.72Z" fill="#0E9F15"/>
<path d="M316.56 105.06C315.79 106.77 313.93 108.06 311.12 108.39C305.34 109.17 297.78 106.08 294.2 101.46C292.6 99.39 292.05 97.34 292.5 95.67L294.56 90.67C294.322 91.4476 294.277 92.2714 294.43 93.07C294.714 94.392 295.31 95.6265 296.17 96.67C299.73 101.27 307.31 104.37 313.08 103.58C314.42 103.431 315.708 102.972 316.84 102.24C317.639 101.718 318.26 100.964 318.62 100.08L316.56 105.06Z" fill="#F0F0F0"/>
<path opacity="0.1" d="M319.91 97L322.91 89.73C321.91 91.81 316.58 90.73 311.23 88.55L252.67 233.19L239.59 260.27L263.86 232.57L319.91 97Z" fill="black"/>
<path d="M335.08 57.69C334.762 56.4829 334.189 55.3577 333.4 54.39C329.84 49.8 322.29 46.71 316.53 47.49C313.72 47.87 311.86 49.11 311.11 50.81L311.05 50.91L299.42 79C299.415 79.0465 299.415 79.0935 299.42 79.14L299.33 79.36C298.88 81.03 299.43 83.08 301.04 85.16C304.61 89.77 312.18 92.86 317.95 92.08C320.76 91.7 322.63 90.46 323.4 88.76L325.47 83.76C325.47 83.86 325.37 83.96 325.33 84.05L334.75 61.33C335.336 60.2077 335.455 58.8994 335.08 57.69Z" fill="#FFA8A7"/>
<path opacity="0.3" d="M333.4 54.39C336.96 58.99 335.18 63.39 329.4 64.13C323.62 64.87 316.09 61.83 312.53 57.23C308.97 52.63 310.75 48.23 316.53 47.49C322.31 46.75 329.84 49.8 333.4 54.39Z" fill="white"/>
<path d="M334.89 60.71C334.17 62.46 332.29 63.71 329.42 64.14C326.686 64.4246 323.923 64.0826 321.34 63.14L310.14 91.14C312.627 92.0017 315.274 92.3023 317.89 92.02C320.59 91.66 322.41 90.5 323.23 88.89L335 60.47C334.973 60.554 334.936 60.6345 334.89 60.71Z" fill="#F28F8F"/>
<path d="M361.37 249.4L355.51 251.8L351.67 237.96L360 235.59L361.37 249.4Z" fill="#B16668"/>
<path d="M354.91 249.63L354.63 248.63C353.71 248.63 354.84 253.94 352.45 258.77C350.63 262.45 348.01 263.77 348.05 266.53C348.05 268.99 350.88 269.71 355.39 267.8C359.59 266.02 361.06 263.92 361.61 262.12C362.16 260.32 361.61 258.81 362.09 257.47C362.57 256.13 364.09 254.28 364.18 252.88C364.18 252.12 363.29 250.37 362.65 248.88C362.15 247.7 361.49 246.67 361.12 246.88C361.12 247.03 361.22 247.88 361.22 247.88C360.66 248.881 359.785 249.668 358.73 250.12C357.71 250.66 355.27 250.8 354.91 249.63Z" fill="#263238"/>
<path d="M344.44 136.88C345.44 140.69 350.21 147.95 351.24 152.46C352.27 156.97 352.38 163 352.05 174.15C351.6 189.31 351.27 195.07 351.49 195.92C351.71 196.77 355.26 203.45 356.8 208.98C358.34 214.51 360.73 239.24 360.73 239.24C360.73 239.24 358.07 242.57 352.45 241.38C352.45 241.38 338.39 203.16 337.26 199.75C336.13 196.34 327.85 160.86 327.85 160.86L328.94 140.6L344.44 136.88Z" fill="#37474F"/>
<path d="M330.41 98.57L339.21 100.1C340.48 97.71 343 96.16 344.74 94.1C346.508 92.0529 347.79 89.6325 348.49 87.02C348.819 85.8226 348.951 84.5797 348.88 83.34C348.869 82.012 348.551 80.7046 347.95 79.52C347.676 78.9469 347.283 78.439 346.796 78.0303C346.31 77.6215 345.742 77.3214 345.13 77.15C345.58 74.57 343.84 71.99 341.58 70.65C339.32 69.31 336.63 68.96 334.02 68.65C331.392 68.5437 328.803 67.9785 326.37 66.98C325.729 66.6213 325.06 66.3137 324.37 66.06C324.021 65.9383 323.648 65.8984 323.28 65.9435C322.913 65.9885 322.56 66.1174 322.25 66.32C321.781 66.7345 321.464 67.2943 321.35 67.91C320.907 69.5528 320.945 71.2883 321.46 72.91C321.152 72.6702 320.797 72.4969 320.418 72.4011C320.039 72.3053 319.644 72.289 319.258 72.3534C318.873 72.4177 318.505 72.5612 318.177 72.7749C317.85 72.9885 317.57 73.2677 317.356 73.5947C317.142 73.9218 316.998 74.2896 316.933 74.6751C316.868 75.0606 316.884 75.4554 316.979 75.8345C317.075 76.2136 317.247 76.5689 317.487 76.8779C317.726 77.1869 318.027 77.443 318.37 77.63C317.714 78.2618 317.258 79.0732 317.061 79.9626C316.864 80.852 316.933 81.7798 317.26 82.63C318.06 85.1 320.26 86.57 320.87 89.11C321.415 91.4468 322.437 93.646 323.87 95.57C324.444 96.5479 325.274 97.3502 326.27 97.89C327.598 98.3636 329.001 98.594 330.41 98.57Z" fill="#263238"/>
<path d="M319.7 250.08L313.32 249.13L313.26 232.92L322.11 232.67L319.7 250.08Z" fill="#B16668"/>
<path d="M315.77 159.66C316.38 152.66 318.69 137.66 318.69 137.66L335.76 139.54C338.66 144.05 339.31 151.9 338.52 158.68L327.16 198.78C326.6 200.3 328.16 204.66 327.33 209.67C326.07 217.5 321.74 239.29 321.74 239.29C321.74 239.29 315.69 241.36 313.18 238.56C313.18 238.56 311.96 205.02 312.9 195.07C313.93 184.26 315.35 164.45 315.77 159.66Z" fill="#37474F"/>
<path d="M313.31 247.07V246C312.54 245.88 312.22 248.22 311.19 250.66C310.376 252.403 309.296 254.008 307.99 255.42C305.25 258.48 302.72 259.06 301.67 261.3C300.62 263.54 303.46 265.46 308.3 264.7C310.7 264.32 314.86 262.7 315.92 261.13C316.98 259.56 317.5 257.29 318.36 256.13C319.22 254.97 321.06 254.36 321.53 253.05C321.79 252.32 321.2 250.45 321.04 249.05C320.88 247.65 320.65 246.14 320.23 246.25L320.12 247.02C319.76 247.86 318.46 248.4 316.9 248.66C315.76 248.9 313.3 248.29 313.31 247.07Z" fill="#263238"/>
<path d="M318.87 125.33C318.76 128.33 318.69 137.63 318.69 137.63C321.96 141.79 339.55 143 344.44 136.88L347.44 121.64C347.44 121.64 349.02 105.4 345.74 104.79C343.566 104.426 341.365 104.235 339.16 104.22L329.07 103.89C325.85 103.89 325.34 103.89 325.34 103.89C322.396 106.79 319.911 110.121 317.97 113.77C316.68 116.34 315.06 120.21 318.87 125.33Z" fill="#0E9F15"/>
<g opacity="0.6">
<path d="M318.87 125.33C318.76 128.33 318.69 137.63 318.69 137.63C321.96 141.79 339.55 143 344.44 136.88L347.44 121.64C347.44 121.64 349.02 105.4 345.74 104.79C343.566 104.426 341.365 104.235 339.16 104.22L329.07 103.89C325.85 103.89 325.34 103.89 325.34 103.89C322.396 106.79 319.911 110.121 317.97 113.77C316.68 116.34 315.06 120.21 318.87 125.33Z" fill="white"/>
</g>
<path d="M322.92 76.32C321.23 77.32 319.14 81.57 319.35 90.49C319.52 98.05 321.97 99.92 323.2 100.49C324.43 101.06 326.8 100.7 329.11 100.32V103.93C329.11 103.93 326.98 111.1 327.27 114.25C333.4 108.9 339.2 104.56 339.2 104.56L339.15 94.76C339.15 94.76 340.51 96.07 342.81 94.06C344.71 92.4 345.35 89.6 343.87 88.06C343.49 87.7004 343.029 87.4362 342.527 87.2891C342.024 87.142 341.494 87.1162 340.98 87.2138C340.465 87.3114 339.981 87.5297 339.568 87.8506C339.154 88.1715 338.822 88.586 338.6 89.06C335.569 88.9513 332.614 88.0886 330 86.55C328.1 85.5195 326.47 84.0566 325.24 82.2795C324.01 80.5024 323.215 78.4609 322.92 76.32Z" fill="#B16668"/>
<path d="M328.16 88.3C328.159 88.5488 328.25 88.7891 328.417 88.974C328.583 89.1589 328.813 89.2752 329.06 89.3C329.261 89.3202 329.463 89.2792 329.64 89.1823C329.817 89.0853 329.961 88.9371 330.052 88.7571C330.143 88.5771 330.178 88.3736 330.151 88.1736C330.125 87.9735 330.038 87.7861 329.903 87.6361C329.768 87.4861 329.591 87.3804 329.395 87.333C329.199 87.2856 328.993 87.2987 328.804 87.3705C328.616 87.4424 328.453 87.5696 328.338 87.7355C328.223 87.9014 328.161 88.0982 328.16 88.3Z" fill="#263238"/>
<path d="M329.23 93.84L326.47 94.72C326.518 94.9054 326.604 95.0791 326.721 95.2307C326.838 95.3822 326.985 95.5085 327.152 95.6019C327.319 95.6954 327.503 95.754 327.694 95.7743C327.884 95.7946 328.077 95.7761 328.26 95.72C328.636 95.5962 328.948 95.3299 329.129 94.9783C329.311 94.6267 329.347 94.218 329.23 93.84Z" fill="#9A4A4D"/>
<path d="M320.31 85.67L322.23 84.34C322.149 84.2106 322.043 84.099 321.917 84.0119C321.792 83.9247 321.65 83.8639 321.501 83.833C321.351 83.8022 321.197 83.802 321.047 83.8324C320.898 83.8628 320.756 83.9233 320.63 84.01C320.375 84.1934 320.199 84.4676 320.14 84.7763C320.08 85.0851 320.141 85.4049 320.31 85.67Z" fill="#263238"/>
<path d="M320.75 87.91C320.749 88.1588 320.84 88.3991 321.007 88.584C321.173 88.7689 321.402 88.8852 321.65 88.91C321.851 88.9302 322.053 88.8891 322.23 88.7922C322.407 88.6953 322.551 88.5471 322.642 88.3671C322.733 88.1871 322.768 87.9836 322.741 87.7835C322.715 87.5835 322.628 87.3961 322.493 87.2461C322.358 87.0961 322.181 86.9904 321.985 86.943C321.789 86.8956 321.583 86.9087 321.394 86.9805C321.205 87.0524 321.043 87.1796 320.928 87.3455C320.813 87.5114 320.751 87.7082 320.75 87.91Z" fill="#263238"/>
<path d="M325.71 87.36L325.56 93.08L322.55 92.15L325.71 87.36Z" fill="#9A4A4D"/>
<path d="M329.11 100.28C331.54 99.96 336.54 98.52 337.32 96.55C337.006 97.5508 336.392 98.4306 335.56 99.07C334.07 100.35 329.11 101.79 329.11 101.79V100.28Z" fill="#9A4A4D"/>
<path d="M332.41 180.2L328.07 162C325.487 161.078 323.034 159.828 320.77 158.28C322.216 160.106 323.94 161.692 325.88 162.98L332.41 180.2Z" fill="#263238"/>
<path d="M336.48 90.11C336.735 90.5449 337.08 90.9199 337.492 91.2097C337.905 91.4995 338.375 91.6974 338.87 91.79C338.614 91.3975 338.456 90.9492 338.409 90.4829C338.362 90.0166 338.427 89.5458 338.6 89.11C338.839 88.7251 338.97 88.283 338.98 87.83C338.943 87.656 338.868 87.4926 338.759 87.3523C338.649 87.2119 338.51 87.0983 338.35 87.02C337.71 86.67 336.3 86.25 336.11 87.24C335.883 88.21 336.015 89.2293 336.48 90.11Z" fill="#263238"/>
<path d="M299.32 146.5C298.056 146.477 296.816 146.155 295.7 145.56C295.174 145.178 294.729 144.695 294.39 144.14C293.83 143.157 293.457 142.079 293.29 140.96C293.261 140.499 293.09 140.059 292.8 139.7C292.46 139.37 291.87 139.24 291.8 138.77C291.781 138.636 291.799 138.499 291.852 138.374C291.905 138.249 291.991 138.14 292.1 138.06C292.324 137.909 292.582 137.816 292.85 137.79C293.459 137.701 294.079 137.759 294.66 137.96C295.228 138.146 295.81 138.283 296.4 138.37C297.674 138.671 298.982 138.809 300.29 138.78C302.14 138.64 303.59 138.12 303.29 137.85C302.99 137.58 301.86 137.47 300.37 136.85C298.88 136.23 297.92 134.8 298.37 134.02C298.82 133.24 298.71 133.41 300.27 133.81C301.83 134.21 303.34 134.08 305.49 134.81C307.39 135.46 308.42 136.48 310.28 136.36C316.62 136.03 331.72 132.02 331.72 132.02C334.23 127.45 338.23 118.15 339.87 114.22C341.259 110.73 343.294 107.534 345.87 104.8C349.77 104.99 353.33 108.27 350.87 115.28C347.899 123.519 343.901 131.351 338.97 138.59C337.63 140.48 336.13 141.22 332.83 141.59C322.16 142.76 314.22 143.59 310.08 144.82C305.94 146.05 305.52 146.23 304.3 146.4C302.653 146.664 300.977 146.698 299.32 146.5Z" fill="#B16668"/>
<path d="M281.89 121.33C284.038 120.395 286.409 120.1 288.72 120.48C290.58 120.78 290.58 126.99 284.6 128.95C280.71 130.22 278.38 129.66 277.12 132.86C277.12 132.86 274.6 132.53 275.17 128.95C275.793 125.265 277.435 121.829 279.91 119.03C281.63 117.03 281.74 115.3 282.58 115.88C283.42 116.46 283.1 118.41 283.1 118.41L281.89 121.33Z" fill="#B16668"/>
</svg>
