<svg width="545" height="379" viewBox="0 0 545 379" fill="none" xmlns="http://www.w3.org/2000/svg">
<path d="M62.238 269.754H42.8193V278.818H62.238V269.754Z" fill="#EBEBEB"/>
<path d="M51.4067 281.183H31.988V290.247H51.4067V281.183Z" fill="#EBEBEB"/>
<path d="M73.0766 281.183H53.658V290.247H73.0766V281.183Z" fill="#EBEBEB"/>
<path d="M73.0766 190.787H53.658V199.851H73.0766V190.787Z" fill="#EBEBEB"/>
<path d="M507.181 191.776H487.762V200.84H507.181V191.776Z" fill="#EBEBEB"/>
<path d="M507.181 65.7639H487.762V74.8278H507.181V65.7639Z" fill="#EBEBEB"/>
<path d="M518.012 77.193H498.593V86.2569H518.012V77.193Z" fill="#EBEBEB"/>
<path d="M51.4067 65.772H31.988V74.8359H51.4067V65.772Z" fill="#EBEBEB"/>
<path d="M493.68 250.768C493.717 251.722 493.695 252.677 493.614 253.627C493.614 252.995 493.614 252.356 493.666 251.724C493.673 251.408 493.68 251.1 493.68 250.768Z" fill="#DBDBDB"/>
<path d="M500.258 312.085C500.141 312.36 500.544 312.587 500.683 312.328C504.413 305.255 506.81 297.422 507.731 289.3C510.545 285.836 512.638 281.733 513.861 277.279C517.308 276.737 520.96 275.732 522.903 272.249C524.715 269.009 525.001 264.384 525.323 260.699L525.382 260.642C525.41 260.615 525.428 260.577 525.43 260.536C525.433 260.495 525.421 260.454 525.397 260.423C525.373 260.392 525.338 260.373 525.301 260.37C525.264 260.367 525.227 260.38 525.199 260.407C522.517 262.635 520.046 265.156 517.821 267.932C515.9 270.41 515.189 273.262 514.111 276.186C515.42 270.879 516.059 265.397 516.01 259.897C516.035 259.87 516.052 259.836 516.061 259.799C516.07 259.762 516.07 259.723 516.061 259.686L516.01 259.524V259.338C516.014 259.322 516.014 259.305 516.01 259.289C518.254 256.616 520.124 254.583 520.315 250.8C520.549 246.127 518.679 242.417 517.007 238.294C516.993 238.257 516.97 238.226 516.94 238.204C516.91 238.182 516.875 238.171 516.839 238.171C516.803 238.171 516.768 238.182 516.738 238.204C516.708 238.226 516.684 238.257 516.67 238.294C515.291 241.534 513.568 244.968 513.326 248.597C513.069 252.437 514.404 256.3 515.651 259.816C515.67 259.86 515.701 259.896 515.739 259.921C514.822 270.151 512.761 279.604 507.811 288.328C509.373 273.092 506.022 257.467 500.309 242.968C508.42 239.606 506.235 230.931 505.171 223.39C505.171 223.39 505.127 223.074 505.12 222.993C505.12 222.953 505.12 222.936 505.069 222.993C505.017 223.05 500.779 229.23 499.935 232.713C499.246 235.548 499.554 238.658 499.752 241.623C498.598 238.804 497.376 236.037 496.085 233.321C496.085 233.159 496.085 232.988 496.085 232.818C496.093 232.812 496.099 232.804 496.103 232.795C496.108 232.786 496.11 232.776 496.11 232.766C496.11 232.755 496.108 232.745 496.103 232.736C496.099 232.727 496.093 232.719 496.085 232.713V232.673C496.188 229.36 496.276 226.055 495.029 222.953C493.563 219.372 490.849 216.424 488.29 213.775C488.29 213.727 488.114 213.775 488.114 213.816C487.762 217.558 487.065 222.183 488.539 225.739C489.896 229.028 493.196 230.85 495.587 233.069H495.645C500.126 244.968 504.878 256.827 506.645 269.609C501.582 265.957 497.118 261.38 493.445 256.073C495.484 253.984 496.848 251.651 496.679 248.459C496.433 244.155 494.965 240.046 492.485 236.714C492.475 236.699 492.462 236.686 492.446 236.678C492.431 236.669 492.414 236.665 492.397 236.666C492.364 236.652 492.328 236.65 492.294 236.659C492.259 236.668 492.228 236.688 492.205 236.717C492.181 236.746 492.166 236.782 492.161 236.82C492.156 236.859 492.161 236.898 492.177 236.933C491.041 239.458 490.403 242.221 490.305 245.039C490.208 247.857 490.653 250.665 491.612 253.279C489.634 250.127 487.838 246.84 486.237 243.437C487.857 236.885 482.504 233.442 478.903 229.149C478.808 229.028 478.595 229.149 478.683 229.311C478.713 229.369 478.744 229.426 478.779 229.481C478.111 236.293 480.524 241.631 486.171 244.798C486.21 244.805 486.249 244.805 486.288 244.798C488.484 250.709 491.691 256.096 495.733 260.666C494.375 259.577 492.838 258.788 491.209 258.341C487.997 257.531 485.232 259.006 482.225 260.051H482.145H482.101C482.052 260.07 482.011 260.105 481.981 260.151C481.952 260.198 481.936 260.253 481.936 260.31C481.936 260.366 481.952 260.422 481.981 260.468C482.011 260.515 482.052 260.55 482.101 260.569C486.691 263.874 493.101 268.321 497.955 263.12L498.285 263.339C500.874 265.973 503.68 268.332 506.667 270.386C506.715 270.416 506.767 270.435 506.821 270.443C506.961 271.561 507.085 272.695 507.181 273.829C507.894 283.137 506.879 292.509 504.196 301.369C500.214 295.221 497.42 289.267 495.983 281.75C497.449 275.635 494.333 270.977 490.527 266.668C490.512 266.641 490.49 266.62 490.464 266.607C490.438 266.595 490.409 266.591 490.381 266.597C490.353 266.604 490.327 266.619 490.307 266.642C490.287 266.665 490.274 266.694 490.27 266.725C489.727 269.633 488.906 273.44 489.874 276.323C490.842 279.207 493.357 281.078 495.631 282.504C495.631 282.504 495.631 282.504 495.682 282.504C496.173 285.842 497.02 289.105 498.205 292.224C496.979 289.988 495.29 288.105 493.277 286.732C490.695 285.071 488.143 285.152 485.21 285.404C484.975 285.404 488.781 296.695 498.52 293.382C498.63 293.528 498.733 293.674 498.843 293.811C500.143 296.89 501.851 299.737 503.91 302.26C502.882 305.617 501.662 308.898 500.258 312.085ZM498.227 293.131C495.535 293.18 492.69 293.414 490.314 291.786C488.114 290.272 487.219 288.287 485.613 286.019C488.547 286.197 490.886 285.792 493.636 287.842C495.506 289.227 496.833 291.219 498.227 293.131ZM495.543 281.88C493.145 280.365 490.835 278.243 490.343 275.141C489.925 272.533 490.402 269.868 490.505 267.235C491.825 269.139 493.13 271.075 494.289 273.092C495.946 275.991 495.873 278.51 495.66 281.653C495.62 281.67 495.585 281.701 495.564 281.743C495.542 281.784 495.535 281.833 495.543 281.88ZM485.789 243.664C483.741 242.357 482.007 240.523 480.737 238.318C479.27 235.637 479.498 232.851 479.072 229.919C480.202 231.521 481.469 232.999 482.856 234.333C485.276 236.949 486.332 239.914 485.789 243.64V243.664ZM493.394 255.15L493.291 255.28C492.585 252.437 492.121 249.527 491.905 246.588C491.752 243.745 492.294 240.983 492.433 238.172C492.972 240.996 493.318 243.861 493.467 246.742C493.533 248.006 493.643 249.383 493.68 250.792C493.68 249.456 493.68 248.119 493.643 246.783C493.539 243.716 493.14 240.669 492.455 237.695V237.565C493.321 240.805 495.059 243.705 495.279 247.172C495.444 249.938 494.813 252.691 493.475 255.037C493.547 254.578 493.593 254.116 493.614 253.652C493.569 254.156 493.496 254.656 493.394 255.15ZM492.345 237.735C492.349 237.784 492.349 237.832 492.345 237.881C491.847 240.833 491.643 243.838 491.737 246.839C492.005 249.723 492.496 252.577 493.203 255.369L493.137 255.458C492.067 252.129 490.688 248.824 490.879 245.211C491.025 242.708 491.839 240.214 492.345 237.743V237.735ZM493.988 254.34C495.004 252.336 495.511 250.067 495.455 247.771C495.389 244.158 493.695 241.161 492.639 237.857C493.906 240.249 494.891 242.811 495.572 245.479C496.467 249.399 495.836 251.732 493.988 254.34ZM497.486 262.886C495.161 264.246 492.895 265.145 490.153 264.595C487.41 264.044 485.173 262.1 482.915 260.447C485.635 259.743 488.121 258.366 490.981 259.103C493.533 259.759 495.389 261.444 497.486 262.902V262.886ZM495.359 229.862C494.095 224.303 491.852 219.074 488.759 214.472C490.842 217.007 492.837 219.478 494.142 222.685C495.117 225.059 495.147 227.464 495.359 229.878V229.862ZM495.44 231.749C493.592 225.868 491.339 220.151 488.701 214.65C491.865 219.623 494.167 225.201 495.491 231.101C495.528 231.393 495.572 231.684 495.623 231.968L495.44 231.749ZM490.226 223.819C489.141 220.798 488.95 217.428 488.437 214.237C491.065 219.885 493.382 225.703 495.374 231.66C493.453 229.23 491.333 226.841 490.226 223.835V223.819ZM495.359 231.919C493.159 229.967 490.527 228.193 489.375 225.269C488.158 222.199 488.312 217.428 488.305 214.059C488.693 217.396 488.979 221.057 490.167 224.168C491.333 227.1 493.431 229.554 495.374 231.919H495.359ZM501.028 235.532C501.505 231.304 503.587 227.918 504.944 224.07C504.941 227.151 504.556 230.217 503.8 233.183C503.015 236.318 501.549 239.153 500.353 242.093C500.456 240.197 500.61 238.318 500.874 236.423C500.537 238.178 500.324 239.96 500.236 241.753C500.163 238.513 500.111 234.884 500.969 231.944C501.908 228.752 503.646 226.346 504.951 223.495C504.948 223.544 504.948 223.593 504.951 223.641C503.309 227.367 501.446 231.401 501.043 235.532H501.028ZM505.12 225.383C505.325 228.388 505.567 231.458 504.929 234.374C504.18 237.509 502.587 240.319 500.361 242.433C501.856 239.515 503.061 236.427 503.954 233.223C504.324 231.666 504.598 230.083 504.775 228.485C504.915 227.472 505.069 226.427 505.135 225.383H505.12ZM500.331 242.7C500.331 242.636 500.331 242.571 500.331 242.506C502.476 240.564 504.052 237.966 504.863 235.038C505.418 232.919 505.629 230.709 505.487 228.509C505.652 229.868 505.732 231.237 505.729 232.608C505.648 237.241 503.756 240.246 500.346 242.7H500.331ZM515.915 259.127C514.903 255.693 513.715 251.691 514.111 248.127C514.838 245.101 515.762 242.137 516.875 239.258C516.875 239.258 519.611 246.443 519.559 250.104C519.515 254.089 517.33 255.895 515.929 259.127H515.915ZM514.155 276.664C515.621 273.845 516.237 270.807 518.217 268.264C520.389 265.671 522.695 263.221 525.125 260.925C524.458 263.93 524.194 267.089 523.197 269.981C521.649 274.501 518.071 275.748 514.169 276.664H514.155Z" fill="#DBDBDB"/>
<path d="M485.555 243.154C485.635 243.373 485.723 243.583 485.804 243.802C485.804 243.859 485.907 243.842 485.885 243.802C485.863 243.761 485.819 243.559 485.782 243.445L485.951 243.632C485.951 243.834 486.002 244.029 486.031 244.231H486.068C486.068 244.053 486.017 243.875 485.995 243.697L486.215 243.956L485.973 243.672C485.239 238.521 482.577 234.211 479.475 230.372C479.402 230.226 479.321 230.08 479.241 229.935C479.236 229.928 479.23 229.923 479.223 229.919C479.216 229.915 479.208 229.913 479.2 229.913C479.193 229.913 479.185 229.915 479.178 229.919C479.171 229.923 479.165 229.928 479.16 229.935L479.072 229.821C479.072 229.821 479.006 229.821 479.021 229.821L479.189 230.08C479.712 232.678 480.504 235.2 481.551 237.597C482.621 239.664 483.971 241.538 485.555 243.154ZM479.6 230.664C481.58 234.819 483.89 238.764 485.562 243.081C484.031 241.443 482.726 239.565 481.69 237.508C480.722 235.209 479.951 232.814 479.387 230.356C479.424 230.461 479.49 230.566 479.6 230.664ZM485.804 243.356C485.069 241.204 484.148 239.134 483.054 237.176C482.093 235.281 481.155 233.377 480.165 231.506C481.301 233.126 482.511 234.673 483.531 236.366C484.788 238.542 485.622 240.983 485.98 243.535L485.804 243.356Z" fill="#DBDBDB"/>
<path d="M482.35 260.65L482.973 260.504C484.067 261.412 485.272 262.143 486.552 262.675C487.742 263.288 489.003 263.716 490.299 263.947C492.73 264.34 495.212 263.943 497.442 262.805L497.735 262.95C497.735 262.95 497.787 262.95 497.735 262.91C497.735 262.91 497.735 262.91 497.735 262.869L497.559 262.805H497.501L497.853 262.618L497.486 262.796C495.192 261.349 492.693 260.341 490.094 259.816C487.685 259.544 485.251 259.749 482.907 260.423L482.79 260.342C482.813 260.371 482.837 260.398 482.863 260.423H482.768L482.343 260.52C482.327 260.521 482.313 260.529 482.302 260.542C482.292 260.555 482.287 260.572 482.288 260.589C482.289 260.606 482.296 260.622 482.307 260.634C482.319 260.645 482.335 260.651 482.35 260.65ZM497.017 262.586C492.692 261.021 488.161 260.271 483.611 260.366C485.744 259.81 487.947 259.668 490.123 259.945C492.506 260.48 494.813 261.369 496.98 262.586H497.017ZM483.083 260.48H483.142C487.977 260.414 492.791 261.193 497.405 262.788C492.536 265.105 487.359 263.687 483.061 260.48H483.083Z" fill="#DBDBDB"/>
<path d="M495.447 282.309C495.444 282.319 495.443 282.33 495.444 282.34C495.445 282.35 495.449 282.36 495.454 282.369C495.46 282.377 495.467 282.385 495.475 282.389C495.484 282.394 495.493 282.397 495.502 282.397C495.512 282.397 495.521 282.394 495.53 282.389C495.538 282.385 495.545 282.377 495.551 282.369C495.556 282.36 495.559 282.35 495.561 282.34C495.562 282.33 495.561 282.319 495.557 282.309C495.557 282.188 495.557 282.074 495.557 281.953L495.836 282.269C495.873 282.269 495.924 282.269 495.887 282.204L495.557 281.799C495.645 276.639 493.702 272.079 490.981 268.029L490.578 267.162C490.637 267.332 490.703 267.503 490.769 267.673L490.6 267.422V267.3V267.397L490.527 267.284C490.527 267.284 490.468 267.284 490.483 267.284C490.526 267.343 490.565 267.405 490.6 267.47C490.458 270.21 490.771 272.955 491.524 275.57C492.44 277.903 493.769 280.009 495.433 281.767V281.912H495.469C495.469 281.912 495.469 281.864 495.469 281.84L495.447 282.309ZM495.447 281.653L495.389 281.58C495.019 279.466 494.444 277.402 493.673 275.424C494.408 277.396 494.97 279.441 495.352 281.532C493.753 279.58 492.243 277.579 491.487 275.052C490.896 272.605 490.595 270.084 490.593 267.551L490.893 268.037C491.627 269.868 492.36 271.674 493.02 273.537C492.448 271.868 491.883 270.2 491.201 268.58C492.425 270.413 493.438 272.408 494.215 274.517C494.977 276.805 495.393 279.216 495.447 281.653Z" fill="#DBDBDB"/>
<path d="M485.467 286.108H485.643C488.752 290.158 493.636 293.236 498.535 293.066C495.932 292.862 493.392 292.088 491.062 290.79C489.093 289.596 487.318 288.046 485.811 286.205L486.127 286.27C490.245 287.877 494.182 290.003 497.86 292.604L498.094 292.847L497.948 292.685L498.329 292.953C498.094 292.75 497.852 292.556 497.596 292.361C496.124 290.513 494.337 289.002 492.338 287.915C490.256 286.974 488.068 286.355 485.833 286.076L485.584 285.995L485.423 285.8C485.423 285.8 485.357 285.8 485.379 285.849L485.467 285.971C485.467 285.971 485.467 286.019 485.467 286.043C485.462 286.054 485.46 286.065 485.46 286.076C485.46 286.087 485.462 286.098 485.467 286.108ZM486.999 286.416C488.796 286.726 490.554 287.27 492.235 288.036C494.115 289.071 495.83 290.439 497.31 292.086C494.148 289.658 490.685 287.749 487.029 286.416H486.999Z" fill="#DBDBDB"/>
<path d="M515.842 259.362C515.842 259.321 515.842 259.273 515.842 259.224C515.842 259.176 515.878 259.224 515.893 259.224C517.235 256.292 518.452 252.817 518.621 249.504C518.641 247.868 518.479 246.236 518.137 244.644C517.823 242.69 517.402 240.759 516.876 238.861C516.871 238.839 516.858 238.821 516.841 238.809C516.824 238.798 516.803 238.795 516.784 238.8C516.764 238.805 516.748 238.819 516.737 238.838C516.727 238.857 516.724 238.88 516.729 238.901C516.788 239.201 516.854 239.509 516.912 239.817C516.912 243.13 517.008 246.451 516.722 249.763C516.443 252.858 515.988 255.919 515.812 259.03L515.761 259.159C515.747 259.176 515.739 259.198 515.739 259.22C515.739 259.243 515.747 259.264 515.761 259.281C515.761 259.33 515.761 259.378 515.761 259.427L515.842 259.362ZM515.842 258.827C516.01 255.766 516.575 252.752 516.832 249.699C517.072 246.446 517.104 243.179 516.927 239.922C517.558 242.895 518.394 245.908 518.394 248.953C518.394 252.331 517.088 255.766 515.871 258.827H515.842Z" fill="#DBDBDB"/>
<path d="M515.709 259.459C515.585 256.13 514.411 253.076 514.683 249.699C514.871 246.805 515.485 243.965 516.501 241.291C515.481 244.209 514.906 247.294 514.8 250.42C514.661 253.489 515.68 256.405 515.783 259.459H515.709Z" fill="#DBDBDB"/>
<path d="M513.231 276.704C513.436 276.704 513.642 276.656 513.847 276.623C513.847 276.623 513.847 276.688 513.906 276.664L514.008 276.599H514.148L514.089 276.688C514.045 276.761 514.148 276.818 514.192 276.753L514.316 276.566C517.441 275.801 520.215 273.824 522.134 270.994C524.143 268.102 524.334 264.133 525.36 260.763C525.361 260.75 525.359 260.736 525.352 260.724C525.346 260.712 525.336 260.703 525.325 260.698C525.314 260.692 525.301 260.691 525.289 260.694C525.277 260.697 525.266 260.704 525.258 260.715C525.162 260.942 525.074 261.176 524.994 261.411C525.03 261.274 525.074 261.128 525.111 260.982C525.111 260.982 525.111 260.982 525.074 260.982C523.929 264.116 522.436 267.082 520.63 269.811C518.926 272.152 516.931 274.217 514.705 275.943C516.318 273.456 517.638 270.791 519.428 268.41C521.217 266.028 523.197 263.453 525.067 260.958C522.911 263.388 521.012 266.109 519.068 268.734C517.323 271.099 515.974 273.723 514.419 276.226L514.184 276.404C513.876 276.47 513.566 276.516 513.253 276.542C513.114 276.51 513.114 276.72 513.231 276.704ZM514.514 276.234C518.834 273.1 522.808 268.134 524.627 262.651C523.989 265.081 523.769 267.689 522.574 269.9C520.756 273.126 517.856 275.424 514.507 276.291L514.514 276.234Z" fill="#DBDBDB"/>
<path d="M491.839 302.26C491.839 302.26 492.147 305.297 492.573 309.623C493.585 319.804 495.286 337.073 495.286 338.126H510.576C510.576 337.073 512.27 319.804 513.282 309.623C513.707 305.297 514.015 302.26 514.015 302.26H491.839Z" fill="#DBDBDB"/>
<path d="M491.839 302.26C491.839 302.26 492.147 305.297 492.573 309.623H513.282C513.707 305.297 514.015 302.26 514.015 302.26H491.839Z" fill="#C7C7C7"/>
<path d="M490.446 306.415H515.409V301.045H490.446V306.415Z" fill="#DBDBDB"/>
<path d="M343.619 361.291C343.645 354.008 312.939 347.968 275.035 347.8C237.13 347.632 206.381 353.399 206.355 360.682C206.328 367.965 237.034 374.005 274.939 374.173C312.843 374.341 343.592 368.574 343.619 361.291Z" fill="#EBEBEB"/>
<path d="M22.4473 337.989L85.5873 337.794L148.727 337.721L275 337.584L401.273 337.721L464.413 337.794L527.553 337.989L464.413 338.191L401.273 338.256L275 338.394L148.727 338.256L85.5873 338.183L22.4473 337.989Z" fill="#263238"/>
<path d="M235.429 282.585L219.817 290.677H76.582V109.431H235.429V282.585Z" fill="white"/>
<path d="M314.556 282.585L330.176 290.677H473.411V109.431H314.556V282.585Z" fill="white"/>
<path d="M211.926 121.897H106.429V290.693H211.926V121.897Z" fill="white"/>
<path d="M214.412 161.822H81.928V164.859H214.412V161.822Z" fill="#263238"/>
<path d="M214.412 204.776H81.928V207.814H214.412V204.776Z" fill="#263238"/>
<path d="M214.412 247.739H81.928V250.776H214.412V247.739Z" fill="#263238"/>
<path d="M101.779 161.814V127.607H90.9186V161.814H101.779Z" fill="#A6A6A6"/>
<path d="M101.779 152.11V148.352H90.9186V152.11H101.779Z" fill="#31EA73"/>
<path d="M101.779 135.74V134.347H90.9186V135.74H101.779Z" fill="#31EA73"/>
<path d="M172.084 127.615V161.822H182.945V127.615H172.084Z" fill="#37474F"/>
<path d="M172.084 137.303V141.062H182.945V137.303H172.084Z" fill="#31EA73"/>
<path d="M182.938 159.781V158.387H172.077V159.781H182.938Z" fill="#31EA73"/>
<path d="M182.938 153.349V151.956H172.077V153.349H182.938Z" fill="#31EA73"/>
<path d="M152.541 161.806V127.599H144.305V161.806H152.541Z" fill="#37474F"/>
<path d="M152.541 152.118V148.36H144.305V152.118H152.541Z" fill="#31EA73"/>
<path d="M152.541 135.748V134.355H144.305V135.748H152.541Z" fill="#31EA73"/>
<path d="M182.938 124.295V161.814H187.513V124.295H182.938Z" fill="#A6A6A6"/>
<path d="M183.869 126.878V141.313H186.611V126.878H183.869Z" fill="#EBEBEB"/>
<path d="M152.541 125.331V161.814H160.131V125.331H152.541Z" fill="#31EA73"/>
<path d="M154.095 144.35V158.379H158.649V144.35H154.095Z" fill="white"/>
<path d="M129.36 161.822V131.512H116.475V161.822H129.36Z" fill="#A6A6A6"/>
<path d="M129.36 158.614V155.787H116.475V158.614H129.36Z" fill="#37474F"/>
<path d="M129.36 153.924V152.831H116.475V153.924H129.36Z" fill="#37474F"/>
<path d="M90.926 161.822V133.334H82.0234V161.822H90.926Z" fill="#31EA73"/>
<path d="M90.9187 158.8V156.144H82.016V158.8H90.9187Z" fill="#37474F"/>
<path d="M90.9187 141.855V139.198H82.016V141.855H90.9187Z" fill="#37474F"/>
<path d="M90.9187 144.707V143.678H82.016V144.707H90.9187Z" fill="#37474F"/>
<path d="M187.513 119.183V161.822H193.974V119.183H187.513Z" fill="#31EA73"/>
<path d="M187.513 123.695V127.672H193.974V123.695H187.513Z" fill="#37474F"/>
<path d="M187.513 149.056V153.033H193.974V149.056H187.513Z" fill="#37474F"/>
<path d="M187.513 144.788V146.327H193.974V144.788H187.513Z" fill="#37474F"/>
<path d="M172.084 161.814V121.905H160.131V161.814H172.084Z" fill="#A6A6A6"/>
<path d="M172.077 157.586V153.868H160.123V157.586H172.077Z" fill="#263238"/>
<path d="M172.077 133.853V130.135H160.123V133.853H172.077Z" fill="#263238"/>
<path d="M172.084 137.846V136.404H160.131V137.846H172.084Z" fill="#263238"/>
<path d="M140.059 161.822L128.788 129.236L133.019 127.899L144.283 160.485L140.059 161.822Z" fill="#37474F"/>
<path d="M138.864 158.363L137.815 155.326L142.039 153.989L143.095 157.027L138.864 158.363Z" fill="#31EA73"/>
<path d="M132.161 138.988L131.113 135.95L135.337 134.614L136.393 137.651L132.161 138.988Z" fill="#31EA73"/>
<path d="M101.064 124.703L110.049 161.792L116.368 159.924L107.383 122.835L101.064 124.703Z" fill="#37474F"/>
<path d="M102.013 128.629L102.851 132.088L109.17 130.22L108.332 126.762L102.013 128.629Z" fill="#A6A6A6"/>
<path d="M107.361 150.685L108.199 154.143L114.518 152.275L113.68 148.817L107.361 150.685Z" fill="#A6A6A6"/>
<path d="M106.465 146.983L106.789 148.321L113.108 146.454L112.784 145.116L106.465 146.983Z" fill="#A6A6A6"/>
<path d="M193.99 130.301L205.361 161.814L214.251 157.9L202.88 126.388L193.99 130.301Z" fill="#37474F"/>
<path d="M195.198 133.649L196.257 136.584L205.147 132.67L204.088 129.736L195.198 133.649Z" fill="#A6A6A6"/>
<path d="M201.953 152.383L203.012 155.317L211.902 151.404L210.843 148.469L201.953 152.383Z" fill="#A6A6A6"/>
<path d="M200.794 149.227L201.205 150.363L210.094 146.448L209.684 145.312L200.794 149.227Z" fill="#A6A6A6"/>
<path d="M203.023 290.677V256.47H192.163V290.677H203.023Z" fill="#37474F"/>
<path d="M203.023 280.989V277.231H192.163V280.989H203.023Z" fill="#31EA73"/>
<path d="M203.023 264.611V263.218H192.163V264.611H203.023Z" fill="#31EA73"/>
<path d="M88.2788 256.478V290.685H99.1395V256.478H88.2788Z" fill="#37474F"/>
<path d="M88.2861 266.166V269.924H99.1468V266.166H88.2861Z" fill="#31EA73"/>
<path d="M99.1394 288.644V287.25H88.2787V288.644H99.1394Z" fill="#31EA73"/>
<path d="M99.1394 282.22V280.827H88.2787V282.22H99.1394Z" fill="#31EA73"/>
<path d="M172.722 253.514V290.693H179.828V253.514H172.722Z" fill="#31EA73"/>
<path d="M172.722 264.052V268.134H179.828V264.052H172.722Z" fill="#37474F"/>
<path d="M179.835 288.465V286.951H172.729V288.465H179.835Z" fill="#37474F"/>
<path d="M179.843 281.483V279.968H172.737V281.483H179.843Z" fill="#37474F"/>
<path d="M125.558 290.694L142.61 262.141L135.736 257.132L118.684 285.686L125.558 290.694Z" fill="#37474F"/>
<path d="M130.39 282.609L132.263 279.471L125.389 274.463L123.515 277.6L130.39 282.609Z" fill="#31EA73"/>
<path d="M138.548 268.93L139.243 267.767L132.368 262.759L131.674 263.922L138.548 268.93Z" fill="#31EA73"/>
<path d="M88.2788 290.677V260.86H81.8328V290.677H88.2788Z" fill="#31EA73"/>
<path d="M87.0247 275.141V263.671H83.1527V275.141H87.0247Z" fill="#EBEBEB"/>
<path d="M148.72 253.165V290.685H153.296V253.165H148.72Z" fill="#31EA73"/>
<path d="M149.622 255.749V270.184H152.365V255.749H149.622Z" fill="#A6A6A6"/>
<path d="M111.093 254.194V290.677H118.683V254.194H111.093Z" fill="#31EA73"/>
<path d="M112.574 273.221V287.25H117.128V273.221H112.574Z" fill="#EBEBEB"/>
<path d="M172.722 290.685V260.375H159.837V290.685H172.722Z" fill="#A6A6A6"/>
<path d="M172.722 287.477V284.65H159.837V287.477H172.722Z" fill="#37474F"/>
<path d="M172.722 282.795V281.702H159.838V282.795H172.722Z" fill="#37474F"/>
<path d="M211.926 290.693V262.205H203.024V290.693H211.926Z" fill="#A6A6A6"/>
<path d="M211.919 287.672V285.015H203.016V287.672H211.919Z" fill="#37474F"/>
<path d="M211.926 270.726V268.07H203.024V270.726H211.926Z" fill="#37474F"/>
<path d="M211.926 273.569V272.541H203.024V273.569H211.926Z" fill="#37474F"/>
<path d="M111.085 290.685V250.776H99.1321V290.685H111.085Z" fill="#A6A6A6"/>
<path d="M111.093 286.448V282.73H99.1394V286.448H111.093Z" fill="#37474F"/>
<path d="M111.093 262.715V258.998H99.1394V262.715H111.093Z" fill="#37474F"/>
<path d="M111.093 266.717V265.275H99.1394V266.717H111.093Z" fill="#37474F"/>
<path d="M137.434 290.685L148.698 258.098L144.474 256.762L133.203 289.348L137.434 290.685Z" fill="#A6A6A6"/>
<path d="M138.622 287.234L139.678 284.197L135.447 282.86L134.398 285.898L138.622 287.234Z" fill="#37474F"/>
<path d="M145.325 267.851L146.373 264.821L142.149 263.485L141.101 266.514L145.325 267.851Z" fill="#37474F"/>
<path d="M153.296 252.299V290.693H159.837V252.299H153.296Z" fill="#37474F"/>
<path d="M153.303 256.365V259.945H159.845V256.365H153.303Z" fill="#A6A6A6"/>
<path d="M153.296 279.199V282.779H159.837V279.199H153.296Z" fill="#A6A6A6"/>
<path d="M153.296 275.36V276.745H159.837V275.36H153.296Z" fill="#A6A6A6"/>
<path d="M186.354 204.768V170.562H174.988V204.768H186.354Z" fill="#37474F"/>
<path d="M186.362 195.072V191.314H174.995V195.072H186.362Z" fill="#31EA73"/>
<path d="M186.354 178.702V177.309H174.988V178.702H186.354Z" fill="#31EA73"/>
<path d="M86.5459 204.783L98.8401 173.387L95.3065 171.699L83.0123 203.095L86.5459 204.783Z" fill="#37474F"/>
<path d="M90.0252 195.888L91.376 192.438L87.8424 190.75L86.4915 194.2L90.0252 195.888Z" fill="#31EA73"/>
<path d="M95.9121 180.862L96.4128 179.584L92.8792 177.895L92.3785 179.174L95.9121 180.862Z" fill="#31EA73"/>
<path d="M112.757 170.578V204.784H124.124V170.578H112.757Z" fill="#37474F"/>
<path d="M112.757 180.266V184.024H124.124V180.266H112.757Z" fill="#31EA73"/>
<path d="M124.124 202.735V201.342H112.757V202.735H124.124Z" fill="#31EA73"/>
<path d="M124.124 196.312V194.918H112.757V196.312H124.124Z" fill="#31EA73"/>
<path d="M167.083 200.799L152.247 170.375L144.584 174.539L159.419 204.954L167.083 200.799Z" fill="#37474F"/>
<path d="M162.881 192.173L161.253 188.835L153.582 192.991L155.217 196.336L162.881 192.173Z" fill="#31EA73"/>
<path d="M155.782 177.617L155.174 176.378L147.51 180.533L148.112 181.78L155.782 177.617Z" fill="#31EA73"/>
<path d="M174.988 204.776V164.867H167.046V204.776H174.988Z" fill="#31EA73"/>
<path d="M173.434 183.975V168.626H168.667V183.975H173.434Z" fill="white"/>
<path d="M107.969 175.576V204.784H112.757V175.576H107.969Z" fill="#A6A6A6"/>
<path d="M108.9 177.584V188.819H111.775V177.584H108.9Z" fill="#EBEBEB"/>
<path d="M136.642 168.294V204.776H144.584V168.294H136.642Z" fill="#31EA73"/>
<path d="M138.197 187.312V201.342H142.963V187.312H138.197Z" fill="white"/>
<path d="M211.926 204.776V168.286H202.606V204.776H211.926Z" fill="#A6A6A6"/>
<path d="M211.926 200.904V197.502H202.606V200.904H211.926Z" fill="#37474F"/>
<path d="M211.926 179.204V175.802H202.606V179.204H211.926Z" fill="#37474F"/>
<path d="M211.926 182.858V181.537H202.606V182.858H211.926Z" fill="#37474F"/>
<path d="M136.642 204.776V164.867H124.131V204.776H136.642Z" fill="#A6A6A6"/>
<path d="M136.642 200.548V196.83H124.131V200.548H136.642Z" fill="#263238"/>
<path d="M136.635 176.815V173.097H124.124V176.815H136.635Z" fill="#263238"/>
<path d="M136.642 180.8V179.358H124.131V180.8H136.642Z" fill="#263238"/>
<path d="M190.776 204.776L202.583 172.19L198.154 170.853L186.354 203.44L190.776 204.776Z" fill="#31EA73"/>
<path d="M192.031 201.326L193.131 198.288L188.709 196.952L187.609 199.989L192.031 201.326Z" fill="#37474F"/>
<path d="M199.049 181.95L200.149 178.913L195.727 177.576L194.627 180.606L199.049 181.95Z" fill="#37474F"/>
<path d="M98.8459 168.65V204.784H107.969V168.65H98.8459Z" fill="#31EA73"/>
<path d="M98.8459 172.473V175.843H107.969V172.473H98.8459Z" fill="#37474F"/>
<path d="M98.8459 193.963V197.332H107.969V193.963H98.8459Z" fill="#37474F"/>
<path d="M98.8459 190.35V191.654H107.969V190.35H98.8459Z" fill="#37474F"/>
<path d="M204.336 247.73V213.524H196.101V247.73H204.336Z" fill="#37474F"/>
<path d="M204.336 238.043V234.284H196.101V238.043H204.336Z" fill="#31EA73"/>
<path d="M204.336 221.673V220.28H196.101V221.673H204.336Z" fill="#31EA73"/>
<path d="M211.926 247.739V207.83H204.336V247.739H211.926Z" fill="#31EA73"/>
<path d="M210.379 226.938V211.588H205.825V226.938H210.379Z" fill="#EBEBEB"/>
<path d="M183.216 217.428V247.739H196.1V217.428H183.216Z" fill="#A6A6A6"/>
<path d="M183.216 220.644V223.471H196.1V220.644H183.216Z" fill="#263238"/>
<path d="M183.216 225.326V226.419H196.1V225.326H183.216Z" fill="#263238"/>
<path d="M119.247 247.722V213.516H112.559V247.722H119.247Z" fill="#37474F"/>
<path d="M119.255 238.035V234.276H112.567V238.035H119.255Z" fill="#31EA73"/>
<path d="M119.255 221.665V220.271H112.567V221.665H119.255Z" fill="#31EA73"/>
<path d="M161.165 247.73V209.15H152.929V247.73H161.165Z" fill="#37474F"/>
<path d="M161.165 236.795V232.559H152.929V236.795H161.165Z" fill="#31EA73"/>
<path d="M161.165 218.327V216.756H152.929V218.327H161.165Z" fill="#31EA73"/>
<path d="M119.255 211.248V247.73H133.503V211.248H119.255Z" fill="#31EA73"/>
<path d="M122.166 230.267V244.296H130.717V230.267H122.166Z" fill="#EBEBEB"/>
<path d="M146.388 247.738V215.136H133.504V247.738H146.388Z" fill="#A6A6A6"/>
<path d="M146.388 244.28V241.242H133.504V244.28H146.388Z" fill="#37474F"/>
<path d="M146.388 239.25V238.075H133.504V239.25H146.388Z" fill="#37474F"/>
<path d="M89.3274 247.739V211.248H81.9281V247.739H89.3274Z" fill="#A6A6A6"/>
<path d="M89.3274 243.867V240.465H81.9281V243.867H89.3274Z" fill="#263238"/>
<path d="M89.3274 222.167V218.765H81.9281V222.167H89.3274Z" fill="#263238"/>
<path d="M89.3274 225.82V224.5H81.9281V225.82H89.3274Z" fill="#263238"/>
<path d="M168.931 247.73V213.176H161.165V247.73H168.931Z" fill="#A6A6A6"/>
<path d="M168.931 244.077V240.854H161.165V244.077H168.931Z" fill="#31EA73"/>
<path d="M168.931 223.528V220.304H161.165V223.528H168.931Z" fill="#31EA73"/>
<path d="M168.931 226.978V225.731H161.165V226.978H168.931Z" fill="#31EA73"/>
<path d="M146.388 211.013V247.739H152.93V211.013H146.388Z" fill="#31EA73"/>
<path d="M146.388 214.901V218.327H152.93V214.901H146.388Z" fill="#EBEBEB"/>
<path d="M146.388 236.739V240.165H152.93V236.739H146.388Z" fill="#EBEBEB"/>
<path d="M146.388 233.069V234.398H152.93V233.069H146.388Z" fill="#EBEBEB"/>
<path d="M107.024 212.789L89.3259 243.88L94.8636 247.726L112.562 216.635L107.024 212.789Z" fill="#31EA73"/>
<path d="M105.15 216.073L103.499 218.973L109.036 222.819L110.687 219.919L105.15 216.073Z" fill="#EBEBEB"/>
<path d="M94.6289 234.572L92.9778 237.473L98.5155 241.319L100.167 238.418L94.6289 234.572Z" fill="#EBEBEB"/>
<path d="M96.3963 231.465L95.7561 232.589L101.294 236.435L101.934 235.31L96.3963 231.465Z" fill="#EBEBEB"/>
<path d="M458.583 147.736H344.667V290.677H458.583V147.736Z" fill="#A6A6A6"/>
<path d="M458.583 191.938H344.667V194.975H458.583V191.938Z" fill="#C7C7C7"/>
<path d="M458.583 239.841H344.667V242.879H458.583V239.841Z" fill="#C7C7C7"/>
<path d="M458.583 287.663H344.667V290.701H458.583V287.663Z" fill="#C7C7C7"/>
<path d="M344.667 143.151H339.233V290.677H344.667V143.151Z" fill="#C7C7C7"/>
<path d="M464.016 143.151H458.583V290.677H464.016V143.151Z" fill="#C7C7C7"/>
<path d="M371.368 159.935H352.976V191.938H371.368V159.935Z" fill="#455A64"/>
<path d="M352.968 159.935H348.671V191.938H352.968V159.935Z" fill="#37474F"/>
<path d="M352.968 163.774H348.671V166.463H352.968V163.774Z" fill="#263238"/>
<path d="M352.968 167.881H348.671V169.047H352.968V167.881Z" fill="#263238"/>
<path d="M348.678 187.693H352.976V185.004H348.678V187.693Z" fill="#263238"/>
<path d="M348.678 183.578H352.976V182.42H348.678V183.578Z" fill="#263238"/>
<path d="M367.605 163.774H356.73V169.047H367.605V163.774Z" fill="white"/>
<path d="M399.102 159.935H380.71V191.938H399.102V159.935Z" fill="#37474F"/>
<path d="M380.71 159.935H376.413V191.938H380.71V159.935Z" fill="#263238"/>
<path d="M380.71 168.464H376.413V169.63H380.71V168.464Z" fill="#37474F"/>
<path d="M376.413 174.247H380.71V171.558H376.413V174.247Z" fill="#37474F"/>
<path d="M376.413 183.578H380.71V182.42H376.413V183.578Z" fill="#37474F"/>
<path d="M399.102 168.464H380.71V169.63H399.102V168.464Z" fill="#455A64"/>
<path d="M380.71 174.247H399.102V171.558H380.71V174.247Z" fill="#455A64"/>
<path d="M380.71 183.578H399.102V182.42H380.71V183.578Z" fill="#455A64"/>
<path d="M426.837 159.935H408.445V191.938H426.837V159.935Z" fill="#EBEBEB"/>
<path d="M408.445 159.935H404.147V191.938H408.445V159.935Z" fill="#DBDBDB"/>
<path d="M407.036 165.102H405.555V186.77H407.036V165.102Z" fill="#263238"/>
<path d="M422.239 165.102H413.042V166.406H422.239V165.102Z" fill="white"/>
<path d="M454.579 159.935H436.187V191.938H454.579V159.935Z" fill="#31EA73"/>
<path d="M436.179 159.935H431.882V191.938H436.179V159.935Z" fill="#31EA73"/>
<path opacity="0.1" d="M436.179 159.935H431.882V191.938H436.179V159.935Z" fill="black"/>
<path d="M431.889 189.589H436.187V186.899H431.889V189.589Z" fill="white"/>
<path d="M431.889 185.482H436.187V184.316H431.889V185.482Z" fill="white"/>
<path d="M431.889 164.641H436.187V163.474H431.889V164.641Z" fill="white"/>
<path d="M452.437 186.956H448.683V189.597H452.437V186.956Z" fill="white"/>
<path d="M371.368 207.757H352.976V239.76H371.368V207.757Z" fill="#EBEBEB"/>
<path d="M352.968 207.757H348.671V239.76H352.968V207.757Z" fill="#DBDBDB"/>
<path d="M348.678 233.41H352.976V232.826H348.678V233.41Z" fill="#263238"/>
<path d="M348.678 234.754H352.976V234.171H348.678V234.754Z" fill="#263238"/>
<path d="M348.678 212.755H352.976V212.171H348.678V212.755Z" fill="#263238"/>
<path d="M348.678 214.099H352.976V213.516H348.678V214.099Z" fill="#263238"/>
<path d="M350.819 218.028C351.398 218.028 351.868 217.509 351.868 216.869C351.868 216.23 351.398 215.711 350.819 215.711C350.24 215.711 349.771 216.23 349.771 216.869C349.771 217.509 350.24 218.028 350.819 218.028Z" fill="#263238"/>
<path d="M399.102 207.757H380.71V239.76H399.102V207.757Z" fill="#31EA73"/>
<path d="M380.71 207.757H376.413V239.76H380.71V207.757Z" fill="#31EA73"/>
<path opacity="0.1" d="M380.71 207.757H376.413V239.76H380.71V207.757Z" fill="black"/>
<path d="M380.71 211.596H376.413V214.285H380.71V211.596Z" fill="#263238"/>
<path d="M380.71 215.703H376.413V216.861H380.71V215.703Z" fill="#263238"/>
<path d="M376.413 235.516H380.71V232.826H376.413V235.516Z" fill="#263238"/>
<path d="M376.413 231.401H380.71V230.234H376.413V231.401Z" fill="#263238"/>
<path d="M395.347 230.194H384.472V235.467H395.347V230.194Z" fill="white"/>
<path d="M426.837 207.757H408.445V239.76H426.837V207.757Z" fill="#37474F"/>
<path d="M408.445 207.757H404.147V239.76H408.445V207.757Z" fill="#263238"/>
<path d="M408.445 215.703H404.147V216.861H408.445V215.703Z" fill="#455A64"/>
<path d="M404.148 231.401H408.445V230.234H404.148V231.401Z" fill="#455A64"/>
<path d="M407.029 218.627H405.46V228.574H407.029V218.627Z" fill="white"/>
<path d="M422.195 217.987H413.087V220.458H422.195V217.987Z" fill="#455A64"/>
<path d="M454.579 207.757H436.187V239.76H454.579V207.757Z" fill="#455A64"/>
<path d="M436.179 207.757H431.882V239.76H436.179V207.757Z" fill="#37474F"/>
<path d="M436.179 211.596H431.882V214.285H436.179V211.596Z" fill="#263238"/>
<path d="M436.179 215.703H431.882V216.861H436.179V215.703Z" fill="#263238"/>
<path d="M431.889 235.516H454.579V232.826H431.889V235.516Z" fill="#263238"/>
<path d="M431.889 231.401H454.579V230.243H431.889V231.401Z" fill="#263238"/>
<path d="M371.368 255.66H352.976V287.663H371.368V255.66Z" fill="#455A64"/>
<path d="M352.968 255.66H348.671V287.663H352.968V255.66Z" fill="#37474F"/>
<path d="M352.968 263.606H348.671V279.304H352.968V263.606Z" fill="#263238"/>
<path d="M348.678 283.613H352.976V282.083H348.678V283.613Z" fill="#263238"/>
<path d="M348.678 261.225H352.976V259.694H348.678V261.225Z" fill="#263238"/>
<path d="M366.813 282.091H357.522V283.621H366.813V282.091Z" fill="#37474F"/>
<path d="M399.102 255.66H380.71V287.663H399.102V255.66Z" fill="#EBEBEB"/>
<path d="M380.71 255.66H376.413V287.663H380.71V255.66Z" fill="#DBDBDB"/>
<path d="M380.71 259.492H376.413V262.181H380.71V259.492Z" fill="#263238"/>
<path d="M380.71 257.175H376.413V258.341H380.71V257.175Z" fill="#263238"/>
<path d="M426.837 255.66H408.445V287.663H426.837V255.66Z" fill="#31EA73"/>
<path d="M408.445 255.66H404.147V287.663H408.445V255.66Z" fill="#31EA73"/>
<path opacity="0.1" d="M408.445 255.66H404.147V287.663H408.445V255.66Z" fill="black"/>
<path d="M408.445 263.606H404.147V264.773H408.445V263.606Z" fill="#263238"/>
<path d="M426.837 263.606H408.445V264.773H426.837V263.606Z" fill="#37474F"/>
<path d="M404.148 283.411H408.445V272.695H404.148V283.411Z" fill="#263238"/>
<path d="M408.452 283.411H426.844V272.695H408.452V283.411Z" fill="#37474F"/>
<path d="M454.579 255.66H436.187V287.663H454.579V255.66Z" fill="#37474F"/>
<path d="M436.179 255.66H431.882V287.663H436.179V255.66Z" fill="#263238"/>
<path d="M436.179 258.163H431.882V259.33H436.179V258.163Z" fill="#455A64"/>
<path d="M436.179 284.691H431.882V285.849H436.179V284.691Z" fill="#455A64"/>
<path d="M436.179 268.094H431.882V269.252H436.179V268.094Z" fill="#455A64"/>
<path d="M436.179 270.378H431.882V270.702H436.179V270.378Z" fill="#455A64"/>
<path d="M436.179 271.82H431.882V272.144H436.179V271.82Z" fill="#455A64"/>
<path d="M436.179 276.566H431.882V277.733H436.179V276.566Z" fill="#455A64"/>
<path d="M436.179 278.851H431.882V279.175H436.179V278.851Z" fill="#455A64"/>
<path d="M436.179 280.292H431.882V280.616H436.179V280.292Z" fill="#455A64"/>
<path d="M378.899 265.356H378.224V280.025H378.899V265.356Z" fill="#263238"/>
<path d="M436.744 129.762H369.717V155.398H436.744V129.762Z" fill="#31EA73"/>
<path d="M376.56 142.382C376.59 141.82 376.814 141.291 377.186 140.905C377.557 140.519 378.048 140.304 378.558 140.304C379.068 140.304 379.559 140.519 379.93 140.905C380.301 141.291 380.525 141.82 380.556 142.382C380.525 142.944 380.301 143.472 379.93 143.858C379.559 144.244 379.068 144.459 378.558 144.459C378.048 144.459 377.557 144.244 377.186 143.858C376.814 143.472 376.59 142.944 376.56 142.382Z" fill="white"/>
<path d="M426.396 142.382C426.396 141.795 426.607 141.233 426.983 140.818C427.358 140.404 427.868 140.171 428.398 140.171C428.929 140.171 429.439 140.404 429.814 140.818C430.19 141.233 430.4 141.795 430.4 142.382C430.4 142.968 430.19 143.531 429.814 143.945C429.439 144.36 428.929 144.593 428.398 144.593C427.868 144.593 427.358 144.36 426.983 143.945C426.607 143.531 426.396 142.968 426.396 142.382Z" fill="white"/>
<g opacity="0.5">
<path d="M240.805 109.431V121.954L88.0367 290.693H76.582V278.397L229.555 109.431H240.805Z" fill="#EBEBEB"/>
<path d="M115.727 109.431L76.582 152.685V127.729L93.148 109.431H115.727Z" fill="#EBEBEB"/>
<path d="M221.32 109.431L76.582 269.301V258.9L211.904 109.431H221.32Z" fill="#EBEBEB"/>
<path d="M240.805 198.353V208.753L166.613 290.693H157.197L240.805 198.353Z" fill="#EBEBEB"/>
<path d="M169.246 109.431L76.582 211.791V206.372L164.34 109.431H169.246Z" fill="#EBEBEB"/>
<path d="M240.805 255.012V260.423L213.4 290.693H208.501L240.805 255.012Z" fill="#EBEBEB"/>
<path d="M240.805 162.219V167.638L129.389 290.693H124.483L240.805 162.219Z" fill="#EBEBEB"/>
</g>
<path d="M214.441 155.488V152.523H81.9574V155.488H214.441Z" fill="#455A64"/>
<path d="M214.441 222.475V219.51H81.9574V222.475H214.441Z" fill="#455A64"/>
<path d="M240.805 144.674V141.709L219.817 152.523V155.488L240.805 144.674Z" fill="#455A64"/>
<path d="M240.805 211.661V208.697L219.817 219.51V222.475L240.805 211.661Z" fill="#455A64"/>
<path d="M81.9574 109.431H76.582V290.693H81.9574V109.431Z" fill="#455A64"/>
<path d="M81.9574 109.431H76.582V123.476H81.9574V109.431Z" fill="#263238"/>
<path d="M127.013 109.431H124.329V290.693H127.013V109.431Z" fill="#455A64"/>
<path d="M127.006 109.431H124.322V123.476H127.006V109.431Z" fill="#263238"/>
<path d="M172.069 109.431H169.385V290.693H172.069V109.431Z" fill="#455A64"/>
<path d="M172.069 109.431H169.385V123.476H172.069V109.431Z" fill="#263238"/>
<path d="M219.817 109.431H214.441V290.693H219.817V109.431Z" fill="#455A64"/>
<path d="M219.817 109.431H214.441V123.476H219.817V109.431Z" fill="#263238"/>
<path d="M240.805 109.431H235.429V282.585L240.805 279.79V109.431Z" fill="#455A64"/>
<path d="M240.805 109.431H235.429V123.476H240.805V109.431Z" fill="#263238"/>
<path d="M240.805 338.126L219.817 349.029V299.36L240.805 288.457V338.126Z" fill="#455A64"/>
<path d="M240.805 288.457L219.817 299.36V290.693L240.805 279.79V288.457Z" fill="#455A64"/>
<path d="M240.805 288.457V293.431L219.817 304.341V299.36L240.805 288.457Z" fill="#263238"/>
<path d="M223.41 331.598C223.351 330.026 223.322 328.439 223.285 326.867C223.249 325.296 223.212 323.7 223.183 322.121C223.131 318.954 223.095 315.779 223.058 312.595V312.044L223.307 311.915C224.437 311.315 225.566 310.692 226.695 310.125C227.825 309.558 228.954 308.975 230.083 308.424C231.213 307.873 232.342 307.33 233.471 306.804C234.043 306.536 234.608 306.302 235.173 306.059C235.737 305.816 236.302 305.573 236.867 305.354C236.302 305.726 235.737 306.075 235.173 306.423C234.608 306.771 234.043 307.128 233.479 307.452C232.349 308.127 231.22 308.775 230.091 309.396C228.961 310.017 227.832 310.63 226.703 311.234C225.573 311.85 224.444 312.409 223.315 312.992L223.557 312.312C223.557 315.503 223.557 318.703 223.557 321.91C223.557 323.53 223.557 325.15 223.505 326.77C223.454 328.39 223.447 329.978 223.41 331.598Z" fill="#37474F"/>
<path d="M239.309 309.064C239.36 310.635 239.397 312.223 239.434 313.794C239.47 315.365 239.5 316.961 239.529 318.541C239.588 321.708 239.624 324.883 239.654 328.066V328.617L239.404 328.747C238.26 329.346 237.124 329.978 235.98 330.553C234.836 331.128 233.699 331.719 232.555 332.278C231.411 332.837 230.274 333.38 229.13 333.898C228.558 334.166 227.986 334.4 227.414 334.651C226.842 334.903 226.278 335.146 225.706 335.364C226.278 334.984 226.842 334.635 227.414 334.287C227.986 333.939 228.558 333.574 229.13 333.242C230.267 332.57 231.411 331.914 232.548 331.282C233.684 330.65 234.836 330.026 235.972 329.427C237.109 328.828 238.253 328.244 239.397 327.653L239.148 328.334C239.148 325.131 239.148 321.929 239.148 318.727C239.148 317.107 239.148 315.487 239.199 313.867C239.25 312.247 239.272 310.684 239.309 309.064Z" fill="#37474F"/>
<path d="M225.331 326.973C225.251 325.021 225.192 323.06 225.141 321.1C225.141 320.112 225.104 319.124 225.082 318.144C225.06 317.164 225.082 316.167 225.038 315.179V314.669L225.28 314.531C226.116 314.045 226.952 313.616 227.788 313.17C228.624 312.725 229.46 312.312 230.303 311.915C231.147 311.518 231.975 311.105 232.811 310.781C233.647 310.457 234.483 310.084 235.327 309.809C234.491 310.4 233.655 310.943 232.819 311.429C231.983 311.915 231.139 312.441 230.303 312.911C229.467 313.381 228.631 313.835 227.795 314.288C226.959 314.742 226.123 315.155 225.287 315.552L225.522 314.896C225.522 315.9 225.522 316.888 225.522 317.893C225.522 318.897 225.522 319.893 225.485 320.898C225.451 322.923 225.4 324.948 225.331 326.973Z" fill="#37474F"/>
<path d="M237.38 313.689C237.468 315.641 237.527 317.593 237.571 319.561C237.615 321.53 237.659 323.506 237.681 325.482V325.993L237.439 326.13C236.596 326.616 235.745 327.054 234.902 327.507C234.058 327.961 233.208 328.374 232.364 328.771C231.521 329.168 230.678 329.581 229.827 329.921C228.976 330.261 228.133 330.626 227.29 330.909C228.133 330.31 228.976 329.759 229.827 329.241C230.678 328.722 231.514 328.212 232.357 327.742C233.2 327.272 234.051 326.811 234.894 326.357C235.738 325.904 236.588 325.474 237.432 325.077L237.197 325.733C237.197 323.733 237.197 321.74 237.248 319.731C237.3 317.723 237.322 315.714 237.38 313.689Z" fill="#37474F"/>
<path d="M219.817 299.36H76.582V349.029H219.817V299.36Z" fill="#455A64"/>
<path d="M132.183 332.594C132.095 330.974 132.044 329.411 131.978 327.815C131.912 326.219 131.875 324.624 131.831 323.036C131.758 319.845 131.709 316.656 131.685 313.47V312.919H132.191C134.457 312.919 136.723 312.879 138.989 312.919C141.255 312.96 143.513 312.919 145.779 312.984C148.045 313.049 150.311 313.073 152.577 313.154C153.714 313.154 154.843 313.251 155.973 313.3C157.102 313.349 158.239 313.405 159.375 313.486C158.239 313.559 157.109 313.616 155.973 313.664C154.836 313.713 153.714 313.778 152.577 313.81C150.314 313.891 148.048 313.951 145.779 313.988C143.513 314.029 141.255 314.053 138.989 314.053C136.723 314.053 134.457 314.053 132.191 314.053L132.689 313.502C132.66 316.683 132.611 319.872 132.543 323.069C132.491 324.689 132.462 326.252 132.396 327.848C132.33 329.443 132.271 331.007 132.183 332.594Z" fill="#37474F"/>
<path d="M164.215 318.419C164.311 320.039 164.355 321.61 164.421 323.198C164.487 324.786 164.523 326.389 164.567 327.985C164.641 331.171 164.69 334.36 164.714 337.551V338.102H164.208C161.92 338.102 159.632 338.102 157.344 338.102C155.056 338.102 152.768 338.102 150.48 338.037C148.192 337.972 145.904 337.94 143.609 337.859C142.465 337.859 141.321 337.762 140.177 337.713C139.033 337.665 137.889 337.608 136.745 337.535C137.889 337.454 139.033 337.397 140.177 337.349C141.321 337.3 142.465 337.235 143.609 337.203C145.904 337.122 148.192 337.073 150.48 337.033C152.768 336.992 155.056 336.968 157.344 336.96C159.632 336.952 161.92 336.96 164.208 336.96L163.709 337.519C163.709 334.327 163.783 331.136 163.863 327.953C163.907 326.333 163.944 324.761 164.01 323.166C164.076 321.57 164.127 320.015 164.215 318.419Z" fill="#37474F"/>
<path d="M136.085 328.99C135.931 327.005 135.835 325.021 135.762 323.036C135.718 322.04 135.696 321.043 135.667 320.055C135.637 319.067 135.63 318.071 135.608 317.074V316.556H136.099C137.779 316.516 139.458 316.516 141.137 316.507C142.817 316.499 144.489 316.507 146.168 316.572C147.847 316.637 149.527 316.661 151.206 316.742C152.885 316.823 154.557 316.929 156.237 317.083C154.557 317.245 152.885 317.35 151.206 317.423C149.527 317.496 147.847 317.569 146.168 317.601C144.489 317.633 142.809 317.641 141.137 317.658C139.465 317.674 137.779 317.658 136.099 317.609L136.576 317.083C136.576 318.079 136.576 319.067 136.517 320.063C136.459 321.06 136.466 322.048 136.422 323.044C136.334 325.021 136.231 327.005 136.085 328.99Z" fill="#37474F"/>
<path d="M160.314 322.024C160.468 324.008 160.563 326.001 160.637 327.985C160.71 329.97 160.761 331.954 160.791 333.939V334.457H160.307C158.613 334.506 156.919 334.498 155.225 334.506C153.531 334.514 151.829 334.506 150.135 334.449C148.441 334.392 146.74 334.36 145.046 334.279C143.352 334.198 141.658 334.093 139.964 333.931C141.658 333.777 143.352 333.671 145.046 333.59C146.74 333.509 148.441 333.445 150.135 333.42C151.829 333.396 153.523 333.372 155.225 333.356C156.926 333.339 158.613 333.356 160.307 333.404L159.83 333.931C159.859 331.949 159.911 329.964 159.984 327.977C160.065 326.001 160.167 324 160.314 322.024Z" fill="#37474F"/>
<path d="M175.575 332.594C175.487 330.974 175.435 329.411 175.377 327.815C175.318 326.219 175.274 324.624 175.23 323.036C175.149 319.845 175.106 316.653 175.076 313.47V312.919H175.582C177.848 312.919 180.114 312.879 182.38 312.919C184.646 312.96 186.912 312.919 189.178 312.984C191.444 313.049 193.71 313.073 195.976 313.154C197.105 313.154 198.242 313.251 199.371 313.3C200.501 313.349 201.638 313.405 202.767 313.486C201.638 313.559 200.501 313.616 199.371 313.664C198.242 313.713 197.105 313.778 195.976 313.81C193.708 313.891 191.442 313.951 189.178 313.988C186.915 314.026 184.649 314.048 182.38 314.053C180.114 314.053 177.848 314.053 175.582 314.053L176.088 313.502C176.051 316.686 176.008 319.877 175.934 323.069C175.89 324.689 175.854 326.252 175.788 327.848C175.722 329.443 175.67 331.007 175.575 332.594Z" fill="#37474F"/>
<path d="M207.614 318.419C207.702 320.039 207.754 321.61 207.812 323.198C207.871 324.786 207.915 326.389 207.959 327.985C208.04 331.168 208.084 334.36 208.113 337.551V338.102H207.607C205.319 338.102 203.031 338.102 200.743 338.102C198.455 338.102 196.16 338.102 193.872 338.037C191.584 337.972 189.296 337.94 187.008 337.859C185.864 337.859 184.72 337.762 183.576 337.713C182.432 337.665 181.288 337.608 180.144 337.535C181.288 337.454 182.432 337.397 183.576 337.349C184.72 337.3 185.864 337.235 187.008 337.203C189.296 337.122 191.584 337.073 193.872 337.033C196.16 336.992 198.448 336.968 200.743 336.96C203.038 336.952 205.319 336.96 207.607 336.96L207.108 337.519C207.138 334.327 207.186 331.139 207.255 327.953C207.299 326.333 207.336 324.761 207.402 323.166C207.468 321.57 207.534 320.015 207.614 318.419Z" fill="#37474F"/>
<path d="M179.476 328.99C179.33 327.005 179.227 325.021 179.154 323.036C179.11 322.04 179.095 321.043 179.066 320.055C179.036 319.067 179.022 318.071 179 317.074V316.556H179.484C181.163 316.516 182.842 316.516 184.522 316.507C186.201 316.499 187.88 316.507 189.56 316.572C191.239 316.637 192.911 316.661 194.59 316.742C196.27 316.823 197.949 316.929 199.628 317.083C197.949 317.245 196.27 317.35 194.59 317.423C192.911 317.496 191.239 317.569 189.56 317.601C187.88 317.633 186.201 317.641 184.522 317.658C182.842 317.674 181.163 317.658 179.484 317.609L179.968 317.083C179.968 318.079 179.968 319.067 179.902 320.063C179.836 321.06 179.858 322.048 179.814 323.044C179.733 325.021 179.667 327.005 179.476 328.99Z" fill="#37474F"/>
<path d="M203.713 322.024C203.859 324.008 203.962 326.001 204.035 327.985C204.109 329.97 204.16 331.954 204.189 333.939V334.457H203.705C202.011 334.506 200.31 334.498 198.616 334.506C196.922 334.514 195.228 334.506 193.527 334.449C191.825 334.392 190.139 334.36 188.445 334.279C186.751 334.198 185.049 334.093 183.355 333.931C185.049 333.777 186.751 333.671 188.445 333.59C190.139 333.509 191.833 333.445 193.527 333.42C195.221 333.396 196.922 333.372 198.616 333.356C200.31 333.339 202.011 333.356 203.705 333.404L203.229 333.931C203.258 331.949 203.309 329.964 203.383 327.977C203.463 326.001 203.559 324 203.713 322.024Z" fill="#37474F"/>
<path d="M88.7846 332.594C88.6966 330.974 88.6452 329.411 88.5866 327.815C88.5279 326.219 88.4839 324.624 88.4399 323.036C88.3592 319.845 88.3152 316.653 88.2859 313.47V312.919H88.7919C91.0579 312.919 93.3239 312.879 95.5899 312.919C97.8559 312.96 100.122 312.919 102.388 312.984C104.654 313.049 106.92 313.073 109.186 313.154C110.315 313.154 111.445 313.251 112.581 313.3C113.718 313.349 114.847 313.405 115.977 313.486C114.847 313.559 113.711 313.616 112.581 313.664C111.452 313.713 110.315 313.778 109.186 313.81C106.922 313.891 104.656 313.951 102.388 313.988C100.119 314.026 97.8534 314.048 95.5899 314.053C93.3239 314.053 91.0579 314.053 88.7919 314.053L89.2979 313.502C89.2612 316.686 89.2172 319.877 89.1439 323.069C89.0999 324.689 89.0632 326.252 88.9972 327.848C88.9312 329.443 88.8799 331.007 88.7846 332.594Z" fill="#37474F"/>
<path d="M120.824 318.419C120.912 320.039 120.963 321.61 121.022 323.198C121.081 324.786 121.125 326.389 121.169 327.985C121.249 331.168 121.293 334.36 121.323 337.551V338.102H120.817C118.529 338.102 116.241 338.102 113.945 338.102C111.65 338.102 109.369 338.102 107.081 338.037C104.793 337.972 102.505 337.94 100.217 337.859C99.0733 337.859 97.9293 337.762 96.7853 337.713C95.6413 337.665 94.4973 337.608 93.3533 337.535C94.4973 337.454 95.6413 337.397 96.7853 337.349C97.9293 337.3 99.0733 337.235 100.217 337.203C102.505 337.122 104.793 337.073 107.081 337.033C109.369 336.992 111.657 336.968 113.945 336.96C116.233 336.952 118.529 336.96 120.817 336.96L120.318 337.519C120.347 334.327 120.396 331.139 120.465 327.953C120.509 326.333 120.545 324.761 120.611 323.166C120.677 321.57 120.729 320.015 120.824 318.419Z" fill="#37474F"/>
<path d="M92.6859 328.99C92.5392 327.005 92.4366 325.021 92.3632 323.036C92.3192 322.04 92.3046 321.043 92.2679 320.055C92.2312 319.067 92.2679 318.071 92.2092 317.074V316.556H92.6932C94.3726 316.516 96.0519 316.516 97.7312 316.507C99.4106 316.499 101.09 316.507 102.769 316.572C104.449 316.637 106.121 316.661 107.8 316.742C109.479 316.823 111.159 316.929 112.838 317.083C111.159 317.245 109.479 317.35 107.8 317.423C106.121 317.496 104.441 317.569 102.769 317.601C101.097 317.633 99.4106 317.641 97.7312 317.658C96.0519 317.674 94.3726 317.658 92.6932 317.609L93.1772 317.083C93.1772 318.079 93.1772 319.067 93.1112 320.063C93.0452 321.06 93.0672 322.048 93.0159 323.044C92.9426 325.021 92.8399 327.005 92.6859 328.99Z" fill="#37474F"/>
<path d="M116.923 322.024C117.069 324.008 117.172 326.001 117.245 327.985C117.319 329.97 117.37 331.954 117.399 333.939V334.457H116.915C115.214 334.506 113.52 334.498 111.826 334.506C110.132 334.514 108.438 334.506 106.737 334.449C105.035 334.392 103.349 334.36 101.655 334.279C99.9608 334.198 98.2594 334.093 96.5654 333.931C98.2594 333.777 99.9534 333.671 101.655 333.59C103.356 333.509 105.043 333.445 106.737 333.42C108.431 333.396 110.132 333.372 111.826 333.356C113.52 333.339 115.214 333.356 116.915 333.404L116.439 333.931C116.468 331.949 116.519 329.964 116.593 327.977C116.673 326.001 116.769 324 116.923 322.024Z" fill="#37474F"/>
<path d="M219.817 290.693H72.0793V299.36H219.817V290.693Z" fill="#455A64"/>
<path d="M219.817 299.36H76.582V304.341H219.817V299.36Z" fill="#263238"/>
<path d="M309.181 338.126L330.176 349.029V299.36L309.181 288.457V338.126Z" fill="#455A64"/>
<path d="M309.181 288.457L330.176 299.36V290.693L309.181 279.79V288.457Z" fill="#455A64"/>
<path d="M309.181 288.457V293.431L330.176 304.341V299.36L309.181 288.457Z" fill="#263238"/>
<path d="M326.583 331.598C326.634 330.026 326.663 328.439 326.707 326.867C326.751 325.296 326.773 323.7 326.803 322.121C326.856 318.951 326.898 315.776 326.927 312.595V312.044L326.671 311.915C325.541 311.315 324.412 310.692 323.283 310.125C322.153 309.558 321.024 308.975 319.895 308.424C318.765 307.873 317.636 307.33 316.507 306.804C315.942 306.536 315.377 306.302 314.813 306.059C314.248 305.816 313.683 305.573 313.111 305.354C313.676 305.726 314.241 306.075 314.805 306.423C315.37 306.771 315.935 307.128 316.499 307.452C317.629 308.127 318.758 308.775 319.887 309.396C321.017 310.017 322.146 310.63 323.275 311.234C324.412 311.85 325.541 312.409 326.671 312.992L326.421 312.312C326.421 315.503 326.421 318.703 326.421 321.91C326.421 323.53 326.421 325.15 326.465 326.77C326.509 328.39 326.546 329.978 326.583 331.598Z" fill="#37474F"/>
<path d="M310.677 309.064C310.625 310.635 310.589 312.223 310.552 313.794C310.515 315.365 310.486 316.961 310.457 318.541C310.398 321.708 310.361 324.883 310.332 328.066V328.617L310.581 328.747C311.725 329.346 312.869 329.978 314.006 330.553C315.143 331.128 316.294 331.719 317.431 332.278C318.567 332.837 319.719 333.38 320.855 333.898C321.427 334.166 321.999 334.4 322.571 334.651C323.143 334.903 323.715 335.146 324.28 335.364C323.715 334.984 323.143 334.635 322.571 334.287C321.999 333.939 321.435 333.574 320.863 333.242C319.719 332.57 318.582 331.914 317.438 331.282C316.294 330.65 315.157 330.026 314.013 329.427C312.869 328.828 311.733 328.244 310.589 327.653L310.838 328.334C310.838 325.131 310.838 321.929 310.838 318.727C310.838 317.107 310.838 315.487 310.794 313.867C310.75 312.247 310.713 310.684 310.677 309.064Z" fill="#37474F"/>
<path d="M324.654 326.973C324.737 325.018 324.801 323.06 324.845 321.1C324.845 320.112 324.889 319.124 324.903 318.144C324.918 317.164 324.94 316.167 324.955 315.179V314.669L324.713 314.531C323.869 314.045 323.033 313.616 322.197 313.17C321.361 312.725 320.525 312.312 319.689 311.915C318.853 311.518 318.01 311.105 317.174 310.781C316.338 310.457 315.502 310.084 314.666 309.809C315.502 310.4 316.338 310.943 317.174 311.429C318.01 311.915 318.846 312.441 319.682 312.911C320.518 313.381 321.354 313.835 322.19 314.288C323.026 314.742 323.869 315.155 324.705 315.552L324.471 314.896C324.471 315.9 324.471 316.888 324.471 317.893C324.471 318.897 324.471 319.893 324.471 320.898C324.551 322.931 324.588 324.948 324.654 326.973Z" fill="#37474F"/>
<path d="M312.605 313.689C312.517 315.641 312.459 317.593 312.415 319.561C312.371 321.53 312.334 323.506 312.305 325.482V325.993L312.547 326.13C313.397 326.616 314.241 327.054 315.084 327.507C315.927 327.961 316.778 328.374 317.621 328.771C318.465 329.168 319.315 329.581 320.159 329.921C321.002 330.261 321.853 330.626 322.696 330.909C321.853 330.31 321.009 329.759 320.166 329.241C319.323 328.722 318.472 328.212 317.629 327.742C316.785 327.272 315.935 326.811 315.091 326.357C314.248 325.904 313.397 325.474 312.554 325.077L312.789 325.733C312.789 323.733 312.789 321.74 312.745 319.731C312.701 317.723 312.671 315.714 312.605 313.689Z" fill="#37474F"/>
<path d="M330.169 349.029H473.403V299.36H330.169V349.029Z" fill="#455A64"/>
<path d="M417.802 332.594C417.897 330.974 417.941 329.411 418.007 327.815C418.073 326.219 418.11 324.624 418.154 323.036C418.227 319.845 418.279 316.656 418.308 313.47V312.919H417.802C415.543 312.919 413.277 312.879 411.011 312.919C408.745 312.96 406.479 312.919 404.213 312.984C401.947 313.049 399.681 313.073 397.415 313.154C396.286 313.154 395.149 313.251 394.02 313.3C392.891 313.349 391.754 313.405 390.617 313.486C391.754 313.559 392.883 313.616 394.02 313.664C395.157 313.713 396.286 313.778 397.415 313.81C399.684 313.891 401.95 313.951 404.213 313.988C406.477 314.026 408.743 314.048 411.011 314.053C413.277 314.053 415.543 314.053 417.802 314.053L417.303 313.502C417.303 316.686 417.377 319.877 417.457 323.069C417.501 324.689 417.531 326.252 417.604 327.848C417.677 329.443 417.714 331.007 417.802 332.594Z" fill="#37474F"/>
<path d="M385.77 318.419C385.682 320.039 385.631 321.61 385.572 323.198C385.514 324.786 385.47 326.389 385.426 327.985C385.345 331.168 385.301 334.36 385.271 337.551V338.102H385.777C388.065 338.102 390.353 338.102 392.641 338.102C394.929 338.102 397.225 338.102 399.513 338.037C401.801 337.972 404.089 337.94 406.377 337.859C407.521 337.859 408.665 337.762 409.809 337.713C410.953 337.665 412.097 337.608 413.241 337.535C412.097 337.454 410.953 337.397 409.809 337.349C408.665 337.3 407.521 337.235 406.377 337.203C404.089 337.122 401.801 337.073 399.513 337.033C397.225 336.992 394.929 336.968 392.641 336.96C390.353 336.952 388.065 336.96 385.777 336.96L386.276 337.519C386.247 334.327 386.198 331.139 386.129 327.953C386.078 326.333 386.049 324.761 385.983 323.166C385.917 321.57 385.858 320.015 385.77 318.419Z" fill="#37474F"/>
<path d="M413.901 328.99C414.055 327.005 414.157 325.021 414.223 323.036C414.267 322.04 414.289 321.043 414.319 320.055C414.348 319.067 414.363 318.071 414.385 317.074V316.556H413.893C412.214 316.516 410.542 316.516 408.863 316.507C407.183 316.499 405.504 316.507 403.825 316.572C402.145 316.637 400.466 316.661 398.794 316.742C397.122 316.823 395.435 316.929 393.756 317.083C395.435 317.245 397.115 317.35 398.794 317.423C400.473 317.496 402.145 317.569 403.825 317.601C405.504 317.633 407.183 317.641 408.863 317.658C410.542 317.674 412.214 317.658 413.893 317.609L413.417 317.083C413.417 318.079 413.417 319.067 413.475 320.063C413.534 321.06 413.527 322.048 413.571 323.044C413.651 325.021 413.754 327.005 413.901 328.99Z" fill="#37474F"/>
<path d="M389.672 322.024C389.525 324.008 389.422 326.001 389.349 327.985C389.276 329.97 389.224 331.954 389.195 333.939V334.457H389.679C391.373 334.506 393.074 334.498 394.768 334.506C396.462 334.514 398.156 334.506 399.85 334.449C401.544 334.392 403.246 334.36 404.94 334.279C406.634 334.198 408.335 334.093 410.029 333.931C408.335 333.777 406.634 333.671 404.94 333.59C403.246 333.509 401.552 333.445 399.85 333.42C398.149 333.396 396.462 333.372 394.768 333.356C393.074 333.339 391.373 333.356 389.679 333.404L390.156 333.931C390.126 331.949 390.075 329.964 390.002 327.977C389.921 326.001 389.818 324 389.672 322.024Z" fill="#37474F"/>
<path d="M374.411 332.594C374.499 330.974 374.55 329.411 374.616 327.815C374.682 326.219 374.711 324.624 374.763 323.036C374.836 319.845 374.885 316.656 374.909 313.47V312.919H374.403C372.137 312.919 369.871 312.879 367.605 312.919C365.339 312.96 363.073 312.919 360.807 312.984C358.541 313.049 356.283 313.073 354.017 313.154C352.88 313.154 351.751 313.251 350.614 313.3C349.477 313.349 348.348 313.405 347.219 313.486C348.348 313.559 349.485 313.616 350.614 313.664C351.743 313.713 352.88 313.778 354.017 313.81C356.283 313.891 358.541 313.948 360.807 313.988C363.073 314.029 365.339 314.053 367.605 314.053C369.871 314.053 372.137 314.053 374.403 314.053L373.905 313.502C373.934 316.683 373.983 319.872 374.051 323.069C374.095 324.689 374.132 326.252 374.198 327.848C374.264 329.443 374.323 331.007 374.411 332.594Z" fill="#37474F"/>
<path d="M342.379 318.419C342.283 320.039 342.239 321.61 342.173 323.198C342.107 324.786 342.071 326.389 342.027 327.985C341.953 331.168 341.909 334.36 341.873 337.551V338.102H342.379C344.667 338.102 346.955 338.102 349.243 338.102C351.531 338.102 353.819 338.102 356.107 338.037C358.395 337.972 360.683 337.94 362.971 337.859C364.115 337.859 365.259 337.762 366.403 337.713C367.547 337.665 368.698 337.608 369.842 337.535C368.698 337.454 367.554 337.397 366.403 337.349C365.251 337.3 364.115 337.235 362.971 337.203C360.683 337.122 358.395 337.073 356.107 337.033C353.819 336.992 351.531 336.968 349.243 336.96C346.955 336.952 344.667 336.96 342.379 336.96L342.877 337.519C342.841 334.327 342.797 331.136 342.723 327.953C342.679 326.333 342.643 324.761 342.577 323.166C342.511 321.57 342.467 320.015 342.379 318.419Z" fill="#37474F"/>
<path d="M370.509 328.99C370.656 327.005 370.759 325.021 370.832 323.036C370.876 322.04 370.898 321.043 370.927 320.055C370.957 319.067 370.964 318.071 370.986 317.074V316.556H370.502C368.823 316.516 367.143 316.516 365.464 316.507C363.785 316.499 362.113 316.507 360.433 316.572C358.754 316.637 357.075 316.661 355.395 316.742C353.716 316.823 352.037 316.929 350.357 317.083C352.037 317.245 353.716 317.35 355.395 317.423C357.075 317.496 358.754 317.569 360.433 317.601C362.113 317.633 363.785 317.641 365.464 317.658C367.143 317.674 368.823 317.658 370.502 317.609L370.025 317.083C370.025 318.079 370.025 319.067 370.084 320.063C370.143 321.06 370.135 322.048 370.179 323.044C370.26 325.021 370.333 327.005 370.509 328.99Z" fill="#37474F"/>
<path d="M346.28 322.024C346.126 324.008 346.023 326.001 345.957 327.985C345.891 329.97 345.833 331.954 345.803 333.939V334.457H346.287C347.981 334.506 349.675 334.498 351.369 334.506C353.063 334.514 354.765 334.506 356.459 334.449C358.153 334.392 359.847 334.36 361.548 334.279C363.249 334.198 364.936 334.093 366.63 333.931C364.936 333.777 363.242 333.671 361.548 333.59C359.854 333.509 358.153 333.445 356.459 333.42C354.765 333.396 353.063 333.372 351.369 333.356C349.675 333.339 347.981 333.356 346.287 333.404L346.764 333.931C346.735 331.949 346.681 329.964 346.603 327.977C346.529 326.001 346.427 324 346.28 322.024Z" fill="#37474F"/>
<path d="M461.201 332.594C461.289 330.974 461.34 329.411 461.406 327.815C461.472 326.219 461.501 324.624 461.553 323.036C461.626 319.845 461.675 316.656 461.699 313.47V312.919H461.193C458.927 312.919 456.661 312.879 454.395 312.919C452.129 312.96 449.863 312.919 447.597 312.984C445.331 313.049 443.073 313.073 440.807 313.154C439.67 313.154 438.541 313.251 437.404 313.3C436.267 313.349 435.138 313.405 434.009 313.486C435.138 313.559 436.275 313.616 437.404 313.664C438.533 313.713 439.67 313.778 440.807 313.81C443.075 313.891 445.339 313.951 447.597 313.988C449.856 314.026 452.122 314.048 454.395 314.053C456.661 314.053 458.927 314.053 461.193 314.053L460.695 313.502C460.724 316.683 460.773 319.872 460.841 323.069C460.885 324.689 460.922 326.252 460.988 327.848C461.054 329.443 461.113 331.007 461.201 332.594Z" fill="#37474F"/>
<path d="M429.169 318.419C429.073 320.039 429.029 321.61 428.963 323.198C428.897 324.786 428.861 326.389 428.817 327.985C428.743 331.168 428.699 334.36 428.663 337.551V338.102H429.169C431.457 338.102 433.745 338.102 436.033 338.102C438.321 338.102 440.609 338.102 442.897 338.037C445.185 337.972 447.473 337.94 449.761 337.859C450.905 337.859 452.049 337.762 453.2 337.713C454.351 337.665 455.488 337.608 456.632 337.535C455.488 337.454 454.344 337.397 453.2 337.349C452.056 337.3 450.905 337.235 449.761 337.203C447.473 337.122 445.185 337.073 442.897 337.033C440.609 336.992 438.321 336.968 436.033 336.96C433.745 336.952 431.457 336.96 429.169 336.96L429.667 337.519C429.667 334.327 429.594 331.136 429.513 327.953C429.469 326.333 429.433 324.761 429.367 323.166C429.301 321.57 429.257 320.015 429.169 318.419Z" fill="#37474F"/>
<path d="M457.299 328.99C457.446 327.005 457.549 325.021 457.622 323.036C457.666 322.04 457.688 321.043 457.717 320.055C457.747 319.067 457.754 318.071 457.776 317.074V316.556H457.292C455.613 316.516 453.933 316.516 452.254 316.507C450.575 316.499 448.903 316.507 447.223 316.572C445.544 316.637 443.865 316.661 442.185 316.742C440.506 316.823 438.827 316.929 437.155 317.083C438.827 317.245 440.506 317.35 442.185 317.423C443.865 317.496 445.544 317.569 447.223 317.601C448.903 317.633 450.575 317.641 452.254 317.658C453.933 317.674 455.613 317.658 457.292 317.609L456.815 317.083C456.815 318.079 456.815 319.067 456.874 320.063C456.933 321.06 456.925 322.048 456.969 323.044C457.05 325.021 457.145 327.005 457.299 328.99Z" fill="#37474F"/>
<path d="M433.07 322.024C432.916 324.008 432.813 326.001 432.747 327.985C432.681 329.97 432.623 331.954 432.593 333.939V334.457H433.077C434.771 334.506 436.465 334.498 438.159 334.506C439.853 334.514 441.555 334.506 443.249 334.449C444.943 334.392 446.637 334.36 448.338 334.279C450.039 334.198 451.726 334.093 453.42 333.931C451.726 333.777 450.032 333.671 448.338 333.59C446.644 333.509 444.943 333.445 443.249 333.42C441.555 333.396 439.861 333.372 438.159 333.356C436.458 333.339 434.771 333.356 433.077 333.404L433.554 333.931C433.525 331.949 433.471 329.964 433.393 327.977C433.319 326.001 433.217 324 433.07 322.024Z" fill="#37474F"/>
<path d="M330.176 299.368H477.914V290.701H330.176V299.368Z" fill="#455A64"/>
<path d="M473.41 299.36H330.176V304.341H473.41V299.36Z" fill="#263238"/>
<g opacity="0.5">
<path d="M473.403 112.598V137.53L334.745 290.693H330.176L317.922 284.326L473.403 112.598Z" fill="#EBEBEB"/>
<path d="M389.253 109.431L309.181 197.875V172.935L366.667 109.431H389.253Z" fill="#EBEBEB"/>
<path d="M408.643 109.431L309.181 219.291V208.891L399.227 109.431H408.643Z" fill="#EBEBEB"/>
<path d="M473.403 208.883V219.275L408.752 290.693H399.336L473.403 208.883Z" fill="#EBEBEB"/>
<path d="M331.753 109.431L309.181 134.363V128.944L326.854 109.431H331.753Z" fill="#EBEBEB"/>
<path d="M473.403 240.408V245.819L432.784 290.693H427.878L473.403 240.408Z" fill="#EBEBEB"/>
<path d="M473.403 147.614V153.033L348.773 290.693H343.875L473.403 147.614Z" fill="#EBEBEB"/>
</g>
<path d="M468.035 155.488V152.523H335.551V155.488H468.035Z" fill="#455A64"/>
<path d="M468.035 222.467V219.502H335.551V222.467H468.035Z" fill="#455A64"/>
<path d="M309.181 144.674V141.709L330.176 152.523V155.488L309.181 144.674Z" fill="#455A64"/>
<path d="M309.181 211.661V208.697L330.176 219.51V222.475L309.181 211.661Z" fill="#455A64"/>
<path d="M468.028 290.701H473.403V109.439H468.028V290.701Z" fill="#455A64"/>
<path d="M473.411 109.431H468.035V123.476H473.411V109.431Z" fill="#263238"/>
<path d="M422.979 290.701H425.663V109.439H422.979V290.701Z" fill="#455A64"/>
<path d="M425.656 109.431H422.972V123.476H425.656V109.431Z" fill="#263238"/>
<path d="M377.923 290.701H380.607V109.439H377.923V290.701Z" fill="#455A64"/>
<path d="M380.6 109.431H377.916V123.476H380.6V109.431Z" fill="#263238"/>
<path d="M330.169 290.701H335.544V109.439H330.169V290.701Z" fill="#455A64"/>
<path d="M335.551 109.431H330.176V123.476H335.551V109.431Z" fill="#263238"/>
<path d="M309.181 109.431H314.556V282.585L309.181 279.79V109.431Z" fill="#455A64"/>
<path d="M314.556 109.431H309.181V123.476H314.556V109.431Z" fill="#263238"/>
<path d="M309.181 109.431H240.805V337.786H309.181V109.431Z" fill="#263238"/>
<path d="M299.009 172.724H250.976V259.443H299.009V172.724Z" fill="white"/>
<path d="M299.009 172.724V183.19L250.976 236.245V211.11L285.721 172.724H299.009Z" fill="#EBEBEB"/>
<path d="M299.01 227.561V252.671L292.879 259.451H270.131L299.01 227.561Z" fill="#EBEBEB"/>
<path d="M299.009 216.537V221.835L264.953 259.451H260.157L299.009 216.537Z" fill="#EBEBEB"/>
<path d="M280.889 172.724L250.976 205.764V195.364L271.473 172.724H280.889Z" fill="#EBEBEB"/>
<path d="M291.273 269.244H255.266V278.551H291.273V269.244Z" fill="#263238"/>
<path d="M304.59 263.598H300.374V278.551H304.59V263.598Z" fill="#A6A6A6"/>
<path d="M251.482 315.819C251.394 314.199 251.343 312.628 251.277 311.032C251.211 309.436 251.181 307.849 251.13 306.253C251.057 303.062 251.008 299.873 250.983 296.687V296.136H251.489C253.755 296.136 256.021 296.096 258.287 296.136C260.553 296.177 262.819 296.136 265.085 296.201C267.351 296.266 269.61 296.298 271.876 296.379C273.013 296.379 274.142 296.468 275.279 296.525C276.415 296.582 277.545 296.63 278.674 296.703C277.545 296.784 276.408 296.833 275.279 296.889C274.149 296.946 273.013 296.995 271.876 297.027C269.61 297.116 267.344 297.165 265.085 297.205C262.827 297.246 260.553 297.27 258.287 297.27C256.021 297.27 253.755 297.27 251.489 297.27L251.988 296.719C251.959 299.911 251.91 303.099 251.841 306.285C251.797 307.905 251.761 309.477 251.695 311.064C251.629 312.652 251.57 314.223 251.482 315.819Z" fill="#37474F"/>
<path d="M298.049 301.636C298.137 303.256 298.188 304.827 298.254 306.423C298.32 308.019 298.349 309.606 298.401 311.202C298.474 314.393 298.523 317.582 298.547 320.768V321.319H298.041C295.753 321.319 293.465 321.359 291.177 321.319C288.889 321.278 286.601 321.319 284.313 321.254C282.025 321.189 279.73 321.157 277.442 321.076C276.298 321.076 275.154 320.987 274.01 320.93C272.866 320.873 271.722 320.833 270.578 320.752C271.722 320.671 272.866 320.622 274.01 320.566C275.154 320.509 276.298 320.46 277.442 320.428C279.73 320.339 282.018 320.29 284.313 320.25C286.609 320.209 288.889 320.185 291.177 320.185C293.465 320.185 295.753 320.185 298.041 320.185L297.543 320.736C297.543 317.544 297.616 314.361 297.697 311.17C297.741 309.55 297.77 307.986 297.843 306.391C297.917 304.795 297.961 303.232 298.049 301.636Z" fill="#37474F"/>
<path d="M255.383 312.206C255.237 310.222 255.134 308.237 255.061 306.253C255.017 305.257 254.995 304.268 254.965 303.272C254.936 302.276 254.929 301.288 254.907 300.291V299.781H255.391C257.07 299.74 258.749 299.781 260.429 299.732C262.108 299.684 263.78 299.732 265.459 299.797C267.139 299.862 268.818 299.886 270.497 299.967C272.177 300.048 273.856 300.154 275.535 300.307C273.856 300.469 272.177 300.575 270.497 300.656C268.818 300.737 267.139 300.793 265.459 300.826C263.78 300.858 262.108 300.874 260.429 300.883C258.749 300.891 257.07 300.883 255.391 300.842L255.867 300.307C255.867 301.304 255.867 302.3 255.809 303.288C255.75 304.276 255.757 305.273 255.713 306.269C255.633 308.237 255.537 310.23 255.383 312.206Z" fill="#37474F"/>
<path d="M294.147 305.249C294.294 307.233 294.397 309.218 294.47 311.202C294.543 313.187 294.595 315.171 294.624 317.164V317.674H294.14C292.446 317.714 290.752 317.674 289.051 317.723C287.349 317.771 285.663 317.723 283.969 317.658C282.275 317.593 280.573 317.569 278.879 317.488C277.185 317.407 275.491 317.301 273.79 317.147C275.491 316.985 277.185 316.88 278.879 316.799C280.573 316.718 282.275 316.661 283.969 316.629C285.663 316.597 287.357 316.58 289.051 316.572C290.745 316.564 292.446 316.572 294.14 316.621L293.663 317.147C293.693 315.155 293.744 313.168 293.817 311.186C293.898 309.218 294.001 307.233 294.147 305.249Z" fill="#37474F"/>
<path d="M299.009 120.909H250.976V161.206H299.009V120.909Z" fill="white"/>
<path d="M299.01 120.909V140.98L280.698 161.206H257.95L294.426 120.909H299.01Z" fill="#EBEBEB"/>
<path d="M272.485 120.909L250.976 144.682V139.36L267.689 120.909H272.485Z" fill="#EBEBEB"/>
<path d="M255.625 120.909L250.976 126.044V120.909H255.625Z" fill="#EBEBEB"/>
<path d="M299.009 148.206V158.598L296.648 161.206H287.239L299.009 148.206Z" fill="#EBEBEB"/>
<path d="M477.928 100.772H72.0793V109.439H477.928V100.772Z" fill="#455A64"/>
<path d="M477.928 50.8923H72.0793V59.5593H477.928V50.8923Z" fill="#455A64"/>
<path d="M473.403 59.5513H76.582V100.764H473.403V59.5513Z" fill="#263238"/>
<path d="M203.72 80.4979V80.4493C203.72 79.6115 204.022 78.808 204.558 78.2155C205.094 77.6231 205.822 77.2903 206.58 77.2903C207.339 77.2903 208.066 77.6231 208.603 78.2155C209.139 78.808 209.44 79.6115 209.44 80.4493V80.4979C209.44 81.3357 209.139 82.1392 208.603 82.7316C208.066 83.3241 207.339 83.6569 206.58 83.6569C205.822 83.6569 205.094 83.3241 204.558 82.7316C204.022 82.1392 203.72 81.3357 203.72 80.4979Z" fill="#EBEBEB"/>
<path d="M341.271 80.4979V80.4493C341.271 79.6115 341.573 78.808 342.109 78.2155C342.646 77.6231 343.373 77.2903 344.131 77.2903C344.89 77.2903 345.617 77.6231 346.154 78.2155C346.69 78.808 346.991 79.6115 346.991 80.4493V80.4979C346.991 81.3357 346.69 82.1392 346.154 82.7316C345.617 83.3241 344.89 83.6569 344.131 83.6569C343.373 83.6569 342.646 83.3241 342.109 82.7316C341.573 82.1392 341.271 81.3357 341.271 80.4979Z" fill="#EBEBEB"/>
<path d="M283.8 183.708C291.72 188.989 296.795 206.469 291.346 220.506C286.733 232.397 271.465 238.326 263.479 234.025C261.71 233.139 260.137 231.836 258.873 230.207C257.608 228.578 256.682 226.663 256.159 224.596C255.636 222.529 255.529 220.361 255.846 218.244C256.163 216.127 256.896 214.112 257.994 212.341C262.277 205.732 269.045 205.473 271.326 199.973C272.419 197.348 272.008 192.472 273.467 188.503C275.066 184.081 279.73 181.003 283.8 183.708Z" fill="#263238"/>
<path d="M277.574 183.919C278.227 183.441 277.978 178.848 274.905 177.439C271.832 176.029 268.965 179.277 271.143 182.534C272.514 184.575 276.188 184.931 277.574 183.919Z" fill="#263238"/>
<path d="M272.558 192.083C272.425 193.819 272.16 195.54 271.766 197.227C271.388 198.951 270.672 200.563 269.669 201.949C269.123 202.615 268.481 203.176 267.769 203.61C267.087 204.055 266.391 204.468 265.701 204.889C264.319 205.692 262.975 206.573 261.675 207.53C260.376 208.462 259.192 209.579 258.155 210.851C257.12 212.129 256.335 213.631 255.851 215.26C255.366 216.89 255.192 218.612 255.339 220.32C255.471 222.044 255.784 223.746 256.271 225.391C255.673 223.773 255.266 222.077 255.061 220.344C254.858 218.59 254.986 216.809 255.435 215.112C255.898 213.404 256.688 211.827 257.752 210.487C258.81 209.165 260.017 208 261.345 207.02C262.672 206.065 264.043 205.186 265.452 204.387C266.141 203.982 266.838 203.577 267.505 203.148C268.179 202.751 268.793 202.24 269.324 201.633C270.331 200.334 271.069 198.808 271.487 197.162C271.953 195.499 272.311 193.802 272.558 192.083Z" fill="#263238"/>
<path d="M285.347 184.939C287.857 187.463 290.001 190.397 291.705 193.639C293.44 196.879 294.607 200.451 295.145 204.169C295.401 206.045 295.443 207.95 295.269 209.839C295.238 210.308 295.184 210.776 295.108 211.24C295.053 211.708 294.978 212.173 294.881 212.633C294.785 213.087 294.697 213.548 294.587 214.002L294.191 215.347C293.031 218.877 291.263 222.125 288.985 224.913C289.469 224.151 289.997 223.422 290.451 222.645C290.906 221.867 291.375 221.089 291.757 220.263C292.583 218.656 293.254 216.956 293.759 215.193C294.792 211.677 295.071 207.945 294.573 204.29C294.065 200.635 292.962 197.111 291.317 193.89C290.51 192.262 289.603 190.698 288.603 189.208C287.611 187.701 286.523 186.275 285.347 184.939Z" fill="#263238"/>
<path d="M271.172 178.103C270.541 179.018 270.215 180.145 270.248 181.294C270.25 181.831 270.38 182.357 270.624 182.821C270.869 183.284 271.22 183.669 271.641 183.935C272.54 184.472 273.554 184.727 274.575 184.672C275.092 184.665 275.607 184.605 276.115 184.494C276.631 184.402 277.128 184.207 277.581 183.919C277.177 184.32 276.699 184.621 276.181 184.801C275.662 184.994 275.126 185.122 274.582 185.182C273.468 185.322 272.342 185.082 271.355 184.494C270.85 184.165 270.435 183.692 270.153 183.125C269.889 182.56 269.768 181.928 269.801 181.294C269.821 180.687 269.953 180.091 270.188 179.542C270.424 178.993 270.759 178.504 271.172 178.103Z" fill="#263238"/>
<path d="M285.949 206.153C294.228 220.231 306.108 244.993 307.626 249.083C308.653 251.886 294.646 256.373 294.206 254.332C293.641 251.748 283.397 223.22 282.407 208.421C281.952 201.69 284.387 203.496 285.949 206.153Z" fill="#EB9481"/>
<path d="M305.638 244.547C309.679 251.764 309.356 260.893 309.041 262.416C308.777 263.72 308.63 264.392 308.63 264.392C308.19 266.733 307.083 267.446 307.083 267.446C307.083 267.446 307.303 270.329 305.748 270.767C304.01 271.261 304.04 267.122 302.815 264.838C299.962 259.597 294.587 253.036 293.626 251.61L305.638 244.547Z" fill="#EB9481"/>
<path d="M303.299 257.029C304.152 258.549 304.91 260.133 305.565 261.768C306.179 263.615 306.67 265.511 307.032 267.438C307.029 267.445 307.028 267.453 307.028 267.461C307.029 267.469 307.031 267.477 307.035 267.484C307.039 267.49 307.045 267.496 307.051 267.5C307.058 267.504 307.065 267.506 307.072 267.506C307.08 267.506 307.087 267.504 307.093 267.5C307.1 267.496 307.105 267.49 307.109 267.484C307.113 267.477 307.116 267.469 307.116 267.461C307.117 267.453 307.116 267.445 307.113 267.438C306.779 263.65 305.511 260.035 303.446 256.989C303.373 256.875 303.263 256.948 303.299 257.029Z" fill="#263238"/>
<path d="M305.917 254.672C307.316 257.713 308.215 261.004 308.572 264.392H308.609C308.596 260.925 307.713 257.529 306.057 254.583C306.005 254.502 305.866 254.567 305.917 254.672Z" fill="#263238"/>
<path d="M299.002 258.763C298.386 258.244 298.137 258.601 298.481 260.075C298.826 261.549 301.312 267.057 299.501 267.851C297.69 268.645 294.272 260.82 293.869 258.317C293.617 256.093 293.531 253.85 293.612 251.61C294.551 252.987 297.125 256.09 299.002 258.763Z" fill="#EB9481"/>
<path d="M291.302 251.416L305.609 242.344C305.609 242.344 292.717 217.372 288.046 208.802C283.646 200.758 280.713 202.119 281.732 210.73C282.751 219.34 291.302 251.416 291.302 251.416Z" fill="#455A64"/>
<path d="M303.402 239.412C299.106 241.672 294.974 244.296 291.045 247.261C291.037 247.271 291.032 247.284 291.031 247.298C291.03 247.312 291.033 247.325 291.039 247.337C291.046 247.349 291.056 247.358 291.067 247.363C291.079 247.368 291.092 247.369 291.104 247.366C295.144 244.612 299.354 242.158 303.431 239.477C303.468 239.452 303.438 239.387 303.402 239.412Z" fill="#263238"/>
<path d="M328.401 356.643C327.411 357.137 298.122 360.401 296.934 359.745C296.479 359.502 291.39 329.719 291.39 329.719L310.361 327.491L314.028 346.931C314.028 346.931 325.761 351.216 326.986 352.091C328.211 352.966 329.391 356.149 328.401 356.643Z" fill="#EB9481"/>
<path d="M296.934 359.745C298.115 360.409 327.411 357.137 328.401 356.643C329.391 356.149 328.189 352.998 326.935 352.123C326.238 351.637 322.227 350.058 318.868 348.778C321.149 349.709 326.047 353.314 312.459 352.828C306.67 352.685 300.891 352.223 295.145 351.443C295.731 356.035 296.545 359.535 296.934 359.745Z" fill="#263238"/>
<path d="M313.207 342.751L293.957 344.452L284.959 293.131C284.753 291.908 270.226 232.948 270.226 232.948H288.867C288.867 232.948 303.739 285.979 304.817 291.073C306.907 300.923 313.207 342.751 313.207 342.751Z" fill="#EB9481"/>
<path d="M274.567 364.306C273.482 364.354 245.234 355.177 244.361 354.067C244.024 353.654 244.992 349.029 246.312 343.481L246.356 343.31C246.62 342.168 252.369 323.352 252.369 323.352L270.431 329.16L264.638 349.005L264.535 349.345C264.535 349.345 273.929 358.198 274.802 359.527C275.674 360.855 275.645 364.265 274.567 364.306Z" fill="#EB9481"/>
<path d="M245.667 346.243C244.699 350.503 244.075 353.727 244.361 354.067C245.234 355.177 273.482 364.354 274.567 364.306C275.653 364.257 275.609 360.847 274.773 359.527C274.259 358.717 270.571 355.112 267.769 352.423C269.639 354.367 272.206 358.903 260.216 353.476C252.824 350.147 248.226 347.709 245.667 346.243Z" fill="#263238"/>
<path d="M289.667 232.948C289.667 232.948 289.19 249.715 286.345 253.198C286.345 253.198 281.615 286.813 280.588 296.168C279.122 309.639 266.501 342.768 266.501 342.768L248.498 336.223C248.498 336.223 261.045 294.71 261.148 293.844C261.72 288.919 266.75 254.753 266.494 253.903C263.854 245.219 267.652 232.964 267.652 232.964L289.667 232.948Z" fill="#EB9481"/>
<path d="M267.615 232.948H289.762C289.762 232.948 305.565 287.364 306.181 291.608C306.181 291.608 296.589 299.416 281.791 299.36C269.969 299.311 258.155 293.269 258.155 293.269C258.155 293.269 264.462 256.341 264.469 256.009C264.477 255.676 263.465 242.417 267.615 232.948Z" fill="#31EA73"/>
<path d="M290.334 228.501L289.601 232.948C289.601 232.948 280.412 235.831 267.601 232.948C267.601 232.948 267.718 213.508 274.479 205.845C277.867 202.022 281.703 202.443 284.086 205.27C284.687 205.983 291.793 217.039 292.468 221.195C293.062 224.856 290.334 228.501 290.334 228.501Z" fill="#31EA73"/>
<path d="M277.97 203.31C277.97 203.31 281.512 224.07 281.791 230.664C282.069 237.257 281.497 252.445 281.497 252.445C281.497 252.445 270.321 252.939 262.929 250.59C262.929 250.59 267.41 217.744 270.849 210.851C274.289 203.958 277.97 203.31 277.97 203.31Z" fill="#455A64"/>
<path d="M282.847 203.982C283.58 205.602 287.877 219.267 288.537 226.662C289.197 234.058 290.004 251.278 290.004 251.278C291.78 250.492 293.343 249.214 294.543 247.568C294.543 247.568 291.009 228.452 290.803 228.258C292.054 226.325 292.723 224.008 292.717 221.632C292.622 219.105 289.498 213.354 286.851 209.182C283.932 204.541 282.847 203.982 282.847 203.982Z" fill="#455A64"/>
<path d="M294.258 245.122L293.862 242.773C293.583 241.153 293.282 239.533 292.974 237.913C292.351 234.673 291.669 231.433 290.943 228.193C291.645 226.985 292.239 225.705 292.718 224.37C293.029 222.909 292.955 221.38 292.505 219.964C292.051 218.498 291.453 217.091 290.723 215.768C290.569 215.339 290.4 214.917 290.224 214.504C290.048 214.091 289.843 213.573 289.623 213.119H289.586C289.74 213.613 290.056 214.423 290.078 214.48C289.462 213.37 288.963 212.423 288.296 211.37C288.259 211.313 288.178 211.37 288.215 211.426C289.802 213.963 291.095 216.708 292.065 219.599C292.573 221.054 292.69 222.641 292.402 224.168C291.95 225.549 291.373 226.876 290.679 228.128C291.31 231.368 291.94 234.689 292.549 237.905C292.85 239.525 293.143 241.088 293.458 242.676L293.898 245.017C294.06 245.827 294.265 246.686 294.448 247.52C294.448 247.593 294.573 247.577 294.566 247.52C294.463 246.718 294.39 245.924 294.258 245.122Z" fill="#263238"/>
<path d="M278.332 248.918L297.763 245.771L294.132 218.418L274.701 221.565L278.332 248.918Z" fill="#DBDBDB"/>
<path d="M278.326 248.911L281.99 248.318L278.36 220.965L274.696 221.558L278.326 248.911Z" fill="#C7C7C7"/>
<path d="M277.662 243.872L281.326 243.279L281.065 241.316L277.401 241.909L277.662 243.872Z" fill="#A6A6A6"/>
<path d="M275.573 228.117L279.237 227.524L278.977 225.561L275.313 226.154L275.573 228.117Z" fill="#A6A6A6"/>
<path d="M276.276 233.401L279.94 232.807L279.455 229.153L275.791 229.746L276.276 233.401Z" fill="#A6A6A6"/>
<path d="M271.663 209.174C261.529 220.927 253.169 245.398 258.038 247.706C262.482 249.812 276.584 247.9 282.377 246.386C284.086 245.94 280.676 231.368 278.857 231.806C276.657 232.381 271.025 233.264 270.791 233.248C270.307 233.207 275.748 216.1 277.391 209.847C279.737 201.163 275.469 204.76 271.663 209.174Z" fill="#EB9481"/>
<path d="M296.406 228.525C296.622 228.931 296.72 229.4 296.688 229.869C296.655 230.339 296.492 230.785 296.222 231.15C296.867 231.486 297.385 232.058 297.689 232.77C298.166 234.074 296.53 235.475 296.53 235.475C297.138 235.988 297.593 236.691 297.836 237.492C298.18 238.796 296.706 240.465 296.706 240.465C297.032 241.277 297.082 242.191 296.846 243.04C296.112 245.284 292.937 246.078 290.906 246.604C288.874 247.131 282.67 246.54 281.475 246.556L278.3 232.227C278.3 232.227 286.792 226.994 289.263 226.743C291.338 226.541 295.533 227.011 296.406 228.525Z" fill="#EB9481"/>
<path d="M296.083 230.939C293.824 230.583 291.595 230.939 289.344 231.231C289.3 231.231 289.307 231.32 289.344 231.312C291.544 231.028 293.832 231.247 296.068 231.061C296.142 231.061 296.142 230.955 296.083 230.939Z" fill="#263238"/>
<path d="M296.457 235.329C295.938 235.301 295.418 235.35 294.91 235.475C294.367 235.564 293.825 235.67 293.282 235.783C292.197 236.002 291.082 236.253 290.041 236.536C289.997 236.536 289.997 236.633 290.041 236.625C291.126 236.407 292.241 236.204 293.297 236.034C293.839 235.945 294.389 235.864 294.932 235.791C295.451 235.756 295.965 235.658 296.465 235.499C296.481 235.493 296.495 235.481 296.504 235.465C296.514 235.449 296.519 235.43 296.518 235.411C296.517 235.392 296.511 235.374 296.5 235.359C296.489 235.345 296.474 235.334 296.457 235.329Z" fill="#263238"/>
<path d="M296.677 240.505C296.208 240.49 295.739 240.562 295.291 240.716L293.825 241.048C292.835 241.267 291.852 241.477 290.891 241.655C290.881 241.655 290.872 241.66 290.865 241.667C290.858 241.675 290.854 241.685 290.854 241.696C290.854 241.707 290.858 241.717 290.865 241.725C290.872 241.732 290.881 241.736 290.891 241.736L293.92 241.226L295.386 240.943C295.846 240.902 296.295 240.773 296.714 240.562L296.677 240.505Z" fill="#263238"/>
<path d="M273.453 232.616L272.719 250.719C272.719 250.719 259.285 250.42 257.085 247.293C254.885 244.166 259.182 225.034 271.612 208.721C276.195 202.711 280.243 201.107 277.024 212.066C273.739 223.252 271.289 232.6 271.341 232.843C271.392 233.086 273.453 232.616 273.453 232.616Z" fill="#455A64"/>
<path d="M276.019 216.78C275.799 217.185 275.609 217.59 275.418 218.036C275.741 216.894 276.063 215.743 276.357 214.593C276.357 214.537 276.291 214.504 276.276 214.553C275.125 217.525 271.143 231.668 270.989 233.239C270.989 233.288 273.343 232.721 273.423 232.664C273.504 232.608 273.504 232.575 273.423 232.559C273.343 232.543 271.751 232.81 271.429 232.77C271.803 231.571 274.56 221.025 274.978 219.575C275.381 218.676 275.77 217.768 276.129 216.845C276.159 216.764 276.056 216.699 276.019 216.78Z" fill="#263238"/>
<path d="M271.201 234.179C270.555 239.388 270.27 244.644 270.351 249.901C270.351 249.982 270.461 249.974 270.468 249.901C270.6 244.66 271.062 239.428 271.275 234.195C271.277 234.185 271.275 234.173 271.269 234.164C271.264 234.155 271.255 234.149 271.245 234.147C271.236 234.145 271.226 234.147 271.217 234.153C271.209 234.159 271.203 234.168 271.201 234.179Z" fill="#263238"/>
<path d="M272.866 248.119C272.866 248.038 272.756 248.038 272.748 248.119C272.704 249.043 272.653 249.739 272.638 250.606C271.905 250.525 264.124 249.909 263.105 249.755C263.024 249.755 263.032 249.82 263.105 249.845C264.337 250.144 272.88 251.189 272.895 251.019C272.946 250.152 272.873 248.994 272.866 248.119Z" fill="#263238"/>
<path d="M278.505 205.375C278.703 205.878 281.549 208.802 283.697 208.235C284.431 208.048 283.653 203.788 283.653 203.788V203.464L283.785 198.863L278.527 196.514L277.794 196.214C277.794 196.214 277.831 197.478 277.889 199.049C277.893 199.122 277.893 199.195 277.889 199.268C277.889 199.357 277.889 199.446 277.889 199.527C277.889 199.762 277.889 200.005 277.889 200.24C277.889 200.475 277.889 200.596 277.889 200.791C277.889 200.985 277.889 201.163 277.926 201.358C278.036 202.71 278.229 204.052 278.505 205.375Z" fill="#EB9481"/>
<path d="M277.882 199.049C278.499 200.205 279.336 201.198 280.335 201.96C281.334 202.722 282.471 203.235 283.668 203.464L283.8 198.863L278.542 196.514L277.809 196.214C277.809 196.214 277.823 197.478 277.882 199.049Z" fill="#263238"/>
<path d="M288.721 191.784C289.718 199.787 285.494 201.35 283.932 201.585C282.509 201.803 277.655 202.33 275.917 194.489C274.179 186.648 277.222 183.603 280.441 182.922C283.661 182.242 287.716 183.781 288.721 191.784Z" fill="#EB9481"/>
<path d="M287.107 190.123C286.931 190.123 286.77 190.123 286.601 190.123C286.422 190.13 286.246 190.076 286.095 189.969C286.054 189.925 286.027 189.867 286.019 189.804C286.011 189.74 286.022 189.676 286.051 189.621C286.123 189.522 286.217 189.446 286.324 189.4C286.431 189.355 286.547 189.341 286.66 189.362C286.896 189.365 287.123 189.463 287.298 189.637C287.326 189.681 287.344 189.731 287.349 189.784C287.355 189.838 287.347 189.891 287.328 189.94C287.309 189.989 287.278 190.032 287.24 190.064C287.201 190.096 287.155 190.117 287.107 190.123Z" fill="#263238"/>
<path d="M282.333 190.909C282.494 190.86 282.651 190.798 282.803 190.723C282.979 190.683 283.139 190.581 283.257 190.431C283.287 190.376 283.298 190.312 283.29 190.248C283.282 190.185 283.255 190.127 283.213 190.083C283.12 190.007 283.011 189.961 282.896 189.948C282.781 189.935 282.666 189.956 282.561 190.01C282.335 190.086 282.142 190.25 282.018 190.472C281.994 190.524 281.984 190.583 281.99 190.642C281.995 190.7 282.016 190.756 282.049 190.802C282.082 190.848 282.127 190.882 282.177 190.901C282.227 190.92 282.282 190.923 282.333 190.909Z" fill="#263238"/>
<path d="M283.558 192.78C283.558 192.78 283.521 192.78 283.558 192.837C283.653 193.379 283.675 194.011 283.257 194.27C283.8 194.125 283.727 193.274 283.558 192.78Z" fill="#263238"/>
<path d="M283.067 192.294C282.267 192.367 282.458 194.133 283.199 194.06C283.939 193.987 283.705 192.229 283.067 192.294Z" fill="#263238"/>
<path d="M282.729 192.432C282.604 192.553 282.487 192.748 282.319 192.788C282.15 192.829 281.959 192.667 281.812 192.505C281.812 192.845 282.003 193.177 282.333 193.185C282.663 193.193 282.817 192.861 282.861 192.513C282.846 192.472 282.78 192.383 282.729 192.432Z" fill="#263238"/>
<path d="M286.403 192.27C286.403 192.27 286.44 192.27 286.447 192.27C286.484 192.82 286.616 193.436 287.085 193.566C286.528 193.59 286.359 192.78 286.403 192.27Z" fill="#263238"/>
<path d="M286.785 191.638C287.569 191.476 287.819 193.258 287.085 193.379C286.352 193.501 286.125 191.784 286.785 191.638Z" fill="#263238"/>
<path d="M287.13 191.703C287.269 191.768 287.416 191.921 287.57 191.905C287.724 191.889 287.848 191.678 287.929 191.476C287.987 191.808 287.929 192.173 287.65 192.286C287.371 192.399 287.159 192.14 287.042 191.816C287.049 191.776 287.078 191.67 287.13 191.703Z" fill="#263238"/>
<path d="M284.211 197.138C284.335 197.251 284.467 197.421 284.651 197.421C284.833 197.402 285.011 197.341 285.171 197.243C285.108 197.357 285.018 197.449 284.91 197.51C284.803 197.572 284.683 197.6 284.563 197.591C284.459 197.57 284.364 197.516 284.288 197.435C284.212 197.355 284.16 197.251 284.137 197.138C284.137 197.138 284.189 197.122 284.211 197.138Z" fill="#263238"/>
<path d="M286 194.862C286.102 195.251 286.186 195.645 286.249 196.044C286.249 196.044 286.176 196.109 286.059 196.133C285.767 196.238 285.455 196.253 285.157 196.176C284.858 196.099 284.584 195.933 284.365 195.696C284.362 195.688 284.361 195.679 284.362 195.67C284.364 195.661 284.367 195.653 284.373 195.646C284.378 195.64 284.385 195.635 284.392 195.632C284.4 195.629 284.408 195.629 284.416 195.631C284.899 195.898 285.447 195.986 285.978 195.882C285.978 195.777 285.597 194.53 285.648 194.513C285.921 194.502 286.195 194.529 286.462 194.594C286.088 192.918 285.472 191.354 285.12 189.645C285.12 189.589 285.186 189.556 285.208 189.645C285.917 191.335 286.469 193.099 286.858 194.91C286.931 195.089 286.176 194.902 286 194.862Z" fill="#263238"/>
<path d="M276.547 194.521C278.337 194.376 278.652 188.276 278.681 187.523C278.681 187.993 278.681 190.504 278.887 190.593C279.078 190.582 279.267 190.536 279.444 190.455C279.435 190.155 279.447 189.854 279.481 189.556C279.556 189.82 279.605 190.091 279.627 190.366L279.95 190.253C279.911 189.613 279.948 188.97 280.06 188.341C280.215 188.913 280.34 189.495 280.434 190.083C281.944 189.524 283.506 189.152 285.091 188.973C285.538 188.973 285.919 188.924 286.264 188.932C286.264 188.195 286.139 187.41 286.191 187.572C286.34 188.012 286.451 188.468 286.521 188.932H287.027C287.027 187.888 286.535 186.243 286.689 186.502C287.168 187.269 287.509 188.13 287.694 189.038C288.347 189.151 288.523 189.281 288.537 189.094C288.275 187.046 287.36 185.168 285.956 183.797C283.631 181.561 279.151 181.165 276.753 184.858C275.56 185.842 274.75 187.29 274.487 188.908C274.267 191.314 275.521 194.602 276.547 194.521Z" fill="#263238"/>
<path d="M277.376 194.805C277.376 194.805 275.77 192.294 274.736 192.926C273.702 193.558 274.912 197.203 276.129 197.705C276.282 197.78 276.447 197.821 276.614 197.824C276.781 197.827 276.947 197.792 277.102 197.723C277.257 197.653 277.397 197.55 277.515 197.418C277.633 197.287 277.725 197.131 277.787 196.96L277.376 194.805Z" fill="#EB9481"/>
<path d="M275.11 193.963C275.501 194.177 275.848 194.479 276.127 194.85C276.406 195.221 276.612 195.653 276.731 196.117C276.681 196.024 276.613 195.943 276.532 195.881C276.452 195.818 276.36 195.776 276.263 195.757C276.166 195.738 276.067 195.742 275.971 195.769C275.876 195.796 275.787 195.846 275.711 195.915C275.711 195.915 275.711 195.971 275.711 195.963C275.86 195.906 276.022 195.903 276.173 195.956C276.324 196.009 276.455 196.113 276.547 196.255C276.707 196.486 276.842 196.736 276.951 197C276.987 197.089 277.127 197.041 277.097 196.943C277.127 195.753 276.276 194.076 275.11 193.963Z" fill="#263238"/>
<path d="M236.502 84.098C235.587 84.098 234.747 83.8833 233.982 83.454C233.217 83.0247 232.61 82.432 232.162 81.676C231.714 80.9107 231.49 80.0473 231.49 79.086C231.49 78.134 231.714 77.28 232.162 76.524C232.61 75.7587 233.217 75.1613 233.982 74.732C234.747 74.3027 235.587 74.088 236.502 74.088C237.426 74.088 238.266 74.3027 239.022 74.732C239.787 75.1613 240.389 75.7587 240.828 76.524C241.276 77.28 241.5 78.134 241.5 79.086C241.5 80.0473 241.276 80.9107 240.828 81.676C240.389 82.432 239.787 83.0247 239.022 83.454C238.257 83.8833 237.417 84.098 236.502 84.098ZM236.502 82.348C237.09 82.348 237.608 82.2173 238.056 81.956C238.504 81.6853 238.854 81.3027 239.106 80.808C239.358 80.3133 239.484 79.7393 239.484 79.086C239.484 78.4327 239.358 77.8633 239.106 77.378C238.854 76.8833 238.504 76.5053 238.056 76.244C237.608 75.9827 237.09 75.852 236.502 75.852C235.914 75.852 235.391 75.9827 234.934 76.244C234.486 76.5053 234.136 76.8833 233.884 77.378C233.632 77.8633 233.506 78.4327 233.506 79.086C233.506 79.7393 233.632 80.3133 233.884 80.808C234.136 81.3027 234.486 81.6853 234.934 81.956C235.391 82.2173 235.914 82.348 236.502 82.348ZM250.084 77.252C250.084 77.7747 249.958 78.2647 249.706 78.722C249.464 79.1793 249.076 79.548 248.544 79.828C248.022 80.108 247.359 80.248 246.556 80.248H244.918V84H242.958V74.228H246.556C247.312 74.228 247.956 74.3587 248.488 74.62C249.02 74.8813 249.417 75.2407 249.678 75.698C249.949 76.1553 250.084 76.6733 250.084 77.252ZM246.472 78.666C247.014 78.666 247.415 78.5447 247.676 78.302C247.938 78.05 248.068 77.7 248.068 77.252C248.068 76.3 247.536 75.824 246.472 75.824H244.918V78.666H246.472ZM253.436 75.81V78.26H256.726V79.814H253.436V82.404H257.146V84H251.476V74.214H257.146V75.81H253.436ZM267.285 84H265.325L260.887 77.294V84H258.927V74.214H260.887L265.325 80.934V74.214H267.285V84ZM274.766 78.988C275.317 79.0907 275.769 79.366 276.124 79.814C276.479 80.262 276.656 80.7753 276.656 81.354C276.656 81.8767 276.525 82.3387 276.264 82.74C276.012 83.132 275.643 83.44 275.158 83.664C274.673 83.888 274.099 84 273.436 84H269.222V74.228H273.254C273.917 74.228 274.486 74.3353 274.962 74.55C275.447 74.7647 275.811 75.0633 276.054 75.446C276.306 75.8287 276.432 76.2627 276.432 76.748C276.432 77.3173 276.278 77.7933 275.97 78.176C275.671 78.5587 275.27 78.8293 274.766 78.988ZM271.182 78.26H272.974C273.441 78.26 273.8 78.1573 274.052 77.952C274.304 77.7373 274.43 77.434 274.43 77.042C274.43 76.65 274.304 76.3467 274.052 76.132C273.8 75.9173 273.441 75.81 272.974 75.81H271.182V78.26ZM273.156 82.404C273.632 82.404 274.001 82.292 274.262 82.068C274.533 81.844 274.668 81.5267 274.668 81.116C274.668 80.696 274.528 80.3693 274.248 80.136C273.968 79.8933 273.59 79.772 273.114 79.772H271.182V82.404H273.156ZM282.754 84.098C281.839 84.098 280.999 83.8833 280.234 83.454C279.469 83.0247 278.862 82.432 278.414 81.676C277.966 80.9107 277.742 80.0473 277.742 79.086C277.742 78.134 277.966 77.28 278.414 76.524C278.862 75.7587 279.469 75.1613 280.234 74.732C280.999 74.3027 281.839 74.088 282.754 74.088C283.678 74.088 284.518 74.3027 285.274 74.732C286.039 75.1613 286.641 75.7587 287.08 76.524C287.528 77.28 287.752 78.134 287.752 79.086C287.752 80.0473 287.528 80.9107 287.08 81.676C286.641 82.432 286.039 83.0247 285.274 83.454C284.509 83.8833 283.669 84.098 282.754 84.098ZM282.754 82.348C283.342 82.348 283.86 82.2173 284.308 81.956C284.756 81.6853 285.106 81.3027 285.358 80.808C285.61 80.3133 285.736 79.7393 285.736 79.086C285.736 78.4327 285.61 77.8633 285.358 77.378C285.106 76.8833 284.756 76.5053 284.308 76.244C283.86 75.9827 283.342 75.852 282.754 75.852C282.166 75.852 281.643 75.9827 281.186 76.244C280.738 76.5053 280.388 76.8833 280.136 77.378C279.884 77.8633 279.758 78.4327 279.758 79.086C279.758 79.7393 279.884 80.3133 280.136 80.808C280.388 81.3027 280.738 81.6853 281.186 81.956C281.643 82.2173 282.166 82.348 282.754 82.348ZM293.746 84.098C292.831 84.098 291.991 83.8833 291.226 83.454C290.461 83.0247 289.854 82.432 289.406 81.676C288.958 80.9107 288.734 80.0473 288.734 79.086C288.734 78.134 288.958 77.28 289.406 76.524C289.854 75.7587 290.461 75.1613 291.226 74.732C291.991 74.3027 292.831 74.088 293.746 74.088C294.67 74.088 295.51 74.3027 296.266 74.732C297.031 75.1613 297.633 75.7587 298.072 76.524C298.52 77.28 298.744 78.134 298.744 79.086C298.744 80.0473 298.52 80.9107 298.072 81.676C297.633 82.432 297.031 83.0247 296.266 83.454C295.501 83.8833 294.661 84.098 293.746 84.098ZM293.746 82.348C294.334 82.348 294.852 82.2173 295.3 81.956C295.748 81.6853 296.098 81.3027 296.35 80.808C296.602 80.3133 296.728 79.7393 296.728 79.086C296.728 78.4327 296.602 77.8633 296.35 77.378C296.098 76.8833 295.748 76.5053 295.3 76.244C294.852 75.9827 294.334 75.852 293.746 75.852C293.158 75.852 292.635 75.9827 292.178 76.244C291.73 76.5053 291.38 76.8833 291.128 77.378C290.876 77.8633 290.75 78.4327 290.75 79.086C290.75 79.7393 290.876 80.3133 291.128 80.808C291.38 81.3027 291.73 81.6853 292.178 81.956C292.635 82.2173 293.158 82.348 293.746 82.348ZM305.718 84L302.162 79.646V84H300.202V74.228H302.162V78.61L305.718 74.228H308.084L304.052 79.072L308.196 84H305.718Z" fill="white"/>
</svg>
